<svg width="24" height="24" viewBox="0 0 24 24" fill="none" xmlns="http://www.w3.org/2000/svg">
<path d="M9 9.99999V16M5 13C5 16.866 8.13401 20 12 20C15.866 20 19 16.866 19 13C19 9.134 15.866 5.99999 12 5.99999H6M7 7.99999L5.70711 6.7071C5.31659 6.31658 5.31659 5.68341 5.70711 5.29289L7 4M13 9.99999H14C14.5523 9.99999 15 10.4477 15 11V15C15 15.5523 14.5523 16 14 16H13C12.4477 16 12 15.5523 12 15V11C12 10.4477 12.4477 9.99999 13 9.99999Z" stroke="black" stroke-width="1.5" stroke-linecap="round" stroke-linejoin="round"/>
</svg>
