<svg width="24" height="24" viewBox="0 0 24 24" fill="none" xmlns="http://www.w3.org/2000/svg">
<path d="M20 12H20.75H20ZM12 4V4.75V4ZM7.25 11C7.25 11.4142 7.58579 11.75 8 11.75C8.41421 11.75 8.75 11.4142 8.75 11H7.25ZM8 14.4615L7.49907 13.9034C7.26781 14.1109 7.18848 14.4396 7.29959 14.7297C7.41071 15.0199 7.68927 15.2115 8 15.2115V14.4615ZM11 15.2115C11.4142 15.2115 11.75 14.8758 11.75 14.4615C11.75 14.0473 11.4142 13.7115 11 13.7115V15.2115ZM10.4275 12.283L9.92657 11.7248L10.4275 12.283ZM14.25 9.5C14.25 9.08579 13.9142 8.75 13.5 8.75C13.0858 8.75 12.75 9.08579 12.75 9.5H14.25ZM16.5 13.25C16.9142 13.25 17.25 12.9142 17.25 12.5C17.25 12.0858 16.9142 11.75 16.5 11.75V13.25ZM17.25 9.5C17.25 9.08579 16.9142 8.75 16.5 8.75C16.0858 8.75 15.75 9.08579 15.75 9.5H17.25ZM15.75 14.5C15.75 14.9142 16.0858 15.25 16.5 15.25C16.9142 15.25 17.25 14.9142 17.25 14.5H15.75ZM19.25 12C19.25 16.0041 16.0041 19.25 12 19.25V20.75C16.8325 20.75 20.75 16.8325 20.75 12H19.25ZM12 19.25C7.99594 19.25 4.75 16.0041 4.75 12H3.25C3.25 16.8325 7.16751 20.75 12 20.75V19.25ZM4.75 12C4.75 7.99594 7.99594 4.75 12 4.75V3.25C7.16751 3.25 3.25 7.16751 3.25 12H4.75ZM12 4.75C16.0041 4.75 19.25 7.99594 19.25 12H20.75C20.75 7.16751 16.8325 3.25 12 3.25V4.75ZM8.75 11C8.75 10.5465 9.10357 10.2115 9.5 10.2115V8.71154C8.23957 8.71154 7.25 9.75413 7.25 11H8.75ZM9.5 10.2115C9.89643 10.2115 10.25 10.5465 10.25 11H11.75C11.75 9.75413 10.7604 8.71154 9.5 8.71154V10.2115ZM8 15.2115H11V13.7115H8V15.2115ZM9.92657 11.7248L7.49907 13.9034L8.50093 15.0197L10.9284 12.8412L9.92657 11.7248ZM10.25 11C10.25 11.2766 10.1324 11.5401 9.92657 11.7248L10.9284 12.8412C11.4513 12.372 11.75 11.7025 11.75 11H10.25ZM12.75 9.5V11.5H14.25V9.5H12.75ZM14.5 13.25H16.5V11.75H14.5V13.25ZM12.75 11.5C12.75 12.4665 13.5335 13.25 14.5 13.25V11.75C14.3619 11.75 14.25 11.6381 14.25 11.5H12.75ZM15.75 9.5V14.5H17.25V9.5H15.75Z" fill="black"/>
</svg>
