<svg width="24" height="24" viewBox="0 0 24 24" fill="none" xmlns="http://www.w3.org/2000/svg">
<path d="M7.58778 17.0012H6C4.89543 17.0012 4 16.1058 4 15.0012V7C4 5.89543 4.89543 5 6 5H12C13.1046 5 14 5.89543 14 7M14 7V17.0012M14 7H16.1716C16.702 7 17.2107 7.21071 17.5858 7.58579L19.4142 9.41422C19.7893 9.78929 20 10.298 20 10.8284V16.0012C20 16.5535 19.5523 17.0012 19 17.0012H18.5M14 17.0012H11M14 17.0012H15.5878M9 8.00061V12.0006M11 10.0006H7M17 12.0006H20M10.5 17.5012C10.5 18.3296 9.82843 19.0012 9 19.0012C8.17157 19.0012 7.5 18.3296 7.5 17.5012C7.5 16.6728 8.17157 16.0012 9 16.0012C9.82843 16.0012 10.5 16.6728 10.5 17.5012ZM18.5 17.5012C18.5 18.3296 17.8284 19.0012 17 19.0012C16.1716 19.0012 15.5 18.3296 15.5 17.5012C15.5 16.6728 16.1716 16.0012 17 16.0012C17.8284 16.0012 18.5 16.6728 18.5 17.5012Z" stroke="black" stroke-width="1.5" stroke-linecap="round" stroke-linejoin="round"/>
</svg>
