<svg width="24" height="24" viewBox="0 0 24 24" fill="none" xmlns="http://www.w3.org/2000/svg">
<path d="M12.5 7C12.5 7.27614 12.2761 7.5 12 7.5C11.7239 7.5 11.5 7.27614 11.5 7C11.5 6.72386 11.7239 6.5 12 6.5C12.2761 6.5 12.5 6.72386 12.5 7Z" fill="black"/>
<path d="M8.5 10C8.5 10.2761 8.27614 10.5 8 10.5C7.72386 10.5 7.5 10.2761 7.5 10C7.5 9.72386 7.72386 9.5 8 9.5C8.27614 9.5 8.5 9.72386 8.5 10Z" fill="black"/>
<path d="M9 15C9 15.2761 8.77614 15.5 8.5 15.5C8.22386 15.5 8 15.2761 8 15C8 14.7239 8.22386 14.5 8.5 14.5C8.77614 14.5 9 14.7239 9 15Z" fill="black"/>
<path d="M17 10C17 10.2761 16.7761 10.5 16.5 10.5C16.2239 10.5 16 10.2761 16 10C16 9.72386 16.2239 9.5 16.5 9.5C16.7761 9.5 17 9.72386 17 10Z" fill="black"/>
<path d="M17.3964 15C18.6186 15 19.7729 14.2616 19.9317 13.0498C19.9768 12.7062 20 12.3558 20 12C20 7.58172 16.4183 4 12 4C7.58172 4 4 7.58172 4 12C4 16.4183 7.58172 20 12 20C12.0594 20 12.2109 19.9994 12.4223 19.9981C13.9812 19.9886 14.7297 18.3698 13.7484 17.1584C13.0469 16.2924 13.6632 15 14.7777 15H17.3964Z" stroke="black" stroke-width="1.5" stroke-linejoin="round"/>
<path d="M12.5 7C12.5 7.27614 12.2761 7.5 12 7.5C11.7239 7.5 11.5 7.27614 11.5 7C11.5 6.72386 11.7239 6.5 12 6.5C12.2761 6.5 12.5 6.72386 12.5 7Z" stroke="black" stroke-width="1.5" stroke-linejoin="round"/>
<path d="M8.5 10C8.5 10.2761 8.27614 10.5 8 10.5C7.72386 10.5 7.5 10.2761 7.5 10C7.5 9.72386 7.72386 9.5 8 9.5C8.27614 9.5 8.5 9.72386 8.5 10Z" stroke="black" stroke-width="1.5" stroke-linejoin="round"/>
<path d="M9 15C9 15.2761 8.77614 15.5 8.5 15.5C8.22386 15.5 8 15.2761 8 15C8 14.7239 8.22386 14.5 8.5 14.5C8.77614 14.5 9 14.7239 9 15Z" stroke="black" stroke-width="1.5" stroke-linejoin="round"/>
<path d="M17 10C17 10.2761 16.7761 10.5 16.5 10.5C16.2239 10.5 16 10.2761 16 10C16 9.72386 16.2239 9.5 16.5 9.5C16.7761 9.5 17 9.72386 17 10Z" stroke="black" stroke-width="1.5" stroke-linejoin="round"/>
</svg>
