<svg width="24" height="24" viewBox="0 0 24 24" fill="none" xmlns="http://www.w3.org/2000/svg">
<path d="M17 7V18C17 19.1046 16.1046 20 15 20H9C7.89543 20 7 19.1046 7 18V7M13.5 10.5H11.25C10.5596 10.5 10 11.0596 10 11.75C10 12.4404 10.5596 13 11.25 13H12.75C13.4404 13 14 13.5596 14 14.25C14 14.9404 13.4404 15.5 12.75 15.5H10.5M12 9.5V10M12 16V16.5M7 10H6C4.89543 10 4 9.10457 4 8V6C4 4.89543 4.89543 4 6 4H18C19.1046 4 20 4.89543 20 6V8C20 9.10457 19.1046 10 18 10H17" stroke="black" stroke-width="1.5" stroke-linecap="round" stroke-linejoin="round"/>
</svg>
