<svg width="24" height="24" viewBox="0 0 24 24" fill="none" xmlns="http://www.w3.org/2000/svg">
<path d="M11.9996 6L10.9996 8H12.9996L11.9996 10M16.9996 4L15.9996 6H17.9996L16.9996 8M6.99959 4L5.99959 6H7.99959L6.99959 8M17.9996 13H14.9996M8.99959 13H5.99959M5.99959 10H8.99959V14C8.99959 15.6569 10.3427 17 11.9996 17C13.6564 17 14.9996 15.6569 14.9996 14V10H17.9996L18.3031 13.0347C18.676 16.764 15.7475 20 11.9996 20C8.25172 20 5.32319 16.764 5.69612 13.0347L5.99959 10Z" stroke="black" stroke-width="1.5" stroke-linecap="round" stroke-linejoin="round"/>
</svg>
