<svg width="24" height="24" viewBox="0 0 24 24" fill="none" xmlns="http://www.w3.org/2000/svg">
<path d="M7 8V7.25H6.25V8H7ZM17 8H17.75V7.25H17V8ZM14.75 4C14.75 3.58579 14.4142 3.25 14 3.25C13.5858 3.25 13.25 3.58579 13.25 4L14.75 4ZM13.25 11C13.25 11.4142 13.5858 11.75 14 11.75C14.4142 11.75 14.75 11.4142 14.75 11H13.25ZM13.75 15C13.75 14.5858 13.4142 14.25 13 14.25C12.5858 14.25 12.25 14.5858 12.25 15H13.75ZM12.25 16C12.25 16.4142 12.5858 16.75 13 16.75C13.4142 16.75 13.75 16.4142 13.75 16H12.25ZM10.75 4C10.75 3.58579 10.4142 3.25 10 3.25C9.58579 3.25 9.25 3.58579 9.25 4L10.75 4ZM9.25 11C9.25 11.4142 9.58579 11.75 10 11.75C10.4142 11.75 10.75 11.4142 10.75 11H9.25ZM14 15.75C14.4142 15.75 14.75 15.4142 14.75 15C14.75 14.5858 14.4142 14.25 14 14.25V15.75ZM10 14.25C9.58579 14.25 9.25 14.5858 9.25 15C9.25 15.4142 9.58579 15.75 10 15.75V14.25ZM6 4.75H18V3.25H6V4.75ZM18.25 5V7H19.75V5H18.25ZM18 7.25H6V8.75H18V7.25ZM5.75 7V5H4.25V7H5.75ZM6 7.25C5.86193 7.25 5.75 7.13807 5.75 7H4.25C4.25 7.9665 5.0335 8.75 6 8.75V7.25ZM18.25 7C18.25 7.13807 18.1381 7.25 18 7.25V8.75C18.9665 8.75 19.75 7.9665 19.75 7H18.25ZM18 4.75C18.1381 4.75 18.25 4.86193 18.25 5H19.75C19.75 4.0335 18.9665 3.25 18 3.25V4.75ZM6 3.25C5.0335 3.25 4.25 4.0335 4.25 5H5.75C5.75 4.86193 5.86193 4.75 6 4.75V3.25ZM17 14.75H19V13.25H17V14.75ZM19.25 15V17H20.75V15H19.25ZM17 19.25H14V20.75H17V19.25ZM19.25 17C19.25 18.2426 18.2426 19.25 17 19.25V20.75C19.0711 20.75 20.75 19.0711 20.75 17H19.25ZM19 14.75C19.1381 14.75 19.25 14.8619 19.25 15H20.75C20.75 14.0335 19.9665 13.25 19 13.25V14.75ZM7 13.25H5V14.75H7V13.25ZM3.25 15V17H4.75V15H3.25ZM7 20.75H10V19.25H7V20.75ZM3.25 17C3.25 19.0711 4.92893 20.75 7 20.75V19.25C5.75736 19.25 4.75 18.2426 4.75 17H3.25ZM5 13.25C4.0335 13.25 3.25 14.0335 3.25 15H4.75C4.75 14.8619 4.86193 14.75 5 14.75V13.25ZM7 8.75H17V7.25H7V8.75ZM16.25 8V17H17.75V8H16.25ZM14 19.25H10V20.75H14V19.25ZM7.75 17V8H6.25V17H7.75ZM10 19.25C8.75736 19.25 7.75 18.2426 7.75 17H6.25C6.25 19.0711 7.92893 20.75 10 20.75V19.25ZM16.25 17C16.25 18.2426 15.2426 19.25 14 19.25V20.75C16.0711 20.75 17.75 19.0711 17.75 17H16.25ZM13.25 4L13.25 11H14.75L14.75 4L13.25 4ZM12.25 15V16H13.75V15H12.25ZM9.25 4L9.25 11H10.75L10.75 4L9.25 4ZM14 14.25L10 14.25V15.75L14 15.75V14.25Z" fill="black"/>
</svg>
