<svg width="24" height="24" viewBox="0 0 24 24" fill="none" xmlns="http://www.w3.org/2000/svg">
<path d="M4 5.25C3.58579 5.25 3.25 5.58579 3.25 6C3.25 6.41421 3.58579 6.75 4 6.75V5.25ZM20 6.75C20.4142 6.75 20.75 6.41421 20.75 6C20.75 5.58579 20.4142 5.25 20 5.25V6.75ZM11.25 17C11.25 17.4142 11.5858 17.75 12 17.75C12.4142 17.75 12.75 17.4142 12.75 17H11.25ZM19.768 12.9358L19.1054 12.5844L19.768 12.9358ZM16.232 12.9358L15.5694 13.2872L16.232 12.9358ZM16.3079 11.0763L17.0194 11.3135L16.3079 11.0763ZM18 6L18.7115 5.76283C18.6094 5.45657 18.3228 5.25 18 5.25C17.6772 5.25 17.3906 5.45657 17.2885 5.76283L18 6ZM19.6921 11.0763L18.9806 11.3135L19.6921 11.0763ZM7.76801 12.9358L7.10544 12.5844L7.76801 12.9358ZM4.23199 12.9358L3.56941 13.2872H3.56941L4.23199 12.9358ZM4.3079 11.0763L5.01941 11.3135L4.3079 11.0763ZM6 6L6.71151 5.76283C6.60943 5.45657 6.32282 5.25 6 5.25C5.67718 5.25 5.39057 5.45657 5.28849 5.76283L6 6ZM7.6921 11.0763L6.98059 11.3135H6.98059L7.6921 11.0763ZM18 20V20.75C18.4142 20.75 18.75 20.4142 18.75 20H18ZM6 20H5.25C5.25 20.4142 5.58579 20.75 6 20.75V20ZM4 6.75H10V5.25H4V6.75ZM14 6.75H20V5.25H14V6.75ZM11.25 8L11.25 17H12.75L12.75 8H11.25ZM19.1054 12.5844C18.8946 12.9819 18.478 13.25 18 13.25V14.75C19.055 14.75 19.9699 14.1557 20.4306 13.2872L19.1054 12.5844ZM18 13.25C17.522 13.25 17.1054 12.9819 16.8946 12.5844L15.5694 13.2872C16.0301 14.1557 16.945 14.75 18 14.75V13.25ZM17.0194 11.3135L18.7115 6.23717L17.2885 5.76283L15.5964 10.8391L17.0194 11.3135ZM17.2885 6.23717L18.9806 11.3135L20.4036 10.8391L18.7115 5.76283L17.2885 6.23717ZM16.8946 12.5844C16.7609 12.3324 16.8052 11.9561 17.0194 11.3135L15.5964 10.8391C15.4027 11.4201 15.0987 12.3998 15.5694 13.2872L16.8946 12.5844ZM20.4306 13.2872C20.9013 12.3998 20.5973 11.4201 20.4036 10.8391L18.9806 11.3135C19.1948 11.9561 19.2391 12.3324 19.1054 12.5844L20.4306 13.2872ZM7.10544 12.5844C6.89459 12.9819 6.47801 13.25 6 13.25V14.75C7.05496 14.75 7.96993 14.1557 8.43059 13.2872L7.10544 12.5844ZM6 13.25C5.52199 13.25 5.10541 12.9819 4.89456 12.5844L3.56941 13.2872C4.03007 14.1557 4.94504 14.75 6 14.75V13.25ZM5.01941 11.3135L6.71151 6.23717L5.28849 5.76283L3.59639 10.8391L5.01941 11.3135ZM5.28849 6.23717L6.98059 11.3135L8.40361 10.8391L6.71151 5.76283L5.28849 6.23717ZM4.89456 12.5844C4.76089 12.3324 4.80522 11.9561 5.01941 11.3135L3.59639 10.8391C3.40272 11.4201 3.09873 12.3998 3.56941 13.2872L4.89456 12.5844ZM8.43059 13.2872C8.90127 12.3998 8.59728 11.4201 8.40361 10.8391L6.98059 11.3135C7.19478 11.9561 7.23911 12.3324 7.10544 12.5844L8.43059 13.2872ZM13.25 6C13.25 6.69036 12.6904 7.25 12 7.25V8.75C13.5188 8.75 14.75 7.51878 14.75 6H13.25ZM12 7.25C11.3096 7.25 10.75 6.69036 10.75 6H9.25C9.25 7.51878 10.4812 8.75 12 8.75V7.25ZM10.75 6C10.75 5.30964 11.3096 4.75 12 4.75V3.25C10.4812 3.25 9.25 4.48122 9.25 6H10.75ZM12 4.75C12.6904 4.75 13.25 5.30964 13.25 6H14.75C14.75 4.48122 13.5188 3.25 12 3.25V4.75ZM8 17.75H16V16.25H8V17.75ZM17.25 19V20H18.75V19H17.25ZM18 19.25H6V20.75H18V19.25ZM6.75 20V19H5.25V20H6.75ZM16 17.75C16.6904 17.75 17.25 18.3096 17.25 19H18.75C18.75 17.4812 17.5188 16.25 16 16.25V17.75ZM8 16.25C6.48122 16.25 5.25 17.4812 5.25 19H6.75C6.75 18.3096 7.30964 17.75 8 17.75V16.25Z" fill="black"/>
</svg>
