<svg width="24" height="24" viewBox="0 0 24 24" fill="none" xmlns="http://www.w3.org/2000/svg">
<path d="M6.084 11.6221L4.76905 10.3071C3.23975 8.77782 3.23975 6.29834 4.76905 4.76905C6.29835 3.23975 8.77783 3.23975 10.3071 4.76905L11.6221 6.084M17.1601 11.6221L18.4751 12.937C20.0044 14.4663 20.0044 16.9458 18.4751 18.4751C16.9458 20.0044 14.4663 20.0044 12.937 18.4751L11.6221 17.1601M12.6221 8.62208L14.6221 10.6221M8.62207 12.6221L10.6221 14.6221M11 11L12 12M18.4751 4.76904C20.0044 6.29834 20.0044 8.77783 18.4751 10.3071L10.3071 18.4751C8.77783 20.0044 6.29835 20.0044 4.76905 18.4751C3.23975 16.9458 3.23975 14.4663 4.76904 12.937L12.937 4.76904C14.4663 3.23975 16.9458 3.23975 18.4751 4.76904Z" stroke="black" stroke-width="1.5" stroke-linecap="round" stroke-linejoin="round"/>
</svg>
