<svg width="24" height="24" viewBox="0 0 24 24" fill="none" xmlns="http://www.w3.org/2000/svg">
<path d="M12.5 7.5C12.5 7.77614 12.2761 8 12 8C11.7239 8 11.5 7.77614 11.5 7.5C11.5 7.22386 11.7239 7 12 7C12.2761 7 12.5 7.22386 12.5 7.5Z" fill="black"/>
<path d="M18 11H6M18 11C19.1046 11 20 10.1046 20 9V8.386C20 7.55231 19.4829 6.80607 18.7022 6.51334L13.4045 4.52669C12.499 4.18711 11.501 4.18711 10.5955 4.52669L5.29775 6.51334C4.51715 6.80607 4 7.55231 4 8.386V9C4 10.1046 4.89543 11 6 11M18 11H14V17H18V11ZM6 11H10V17H6V11ZM5.38743 20H18.6126C19.2951 20 19.7771 19.3313 19.5613 18.6838L19.2279 17.6838C19.0918 17.2754 18.7097 17 18.2792 17H5.72076C5.29033 17 4.90819 17.2754 4.77208 17.6838L4.43874 18.6838C4.2229 19.3313 4.70487 20 5.38743 20ZM12.5 7.5C12.5 7.77614 12.2761 8 12 8C11.7239 8 11.5 7.77614 11.5 7.5C11.5 7.22386 11.7239 7 12 7C12.2761 7 12.5 7.22386 12.5 7.5Z" stroke="black" stroke-width="1.5" stroke-linejoin="round"/>
</svg>
