<svg width="24" height="24" viewBox="0 0 24 24" fill="none" xmlns="http://www.w3.org/2000/svg">
<path fill-rule="evenodd" clip-rule="evenodd" d="M2.00064 2.0325C2.014 2.05055 2.58427 2.84955 3.26792 3.80808L4.51099 5.55095H6.58184C7.91927 5.55095 8.65263 5.54186 8.65263 5.52529C8.65263 5.5112 8.09234 4.71522 7.40754 3.75641L6.16238 2.01304L4.06941 2.00642C2.39299 2.00106 1.98129 2.0062 2.00064 2.0325ZM17.4878 2.50264C17.291 2.77905 16.729 3.56649 16.2388 4.25242C15.7486 4.93842 15.3475 5.5112 15.3475 5.52529C15.3475 5.54186 16.0794 5.55095 17.4183 5.55095H19.4892L20.7322 3.80808C21.4159 2.84955 21.9862 2.05062 21.9994 2.03264C22.0186 2.00663 21.6018 2 19.9345 2H17.8454L17.4878 2.50264ZM7.51229 10.3152C7.52005 10.3363 8.04783 11.1265 8.68514 12.0711C9.32253 13.0156 9.85847 13.813 9.87627 13.843C9.90609 13.8932 9.69706 14.2112 7.22422 17.877C5.74785 20.0657 4.51969 21.8887 4.495 21.9282L4.45015 22H6.5349H8.61965L10.3018 19.5065C11.2269 18.1351 11.992 17.013 12.0019 17.013C12.0118 17.013 12.7767 18.1351 13.7018 19.5065L15.3836 22H17.464C18.6081 22 19.5443 21.9942 19.5443 21.9872C19.5443 21.9801 18.3189 20.1584 16.8213 17.9387C15.3238 15.7192 14.0984 13.8975 14.0984 13.8906C14.0984 13.8838 14.6372 13.0799 15.2957 12.1042C15.9541 11.1285 16.5 10.3182 16.5087 10.3035C16.5195 10.2853 15.0846 10.2768 12.0113 10.2768C8.04897 10.2768 7.49995 10.2814 7.51229 10.3152Z" fill="#131214"/>
</svg>
