<svg width="24" height="24" viewBox="0 0 24 24" fill="none" xmlns="http://www.w3.org/2000/svg">
<path d="M5 14.5H19C19.5523 14.5 20 14.0523 20 13.5V10.5C20 9.94772 19.5523 9.5 19 9.5H5M5 14.5C4.44771 14.5 4 14.0523 4 13.5V10.5C4 9.94772 4.44771 9.5 5 9.5M5 14.5C4.44771 14.5 4 14.9477 4 15.5V18.5C4 19.0523 4.44772 19.5 5 19.5H13.995C14.5473 19.5 14.995 19.0523 14.995 18.5V15.5C14.995 14.9477 14.5473 14.5 13.995 14.5H5ZM5 9.5H9C9.55228 9.5 10 9.05228 10 8.5V5.5C10 4.94772 9.55228 4.5 9 4.5H5C4.44772 4.5 4 4.94772 4 5.5V8.5C4 9.05228 4.44772 9.5 5 9.5ZM4 7V17" stroke="black" stroke-width="1.5" stroke-linecap="round" stroke-linejoin="round"/>
</svg>
