<svg width="24" height="24" viewBox="0 0 24 24" fill="none" xmlns="http://www.w3.org/2000/svg">
<path d="M14.5 19V5C14.5 4.44772 14.0523 4 13.5 4H10.5C9.94772 4 9.5 4.44772 9.5 5V19M14.5 19C14.5 19.5523 14.0523 20 13.5 20H10.5C9.94772 20 9.5 19.5523 9.5 19M14.5 19C14.5 19.5523 14.9477 20 15.5 20H18.5C19.0523 20 19.5 19.5523 19.5 19V10.005C19.5 9.45272 19.0523 9.005 18.5 9.005H15.5C14.9477 9.005 14.5 9.45272 14.5 10.005V19ZM9.5 19V15C9.5 14.4477 9.05228 14 8.5 14H5.5C4.94772 14 4.5 14.4477 4.5 15V19C4.5 19.5523 4.94772 20 5.5 20H8.5C9.05228 20 9.5 19.5523 9.5 19ZM7 20H17" stroke="black" stroke-width="1.5" stroke-linecap="round" stroke-linejoin="round"/>
</svg>
