<svg width="24" height="24" viewBox="0 0 24 24" fill="none" xmlns="http://www.w3.org/2000/svg">
<path d="M12.7498 8.91451C12.3379 8.34153 11.9999 7.71187 11.7498 7.03947M16.4599 11.75C15.7878 11.4999 15.1584 11.162 14.5856 10.7503M19.6663 12.2394C19.5285 12.2464 19.3896 12.25 19.25 12.25C19.0822 12.25 18.9156 12.2448 18.7504 12.2346M11.2654 4.74966C11.2552 4.58441 11.25 4.41781 11.25 4.25C11.25 4.15761 11.2516 4.06558 11.2547 3.97394M8.91451 12.7498C8.34153 12.3379 7.71187 11.9999 7.03947 11.7498M11.75 16.4599C11.4999 15.7878 11.162 15.1584 10.7503 14.5856M12.2394 19.6663C12.2464 19.5285 12.25 19.3896 12.25 19.25C12.25 19.0822 12.2448 18.9156 12.2346 18.7504M4.74966 11.2654C4.58441 11.2552 4.41781 11.25 4.25 11.25C4.15761 11.25 4.06558 11.2516 3.97394 11.2547M19.75 11.75C19.75 16.1683 16.1683 19.75 11.75 19.75C7.33172 19.75 3.75 16.1683 3.75 11.75C3.75 7.33172 7.33172 3.75 11.75 3.75C16.1683 3.75 19.75 7.33172 19.75 11.75Z" stroke="black" stroke-width="1.5" stroke-linecap="round" stroke-linejoin="round"/>
</svg>
