<svg width="24" height="24" viewBox="0 0 24 24" fill="none" xmlns="http://www.w3.org/2000/svg">
<path d="M15 8.99999L15.5303 8.46966L15 8.99999ZM6.18894 5.60917C5.78358 5.69434 5.524 6.09199 5.60917 6.49735C5.69434 6.90272 6.09199 7.16229 6.49735 7.07712L6.18894 5.60917ZM18.1872 6.87348C18.4801 6.58058 18.4801 6.10571 18.1872 5.81282C17.8943 5.51992 17.4194 5.51992 17.1265 5.81282L18.1872 6.87348ZM19.25 12C19.25 16.0041 16.0041 19.25 12 19.25V20.75C16.8325 20.75 20.75 16.8325 20.75 12H19.25ZM12 19.25C7.99594 19.25 4.75 16.0041 4.75 12H3.25C3.25 16.8325 7.16751 20.75 12 20.75V19.25ZM4.75 12C4.75 7.99594 7.99594 4.75 12 4.75V3.25C7.16751 3.25 3.25 7.16751 3.25 12H4.75ZM12 4.75C16.0041 4.75 19.25 7.99594 19.25 12H20.75C20.75 7.16751 16.8325 3.25 12 3.25V4.75ZM17.6569 17.6569C18.3908 17.8111 18.3909 17.8107 18.391 17.8104C18.391 17.8102 18.3911 17.8099 18.3911 17.8096C18.3913 17.809 18.3914 17.8084 18.3915 17.8077C18.3918 17.8062 18.3922 17.8045 18.3926 17.8024C18.3934 17.7983 18.3945 17.793 18.3958 17.7866C18.3983 17.7736 18.4017 17.7559 18.4057 17.7337C18.4137 17.6892 18.4244 17.6264 18.4362 17.547C18.4599 17.3883 18.4882 17.1623 18.5097 16.8814C18.5524 16.3206 18.5679 15.5355 18.4602 14.627C18.2446 12.8101 17.5312 10.4705 15.5303 8.46966L14.4697 9.53032C16.1674 11.228 16.7824 13.2169 16.9706 14.8037C17.0647 15.5972 17.051 16.2828 17.014 16.7673C16.9956 17.009 16.9715 17.1993 16.9526 17.3261C16.9431 17.3895 16.935 17.4369 16.9296 17.4669C16.9269 17.4818 16.9249 17.4924 16.9237 17.4985C16.9231 17.5015 16.9227 17.5034 16.9226 17.5041C16.9225 17.5044 16.9225 17.5045 16.9225 17.5042C16.9226 17.5041 16.9226 17.5039 16.9227 17.5037C16.9227 17.5035 16.9227 17.5033 16.9228 17.5032C16.9228 17.5029 16.9229 17.5026 17.6569 17.6569ZM15.5303 8.46966C13.5295 6.46881 11.1899 5.75536 9.37295 5.53983C8.46448 5.43206 7.6794 5.44756 7.11861 5.49034C6.83775 5.51177 6.61174 5.54015 6.45297 5.56379C6.37355 5.57561 6.31083 5.58627 6.26634 5.59431C6.24409 5.59833 6.22639 5.6017 6.21343 5.60423C6.20695 5.6055 6.20165 5.60656 6.19756 5.60739C6.19552 5.60781 6.19378 5.60817 6.19234 5.60846C6.19162 5.60861 6.19097 5.60875 6.19041 5.60886C6.19012 5.60892 6.18976 5.609 6.18962 5.60903C6.18927 5.6091 6.18894 5.60917 6.34315 6.34315C6.49735 7.07712 6.49706 7.07718 6.49679 7.07724C6.49672 7.07725 6.49647 7.07731 6.49634 7.07733C6.49607 7.07739 6.49588 7.07743 6.49577 7.07745C6.49553 7.0775 6.49559 7.07749 6.49594 7.07742C6.49665 7.07727 6.49852 7.0769 6.50153 7.07631C6.50756 7.07513 6.51816 7.0731 6.53313 7.07039C6.56308 7.06498 6.61049 7.05687 6.67387 7.04743C6.80071 7.02855 6.99096 7.00444 7.23272 6.98599C7.71719 6.94903 8.40283 6.93526 9.19625 7.02938C10.7831 7.21763 12.7719 7.8326 14.4697 9.53032L15.5303 8.46966ZM6.87348 18.1872L18.1872 6.87348L17.1265 5.81282L5.81282 17.1265L6.87348 18.1872ZM11.566 4.37222C11.6279 4.48155 11.8327 5.06382 11.8216 5.82019C11.8109 6.54752 11.6019 7.33739 10.9696 7.96967L12.0303 9.03033C13.0158 8.04485 13.3068 6.83473 13.3214 5.84224C13.3356 4.87879 13.0909 4.02143 12.8717 3.63374L11.566 4.37222ZM10.9696 7.96967C9.88112 9.05819 8.41483 9.94215 7.04639 10.5552C6.36604 10.8601 5.72287 11.0921 5.18072 11.2466C4.62393 11.4053 4.22029 11.4689 4.00297 11.4689L4.00297 12.9689C4.42809 12.9689 4.98938 12.8609 5.59195 12.6891C6.20917 12.5132 6.91982 12.2556 7.65969 11.9241C9.13169 11.2646 10.7715 10.2892 12.0303 9.03033L10.9696 7.96967ZM15.0303 14.0303C16.9281 12.1325 18.5783 11.8868 19.65 12.4461L20.344 11.1162C18.4217 10.1132 16.0719 10.8675 13.9697 12.9697L15.0303 14.0303ZM12.5137 20.1579C12.634 19.6098 12.7988 18.5587 13.1865 17.3545C13.574 16.1513 14.1531 14.9076 15.0303 14.0303L13.9697 12.9697C12.8469 14.0924 12.176 15.5987 11.7587 16.8948C11.3417 18.1898 11.1471 19.3872 11.0486 19.8362L12.5137 20.1579Z" fill="black"/>
</svg>
