<svg width="24" height="24" viewBox="0 0 24 24" fill="none" xmlns="http://www.w3.org/2000/svg">
<path d="M4 19C5.02563 19 5.87094 18.228 5.98653 17.2334M20 19C18.9744 19 18.1291 18.228 18.0135 17.2334M4 12H20M5 12V7.5C5 6.11929 6.11929 5 7.5 5C8.88071 5 10 6.11929 10 7.5V8M6 12H18C18.5519 12 19 12.4481 19 13V15C19 16.6558 17.6558 18 16 18H8C6.34425 18 5 16.6558 5 15V13C5 12.4481 5.44808 12 6 12ZM12 12H16V15H12V12Z" stroke="black" stroke-width="1.5" stroke-linecap="round" stroke-linejoin="round"/>
</svg>
