<svg width="24" height="24" viewBox="0 0 24 24" fill="none" xmlns="http://www.w3.org/2000/svg">
<path d="M7 19.75L7.45 19.15L7.45 19.15L7 19.75ZM6.90354 19.6777L6.45354 20.2777L6.45354 20.2777L6.90354 19.6777ZM4.98982 19.5051L5.32523 20.1759H5.32523L4.98982 19.5051ZM3.66459 19.3292C3.29411 19.5144 3.14394 19.9649 3.32918 20.3354C3.51442 20.7059 3.96493 20.8561 4.33541 20.6708L3.66459 19.3292ZM19.6646 20.6708C20.0351 20.8561 20.4856 20.7059 20.6708 20.3354C20.8561 19.9649 20.7059 19.5144 20.3354 19.3292L19.6646 20.6708ZM19.0102 19.5051L18.6748 20.1759L19.0102 19.5051ZM17.0965 19.6777L17.5465 20.2777L17.5465 20.2777L17.0965 19.6777ZM17 19.75L16.55 19.15L16.55 19.15L17 19.75ZM15 19.75L15.45 19.15L15 19.75ZM13 19.75L13.45 20.35L13 19.75ZM11 19.75L10.55 20.35L11 19.75ZM9 19.75L9.45 20.35L9 19.75ZM4.50001 12.8679L3.77556 13.062L4.50001 12.8679ZM9.44976 4.2947L9.25564 3.57026L9.44976 4.2947ZM18.023 9.24445L17.2985 9.43856L18.023 9.24445ZM16.6088 11.6939L16.8029 12.4184L16.6088 11.6939ZM6.9495 14.2821L7.14361 15.0066L6.9495 14.2821ZM13.9525 12.4057C14.0597 12.8058 14.4709 13.0432 14.871 12.936C15.2711 12.8288 15.5086 12.4176 15.4014 12.0175L13.9525 12.4057ZM8.1569 13.9586C8.2641 14.3587 8.67535 14.5961 9.07545 14.4889C9.47555 14.3817 9.71299 13.9705 9.60579 13.5704L8.1569 13.9586ZM10.7789 13.206L12.7789 20.206L14.2212 19.794L12.2212 12.794L10.7789 13.206ZM7.45 19.15L7.35353 19.0777L6.45354 20.2777L6.55 20.35L7.45 19.15ZM4.65441 18.8343L3.66459 19.3292L4.33541 20.6708L5.32523 20.1759L4.65441 18.8343ZM20.3354 19.3292L19.3456 18.8343L18.6748 20.1759L19.6646 20.6708L20.3354 19.3292ZM16.6465 19.0777L16.55 19.15L17.45 20.35L17.5465 20.2777L16.6465 19.0777ZM19.3456 18.8343C18.4724 18.3977 17.4275 18.4919 16.6465 19.0777L17.5465 20.2777C17.8729 20.0328 18.3098 19.9934 18.6748 20.1759L19.3456 18.8343ZM15.45 19.15C14.5907 18.5056 13.4093 18.5056 12.55 19.15L13.45 20.35C13.7759 20.1056 14.2241 20.1056 14.55 20.35L15.45 19.15ZM11.45 19.15C10.5907 18.5056 9.40926 18.5056 8.55 19.15L9.45 20.35C9.77593 20.1056 10.2241 20.1056 10.55 20.35L11.45 19.15ZM7.35354 19.0777C6.57253 18.4919 5.5276 18.3977 4.65441 18.8343L5.32523 20.1759C5.69025 19.9934 6.12705 20.0328 6.45354 20.2777L7.35354 19.0777ZM6.55 20.35C7.40926 20.9944 8.59074 20.9944 9.45 20.35L8.55 19.15C8.22407 19.3944 7.77593 19.3944 7.45 19.15L6.55 20.35ZM14.55 20.35C15.4093 20.9944 16.5907 20.9944 17.45 20.35L16.55 19.15C16.2241 19.3944 15.7759 19.3944 15.45 19.15L14.55 20.35ZM10.55 20.35C11.4093 20.9944 12.5907 20.9944 13.45 20.35L12.55 19.15C12.2241 19.3944 11.7759 19.3944 11.45 19.15L10.55 20.35ZM5.22445 12.6738C4.33107 9.33964 6.30971 5.91253 9.64387 5.01914L9.25564 3.57026C5.12128 4.67805 2.66777 8.92767 3.77556 13.062L5.22445 12.6738ZM9.64387 5.01914C12.978 4.12576 16.4051 6.1044 17.2985 9.43856L18.7474 9.05033C17.6396 4.91597 13.39 2.46246 9.25564 3.57026L9.64387 5.01914ZM16.4146 10.9695L6.75538 13.5577L7.14361 15.0066L16.8029 12.4184L16.4146 10.9695ZM6.75538 13.5577C6.08855 13.7364 5.40313 13.3406 5.22445 12.6738L3.77556 13.062C4.16865 14.5291 5.67658 15.3997 7.14361 15.0066L6.75538 13.5577ZM17.2985 9.43856C17.4772 10.1054 17.0815 10.7908 16.4146 10.9695L16.8029 12.4184C18.2699 12.0253 19.1405 10.5174 18.7474 9.05033L17.2985 9.43856ZM8.98667 4.88466C11.412 6.78843 13.1545 9.42747 13.9525 12.4057L15.4014 12.0175C14.5193 8.72574 12.5935 5.80891 9.91284 3.70474L8.98667 4.88466ZM8.75373 4.01533C7.48432 7.1779 7.27489 10.6669 8.1569 13.9586L9.60579 13.5704C8.80778 10.5922 8.99726 7.43546 10.1458 4.57407L8.75373 4.01533Z" fill="black"/>
</svg>
