<svg width="24" height="24" viewBox="0 0 24 24" fill="none" xmlns="http://www.w3.org/2000/svg">
<path d="M6.75 4C6.75 3.58579 6.41421 3.25 6 3.25C5.58579 3.25 5.25 3.58579 5.25 4L6.75 4ZM18.75 4C18.75 3.58579 18.4142 3.25 18 3.25C17.5858 3.25 17.25 3.58579 17.25 4L18.75 4ZM7 14.75H17V13.25H7V14.75ZM18.25 16V18H19.75V16H18.25ZM19 17.25H5V18.75H19V17.25ZM5.75 18V16H4.25V18H5.75ZM17 14.75C17.6904 14.75 18.25 15.3096 18.25 16H19.75C19.75 14.4812 18.5188 13.25 17 13.25V14.75ZM7 13.25C5.48122 13.25 4.25 14.4812 4.25 16H5.75C5.75 15.3096 6.30964 14.75 7 14.75V13.25ZM5.75 20V18H4.25V20H5.75ZM6.75 14L6.75 4L5.25 4L5.25 14H6.75ZM18.75 14L18.75 4L17.25 4L17.25 14H18.75ZM19.75 20V18H18.25V20H19.75ZM10 9.75H14V8.25H10V9.75ZM14.25 10V13H15.75V10H14.25ZM14 13.25H10V14.75H14V13.25ZM9.75 13V10H8.25V13H9.75ZM10 13.25C9.86193 13.25 9.75 13.1381 9.75 13H8.25C8.25 13.9665 9.0335 14.75 10 14.75V13.25ZM14.25 13C14.25 13.1381 14.1381 13.25 14 13.25V14.75C14.9665 14.75 15.75 13.9665 15.75 13H14.25ZM14 9.75C14.1381 9.75 14.25 9.86193 14.25 10H15.75C15.75 9.0335 14.9665 8.25 14 8.25V9.75ZM10 8.25C9.0335 8.25 8.25 9.0335 8.25 10H9.75C9.75 9.86193 9.86193 9.75 10 9.75V8.25ZM10 5.75H14V4.25H10V5.75ZM17.25 9V10H18.75V9H17.25ZM6.75 10V9H5.25V10H6.75ZM14 5.75C15.7949 5.75 17.25 7.20507 17.25 9H18.75C18.75 6.37665 16.6234 4.25 14 4.25V5.75ZM10 4.25C7.37665 4.25 5.25 6.37665 5.25 9H6.75C6.75 7.20507 8.20507 5.75 10 5.75V4.25Z" fill="black"/>
</svg>
