<svg width="24" height="24" viewBox="0 0 24 24" fill="none" xmlns="http://www.w3.org/2000/svg">
<path d="M5.75 5C5.75 4.58579 5.41421 4.25 5 4.25C4.58579 4.25 4.25 4.58579 4.25 5L5.75 5ZM12.0011 5.00343L12.0018 4.25343L12.0011 5.00343ZM18.586 7.62464C18.931 7.85392 19.3965 7.76013 19.6258 7.41516C19.855 7.0702 19.7612 6.60467 19.4163 6.3754L18.586 7.62464ZM19.75 5C19.75 4.58579 19.4142 4.25 19 4.25C18.5858 4.25 18.25 4.58579 18.25 5L19.75 5ZM6 13.75H18V12.25H6V13.75ZM19.25 15V17H20.75V15H19.25ZM20 16.25H4V17.75H20V16.25ZM4.75 17V15H3.25V17H4.75ZM18 13.75C18.6904 13.75 19.25 14.3096 19.25 15H20.75C20.75 13.4812 19.5188 12.25 18 12.25V13.75ZM6 12.25C4.48122 12.25 3.25 13.4812 3.25 15H4.75C4.75 14.3096 5.30964 13.75 6 13.75V12.25ZM4.75 19V17H3.25V19H4.75ZM5.75 13L5.75 5L4.25 5L4.25 13H5.75ZM5.00114 7.00685C5.41826 7.63015 5.41808 7.63027 5.41791 7.63038C5.41787 7.63041 5.41772 7.63051 5.41764 7.63057C5.41748 7.63067 5.41736 7.63075 5.41729 7.6308C5.41715 7.63089 5.41719 7.63086 5.41741 7.63072C5.41784 7.63043 5.41899 7.62967 5.42084 7.62846C5.42455 7.62603 5.43109 7.62178 5.44038 7.61582C5.45898 7.60391 5.48861 7.58519 5.5288 7.56064C5.6092 7.51153 5.73166 7.43916 5.89231 7.35124C6.21391 7.17522 6.68671 6.93786 7.2799 6.69995C8.46976 6.22273 10.1227 5.75182 12.0005 5.75343L12.0018 4.25343C9.87842 4.25161 8.03138 4.78241 6.72152 5.30775C6.06485 5.57112 5.53787 5.83526 5.17215 6.03542C4.98914 6.13559 4.84605 6.21998 4.74682 6.2806C4.69719 6.31092 4.65849 6.33532 4.6312 6.3528C4.61756 6.36154 4.60676 6.36855 4.59888 6.37372C4.59494 6.3763 4.59172 6.37842 4.58925 6.38006C4.58801 6.38088 4.58695 6.38158 4.58608 6.38216C4.58564 6.38245 4.58525 6.38271 4.58491 6.38294C4.58474 6.38306 4.58452 6.38321 4.58443 6.38326C4.58422 6.38341 4.58402 6.38354 5.00114 7.00685ZM12.0005 5.75343C13.8795 5.75504 15.5333 6.22466 16.7236 6.6996C17.317 6.93639 17.79 7.17242 18.1117 7.34739C18.2724 7.43479 18.3949 7.50672 18.4753 7.55553C18.5156 7.57993 18.5452 7.59853 18.5638 7.61038C18.5731 7.6163 18.5797 7.62053 18.5834 7.62295C18.5852 7.62415 18.5864 7.62491 18.5868 7.6252C18.587 7.62534 18.5871 7.62537 18.5869 7.62528C18.5869 7.62523 18.5868 7.62515 18.5866 7.62505C18.5865 7.62499 18.5864 7.62489 18.5863 7.62487C18.5862 7.62476 18.586 7.62464 19.0011 7.00002C19.4163 6.3754 19.4161 6.37526 19.4159 6.37512C19.4158 6.37507 19.4156 6.37492 19.4154 6.37481C19.415 6.37458 19.4147 6.37432 19.4142 6.37403C19.4134 6.37346 19.4123 6.37276 19.4111 6.37195C19.4086 6.37032 19.4054 6.36822 19.4014 6.36566C19.3936 6.36053 19.3828 6.35357 19.3691 6.34489C19.3419 6.32754 19.3032 6.30331 19.2536 6.2732C19.1544 6.213 19.0113 6.12918 18.8284 6.02968C18.4628 5.83083 17.936 5.56835 17.2795 5.30642C15.9701 4.78393 14.1239 4.25525 12.0018 4.25343L12.0005 5.75343ZM19.75 13L19.75 5L18.25 5L18.25 13H19.75ZM20.75 19V17H19.25V19H20.75ZM9 10.75H11V9.25H9V10.75ZM11.25 11V12H12.75V11H11.25ZM11 12.25H9V13.75H11V12.25ZM8.75 12V11H7.25V12H8.75ZM9 12.25C8.86193 12.25 8.75 12.1381 8.75 12H7.25C7.25 12.9665 8.0335 13.75 9 13.75V12.25ZM11.25 12C11.25 12.1381 11.1381 12.25 11 12.25V13.75C11.9665 13.75 12.75 12.9665 12.75 12H11.25ZM11 10.75C11.1381 10.75 11.25 10.8619 11.25 11H12.75C12.75 10.0335 11.9665 9.25 11 9.25V10.75ZM9 9.25C8.0335 9.25 7.25 10.0335 7.25 11H8.75C8.75 10.8619 8.86193 10.75 9 10.75V9.25ZM13 10.75H15V9.25H13V10.75ZM15.25 11V12H16.75V11H15.25ZM15 12.25H13V13.75H15V12.25ZM13 12.25C12.8619 12.25 12.75 12.1381 12.75 12H11.25C11.25 12.9665 12.0335 13.75 13 13.75V12.25ZM15.25 12C15.25 12.1381 15.1381 12.25 15 12.25V13.75C15.9665 13.75 16.75 12.9665 16.75 12H15.25ZM15 10.75C15.1381 10.75 15.25 10.8619 15.25 11H16.75C16.75 10.0335 15.9665 9.25 15 9.25V10.75ZM13 9.25C12.0335 9.25 11.25 10.0335 11.25 11H12.75C12.75 10.8619 12.8619 10.75 13 10.75V9.25Z" fill="black"/>
</svg>
