<svg width="24" height="24" viewBox="0 0 24 24" fill="none" xmlns="http://www.w3.org/2000/svg">
<path d="M14 15C14 16.6569 15.3431 18 17 18C18.6569 18 20 16.6569 20 15C20 13.3431 18.6569 12 17 12C15.3431 12 14 13.3431 14 15ZM14 15L7.61805 15C6.87467 15 6.39117 14.2177 6.72362 13.5528L9 9M6 6H9M7 6L9 9M9 9H15M15 9L17 15M15 9L14.4387 7.31623C14.2229 6.6687 14.7049 6 15.3874 6H17.5M10 15C10 16.6569 8.65685 18 7 18C5.34315 18 4 16.6569 4 15C4 13.3431 5.34315 12 7 12C8.65685 12 10 13.3431 10 15Z" stroke="black" stroke-width="1.5" stroke-linecap="round" stroke-linejoin="round"/>
</svg>
