<svg width="24" height="24" viewBox="0 0 24 24" fill="none" xmlns="http://www.w3.org/2000/svg">
<path d="M8 9L15.0278 13.6852C15.944 14.296 15.9117 15.653 14.9675 16.2195L13.5145 17.0913C12.848 17.4912 12 17.0111 12 16.2338V7.76619C12 6.9889 12.848 6.50878 13.5145 6.9087L14.9675 7.78049C15.9117 8.34704 15.944 9.70399 15.0278 10.3148L8 15M6 4H18C19.1046 4 20 4.89543 20 6V18C20 19.1046 19.1046 20 18 20H6C4.89543 20 4 19.1046 4 18V6C4 4.89543 4.89543 4 6 4Z" stroke="black" stroke-width="1.5" stroke-linecap="round" stroke-linejoin="round"/>
</svg>
