<svg width="24" height="24" viewBox="0 0 24 24" fill="none" xmlns="http://www.w3.org/2000/svg">
<path d="M16 10H18C19.1046 10 20 9.10457 20 8V6C20 4.89543 19.1046 4 18 4H6C4.89543 4 4 4.89543 4 6V8C4 9.10457 4.89543 10 6 10H7M10 13V8.5C10 7.67157 10.6716 7 11.5 7C12.3284 7 13 7.67157 13 8.5V13H15C16.6569 13 18 14.3431 18 16C18 18.2091 16.2091 20 14 20H11C8.79086 20 7 18.2091 7 16V15C7 13.8954 7.89543 13 9 13H10ZM10 13V16" stroke="black" stroke-width="1.5" stroke-linecap="round" stroke-linejoin="round"/>
</svg>
