<svg width="24" height="24" viewBox="0 0 24 24" fill="none" xmlns="http://www.w3.org/2000/svg">
<path d="M6.00001 18H6.75001V18L6.00001 18ZM18 20V20.75C18.3033 20.75 18.5768 20.5673 18.6929 20.287C18.809 20.0068 18.7448 19.6842 18.5303 19.4697L18 20ZM18.75 9.80484C18.75 9.39062 18.4142 9.05483 18 9.05483C17.5858 9.05483 17.25 9.39062 17.25 9.80483L18.75 9.80484ZM6 7L6.75 7V7L6 7ZM6.75001 18C6.75001 17.7577 6.82319 17.5858 7.07949 17.3295L6.01883 16.2688C5.57187 16.7158 5.25001 17.2478 5.25001 18H6.75001ZM7.07949 17.3295C7.23037 17.1786 7.51106 16.8718 8.19648 16.5844C8.90148 16.2887 10.0727 16 12 16V14.5C9.92726 14.5 8.54889 14.81 7.6164 15.2011C6.6643 15.6003 6.21958 16.0681 6.01883 16.2688L7.07949 17.3295ZM18 19.25H7.87499V20.75H18V19.25ZM7.87499 19.25C7.57662 19.25 7.29047 19.1315 7.07949 18.9205L6.01883 19.9812C6.51111 20.4734 7.17879 20.75 7.87499 20.75V19.25ZM7.07949 18.9205C6.90028 18.7413 6.75001 18.3483 6.75001 18H5.25001C5.25001 18.6463 5.49478 19.4571 6.01883 19.9812L7.07949 18.9205ZM12 16C13.9528 16 15.4066 16.183 16.3618 16.3622C16.8395 16.4517 17.1929 16.5404 17.4219 16.6048C17.5365 16.637 17.62 16.6632 17.6724 16.6804C17.6986 16.689 17.7171 16.6954 17.7278 16.6991C17.7332 16.701 17.7366 16.7022 17.738 16.7028C17.7388 16.703 17.739 16.7031 17.7388 16.703C17.7387 16.703 17.7384 16.7029 17.7381 16.7028C17.7379 16.7027 17.7377 16.7026 17.7375 16.7025C17.7373 16.7025 17.7371 16.7024 17.7371 16.7024C17.7369 16.7023 17.7366 16.7022 18 16C18.2633 15.2978 18.2631 15.2977 18.2629 15.2976C18.2628 15.2975 18.2625 15.2974 18.2623 15.2974C18.262 15.2972 18.2616 15.2971 18.2612 15.2969C18.2603 15.2966 18.2593 15.2963 18.2582 15.2959C18.2561 15.2951 18.2534 15.2941 18.2502 15.2929C18.2439 15.2906 18.2356 15.2876 18.2253 15.284C18.2047 15.2768 18.1763 15.2671 18.1401 15.2552C18.0675 15.2313 17.9635 15.1989 17.828 15.1608C17.5571 15.0846 17.1605 14.9858 16.6382 14.8878C15.5934 14.6919 14.0472 14.5 12 14.5V16ZM16.25 18C16.25 18.7254 16.601 19.3787 16.8759 19.791C17.0215 20.0094 17.166 20.1899 17.2743 20.3162C17.3288 20.3798 17.375 20.4306 17.4087 20.4668C17.4256 20.4849 17.4395 20.4994 17.4498 20.5101C17.455 20.5154 17.4592 20.5198 17.4626 20.5232C17.4642 20.5249 17.4657 20.5263 17.4668 20.5275C17.4674 20.5281 17.468 20.5286 17.4684 20.5291C17.4687 20.5293 17.4689 20.5296 17.4691 20.5298C17.4692 20.5299 17.4693 20.53 17.4694 20.5301C17.4695 20.5302 17.4697 20.5303 18 20C18.5303 19.4697 18.5304 19.4698 18.5306 19.4699C18.5306 19.47 18.5307 19.4701 18.5308 19.4701C18.5309 19.4703 18.5311 19.4704 18.5312 19.4705C18.5314 19.4708 18.5316 19.4709 18.5317 19.471C18.5319 19.4713 18.5319 19.4713 18.5317 19.471C18.5312 19.4706 18.5299 19.4692 18.5277 19.467C18.5234 19.4625 18.5157 19.4545 18.5053 19.4433C18.4844 19.4209 18.4525 19.3859 18.4132 19.34C18.334 19.2476 18.2284 19.1156 18.124 18.959C17.8989 18.6213 17.75 18.2746 17.75 18H16.25ZM17.25 16.0002C17.2499 15.8273 17.3119 15.7039 17.3204 15.6861C17.3394 15.6463 17.3573 15.619 17.3627 15.6107C17.3744 15.5929 17.3807 15.5859 17.3701 15.5993C17.3493 15.6254 17.3214 15.6582 17.2668 15.7239C17.1684 15.8425 17.0257 16.0176 16.8808 16.2296C16.606 16.6317 16.25 17.269 16.25 18H17.75C17.75 17.731 17.894 17.4054 18.1192 17.0761C18.2243 16.9223 18.3316 16.7896 18.4207 16.6824C18.4598 16.6353 18.51 16.5758 18.544 16.5331C18.5607 16.5122 18.5884 16.4767 18.6148 16.4367C18.6276 16.4173 18.651 16.3805 18.6738 16.3328C18.6861 16.307 18.75 16.1774 18.75 15.9998L17.25 16.0002ZM18.75 16C18.75 14.7903 18.75 13.2415 18.75 11.9952C18.75 11.372 18.75 10.8244 18.75 10.4326C18.75 10.2367 18.75 10.0798 18.75 9.9718C18.75 9.94481 18.75 9.92088 18.75 9.90016C18.75 9.84145 18.75 9.89996 18.75 9.84783C18.75 9.79898 18.75 9.85769 18.75 9.81574C18.75 9.80672 18.75 9.81482 18.75 9.80758C18.75 9.80241 18.75 9.81024 18.75 9.80552C18.75 9.80541 18.75 9.80531 18.75 9.80522C18.75 9.80514 18.75 9.80507 18.75 9.80501C18.75 9.80495 18.75 9.80491 18.75 9.80488C18.75 9.80485 18.75 9.80484 18 9.80483C17.25 9.80483 17.25 9.80484 17.25 9.80487C17.25 9.8049 17.25 9.80494 17.25 9.805C17.25 9.80506 17.25 9.80513 17.25 9.80522C17.25 9.8053 17.25 9.8054 17.25 9.80552C17.25 9.81025 17.25 9.80239 17.25 9.80757C17.25 9.81481 17.25 9.80672 17.25 9.81573C17.25 9.85768 17.25 9.79898 17.25 9.84782C17.25 9.89995 17.25 9.84143 17.25 9.90016C17.25 9.92087 17.25 9.94481 17.25 9.9718C17.25 10.0798 17.25 10.2367 17.25 10.4326C17.25 10.8244 17.25 11.372 17.25 11.9952C17.25 13.2415 17.25 14.7903 17.25 16L18.75 16ZM17.25 7V10H18.75V7H17.25ZM18.75 7C18.75 4.92893 17.0711 3.25 15 3.25V4.75C16.2426 4.75 17.25 5.75736 17.25 7H18.75ZM6.75 7C6.75 5.75736 7.75736 4.75 9 4.75V3.25C6.92893 3.25 5.25 4.92894 5.25 7.00001L6.75 7ZM6.75001 18L6.75 7L5.25 7.00001L5.25001 18L6.75001 18ZM9 4.75H15V3.25H9V4.75Z" fill="black"/>
</svg>
