<svg width="24" height="24" viewBox="0 0 24 24" fill="none" xmlns="http://www.w3.org/2000/svg">
<path d="M15.5 11C15.5 11.2761 15.2761 11.5 15 11.5C14.7239 11.5 14.5 11.2761 14.5 11C14.5 10.7239 14.7239 10.5 15 10.5C15.2761 10.5 15.5 10.7239 15.5 11Z" fill="black"/>
<path d="M17.5 13C17.5 13.2761 17.2761 13.5 17 13.5C16.7239 13.5 16.5 13.2761 16.5 13C16.5 12.7239 16.7239 12.5 17 12.5C17.2761 12.5 17.5 12.7239 17.5 13Z" fill="black"/>
<path d="M15 13.5C15 13.7761 14.7761 14 14.5 14C14.2239 14 14 13.7761 14 13.5C14 13.2239 14.2239 13 14.5 13C14.7761 13 15 13.2239 15 13.5Z" fill="black"/>
<path d="M6.00223 10.7745L5.39905 10.3287L6.00223 10.7745ZM6.30261 7.00435L6.94573 6.61848H6.94573L6.30261 7.00435ZM5.63251 19.6629L5.09373 20.1846L5.63251 19.6629ZM10.3675 19.6629L10.9063 20.1846L10.3675 19.6629ZM9.69739 7.00435L9.05427 6.61848L9.69739 7.00435ZM9.99777 10.7745L10.6009 10.3287L9.99777 10.7745ZM11.7501 7.63428C11.3595 7.77232 11.1548 8.20081 11.2929 8.59135C11.4309 8.98188 11.8594 9.18658 12.2499 9.04854L11.7501 7.63428ZM13.5617 19.232C13.1489 19.1979 12.7866 19.505 12.7525 19.9178C12.7185 20.3306 13.0255 20.6929 13.4383 20.7269L13.5617 19.232ZM9.5 19.25H6.5V20.75H9.5V19.25ZM11.25 15.5C11.25 17.4185 10.3245 18.6291 9.82871 19.1411L10.9063 20.1846C11.5655 19.5038 12.75 17.9392 12.75 15.5H11.25ZM6.17129 19.1411C5.67548 18.6291 4.75 17.4185 4.75 15.5H3.25C3.25 17.9392 4.43448 19.5038 5.09373 20.1846L6.17129 19.1411ZM9.3946 11.2202C9.8517 11.8387 10.3222 12.5654 10.6761 13.3209C11.0328 14.0824 11.25 14.8291 11.25 15.5H12.75C12.75 14.5263 12.4413 13.5533 12.0345 12.6847C11.6249 11.8102 11.0943 10.9963 10.6009 10.3287L9.3946 11.2202ZM4.75 15.5C4.75 14.8291 4.96723 14.0824 5.32389 13.3209C5.67778 12.5654 6.1483 11.8387 6.6054 11.2202L5.39905 10.3287C4.90572 10.9963 4.37513 11.8102 3.96551 12.6847C3.55867 13.5533 3.25 14.5263 3.25 15.5H4.75ZM6.6054 11.2202C7.56426 9.92265 7.83152 8.09479 6.94573 6.61848L5.65949 7.39022C6.17967 8.25719 6.06427 9.42854 5.39905 10.3287L6.6054 11.2202ZM6.5 19.25C6.32796 19.25 6.2241 19.1957 6.17129 19.1411L5.09373 20.1846C5.49248 20.5964 6.02293 20.75 6.5 20.75V19.25ZM9.5 20.75C9.97707 20.75 10.5075 20.5964 10.9063 20.1846L9.82871 19.1411C9.7759 19.1957 9.67204 19.25 9.5 19.25V20.75ZM9.05427 6.61848C8.16848 8.09479 8.43574 9.92265 9.3946 11.2202L10.6009 10.3287C9.93573 9.42853 9.82033 8.25719 10.3405 7.39022L9.05427 6.61848ZM8 4.75C8.95498 4.75 9.54806 5.79549 9.05427 6.61848L10.3405 7.39022C11.4317 5.57156 10.1257 3.25 8 3.25V4.75ZM8 3.25C5.8743 3.25 4.56829 5.57155 5.65949 7.39022L6.94573 6.61848C6.45194 5.79549 7.04502 4.75 8 4.75V3.25ZM7 9.75H9V8.25H7V9.75ZM19.25 14C19.25 16.8995 16.8995 19.25 14 19.25V20.75C17.7279 20.75 20.75 17.7279 20.75 14H19.25ZM14 8.75C16.8995 8.75 19.25 11.1005 19.25 14H20.75C20.75 10.2721 17.7279 7.25 14 7.25V8.75ZM12.2499 9.04854C12.7963 8.85542 13.385 8.75 14 8.75V7.25C13.2124 7.25 12.4548 7.3852 11.7501 7.63428L12.2499 9.04854ZM14 19.25C13.8522 19.25 13.706 19.2439 13.5617 19.232L13.4383 20.7269C13.6237 20.7422 13.811 20.75 14 20.75V19.25ZM14.75 11C14.75 10.8619 14.8619 10.75 15 10.75V12.25C15.6904 12.25 16.25 11.6904 16.25 11H14.75ZM15 10.75C15.1381 10.75 15.25 10.8619 15.25 11H13.75C13.75 11.6904 14.3096 12.25 15 12.25V10.75ZM15.25 11C15.25 11.1381 15.1381 11.25 15 11.25V9.75C14.3096 9.75 13.75 10.3096 13.75 11H15.25ZM15 11.25C14.8619 11.25 14.75 11.1381 14.75 11H16.25C16.25 10.3096 15.6904 9.75 15 9.75V11.25ZM16.75 13C16.75 12.8619 16.8619 12.75 17 12.75V14.25C17.6904 14.25 18.25 13.6904 18.25 13H16.75ZM17 12.75C17.1381 12.75 17.25 12.8619 17.25 13H15.75C15.75 13.6904 16.3096 14.25 17 14.25V12.75ZM17.25 13C17.25 13.1381 17.1381 13.25 17 13.25V11.75C16.3096 11.75 15.75 12.3096 15.75 13H17.25ZM17 13.25C16.8619 13.25 16.75 13.1381 16.75 13H18.25C18.25 12.3096 17.6904 11.75 17 11.75V13.25ZM14.25 13.5C14.25 13.3619 14.3619 13.25 14.5 13.25V14.75C15.1904 14.75 15.75 14.1904 15.75 13.5H14.25ZM14.5 13.25C14.6381 13.25 14.75 13.3619 14.75 13.5H13.25C13.25 14.1904 13.8096 14.75 14.5 14.75V13.25ZM14.75 13.5C14.75 13.6381 14.6381 13.75 14.5 13.75V12.25C13.8096 12.25 13.25 12.8096 13.25 13.5H14.75ZM14.5 13.75C14.3619 13.75 14.25 13.6381 14.25 13.5H15.75C15.75 12.8096 15.1904 12.25 14.5 12.25V13.75Z" fill="black"/>
</svg>
