<svg width="24" height="24" viewBox="0 0 24 24" fill="none" xmlns="http://www.w3.org/2000/svg">
<path d="M9 7V7.83772C9 9.8854 11.0061 11.3313 12.9487 10.6838L15 10M9 7H8C6.89543 7 6 7.89543 6 9V11C6 13.7614 8.23858 16 11 16H13C15.7614 16 18 13.7614 18 11V8C18 5.79086 16.2091 4 14 4H12C10.3431 4 9 5.34315 9 7ZM8 20H16C16.5523 20 17 19.5523 17 19V17C17 16.4477 16.5523 16 16 16H8C7.44772 16 7 16.4477 7 17V19C7 19.5523 7.44772 20 8 20Z" stroke="black" stroke-width="1.5" stroke-linecap="round" stroke-linejoin="round"/>
</svg>
