<svg width="24" height="24" viewBox="0 0 24 24" fill="none" xmlns="http://www.w3.org/2000/svg">
<path d="M20.45 10.6C20.7814 10.3515 20.8485 9.88137 20.6 9.55C20.3515 9.21863 19.8814 9.15147 19.55 9.4L20.45 10.6ZM17.0667 12.2L16.6167 11.6L17.0667 12.2ZM6.93333 12.2L7.38333 11.6L6.93333 12.2ZM4.45 9.4C4.11863 9.15147 3.64853 9.21863 3.4 9.55C3.15147 9.88137 3.21863 10.3515 3.55 10.6L4.45 9.4ZM16 8V8.75C16.4142 8.75 16.75 8.41421 16.75 8H16ZM8 8H7.25C7.25 8.41421 7.58579 8.75 8 8.75V8ZM11 15.25C10.5858 15.25 10.25 15.5858 10.25 16C10.25 16.4142 10.5858 16.75 11 16.75V15.25ZM13 16.75C13.4142 16.75 13.75 16.4142 13.75 16C13.75 15.5858 13.4142 15.25 13 15.25V16.75ZM7 8.75H17V7.25H7V8.75ZM19.25 11V17H20.75V11H19.25ZM17 19.25H7V20.75H17V19.25ZM4.75 17V11H3.25V17H4.75ZM7 19.25C5.75736 19.25 4.75 18.2426 4.75 17H3.25C3.25 19.0711 4.92893 20.75 7 20.75V19.25ZM19.25 17C19.25 18.2426 18.2426 19.25 17 19.25V20.75C19.0711 20.75 20.75 19.0711 20.75 17H19.25ZM17 8.75C18.2426 8.75 19.25 9.75736 19.25 11H20.75C20.75 8.92893 19.0711 7.25 17 7.25V8.75ZM7 7.25C4.92893 7.25 3.25 8.92893 3.25 11H4.75C4.75 9.75736 5.75736 8.75 7 8.75V7.25ZM19.55 9.4L16.6167 11.6L17.5167 12.8L20.45 10.6L19.55 9.4ZM14.6667 12.25H9.33333V13.75H14.6667V12.25ZM7.38333 11.6L4.45 9.4L3.55 10.6L6.48333 12.8L7.38333 11.6ZM9.33333 12.25C8.63013 12.25 7.9459 12.0219 7.38333 11.6L6.48333 12.8C7.30554 13.4167 8.30557 13.75 9.33333 13.75V12.25ZM16.6167 11.6C16.0541 12.0219 15.3699 12.25 14.6667 12.25V13.75C15.6944 13.75 16.6945 13.4167 17.5167 12.8L16.6167 11.6ZM10 5.75H14V4.25H10V5.75ZM15.25 7V8H16.75V7H15.25ZM16 7.25H8V8.75H16V7.25ZM8.75 8V7H7.25V8H8.75ZM14 5.75C14.6904 5.75 15.25 6.30964 15.25 7H16.75C16.75 5.48122 15.5188 4.25 14 4.25V5.75ZM10 4.25C8.48122 4.25 7.25 5.48122 7.25 7H8.75C8.75 6.30964 9.30964 5.75 10 5.75V4.25ZM11 16.75H13V15.25H11V16.75Z" fill="black"/>
</svg>
