<svg width="24" height="24" viewBox="0 0 24 24" fill="none" xmlns="http://www.w3.org/2000/svg">
<path d="M12 4V4.49328M16.9498 6.05025L16.601 6.39905M19 11H18.5067M16.9498 15.9497L16.601 15.601M7.05025 15.9497L7.39905 15.601M5 11H5.49328M7.05025 6.05025L7.39905 6.39905M11 20H13M16 11C16 8.47825 13.6665 6.5016 11.041 7.11146C9.62312 7.44081 8.46893 8.58224 8.12307 9.99619C7.76663 11.4534 8.21221 12.8067 9.10188 13.7376C9.68313 14.3457 10 15.1579 10 15.9991C10 16.5514 10.4477 17 11 17H13C13.5523 17 14 16.5523 14 16C14 15.1438 14.3424 14.3317 14.9275 13.7065C15.5913 12.9972 16 12.0495 16 11Z" stroke="black" stroke-width="1.5" stroke-linecap="round" stroke-linejoin="round"/>
</svg>
