<svg width="24" height="24" viewBox="0 0 24 24" fill="none" xmlns="http://www.w3.org/2000/svg">
<path d="M9 9C9 9.27614 8.77614 9.5 8.5 9.5C8.22386 9.5 8 9.27614 8 9C8 8.72386 8.22386 8.5 8.5 8.5C8.77614 8.5 9 8.72386 9 9Z" fill="black"/>
<path d="M7.5 12H6C4.89543 12 4 12.8954 4 14C4 15.1046 4.89543 16 6 16H18C19.1046 16 20 15.1046 20 14C20 12.8954 19.1046 12 18 12H17M19 12V11C19 7.13401 15.866 4 12 4C8.13401 4 5 7.13401 5 11V12H8L10 13.5L12 12H19ZM5 16L19 16C19 18.2091 17.2091 20 15 20L9 20C6.79086 20 5 18.2091 5 16ZM9 9C9 9.27614 8.77614 9.5 8.5 9.5C8.22386 9.5 8 9.27614 8 9C8 8.72386 8.22386 8.5 8.5 8.5C8.77614 8.5 9 8.72386 9 9Z" stroke="black" stroke-width="1.5" stroke-linejoin="round"/>
</svg>
