<svg width="24" height="24" viewBox="0 0 24 24" fill="none" xmlns="http://www.w3.org/2000/svg">
<path d="M18 7V16C18 17.6569 16.6569 19 15 19H9C7.34315 19 6 17.6569 6 16V7M18 7C18 5.34315 16.6569 4 15 4H9C7.34315 4 6 5.34315 6 7M18 7L6 7M18 7V14H6V7M8 19L8 20M16 19V20M12 7L12 14M16 16.5C16 16.7761 15.7761 17 15.5 17C15.2239 17 15 16.7761 15 16.5C15 16.2239 15.2239 16 15.5 16C15.7761 16 16 16.2239 16 16.5ZM9.5 16.5C9.5 16.7761 9.27614 17 9 17C8.72386 17 8.5 16.7761 8.5 16.5C8.5 16.2239 8.72386 16 9 16C9.27614 16 9.5 16.2239 9.5 16.5Z" stroke="black" stroke-width="1.5" stroke-linecap="round" stroke-linejoin="round"/>
</svg>
