<svg width="24" height="24" viewBox="0 0 24 24" fill="none" xmlns="http://www.w3.org/2000/svg">
<path d="M10.6 4.96L10.32 4M7.8 6.61L7 6.01M7.36603 12.26L6.5 12.76M7 9.76H6M7 9.76C7 11.5256 7.6355 13.3969 8.64697 14.7601M7 9.76C7 6.44629 9.23858 4.76 12 4.76M13.4 4.96L13.68 4M16.2 6.61L17 6.01M16.634 12.26L17.5 12.76M17 9.76H18M17 9.76C17 6.44629 14.7614 4.76 12 4.76M17 9.76C17 11.5256 16.3645 13.3969 15.353 14.7601M12 4.76C10.8954 4.76 10 6.44629 10 9.76C10 11.5256 10.5954 13.3968 11 14.76M12 4.76C13.1046 4.76 14 6.44629 14 9.76C14 11.5256 13.4046 13.3968 13 14.76M6 14.76H18M14.3456 20H9.65442C8.69442 20 7.86983 19.3179 7.68987 18.3749L7 14.76H17L16.3101 18.3749C16.1302 19.3179 15.3056 20 14.3456 20Z" stroke="black" stroke-width="1.5" stroke-linecap="round" stroke-linejoin="round"/>
</svg>
