<svg width="24" height="24" viewBox="0 0 24 24" fill="none" xmlns="http://www.w3.org/2000/svg">
<path d="M10 12.5L9.6279 13.1512L10 12.5ZM4.00003 19.25C3.58581 19.25 3.25003 19.5858 3.25003 20C3.25003 20.4142 3.58581 20.75 4.00003 20.75V19.25ZM16 20.75C16.4142 20.75 16.75 20.4142 16.75 20C16.75 19.5858 16.4142 19.25 16 19.25V20.75ZM10.75 4C10.75 3.58579 10.4142 3.25 10 3.25C9.58581 3.25 9.25003 3.58579 9.25003 4L10.75 4ZM9.25003 6C9.25003 6.41421 9.58581 6.75 10 6.75C10.4142 6.75 10.75 6.41421 10.75 6L9.25003 6ZM13.75 4C13.75 3.58579 13.4142 3.25 13 3.25C12.5858 3.25 12.25 3.58579 12.25 4L13.75 4ZM12.25 6C12.25 6.41421 12.5858 6.75 13 6.75C13.4142 6.75 13.75 6.41421 13.75 6L12.25 6ZM7.75003 4C7.75003 3.58579 7.41424 3.25 7.00003 3.25C6.58581 3.25 6.25003 3.58579 6.25003 4L7.75003 4ZM6.25003 6C6.25003 6.41421 6.58581 6.75 7.00003 6.75C7.41424 6.75 7.75003 6.41421 7.75003 6L6.25003 6ZM6.00003 9.75H14V8.25H6.00003V9.75ZM15.25 11V14H16.75V11H15.25ZM4.75003 14V11H3.25003V14H4.75003ZM10 19.25C7.10053 19.25 4.75003 16.8995 4.75003 14H3.25003C3.25003 17.7279 6.2721 20.75 10 20.75V19.25ZM15.25 14C15.25 16.8995 12.8995 19.25 10 19.25V20.75C13.7279 20.75 16.75 17.7279 16.75 14H15.25ZM14 9.75C14.6904 9.75 15.25 10.3096 15.25 11H16.75C16.75 9.48122 15.5188 8.25 14 8.25V9.75ZM6.00003 8.25C4.48124 8.25 3.25003 9.48122 3.25003 11H4.75003C4.75003 10.3096 5.30967 9.75 6.00003 9.75V8.25ZM19.25 14C19.25 15.2426 18.2427 16.25 17 16.25V17.75C19.0711 17.75 20.75 16.0711 20.75 14H19.25ZM17 11.75C18.2427 11.75 19.25 12.7574 19.25 14H20.75C20.75 11.9289 19.0711 10.25 17 10.25V11.75ZM16.25 11.8778C16.4836 11.7953 16.7357 11.75 17 11.75V10.25C16.5631 10.25 16.142 10.325 15.7501 10.4636L16.25 11.8778ZM17 16.25C16.4233 16.25 15.8988 16.034 15.5002 15.6773L14.4998 16.795C15.1628 17.3883 16.0401 17.75 17 17.75V16.25ZM4.46852 13.5856C5.21749 12.9865 7.23399 11.7832 9.6279 13.1512L10.3721 11.8488C7.16601 10.0168 4.44917 11.6802 3.53148 12.4143L4.46852 13.5856ZM9.6279 13.1512C12.8119 14.9706 15.5209 13.4603 16.4685 12.7022L15.5315 11.5309C14.8124 12.1062 12.7881 13.2294 10.3721 11.8488L9.6279 13.1512ZM4.00003 20.75H16V19.25H4.00003V20.75ZM9.25003 4L9.25003 6L10.75 6L10.75 4L9.25003 4ZM12.25 4L12.25 6L13.75 6L13.75 4L12.25 4ZM6.25003 4L6.25003 6L7.75003 6L7.75003 4L6.25003 4Z" fill="black"/>
</svg>
