<svg width="24" height="24" viewBox="0 0 24 24" fill="none" xmlns="http://www.w3.org/2000/svg">
<path d="M7 16.25C6.58579 16.25 6.25 16.5858 6.25 17C6.25 17.4142 6.58579 17.75 7 17.75V16.25ZM12 17.75C12.4142 17.75 12.75 17.4142 12.75 17C12.75 16.5858 12.4142 16.25 12 16.25V17.75ZM15 16.25C14.5858 16.25 14.25 16.5858 14.25 17C14.25 17.4142 14.5858 17.75 15 17.75V16.25ZM17 17.75C17.4142 17.75 17.75 17.4142 17.75 17C17.75 16.5858 17.4142 16.25 17 16.25V17.75ZM7 4.75H17V3.25H7V4.75ZM19.25 7V17H20.75V7H19.25ZM17 19.25H7V20.75H17V19.25ZM4.75 17V7H3.25V17H4.75ZM7 19.25C5.75736 19.25 4.75 18.2426 4.75 17H3.25C3.25 19.0711 4.92893 20.75 7 20.75V19.25ZM19.25 17C19.25 18.2426 18.2426 19.25 17 19.25V20.75C19.0711 20.75 20.75 19.0711 20.75 17H19.25ZM17 4.75C18.2426 4.75 19.25 5.75736 19.25 7H20.75C20.75 4.92893 19.0711 3.25 17 3.25V4.75ZM7 3.25C4.92893 3.25 3.25 4.92893 3.25 7H4.75C4.75 5.75736 5.75736 4.75 7 4.75V3.25ZM8.5 7.75H15.5V6.25H8.5V7.75ZM15.5 9.25H8.5V10.75H15.5V9.25ZM8.5 9.25C8.08579 9.25 7.75 8.91421 7.75 8.5H6.25C6.25 9.74264 7.25736 10.75 8.5 10.75V9.25ZM16.25 8.5C16.25 8.91421 15.9142 9.25 15.5 9.25V10.75C16.7426 10.75 17.75 9.74264 17.75 8.5H16.25ZM15.5 7.75C15.9142 7.75 16.25 8.08579 16.25 8.5H17.75C17.75 7.25736 16.7426 6.25 15.5 6.25V7.75ZM8.5 6.25C7.25736 6.25 6.25 7.25736 6.25 8.5H7.75C7.75 8.08579 8.08579 7.75 8.5 7.75V6.25ZM7.75 13.5C7.75 13.3619 7.86193 13.25 8 13.25V14.75C8.69036 14.75 9.25 14.1904 9.25 13.5H7.75ZM8 13.25C8.13807 13.25 8.25 13.3619 8.25 13.5H6.75C6.75 14.1904 7.30964 14.75 8 14.75V13.25ZM8.25 13.5C8.25 13.6381 8.13807 13.75 8 13.75V12.25C7.30964 12.25 6.75 12.8096 6.75 13.5H8.25ZM8 13.75C7.86193 13.75 7.75 13.6381 7.75 13.5H9.25C9.25 12.8096 8.69036 12.25 8 12.25V13.75ZM11.75 13.5C11.75 13.3619 11.8619 13.25 12 13.25V14.75C12.6904 14.75 13.25 14.1904 13.25 13.5H11.75ZM12 13.25C12.1381 13.25 12.25 13.3619 12.25 13.5H10.75C10.75 14.1904 11.3096 14.75 12 14.75V13.25ZM12.25 13.5C12.25 13.6381 12.1381 13.75 12 13.75V12.25C11.3096 12.25 10.75 12.8096 10.75 13.5H12.25ZM12 13.75C11.8619 13.75 11.75 13.6381 11.75 13.5H13.25C13.25 12.8096 12.6904 12.25 12 12.25V13.75ZM15.75 13.5C15.75 13.3619 15.8619 13.25 16 13.25V14.75C16.6904 14.75 17.25 14.1904 17.25 13.5H15.75ZM16 13.25C16.1381 13.25 16.25 13.3619 16.25 13.5H14.75C14.75 14.1904 15.3096 14.75 16 14.75V13.25ZM16.25 13.5C16.25 13.6381 16.1381 13.75 16 13.75V12.25C15.3096 12.25 14.75 12.8096 14.75 13.5H16.25ZM16 13.75C15.8619 13.75 15.75 13.6381 15.75 13.5H17.25C17.25 12.8096 16.6904 12.25 16 12.25V13.75ZM7 17.75H12V16.25H7V17.75ZM15 17.75H17V16.25H15V17.75Z" fill="black"/>
</svg>
