<svg width="24" height="24" viewBox="0 0 24 24" fill="none" xmlns="http://www.w3.org/2000/svg">
<path d="M20 15.4909C20 17.1478 18.6568 18.4909 17 18.4909H7.00001C5.34316 18.4909 4.00002 17.1478 4.00001 15.4909L4 9.58183C4 8.47725 4.89543 7.58182 6 7.58182H7.29327C7.96197 7.58182 8.58643 7.24762 8.95737 6.69122L9.22445 6.2906C9.59538 5.7342 10.2198 5.4 10.8885 5.4H13.1114C13.7802 5.4 14.4046 5.7342 14.7755 6.2906L15.0426 6.69122C15.4136 7.24762 16.038 7.58182 16.7067 7.58182H18C19.1046 7.58182 20 8.47725 20 9.58182V15.4909Z" stroke="black" stroke-width="1.5" stroke-linecap="round" stroke-linejoin="round"/>
<path d="M12 15.5818C13.6066 15.5818 14.9091 14.2794 14.9091 12.6727C14.9091 11.0661 13.6066 9.76364 12 9.76364C10.3933 9.76364 9.0909 11.0661 9.0909 12.6727C9.0909 14.2794 10.3933 15.5818 12 15.5818Z" stroke="black" stroke-width="1.5" stroke-linecap="round" stroke-linejoin="round"/>
</svg>
