<svg width="24" height="24" viewBox="0 0 24 24" fill="none" xmlns="http://www.w3.org/2000/svg">
<path d="M4 9.58182L4.00001 15.4909C4.00002 17.1478 5.34316 18.4909 7.00001 18.4909H15.5M20 15.7789V9.58181C20 8.47724 19.1046 7.58181 18 7.58181H16.7067C16.038 7.58181 15.4136 7.24761 15.0426 6.69121L14.7755 6.29059C14.4046 5.7342 13.7802 5.39999 13.1114 5.39999H10.8885C10.2198 5.39999 9.59538 5.7342 9.22445 6.29059L8.95737 6.69121C8.88252 6.80349 8.79735 6.90671 8.70357 6.99997M9.88144 10.6791C10.412 10.1155 11.1649 9.76363 12 9.76363C13.6066 9.76363 14.9091 11.0661 14.9091 12.6727C14.9091 13.2511 14.7403 13.7901 14.4492 14.2431M9.37203 13.9219C9.7707 14.7591 10.5576 15.3758 11.5 15.539" stroke="black" stroke-width="1.5" stroke-linecap="round" stroke-linejoin="round"/>
<path d="M4 6.5L20 19" stroke="black" stroke-width="1.5" stroke-linecap="round"/>
</svg>
