<svg width="24" height="24" viewBox="0 0 24 24" fill="none" xmlns="http://www.w3.org/2000/svg">
<path d="M18 11H6C4.89543 11 4 11.8954 4 13V16C4 16.5523 4.44772 17 5 17H6M18 11C19.1046 11 20 11.8954 20 13V16C20 16.5523 19.5523 17 19 17H18M18 11L16.6838 7.05132C16.2754 5.82629 15.129 5 13.8377 5H7C5.89543 5 5 5.89543 5 7V11H18ZM6 17C6 18.1046 6.89543 19 8 19C9.10457 19 10 18.1046 10 17M6 17C6 15.8954 6.89543 15 8 15C9.10457 15 10 15.8954 10 17M18 17C18 18.1046 17.1046 19 16 19C14.8954 19 14 18.1046 14 17M18 17C18 15.8954 17.1046 15 16 15C14.8954 15 14 15.8954 14 17M10 17H14M10 5L10 11" stroke="black" stroke-width="1.5" stroke-linecap="round" stroke-linejoin="round"/>
</svg>
