<svg width="24" height="24" viewBox="0 0 24 24" fill="none" xmlns="http://www.w3.org/2000/svg">
<path d="M18 17V17.75C18.4142 17.75 18.75 17.4142 18.75 17H18ZM20 17.75C20.4142 17.75 20.75 17.4142 20.75 17C20.75 16.5858 20.4142 16.25 20 16.25V17.75ZM17.25 9V17H18.75V9H17.25ZM18 16.25H10.5V17.75H18V16.25ZM7 5.75H14V4.25H7V5.75ZM3.25 8V13.5H4.75V8H3.25ZM7.5 16.25C5.98122 16.25 4.75 15.0188 4.75 13.5H3.25C3.25 15.8472 5.15279 17.75 7.5 17.75V16.25ZM7 4.25C4.92893 4.25 3.25 5.92893 3.25 8H4.75C4.75 6.75736 5.75736 5.75 7 5.75V4.25ZM18.75 9C18.75 6.37665 16.6234 4.25 14 4.25V5.75C15.7949 5.75 17.25 7.20507 17.25 9H18.75ZM20 16.25L16 16.25V17.75L20 17.75V16.25ZM10.25 17C10.25 17.6904 9.69036 18.25 9 18.25V19.75C10.5188 19.75 11.75 18.5188 11.75 17H10.25ZM9 18.25C8.30964 18.25 7.75 17.6904 7.75 17H6.25C6.25 18.5188 7.48122 19.75 9 19.75V18.25ZM7.75 17C7.75 16.3096 8.30964 15.75 9 15.75V14.25C7.48122 14.25 6.25 15.4812 6.25 17H7.75ZM9 15.75C9.69036 15.75 10.25 16.3096 10.25 17H11.75C11.75 15.4812 10.5188 14.25 9 14.25V15.75ZM14 8.75H17V7.25H14V8.75ZM17.25 9V16H18.75V9H17.25ZM17 16.25H14V17.75H17V16.25ZM13.75 16V9H12.25V16H13.75ZM14 16.25C13.8619 16.25 13.75 16.1381 13.75 16H12.25C12.25 16.9665 13.0335 17.75 14 17.75V16.25ZM17.25 16C17.25 16.1381 17.1381 16.25 17 16.25V17.75C17.9665 17.75 18.75 16.9665 18.75 16H17.25ZM17 8.75C17.1381 8.75 17.25 8.86193 17.25 9H18.75C18.75 8.0335 17.9665 7.25 17 7.25V8.75ZM14 7.25C13.0335 7.25 12.25 8.0335 12.25 9H13.75C13.75 8.86193 13.8619 8.75 14 8.75V7.25ZM5 8.75H9V7.25H5V8.75ZM9.25 9V11H10.75V9H9.25ZM9 11.25H5V12.75H9V11.25ZM4.75 11V9H3.25V11H4.75ZM5 11.25C4.86193 11.25 4.75 11.1381 4.75 11H3.25C3.25 11.9665 4.0335 12.75 5 12.75V11.25ZM9.25 11C9.25 11.1381 9.13807 11.25 9 11.25V12.75C9.9665 12.75 10.75 11.9665 10.75 11H9.25ZM9 8.75C9.13807 8.75 9.25 8.86193 9.25 9H10.75C10.75 8.0335 9.9665 7.25 9 7.25V8.75ZM5 7.25C4.0335 7.25 3.25 8.0335 3.25 9H4.75C4.75 8.86193 4.86193 8.75 5 8.75V7.25Z" fill="black"/>
</svg>
