<svg width="24" height="24" viewBox="0 0 24 24" fill="none" xmlns="http://www.w3.org/2000/svg">
<g clip-path="url(#clip0_2959_446)">
<path d="M4 10V7C4 5.89543 4.89543 5 6 5H18C19.1046 5 20 5.89543 20 7V17C20 18.1046 19.1046 19 18 19H13" stroke="black" stroke-width="1.5" stroke-linecap="round" stroke-linejoin="round"/>
<path d="M4 16C5.65685 16 7 17.3432 7 19" stroke="black" stroke-width="1.5" stroke-linecap="round" stroke-linejoin="round"/>
<path d="M12.4859 15.9998C11.5805 13.4465 9.55333 11.4194 7.00005 10.5141L7 10V8H17V16H13L12.4859 15.9998Z" fill="black" stroke="black" stroke-width="1.5" stroke-linecap="round" stroke-linejoin="round"/>
<path d="M4 13C7.31371 13 10 15.6863 10 19" stroke="black" stroke-width="1.5" stroke-linecap="round" stroke-linejoin="round"/>
<path d="M4 19.5C4.27614 19.5 4.5 19.2761 4.5 19C4.5 18.7239 4.27614 18.5 4 18.5C3.72386 18.5 3.5 18.7239 3.5 19C3.5 19.2761 3.72386 19.5 4 19.5Z" fill="black" stroke="black" stroke-width="0.5" stroke-miterlimit="10"/>
</g>
<defs>
<clipPath id="clip0_2959_446">
<rect width="24" height="24" fill="white"/>
</clipPath>
</defs>
</svg>
