<svg width="24" height="24" viewBox="0 0 24 24" fill="none" xmlns="http://www.w3.org/2000/svg">
<path d="M4 9C4 11.7614 6.23857 14 8.99999 14H14C15.1046 14 16 13.1046 16 12V11C16 9.89543 16.8954 9 18 9M4 9C4 6.23857 6.23857 4 8.99999 4H19C19.5523 4 20 4.44772 20 5V7C20 8.10457 19.1046 9 18 9M4 9H18M4 16V20M4 18H6C8.20914 18 10 16.2091 10 14M18.9739 8.74083C19.6028 9.29074 20 10.099 20 11C20 12.6568 18.6568 14 17 14C16.3799 14 15.8037 13.8118 15.3254 13.4895" stroke="black" stroke-width="1.5" stroke-linecap="round" stroke-linejoin="round"/>
</svg>
