<svg width="24" height="24" viewBox="0 0 24 24" fill="none" xmlns="http://www.w3.org/2000/svg">
<path d="M17 11V10.25H16.1621L16.2546 11.0828L17 11ZM14.8107 5.94889L14.1083 6.2117C14.1992 6.45467 14.4092 6.63341 14.6635 6.68431C14.9179 6.73522 15.1805 6.65106 15.3579 6.46178L14.8107 5.94889ZM9.1893 5.94889L8.64208 6.46178C8.81948 6.65106 9.08209 6.73522 9.33646 6.68431C9.59084 6.63341 9.80084 6.45467 9.89174 6.2117L9.1893 5.94889ZM7 11L7.74541 11.0828L7.83795 10.25H7V11ZM6.24676 17.7791L6.99218 17.862L6.24676 17.7791ZM17.7532 17.7791L18.4987 17.6963L17.7532 17.7791ZM7 15.25C6.58579 15.25 6.25 15.5858 6.25 16C6.25 16.4142 6.58579 16.75 7 16.75V15.25ZM17 16.75C17.4142 16.75 17.75 16.4142 17.75 16C17.75 15.5858 17.4142 15.25 17 15.25V16.75ZM19.25 8C19.25 9.24264 18.2426 10.25 17 10.25V11.75C19.0711 11.75 20.75 10.0711 20.75 8H19.25ZM17 5.75C18.2426 5.75 19.25 6.75736 19.25 8H20.75C20.75 5.92893 19.0711 4.25 17 4.25V5.75ZM15.3579 6.46178C15.7694 6.02273 16.3523 5.75 17 5.75V4.25C15.9206 4.25 14.9467 4.70704 14.2635 5.43601L15.3579 6.46178ZM12 4.75C12.9641 4.75 13.7884 5.35672 14.1083 6.2117L15.5132 5.68609C14.9812 4.26423 13.61 3.25 12 3.25V4.75ZM9.89174 6.2117C10.2116 5.35672 11.0359 4.75 12 4.75V3.25C10.39 3.25 9.01881 4.26423 8.48685 5.68609L9.89174 6.2117ZM7 5.75C7.64773 5.75 8.23057 6.02273 8.64208 6.46178L9.73652 5.43601C9.05329 4.70704 8.07943 4.25 7 4.25V5.75ZM4.75 8C4.75 6.75736 5.75736 5.75 7 5.75V4.25C4.92893 4.25 3.25 5.92893 3.25 8H4.75ZM7 10.25C5.75736 10.25 4.75 9.24264 4.75 8H3.25C3.25 10.0711 4.92893 11.75 7 11.75V10.25ZM6.25459 10.9172L5.50135 17.6963L6.99218 17.862L7.74541 11.0828L6.25459 10.9172ZM8.23453 20.75H15.7655V19.25H8.23453V20.75ZM18.4987 17.6963L17.7454 10.9172L16.2546 11.0828L17.0078 17.862L18.4987 17.6963ZM15.7655 20.75C17.4045 20.75 18.6797 19.3253 18.4987 17.6963L17.0078 17.862C17.0901 18.6024 16.5105 19.25 15.7655 19.25V20.75ZM5.50135 17.6963C5.32035 19.3253 6.5955 20.75 8.23453 20.75V19.25C7.48952 19.25 6.9099 18.6024 6.99218 17.862L5.50135 17.6963ZM7 16.75H17V15.25H7V16.75Z" fill="black"/>
</svg>
