<svg width="24" height="24" viewBox="0 0 24 24" fill="none" xmlns="http://www.w3.org/2000/svg">
<path d="M6.5 15.4513C5.95396 15.2718 5.47122 14.9748 5.06478 14.5684C4.38301 13.8866 4 12.962 4 11.9978C4 11.0336 4.38301 10.109 5.06478 9.4272C5.41944 9.07254 5.83984 8.79873 6.29733 8.61763C6.47217 8.54842 6.60582 8.39982 6.64952 8.21694C7.22751 5.79824 9.40329 4 11.9991 4C14.5947 4 16.7704 5.79806 17.3485 8.21657C17.3922 8.39949 17.526 8.5481 17.7008 8.61728C18.1587 8.79838 18.5794 9.07232 18.9343 9.4272C19.616 10.109 19.999 11.0336 19.999 11.9978C19.999 12.962 19.616 13.8866 18.9343 14.5684C18.5281 14.9746 18.0356 15.2748 17.5 15.451M15.1014 13.3845L14.0837 18.6199M9.84853 13.3667L8.83088 18.6021M12.2293 14.1845L11.2116 19.4199" stroke="black" stroke-width="1.5" stroke-linecap="round" stroke-linejoin="round"/>
</svg>
