<svg width="24" height="24" viewBox="0 0 24 24" fill="none" xmlns="http://www.w3.org/2000/svg">
<path d="M5.06478 14.5684L4.53445 15.0987L4.53445 15.0987L5.06478 14.5684ZM5.06478 9.4272L4.53445 8.89687H4.53445L5.06478 9.4272ZM17.3485 8.21657L18.078 8.04221V8.04221L17.3485 8.21657ZM17.7008 8.61728L17.9767 7.91986L17.9767 7.91986L17.7008 8.61728ZM6.64952 8.21694L5.92006 8.04262L6.64952 8.21694ZM6.29733 8.61763L6.57338 9.31497H6.57338L6.29733 8.61763ZM6.26576 16.1638C6.65926 16.2932 7.08312 16.0791 7.21248 15.6856C7.34185 15.2921 7.12773 14.8682 6.73424 14.7389L6.26576 16.1638ZM17.2655 14.7386C16.8721 14.8681 16.6581 15.292 16.7876 15.6855C16.9171 16.0789 17.341 16.2929 17.7345 16.1634L17.2655 14.7386ZM9.09534 14.4316C8.68112 14.4316 8.34534 14.7674 8.34534 15.1816C8.34534 15.5958 8.68112 15.9316 9.09534 15.9316V14.4316ZM9.10534 15.9316C9.51955 15.9316 9.85534 15.5958 9.85534 15.1816C9.85534 14.7674 9.51955 14.4316 9.10534 14.4316V15.9316ZM9.09534 17.3406C8.68112 17.3406 8.34534 17.6764 8.34534 18.0906C8.34534 18.5048 8.68112 18.8406 9.09534 18.8406V17.3406ZM9.10534 18.8406C9.51955 18.8406 9.85534 18.5048 9.85534 18.0906C9.85534 17.6764 9.51955 17.3406 9.10534 17.3406V18.8406ZM12.0043 15.8861C11.5901 15.8861 11.2543 16.2219 11.2543 16.6361C11.2543 17.0504 11.5901 17.3861 12.0043 17.3861V15.8861ZM12.0143 17.3861C12.4285 17.3861 12.7643 17.0504 12.7643 16.6361C12.7643 16.2219 12.4285 15.8861 12.0143 15.8861V17.3861ZM12.0043 18.7953C11.5901 18.7953 11.2543 19.1311 11.2543 19.5453C11.2543 19.9595 11.5901 20.2953 12.0043 20.2953V18.7953ZM12.0143 20.2953C12.4285 20.2953 12.7643 19.9595 12.7643 19.5453C12.7643 19.1311 12.4285 18.7953 12.0143 18.7953V20.2953ZM14.9135 14.4316C14.4993 14.4316 14.1635 14.7674 14.1635 15.1816C14.1635 15.5958 14.4993 15.9316 14.9135 15.9316V14.4316ZM14.9235 15.9316C15.3377 15.9316 15.6735 15.5958 15.6735 15.1816C15.6735 14.7674 15.3377 14.4316 14.9235 14.4316V15.9316ZM14.9135 17.3406C14.4993 17.3406 14.1635 17.6764 14.1635 18.0906C14.1635 18.5048 14.4993 18.8406 14.9135 18.8406V17.3406ZM14.9235 18.8406C15.3377 18.8406 15.6735 18.5048 15.6735 18.0906C15.6735 17.6764 15.3377 17.3406 14.9235 17.3406V18.8406ZM19.4646 15.0987C20.287 14.2763 20.749 13.1609 20.749 11.9978H19.249C19.249 12.7631 18.945 13.497 18.4039 14.0381L19.4646 15.0987ZM20.749 11.9978C20.749 10.8347 20.287 9.71929 19.4646 8.89687L18.4039 9.95753C18.945 10.4986 19.249 11.2326 19.249 11.9978H20.749ZM5.59511 14.0381C5.05399 13.497 4.75 12.7631 4.75 11.9978H3.25C3.25 13.1609 3.71203 14.2763 4.53445 15.0987L5.59511 14.0381ZM4.75 11.9978C4.75 11.2326 5.05399 10.4986 5.59511 9.95753L4.53445 8.89687C3.71203 9.71929 3.25 10.8347 3.25 11.9978H4.75ZM11.9991 4.75C14.2398 4.75 16.1198 6.30223 16.6191 8.39094L18.078 8.04221C17.421 5.29389 14.9496 3.25 11.9991 3.25V4.75ZM19.4646 8.89687C19.0365 8.46877 18.529 8.13831 17.9767 7.91986L17.425 9.3147C17.7884 9.45846 18.1223 9.67586 18.4039 9.95753L19.4646 8.89687ZM7.37898 8.39125C7.87815 6.30239 9.75824 4.75 11.9991 4.75V3.25C9.04833 3.25 6.57687 5.2941 5.92006 8.04262L7.37898 8.39125ZM5.59511 9.95753C5.8766 9.67604 6.21023 9.45873 6.57338 9.31497L6.02128 7.92028C5.46944 8.13873 4.96228 8.46904 4.53445 8.89687L5.59511 9.95753ZM5.92006 8.04262C5.93578 7.97685 5.9793 7.9369 6.02128 7.92028L6.57338 9.31497C6.96503 9.15994 7.27586 8.82279 7.37898 8.39125L5.92006 8.04262ZM16.6191 8.39094C16.7222 8.82256 17.0332 9.15973 17.425 9.3147L17.9767 7.91986C18.0187 7.93647 18.0622 7.97642 18.078 8.04221L16.6191 8.39094ZM6.73424 14.7389C6.29979 14.596 5.91848 14.3614 5.59511 14.0381L4.53445 15.0987C5.02396 15.5882 5.60812 15.9476 6.26576 16.1638L6.73424 14.7389ZM17.7345 16.1634C18.3805 15.9508 18.9746 15.5887 19.4646 15.0987L18.4039 14.0381C18.0815 14.3605 17.6907 14.5987 17.2655 14.7386L17.7345 16.1634ZM9.09534 15.9316H9.10534V14.4316H9.09534V15.9316ZM9.09534 18.8406H9.10534V17.3406H9.09534V18.8406ZM12.0043 17.3861H12.0143V15.8861H12.0043V17.3861ZM12.0043 20.2953H12.0143V18.7953H12.0043V20.2953ZM14.9135 15.9316H14.9235V14.4316H14.9135V15.9316ZM14.9135 18.8406H14.9235V17.3406H14.9135V18.8406Z" fill="black"/>
</svg>
