<svg width="24" height="24" viewBox="0 0 24 24" fill="none" xmlns="http://www.w3.org/2000/svg">
<path d="M16.8477 11.035C16.9371 10.7029 17 10.3604 17 10C17 7.79083 15.2092 6 13 6C11.5016 6 10.2112 6.83356 9.526 8.05304C9.35455 8.02258 9.18017 8 9 8C7.34314 8 6 9.34314 6 11C6 11.395 6.08087 11.7701 6.2196 12.1155C4.94372 12.4607 4 13.6149 4 15C4 16.6569 5.34314 18 7 18H16.5C18.433 18 20 16.433 20 14.5C20 12.6861 18.615 11.212 16.8477 11.035Z" stroke="black" stroke-width="1.5" stroke-linecap="round" stroke-linejoin="round"/>
</svg>
