<svg width="24" height="24" viewBox="0 0 24 24" fill="none" xmlns="http://www.w3.org/2000/svg">
<path d="M5.06478 11.4272L4.53445 10.8969H4.53445L5.06478 11.4272ZM17.3485 10.2166L18.078 10.0422V10.0422L17.3485 10.2166ZM17.7008 10.6173L17.9767 9.91986L17.9767 9.91986L17.7008 10.6173ZM6.64952 10.2169L5.92006 10.0426L6.64952 10.2169ZM6.29733 10.6176L6.57338 11.315H6.57338L6.29733 10.6176ZM16.3637 18.3832C17.5267 18.3832 18.6422 17.9212 19.4646 17.0987L18.4039 16.0381C17.8628 16.5792 17.1289 16.8832 16.3637 16.8832V18.3832ZM19.4646 17.0987C20.287 16.2763 20.749 15.1609 20.749 13.9978H19.249C19.249 14.7631 18.945 15.497 18.4039 16.0381L19.4646 17.0987ZM20.749 13.9978C20.749 12.8347 20.287 11.7193 19.4646 10.8969L18.4039 11.9575C18.945 12.4986 19.249 13.2326 19.249 13.9978H20.749ZM7.63538 16.8832C6.87013 16.8832 6.13622 16.5792 5.59511 16.0381L4.53445 17.0987C5.35687 17.9212 6.4723 18.3832 7.63538 18.3832V16.8832ZM5.59511 16.0381C5.05399 15.497 4.75 14.7631 4.75 13.9978H3.25C3.25 15.1609 3.71203 16.2763 4.53445 17.0987L5.59511 16.0381ZM4.75 13.9978C4.75 13.2326 5.05399 12.4986 5.59511 11.9575L4.53445 10.8969C3.71203 11.7193 3.25 12.8347 3.25 13.9978H4.75ZM11.9991 6.75C14.2398 6.75 16.1198 8.30223 16.6191 10.3909L18.078 10.0422C17.421 7.29389 14.9496 5.25 11.9991 5.25V6.75ZM19.4646 10.8969C19.0365 10.4688 18.529 10.1383 17.9767 9.91986L17.425 11.3147C17.7884 11.4585 18.1223 11.6759 18.4039 11.9575L19.4646 10.8969ZM7.37898 10.3913C7.87815 8.30239 9.75824 6.75 11.9991 6.75V5.25C9.04833 5.25 6.57687 7.2941 5.92006 10.0426L7.37898 10.3913ZM5.59511 11.9575C5.8766 11.676 6.21023 11.4587 6.57338 11.315L6.02128 9.92028C5.46944 10.1387 4.96228 10.469 4.53445 10.8969L5.59511 11.9575ZM5.92006 10.0426C5.93578 9.97685 5.9793 9.9369 6.02128 9.92028L6.57338 11.315C6.96503 11.1599 7.27586 10.8228 7.37898 10.3913L5.92006 10.0426ZM16.6191 10.3909C16.7222 10.8226 17.0332 11.1597 17.425 11.3147L17.9767 9.91986C18.0187 9.93647 18.0622 9.97642 18.078 10.0422L16.6191 10.3909ZM7.63538 18.3832H16.3637V16.8832H7.63538V18.3832Z" fill="black"/>
</svg>
