<svg width="24" height="24" viewBox="0 0 24 24" fill="none" xmlns="http://www.w3.org/2000/svg">
<path d="M16.75 13C16.75 12.5858 16.4142 12.25 16 12.25C15.5858 12.25 15.25 12.5858 15.25 13H16.75ZM8.75 13C8.75 12.5858 8.41421 12.25 8 12.25C7.58579 12.25 7.25 12.5858 7.25 13H8.75ZM15.894 4.21045L15.5583 4.88112L15.8586 5.03141L16.1706 4.90757L15.894 4.21045ZM13.0012 6.07107L12.2517 6.09724L12.2736 6.72451L12.8949 6.81349L13.0012 6.07107ZM18.6743 10.8835L17.9593 11.11L18.1944 11.8519L18.9271 11.5896L18.6743 10.8835ZM19.7896 8.10599L19.0924 7.82936L18.9686 8.14145L19.1189 8.44169L19.7896 8.10599ZM8.10599 4.21045L7.82936 4.90757L8.14145 5.03141L8.44169 4.88112L8.10599 4.21045ZM10.9988 6.07107L11.1051 6.81349L11.7264 6.72451L11.7483 6.09725L10.9988 6.07107ZM5.32568 10.8835L5.07285 11.5896L5.80558 11.8519L6.04065 11.11L5.32568 10.8835ZM4.21045 8.10599L4.88112 8.44169L5.03141 8.14145L4.90757 7.82936L4.21045 8.10599ZM14.75 10C14.75 9.58579 14.4142 9.25 14 9.25C13.5858 9.25 13.25 9.58579 13.25 10H14.75ZM13.25 11C13.25 11.4142 13.5858 11.75 14 11.75C14.4142 11.75 14.75 11.4142 14.75 11H13.25ZM10.75 10C10.75 9.58579 10.4142 9.25 10 9.25C9.58579 9.25 9.25 9.58579 9.25 10H10.75ZM9.25 11C9.25 11.4142 9.58579 11.75 10 11.75C10.4142 11.75 10.75 11.4142 10.75 11H9.25ZM18.25 13C18.25 16.4518 15.4518 19.25 12 19.25V20.75C16.2802 20.75 19.75 17.2802 19.75 13H18.25ZM12 19.25C8.54822 19.25 5.75 16.4518 5.75 13H4.25C4.25 17.2802 7.71979 20.75 12 20.75V19.25ZM5.75 13C5.75 9.54822 8.54822 6.75 12 6.75V5.25C7.71979 5.25 4.25 8.71979 4.25 13H5.75ZM12 6.75C15.4518 6.75 18.25 9.54822 18.25 13H19.75C19.75 8.71979 16.2802 5.25 12 5.25V6.75ZM15.25 13C15.25 14.7949 13.7949 16.25 12 16.25V17.75C14.6234 17.75 16.75 15.6234 16.75 13H15.25ZM12 16.25C10.2051 16.25 8.75 14.7949 8.75 13H7.25C7.25 15.6234 9.37665 17.75 12 17.75V16.25ZM15 4.75C15.2022 4.75 15.3911 4.79744 15.5583 4.88112L16.2297 3.53977C15.8588 3.35412 15.4405 3.25 15 3.25V4.75ZM13.75 6C13.75 5.30964 14.3096 4.75 15 4.75V3.25C13.4812 3.25 12.25 4.48122 12.25 6H13.75ZM13.7508 6.04489C13.7503 6.03003 13.75 6.01506 13.75 6H12.25C12.25 6.03251 12.2506 6.06493 12.2517 6.09724L13.7508 6.04489ZM12.8949 6.81349C15.2875 7.15616 17.2454 8.85659 17.9593 11.11L19.3893 10.6569C18.5041 7.86287 16.0791 5.75423 13.1076 5.32864L12.8949 6.81349ZM19.25 9C19.25 9.54129 18.9055 10.0041 18.4215 10.1774L18.9271 11.5896C19.9887 11.2095 20.75 10.1946 20.75 9H19.25ZM19.1189 8.44169C19.2026 8.60887 19.25 8.79782 19.25 9H20.75C20.75 8.55951 20.6459 8.14118 20.4602 7.77028L19.1189 8.44169ZM19.25 7C19.25 7.29432 19.1939 7.57371 19.0924 7.82936L20.4867 8.38261C20.6568 7.95379 20.75 7.48686 20.75 7H19.25ZM17 4.75C18.2426 4.75 19.25 5.75736 19.25 7H20.75C20.75 4.92893 19.0711 3.25 17 3.25V4.75ZM16.1706 4.90757C16.4263 4.80613 16.7057 4.75 17 4.75V3.25C16.5131 3.25 16.0462 3.34316 15.6174 3.51333L16.1706 4.90757ZM9 3.25C8.55951 3.25 8.14118 3.35412 7.77028 3.53978L8.44169 4.88112C8.60887 4.79744 8.79782 4.75 9 4.75V3.25ZM11.75 6C11.75 4.48122 10.5188 3.25 9 3.25V4.75C9.69036 4.75 10.25 5.30964 10.25 6H11.75ZM11.7483 6.09725C11.7494 6.06494 11.75 6.03252 11.75 6H10.25C10.25 6.01506 10.2497 6.03002 10.2492 6.04488L11.7483 6.09725ZM6.04065 11.11C6.75459 8.8566 8.7125 7.15616 11.1051 6.81349L10.8924 5.32864C7.92088 5.75423 5.49594 7.86287 4.6107 10.6569L6.04065 11.11ZM3.25 9C3.25 10.1946 4.01131 11.2095 5.07285 11.5896L5.5785 10.1774C5.09446 10.0041 4.75 9.54129 4.75 9H3.25ZM3.53978 7.77028C3.35412 8.14119 3.25 8.55951 3.25 9H4.75C4.75 8.79782 4.79744 8.60887 4.88112 8.44169L3.53978 7.77028ZM3.25 7C3.25 7.48686 3.34316 7.95379 3.51333 8.38261L4.90757 7.82936C4.80613 7.57371 4.75 7.29432 4.75 7H3.25ZM7 3.25C4.92893 3.25 3.25 4.92893 3.25 7H4.75C4.75 5.75736 5.75736 4.75 7 4.75V3.25ZM8.38261 3.51333C7.95379 3.34316 7.48686 3.25 7 3.25V4.75C7.29432 4.75 7.57371 4.80613 7.82936 4.90757L8.38261 3.51333ZM13.25 10V11H14.75V10H13.25ZM9.25 10V11H10.75V10H9.25Z" fill="black"/>
</svg>
