<svg width="24" height="24" viewBox="0 0 24 24" fill="none" xmlns="http://www.w3.org/2000/svg">
<path d="M12.5 20C16.9183 20 20.5 16.4183 20.5 12C20.5 7.58172 16.9183 4 12.5 4C8.08172 4 4.5 7.58172 4.5 12C4.5 16.4183 8.08172 20 12.5 20Z" stroke="black" stroke-width="1.5" stroke-linecap="round" stroke-linejoin="round"/>
<path d="M14.4321 8.78578C15.1991 8.6485 15.8351 9.28455 15.6978 10.0516C15.4877 11.2255 15.0546 12.821 14.1876 13.688C13.3206 14.555 11.7251 14.9881 10.5512 15.1982C9.78416 15.3355 9.14811 14.6995 9.28539 13.9324C9.49552 12.7585 9.92864 11.163 10.7956 10.296C11.6626 9.42903 13.2581 8.99591 14.4321 8.78578Z" stroke="black" stroke-width="1.5" stroke-linecap="round" stroke-linejoin="round"/>
</svg>
