<svg width="24" height="24" viewBox="0 0 24 24" fill="none" xmlns="http://www.w3.org/2000/svg">
<path d="M12.5 12C12.5 12.2761 12.2761 12.5 12 12.5C11.7239 12.5 11.5 12.2761 11.5 12C11.5 11.7239 11.7239 11.5 12 11.5C12.2761 11.5 12.5 11.7239 12.5 12Z" fill="black"/>
<path d="M20 12C20 16.4183 16.4183 20 12 20M20 12C20 7.58172 16.4183 4 12 4M20 12L18 12M12 20C7.58172 20 4 16.4183 4 12M12 20V18M4 12C4 7.58172 7.58172 4 12 4M4 12L6.00002 12M12 4L12 6M14.441 8.35977L10.718 9.21892C9.97277 9.39089 9.39089 9.97278 9.21892 10.718L8.35977 14.441C8.1936 15.161 8.83895 15.8064 9.55902 15.6402L13.282 14.7811C14.0272 14.6091 14.6091 14.0272 14.7811 13.282L15.6402 9.55902C15.8064 8.83895 15.161 8.1936 14.441 8.35977ZM12.5 12C12.5 12.2761 12.2761 12.5 12 12.5C11.7239 12.5 11.5 12.2761 11.5 12C11.5 11.7239 11.7239 11.5 12 11.5C12.2761 11.5 12.5 11.7239 12.5 12Z" stroke="black" stroke-width="1.5" stroke-linecap="round" stroke-linejoin="round"/>
</svg>
