<svg width="24" height="24" viewBox="0 0 24 24" fill="none" xmlns="http://www.w3.org/2000/svg">
<path d="M14.9304 17.0233L14.6932 16.3118H14.6932L14.9304 17.0233ZM6.79509 19.7351L7.03226 20.4466H7.03226L6.79509 19.7351ZM4.26527 17.2053L4.97678 17.4424L4.26527 17.2053ZM6.97703 9.07L7.68854 9.30717L6.97703 9.07ZM13.47 18.0303C13.7629 18.3232 14.2378 18.3232 14.5307 18.0303C14.8236 17.7374 14.8236 17.2626 14.5307 16.9697L13.47 18.0303ZM9.27046 19.3308C9.56335 19.6237 10.0382 19.6237 10.3311 19.3308C10.624 19.0379 10.624 18.563 10.3311 18.2701L9.27046 19.3308ZM11.0004 3.25C10.5861 3.25 10.2504 3.58579 10.2504 4C10.2504 4.41421 10.5861 4.75 11.0004 4.75V3.25ZM12.0836 6.62446C11.8762 6.983 11.9987 7.4418 12.3573 7.6492C12.7158 7.85661 13.1746 7.73409 13.382 7.37554L12.0836 6.62446ZM19.2504 13C19.2504 13.4142 19.5861 13.75 20.0004 13.75C20.4146 13.75 20.7504 13.4142 20.7504 13H19.2504ZM16.6248 10.6184C16.2663 10.8258 16.1437 11.2846 16.3512 11.6431C16.5586 12.0017 17.0174 12.1242 17.3759 11.9168L16.6248 10.6184ZM14.2504 9C14.2504 9.41422 14.5861 9.75 15.0004 9.75C15.4146 9.75 15.7504 9.41422 15.7504 9H14.2504ZM17.5004 6.5L17.6474 7.23544L17.5004 6.5ZM20.7504 4C20.7504 3.58579 20.4146 3.25 20.0004 3.25C19.5861 3.25 19.2504 3.58579 19.2504 4L20.7504 4ZM14.6932 16.3118L6.55792 19.0236L7.03226 20.4466L15.1675 17.7348L14.6932 16.3118ZM4.97678 17.4424L7.68854 9.30717L6.26551 8.83283L3.55376 16.9681L4.97678 17.4424ZM9.75828 8.81858L15.1818 14.2421L16.2424 13.1814L10.8189 7.75792L9.75828 8.81858ZM6.55792 19.0236C5.58072 19.3493 4.65105 18.4196 4.97678 17.4424L3.55376 16.9681C2.83715 19.1179 4.88242 21.1632 7.03226 20.4466L6.55792 19.0236ZM15.1675 17.7348C17.1069 17.0884 17.688 14.627 16.2424 13.1814L15.1818 14.2421C15.8388 14.8991 15.5747 16.018 14.6932 16.3118L15.1675 17.7348ZM7.68854 9.30717C7.98239 8.42563 9.10121 8.16151 9.75828 8.81858L10.8189 7.75792C9.3734 6.31238 6.91198 6.89343 6.26551 8.83283L7.68854 9.30717ZM5.97003 10.5303L13.47 18.0303L14.5307 16.9697L7.03069 9.46967L5.97003 10.5303ZM4.77752 14.8378L9.27046 19.3308L10.3311 18.2701L5.83818 13.7772L4.77752 14.8378ZM11.0004 4.75C11.6907 4.75 12.2504 5.30964 12.2504 6H13.7504C13.7504 4.48122 12.5191 3.25 11.0004 3.25V4.75ZM12.2504 6C12.2504 6.22892 12.1895 6.44136 12.0836 6.62446L13.382 7.37554C13.6164 6.97029 13.7504 6.49965 13.7504 6H12.2504ZM20.7504 13C20.7504 11.4812 19.5191 10.25 18.0004 10.25V11.75C18.6907 11.75 19.2504 12.3096 19.2504 13H20.7504ZM18.0004 10.25C17.5007 10.25 17.0301 10.3839 16.6248 10.6184L17.3759 11.9168C17.559 11.8109 17.7714 11.75 18.0004 11.75V10.25ZM15.0004 9C15.7504 9 15.7504 9.00045 15.7504 9.0009C15.7504 9.00103 15.7504 9.00147 15.7504 9.00175C15.7504 9.0023 15.7504 9.00283 15.7504 9.00332C15.7503 9.00432 15.7503 9.0052 15.7503 9.00598C15.7503 9.00752 15.7503 9.00863 15.7503 9.00931C15.7503 9.01066 15.7503 9.01032 15.7503 9.00838C15.7505 9.00449 15.751 8.99431 15.7524 8.97863C15.7551 8.94709 15.7613 8.89446 15.7749 8.82678C15.8022 8.69018 15.8576 8.50125 15.9685 8.30173C16.1753 7.92945 16.6156 7.44181 17.6474 7.23544L17.3533 5.76457C15.8851 6.05819 15.0754 6.82056 14.6572 7.57327C14.4556 7.93625 14.3548 8.27857 14.304 8.5326C14.2785 8.66023 14.2651 8.76776 14.2581 8.84755C14.2546 8.88753 14.2527 8.92081 14.2516 8.94645C14.2511 8.95929 14.2508 8.97024 14.2506 8.97919C14.2505 8.98367 14.2504 8.98765 14.2504 8.99113C14.2504 8.99286 14.2504 8.99447 14.2504 8.99595C14.2504 8.99669 14.2504 8.9974 14.2504 8.99807C14.2504 8.99841 14.2504 8.99889 14.2504 8.99906C14.2504 8.99954 14.2504 9 15.0004 9ZM17.6474 7.23544C19.1156 6.94181 19.9253 6.17945 20.3435 5.42673C20.5451 5.06375 20.6459 4.72143 20.6967 4.4674C20.7223 4.33978 20.7356 4.23224 20.7426 4.15245C20.7461 4.11247 20.7481 4.0792 20.7491 4.05355C20.7496 4.04072 20.75 4.02977 20.7501 4.02081C20.7502 4.01633 20.7503 4.01235 20.7503 4.00888C20.7503 4.00714 20.7503 4.00553 20.7504 4.00405C20.7504 4.00331 20.7504 4.00261 20.7504 4.00193C20.7504 4.00159 20.7504 4.00111 20.7504 4.00094C20.7504 4.00047 20.7504 4 20.0004 4C19.2504 4 19.2504 3.99955 19.2504 3.99911C19.2504 3.99897 19.2504 3.99853 19.2504 3.99826C19.2504 3.9977 19.2504 3.99718 19.2504 3.99668C19.2504 3.99568 19.2504 3.9948 19.2504 3.99403C19.2504 3.99248 19.2504 3.99138 19.2504 3.9907C19.2505 3.98934 19.2505 3.98968 19.2504 3.99162C19.2502 3.99551 19.2497 4.00569 19.2483 4.02138C19.2456 4.05292 19.2394 4.10554 19.2259 4.17323C19.1985 4.30982 19.1431 4.49875 19.0322 4.69827C18.8254 5.07056 18.3851 5.55819 17.3533 5.76457L17.6474 7.23544Z" fill="black"/>
</svg>
