<svg width="24" height="24" viewBox="0 0 24 24" fill="none" xmlns="http://www.w3.org/2000/svg">
<path d="M13.5 4.75C13.9142 4.75 14.25 4.41421 14.25 4C14.25 3.58579 13.9142 3.25 13.5 3.25V4.75ZM16.75 16C16.75 15.5858 16.4142 15.25 16 15.25C15.5858 15.25 15.25 15.5858 15.25 16H16.75ZM12 11.25C11.5858 11.25 11.25 11.5858 11.25 12C11.25 12.4142 11.5858 12.75 12 12.75V11.25ZM16.75 7C16.75 6.58579 16.4142 6.25 16 6.25C15.5858 6.25 15.25 6.58579 15.25 7H16.75ZM19 12V12.75C19.4142 12.75 19.75 12.4142 19.75 12H19ZM13 12H12.25C12.25 12.4142 12.5858 12.75 13 12.75V12ZM7 4.75H13.5V3.25H7V4.75ZM13 19.25H7V20.75H13V19.25ZM4.75 17V7H3.25V17H4.75ZM15.25 16V17H16.75V16H15.25ZM7 19.25C5.75736 19.25 4.75 18.2426 4.75 17H3.25C3.25 19.0711 4.92893 20.75 7 20.75V19.25ZM13 20.75C15.0711 20.75 16.75 19.0711 16.75 17H15.25C15.25 18.2426 14.2426 19.25 13 19.25V20.75ZM7 3.25C4.92893 3.25 3.25 4.92893 3.25 7H4.75C4.75 5.75736 5.75736 4.75 7 4.75V3.25ZM9.75 16.5C9.75 16.3619 9.86193 16.25 10 16.25V17.75C10.6904 17.75 11.25 17.1904 11.25 16.5H9.75ZM10 16.25C10.1381 16.25 10.25 16.3619 10.25 16.5H8.75C8.75 17.1904 9.30964 17.75 10 17.75V16.25ZM10.25 16.5C10.25 16.6381 10.1381 16.75 10 16.75V15.25C9.30964 15.25 8.75 15.8096 8.75 16.5H10.25ZM10 16.75C9.86193 16.75 9.75 16.6381 9.75 16.5H11.25C11.25 15.8096 10.6904 15.25 10 15.25V16.75ZM12 12.75H20V11.25H12V12.75ZM15.25 7V8H16.75V7H15.25ZM13.75 11C13.75 9.75736 14.7574 8.75 16 8.75V7.25C13.9289 7.25 12.25 8.92893 12.25 11H13.75ZM16 8.75C17.2426 8.75 18.25 9.75736 18.25 11H19.75C19.75 8.92893 18.0711 7.25 16 7.25V8.75ZM18.25 11V12H19.75V11H18.25ZM19 11.25H13V12.75H19V11.25ZM13.75 12V11H12.25V12H13.75Z" fill="black"/>
</svg>
