<svg width="24" height="24" viewBox="0 0 24 24" fill="none" xmlns="http://www.w3.org/2000/svg">
<path d="M10 15L14 8.99999M17.1644 6.98189C17.4645 7.84889 18.1511 8.53546 19.0181 8.83563C19.54 9.01632 20 9.44772 20 10V14C20 14.5523 19.54 14.9837 19.0181 15.1644C18.1511 15.4645 17.4645 16.1511 17.1644 17.0181C16.9837 17.54 16.5523 18 16 18H8C7.44772 18 7.01632 17.54 6.83563 17.0181C6.53546 16.1511 5.84889 15.4645 4.98189 15.1644C4.46 14.9837 4 14.5523 4 14V10C4 9.44772 4.46 9.01632 4.98189 8.83563C5.84889 8.53546 6.53546 7.84889 6.83563 6.98189C7.01632 6.46 7.44772 6 8 6H16C16.5523 6 16.9837 6.46 17.1644 6.98189ZM10 9.5C10 9.77614 9.77614 10 9.5 10C9.22386 10 9 9.77614 9 9.5C9 9.22386 9.22386 9 9.5 9C9.77614 9 10 9.22386 10 9.5ZM15 14.5C15 14.7761 14.7761 15 14.5 15C14.2239 15 14 14.7761 14 14.5C14 14.2239 14.2239 14 14.5 14C14.7761 14 15 14.2239 15 14.5Z" stroke="black" stroke-width="1.5" stroke-linecap="round"/>
</svg>
