<svg width="24" height="24" viewBox="0 0 24 24" fill="none" xmlns="http://www.w3.org/2000/svg">
<path d="M13.7743 13.9368C13.3601 13.9368 13.0243 14.2725 13.0243 14.6868C13.0243 15.101 13.3601 15.4368 13.7743 15.4368V13.9368ZM16.2665 15.4368C16.6807 15.4368 17.0165 15.101 17.0165 14.6868C17.0165 14.2725 16.6807 13.9368 16.2665 13.9368V15.4368ZM4.00001 15L4.75001 15V15L4.00001 15ZM4.00001 9L4.75001 9V9H4.00001ZM4 10.75H20V9.25H4V10.75ZM13.7743 15.4368H16.2665V13.9368H13.7743V15.4368ZM3.25001 15C3.25 17.0711 4.92893 18.75 7 18.75V17.25C5.75736 17.25 4.75 16.2426 4.75001 15L3.25001 15ZM19.25 15C19.25 16.2426 18.2427 17.25 17 17.25V18.75C19.0711 18.75 20.75 17.0711 20.75 15H19.25ZM20.75 9C20.75 6.92893 19.0711 5.25 17 5.25V6.75C18.2427 6.75 19.25 7.75736 19.25 9H20.75ZM4.75001 9C4.75001 7.75736 5.75737 6.75 7.00001 6.75V5.25C4.92894 5.25 3.25001 6.92893 3.25001 9H4.75001ZM19.25 9V15H20.75V9H19.25ZM4.75001 15L4.75001 9L3.25001 9L3.25001 15L4.75001 15ZM7.00001 6.75H17V5.25H7.00001V6.75ZM17 17.25H7V18.75H17V17.25Z" fill="black"/>
</svg>
