<svg width="25" height="24" viewBox="0 0 25 24" fill="none" xmlns="http://www.w3.org/2000/svg">
<path d="M14.5743 13.9368C14.1601 13.9368 13.8243 14.2725 13.8243 14.6868C13.8243 15.101 14.1601 15.4368 14.5743 15.4368V13.9368ZM17.0665 15.4368C17.4807 15.4368 17.8165 15.101 17.8165 14.6868C17.8165 14.2725 17.4807 13.9368 17.0665 13.9368V15.4368ZM4.79999 15L5.54999 15V15L4.79999 15ZM4.8 9L5.55 9V9H4.8ZM4.79999 10.75H20.8V9.25H4.79999V10.75ZM14.5743 15.4368H17.0665V13.9368H14.5743V15.4368ZM4.04999 15C4.04999 17.0711 5.72892 18.75 7.79999 18.75V17.25C6.55735 17.25 5.54999 16.2426 5.54999 15L4.04999 15ZM20.05 15C20.05 16.2426 19.0426 17.25 17.8 17.25V18.75C19.8711 18.75 21.55 17.0711 21.55 15H20.05ZM21.55 9C21.55 6.92893 19.8711 5.25 17.8 5.25V6.75C19.0426 6.75 20.05 7.75736 20.05 9H21.55ZM5.55 9C5.55 7.75736 6.55736 6.75 7.8 6.75V5.25C5.72893 5.25 4.05 6.92893 4.05 9H5.55ZM20.05 9V15H21.55V9H20.05ZM5.54999 15L5.55 9L4.05 9L4.04999 15L5.54999 15ZM7.8 6.75H17.8V5.25H7.8V6.75ZM17.8 17.25H7.79999V18.75H17.8V17.25Z" fill="#444748"/>
</svg>
