<svg width="24" height="24" viewBox="0 0 24 24" fill="none" xmlns="http://www.w3.org/2000/svg">
<path d="M12 20C13 20 13.5 19.5 14 19C14.5 19.5 15 20 16 20M12 20C11 20 10.5 19.5 10 19C9.5 19.5 9 20 8 20M12 20V11M16 20C17 20 17.5 19.5 18 19C18.5 19.5 19 20 20 20M16 20L18.5809 13.9778C18.8081 13.4479 18.5411 12.8361 17.9981 12.6422L13.009 10.8604C12.3565 10.6273 11.6435 10.6273 10.991 10.8604L6.00189 12.6422C5.45887 12.8361 5.19194 13.4479 5.41908 13.9778L8 20M8 20C7 20 6.5 19.5 6 19C5.5 19.5 5 20 4 20M17 12.5V9C17 7.89543 16.1046 7 15 7H9C7.89543 7 7 7.89543 7 9V12.5M9 4H15" stroke="black" stroke-width="1.5" stroke-linecap="round" stroke-linejoin="round"/>
</svg>
