<svg width="24" height="24" viewBox="0 0 24 24" fill="none" xmlns="http://www.w3.org/2000/svg">
<path d="M10.3777 11.9571L6.54076 9.4905C5.87525 9.06267 5 9.54051 5 10.3317V13.8622C5 14.8829 5.51906 15.8337 6.37773 16.3857L10.3777 18.9571C11.3659 19.5924 12.6341 19.5924 13.6223 18.9571L17.6223 16.3857C18.4809 15.8337 19 14.8829 19 13.8622V10.3317C19 9.54051 18.1248 9.06267 17.4592 9.4905L13.6223 11.9571M10.3777 11.9571C11.3659 12.5924 12.634 12.5924 13.6223 11.9571M10.3777 11.9571L6.3085 9.34119C5.69618 8.94755 5.69618 8.05247 6.3085 7.65883L10.3777 5.0429C11.3659 4.40762 12.6341 4.40762 13.6223 5.0429L17.6915 7.65883C18.3038 8.05247 18.3038 8.94755 17.6915 9.34119L13.6223 11.9571M12 13V19" stroke="black" stroke-width="1.5" stroke-linecap="round"/>
</svg>
