<svg width="24" height="24" viewBox="0 0 24 24" fill="none" xmlns="http://www.w3.org/2000/svg">
<path d="M10.775 19.943C10.775 20.3572 11.1108 20.693 11.525 20.693C11.9392 20.693 12.275 20.3572 12.275 19.943H10.775ZM12.275 12C12.275 11.5858 11.9392 11.25 11.525 11.25C11.1108 11.25 10.775 11.5858 10.775 12H12.275ZM5.20443 7.58416C4.84361 7.38074 4.3862 7.50835 4.18278 7.86917C3.97937 8.23 4.10697 8.68741 4.4678 8.89082L5.20443 7.58416ZM11.525 12.0084L11.1567 12.6617C11.3794 12.7872 11.6507 12.7907 11.8765 12.6709L11.525 12.0084ZM18.9834 8.90001C19.3493 8.70587 19.4886 8.25186 19.2944 7.88597C19.1003 7.52007 18.6463 7.38083 18.2804 7.57497L18.9834 8.90001ZM12.7431 19.6843L13.1074 20.3399L12.7431 19.6843ZM10.3068 19.6843L10.6711 19.0287L10.3068 19.6843ZM4 14.7046L4.75 14.7046V14.7046L4 14.7046ZM5.29018 16.8973L4.92594 17.5529H4.92594L5.29018 16.8973ZM17.7598 16.8973L17.3956 16.2417L17.7598 16.8973ZM10.3068 4.31564L9.94261 3.66002L10.3068 4.31564ZM12.7431 4.31564L12.3789 4.97126L12.7431 4.31564ZM17.7598 7.10267L18.124 6.44705L17.7598 7.10267ZM4.00001 9.29535L4.75001 9.29535V9.29535H4.00001ZM5.29018 7.10267L4.92595 6.44705L5.29018 7.10267ZM12.275 19.943V12H10.775V19.943H12.275ZM4.4678 8.89082L11.1567 12.6617L11.8933 11.355L5.20443 7.58416L4.4678 8.89082ZM11.8765 12.6709L18.9834 8.90001L18.2804 7.57497L11.1735 11.3458L11.8765 12.6709ZM5.65442 7.75829L10.6711 4.97126L9.94261 3.66002L4.92595 6.44705L5.65442 7.75829ZM12.3789 4.97126L17.3956 7.75829L18.124 6.44705L13.1074 3.66002L12.3789 4.97126ZM17.3956 16.2417L12.3789 19.0287L13.1074 20.3399L18.124 17.5529L17.3956 16.2417ZM10.6711 19.0287L5.65441 16.2417L4.92594 17.5529L9.94261 20.3399L10.6711 19.0287ZM12.3789 19.0287C11.8479 19.3237 11.2021 19.3237 10.6711 19.0287L9.94261 20.3399C10.9267 20.8867 12.1233 20.8867 13.1074 20.3399L12.3789 19.0287ZM3.25 14.7046C3.25 15.8879 3.89153 16.9782 4.92594 17.5529L5.65441 16.2417C5.0962 15.9316 4.75 15.3432 4.75 14.7046L3.25 14.7046ZM18.3 14.7046C18.3 15.3432 17.9538 15.9316 17.3956 16.2417L18.124 17.5529C19.1584 16.9782 19.8 15.8879 19.8 14.7046H18.3ZM10.6711 4.97126C11.2021 4.67623 11.8479 4.67623 12.3789 4.97126L13.1074 3.66002C12.1233 3.11331 10.9267 3.11331 9.94261 3.66002L10.6711 4.97126ZM19.8 9.29535C19.8 8.11203 19.1584 7.02172 18.124 6.44705L17.3956 7.75829C17.9538 8.0684 18.3 8.65678 18.3 9.29535H19.8ZM4.75001 9.29535C4.75001 8.65678 5.09621 8.06841 5.65442 7.75829L4.92595 6.44705C3.89154 7.02172 3.25001 8.11203 3.25001 9.29535H4.75001ZM18.3 9.29535V14.7046H19.8V9.29535H18.3ZM4.75 14.7046L4.75001 9.29535L3.25001 9.29534L3.25 14.7046L4.75 14.7046Z" fill="black"/>
</svg>
