<svg width="24" height="24" viewBox="0 0 24 24" fill="none" xmlns="http://www.w3.org/2000/svg">
<path d="M12.5 6.5C12.5 6.77614 12.2761 7 12 7C11.7239 7 11.5 6.77614 11.5 6.5C11.5 6.22386 11.7239 6 12 6C12.2761 6 12.5 6.22386 12.5 6.5Z" fill="black"/>
<path d="M16 8.5C16 8.77614 15.7761 9 15.5 9C15.2239 9 15 8.77614 15 8.5C15 8.22386 15.2239 8 15.5 8C15.7761 8 16 8.22386 16 8.5Z" fill="black"/>
<path d="M9 8.5C9 8.77614 8.77614 9 8.5 9C8.22386 9 8 8.77614 8 8.5C8 8.22386 8.22386 8 8.5 8C8.77614 8 9 8.22386 9 8.5Z" fill="black"/>
<path d="M14.855 15.4401L14.1178 15.3018L14.855 15.4401ZM9.14501 15.4401L9.88216 15.3018L9.14501 15.4401ZM18.9588 17.5529L18.2217 17.4146V17.4146L18.9588 17.5529ZM19.5089 14.619L20.2461 14.7572V14.7572L19.5089 14.619ZM15.1618 13.8039L15.8989 13.9421L15.1618 13.8039ZM5.04116 17.5529L4.30401 17.6911L5.04116 17.5529ZM4.49106 14.619L5.22822 14.4808L4.49106 14.619ZM3.68588 13.7342C3.81522 14.1277 4.23906 14.3418 4.63257 14.2125C5.02607 14.0832 5.24022 13.6593 5.11088 13.2658L3.68588 13.7342ZM14.1178 15.3018L13.2628 19.8618L14.7372 20.1382L15.5921 15.5783L14.1178 15.3018ZM14 19.25H10V20.75H14V19.25ZM10.7372 19.8618L9.88216 15.3018L8.40786 15.5783L9.26285 20.1382L10.7372 19.8618ZM12 12.75C13.3492 12.75 14.3665 13.9758 14.1178 15.3018L15.5921 15.5783C16.0139 13.3291 14.2884 11.25 12 11.25V12.75ZM12 11.25C9.71163 11.25 7.98614 13.3291 8.40786 15.5783L9.88216 15.3018C9.63353 13.9758 10.6508 12.75 12 12.75V11.25ZM18.7718 14.4808L18.2217 17.4146L19.696 17.6911L20.2461 14.7572L18.7718 14.4808ZM16.0102 19.25H14V20.75H16.0102V19.25ZM14.7372 20.1382L15.8989 13.9421L14.4246 13.6657L13.2628 19.8618L14.7372 20.1382ZM18.2217 17.4146C18.0221 18.4788 17.093 19.25 16.0102 19.25V20.75C17.8148 20.75 19.3634 19.4647 19.696 17.6911L18.2217 17.4146ZM17.3354 12.75C18.2504 12.75 18.9404 13.5814 18.7718 14.4808L20.2461 14.7572C20.5878 12.9347 19.1896 11.25 17.3354 11.25V12.75ZM17.3354 11.25C15.9102 11.25 14.6872 12.265 14.4246 13.6657L15.8989 13.9421C16.0285 13.2509 16.6321 12.75 17.3354 12.75V11.25ZM3.75391 14.7572L4.30401 17.6911L5.77832 17.4146L5.22822 14.4808L3.75391 14.7572ZM7.98978 20.75H10V19.25H7.98978V20.75ZM10.7372 19.8618L9.57539 13.6657L8.10108 13.9421L9.26285 20.1382L10.7372 19.8618ZM4.30401 17.6911C4.63657 19.4647 6.18522 20.75 7.98978 20.75V19.25C6.90705 19.25 5.97785 18.4788 5.77832 17.4146L4.30401 17.6911ZM6.66465 11.25C4.81036 11.25 3.41219 12.9347 3.75391 14.7572L5.22822 14.4808C5.05958 13.5814 5.74957 12.75 6.66465 12.75V11.25ZM6.66465 12.75C7.36793 12.75 7.97147 13.2509 8.10108 13.9421L9.57539 13.6657C9.31276 12.265 8.08975 11.25 6.66465 11.25V12.75ZM4.75 11C4.75 6.99594 7.99594 3.75 12 3.75V2.25C7.16751 2.25 3.25 6.16751 3.25 11H4.75ZM12 3.75C16.0041 3.75 19.25 6.99594 19.25 11H20.75C20.75 6.16751 16.8325 2.25 12 2.25V3.75ZM19.25 11C19.25 11.7925 19.1231 12.5539 18.8891 13.2658L20.3141 13.7342C20.5972 12.873 20.75 11.9536 20.75 11H19.25ZM5.11088 13.2658C4.87689 12.5539 4.75 11.7925 4.75 11H3.25C3.25 11.9536 3.40282 12.873 3.68588 13.7342L5.11088 13.2658ZM11.75 6.5C11.75 6.36193 11.8619 6.25 12 6.25V7.75C12.6904 7.75 13.25 7.19036 13.25 6.5H11.75ZM12 6.25C12.1381 6.25 12.25 6.36193 12.25 6.5H10.75C10.75 7.19036 11.3096 7.75 12 7.75V6.25ZM12.25 6.5C12.25 6.63807 12.1381 6.75 12 6.75V5.25C11.3096 5.25 10.75 5.80964 10.75 6.5H12.25ZM12 6.75C11.8619 6.75 11.75 6.63807 11.75 6.5H13.25C13.25 5.80964 12.6904 5.25 12 5.25V6.75ZM15.25 8.5C15.25 8.36193 15.3619 8.25 15.5 8.25V9.75C16.1904 9.75 16.75 9.19036 16.75 8.5H15.25ZM15.5 8.25C15.6381 8.25 15.75 8.36193 15.75 8.5H14.25C14.25 9.19036 14.8096 9.75 15.5 9.75V8.25ZM15.75 8.5C15.75 8.63807 15.6381 8.75 15.5 8.75V7.25C14.8096 7.25 14.25 7.80964 14.25 8.5H15.75ZM15.5 8.75C15.3619 8.75 15.25 8.63807 15.25 8.5H16.75C16.75 7.80964 16.1904 7.25 15.5 7.25V8.75ZM8.25 8.5C8.25 8.36193 8.36193 8.25 8.5 8.25V9.75C9.19036 9.75 9.75 9.19036 9.75 8.5H8.25ZM8.5 8.25C8.63807 8.25 8.75 8.36193 8.75 8.5H7.25C7.25 9.19036 7.80964 9.75 8.5 9.75V8.25ZM8.75 8.5C8.75 8.63807 8.63807 8.75 8.5 8.75V7.25C7.80964 7.25 7.25 7.80964 7.25 8.5H8.75ZM8.5 8.75C8.36193 8.75 8.25 8.63807 8.25 8.5H9.75C9.75 7.80964 9.19036 7.25 8.5 7.25V8.75Z" fill="black"/>
</svg>
