<svg width="24" height="24" viewBox="0 0 24 24" fill="none" xmlns="http://www.w3.org/2000/svg">
<path d="M7.2504 20C7.2504 20.4142 7.58619 20.75 8.0004 20.75C8.41461 20.75 8.7504 20.4142 8.7504 20H7.2504ZM15.0004 5H14.2504H15.0004ZM14.2504 20C14.2504 20.4142 14.5862 20.75 15.0004 20.75C15.4146 20.75 15.7504 20.4142 15.7504 20H14.2504ZM20.0004 8H19.2504H20.0004ZM20.0004 12H20.7504H20.7504H20.0004ZM18.0004 14V13.25V14ZM8.7504 4C8.7504 3.58579 8.41461 3.25 8.0004 3.25C7.58619 3.25 7.2504 3.58579 7.2504 4L8.7504 4ZM7.2504 9C7.2504 9.41421 7.58619 9.75 8.0004 9.75C8.41461 9.75 8.7504 9.41421 8.7504 9H7.2504ZM11.7446 3.90697C11.6932 3.49596 11.3184 3.20441 10.9074 3.25579C10.4964 3.30717 10.2048 3.68201 10.2562 4.09303L11.7446 3.90697ZM11.5043 8.03089L10.7601 8.12391L11.5043 8.03089ZM4.49654 8.03089L5.24075 8.12391L4.49654 8.03089ZM5.74461 4.09303C5.79598 3.68201 5.50444 3.30717 5.09343 3.25579C4.68241 3.20441 4.30757 3.49596 4.25619 3.90697L5.74461 4.09303ZM7.2504 12L7.2504 20H8.7504L8.7504 12H7.2504ZM14.2504 5V14H15.7504V5H14.2504ZM14.2504 14V20H15.7504V14H14.2504ZM19.2504 8L19.2504 12H20.7504V8L19.2504 8ZM18.0004 13.25H15.0004V14.75H18.0004V13.25ZM19.2504 12C19.2504 12.6904 18.6908 13.25 18.0004 13.25V14.75C19.5192 14.75 20.7504 13.5188 20.7504 12H19.2504ZM16.0004 4.75C17.7953 4.75 19.2504 6.20507 19.2504 8H20.7504C20.7504 5.37665 18.6238 3.25 16.0004 3.25V4.75ZM15.7504 5C15.7504 4.86193 15.8623 4.75 16.0004 4.75V3.25C15.0339 3.25 14.2504 4.0335 14.2504 5H15.7504ZM7.2504 4L7.2504 9H8.7504V4L7.2504 4ZM10.2562 4.09303L10.7601 8.12391L12.2485 7.93786L11.7446 3.90697L10.2562 4.09303ZM5.24075 8.12391L5.74461 4.09303L4.25619 3.90697L3.75233 7.93786L5.24075 8.12391ZM8.0004 11.25C6.32756 11.25 5.03326 9.78384 5.24075 8.12391L3.75233 7.93786C3.43293 10.4931 5.42531 12.75 8.0004 12.75V11.25ZM10.7601 8.12391C10.9675 9.78384 9.67324 11.25 8.0004 11.25V12.75C10.5755 12.75 12.5679 10.4931 12.2485 7.93786L10.7601 8.12391Z" fill="black"/>
</svg>
