<svg width="24" height="24" viewBox="0 0 24 24" fill="none" xmlns="http://www.w3.org/2000/svg">
<path d="M16 20C18.2091 20 20 18.2091 20 16C20 13.7909 18.2091 12 16 12C13.7909 12 12 13.7909 12 16C12 18.2091 13.7909 20 16 20Z" stroke="black" stroke-width="1.5" stroke-linecap="round" stroke-linejoin="round"/>
<path d="M16 10V7" stroke="black" stroke-width="1.5" stroke-linecap="round" stroke-linejoin="round"/>
<path d="M4 17V7" stroke="black" stroke-width="1.5" stroke-linecap="round" stroke-linejoin="round"/>
<path d="M13 4H7C5.34315 4 4 5.34315 4 7C4 8.65685 5.34315 10 7 10H13C14.6569 10 16 8.65685 16 7C16 5.34315 14.6569 4 13 4Z" stroke="black" stroke-width="1.5" stroke-linecap="round" stroke-linejoin="round"/>
<path d="M9 15H7C5.34315 15 4 13.6569 4 12" stroke="black" stroke-width="1.5" stroke-linecap="round" stroke-linejoin="round"/>
<path d="M10 20H7C5.34315 20 4 18.6569 4 17" stroke="black" stroke-width="1.5" stroke-linecap="round" stroke-linejoin="round"/>
<path d="M16 14.5005V15.5005" stroke="black" stroke-linecap="round" stroke-linejoin="round"/>
<path d="M16 18C16.2761 18 16.5 17.7761 16.5 17.5C16.5 17.2239 16.2761 17 16 17C15.7239 17 15.5 17.2239 15.5 17.5C15.5 17.7761 15.7239 18 16 18Z" fill="black"/>
</svg>
