<svg width="24" height="24" viewBox="0 0 24 24" fill="none" xmlns="http://www.w3.org/2000/svg">
<path d="M14.9672 16.4037L16 17L17.1543 15.0007M16 10V7M16 7C16 5.34315 14.6569 4 13 4H7C5.34315 4 4 5.34315 4 7M16 7C16 8.65685 14.6569 10 13 10H7C5.34315 10 4 8.65685 4 7M4 7V17C4 18.6569 5.34315 20 7 20H10M9 15H7C5.34315 15 4 13.6569 4 12M20 16C20 18.2091 18.2091 20 16 20C13.7909 20 12 18.2091 12 16C12 13.7909 13.7909 12 16 12C18.2091 12 20 13.7909 20 16Z" stroke="black" stroke-width="1.5" stroke-linecap="round" stroke-linejoin="round"/>
</svg>
