<svg width="24" height="24" viewBox="0 0 24 24" fill="none" xmlns="http://www.w3.org/2000/svg">
<path d="M20 20L18.267 18.267M17 11V7M17 7C17 5.34315 15.6569 4 14 4H8C6.34315 4 5 5.34315 5 7M17 7C17 8.65685 15.6569 10 14 10H8C6.34315 10 5 8.65685 5 7M5 7V17C5 18.6569 6.34315 20 8 20H12M11 15H8C6.34315 15 5 13.6569 5 12M19 16.5C19 17.8807 17.8807 19 16.5 19C15.1193 19 14 17.8807 14 16.5C14 15.1193 15.1193 14 16.5 14C17.8807 14 19 15.1193 19 16.5Z" stroke="black" stroke-width="1.5" stroke-linecap="round" stroke-linejoin="round"/>
</svg>
