<svg width="24" height="24" viewBox="0 0 24 24" fill="none" xmlns="http://www.w3.org/2000/svg">
<path d="M19.4932 13.2873L19.5576 14.5217C19.5864 15.0732 19.1626 15.5437 18.6111 15.5725L17.3767 15.6369M19.8428 17.9586C19.6154 18.6337 19.1481 19.2307 18.4796 19.6097C17.0383 20.4269 15.2075 19.9209 14.3903 18.4796C13.5731 17.0383 14.079 15.2075 15.5204 14.3903C16.7637 13.6853 18.297 13.965 19.2193 14.9805M16 11V7M16 7C16 5.34315 14.6569 4 13 4H7C5.34315 4 4 5.34315 4 7M16 7C16 8.65685 14.6569 10 13 10H7C5.34315 10 4 8.65685 4 7M4 7V17C4 18.6569 5.34315 20 7 20H12M11 15H7C5.34315 15 4 13.6569 4 12" stroke="black" stroke-width="1.5" stroke-linecap="round" stroke-linejoin="round"/>
</svg>
