<svg width="24" height="24" viewBox="0 0 24 24" fill="none" xmlns="http://www.w3.org/2000/svg">
<path d="M15.25 17C15.25 17.4142 15.5858 17.75 16 17.75C16.4142 17.75 16.75 17.4142 16.75 17H15.25ZM13.5 3.25C13.0858 3.25 12.75 3.58579 12.75 4C12.75 4.41421 13.0858 4.75 13.5 4.75V3.25ZM6 8.25C5.58579 8.25 5.25 8.58579 5.25 9C5.25 9.41421 5.58579 9.75 6 9.75V8.25ZM18 6H18.75C18.75 5.74007 18.6154 5.49867 18.3943 5.36201C18.1732 5.22536 17.8971 5.21293 17.6646 5.32918L18 6ZM18 8L17.6646 8.67082C17.8971 8.78707 18.1732 8.77464 18.3943 8.63799C18.6154 8.50133 18.75 8.25993 18.75 8H18ZM16 7L15.6646 6.32918C15.4105 6.45622 15.25 6.71592 15.25 7C15.25 7.28408 15.4105 7.54378 15.6646 7.67082L16 7ZM12 16.25H5V17.75H12V16.25ZM4.75 16V15.5H3.25V16H4.75ZM8 12.25H10V10.75H8V12.25ZM10.25 12.5V16H11.75V12.5H10.25ZM20.75 16.0833V15.5H19.25V16.0833H20.75ZM20.75 15.5C20.75 12.8766 18.6234 10.75 16 10.75V12.25C17.7949 12.25 19.25 13.7051 19.25 15.5H20.75ZM10.25 16C10.25 16.9665 11.0335 17.75 12 17.75V16.25C11.8619 16.25 11.75 16.1381 11.75 16H10.25ZM10 12.25C10.1381 12.25 10.25 12.3619 10.25 12.5H11.75C11.75 11.5335 10.9665 10.75 10 10.75V12.25ZM4.75 15.5C4.75 13.7051 6.20507 12.25 8 12.25V10.75C5.37665 10.75 3.25 12.8766 3.25 15.5H4.75ZM5 16.25C4.86193 16.25 4.75 16.1381 4.75 16H3.25C3.25 16.9665 4.0335 17.75 5 17.75V16.25ZM19.0833 17.75C20.0038 17.75 20.75 17.0038 20.75 16.0833H19.25C19.25 16.1754 19.1754 16.25 19.0833 16.25V17.75ZM16.75 17V6H15.25V17H16.75ZM14 3.25H13.5V4.75H14V3.25ZM16.75 6C16.75 4.48122 15.5188 3.25 14 3.25V4.75C14.6904 4.75 15.25 5.30964 15.25 6H16.75ZM6 9.75H11V8.25H6V9.75ZM8.75 18C8.75 18.6904 8.19036 19.25 7.5 19.25V20.75C9.01878 20.75 10.25 19.5188 10.25 18H8.75ZM7.5 19.25C6.80964 19.25 6.25 18.6904 6.25 18H4.75C4.75 19.5188 5.98122 20.75 7.5 20.75V19.25ZM6.25 18C6.25 17.7711 6.31085 17.5586 6.41677 17.3755L5.11836 16.6245C4.88393 17.0297 4.75 17.5004 4.75 18H6.25ZM8.58323 17.3755C8.68915 17.5586 8.75 17.7711 8.75 18H10.25C10.25 17.5004 10.1161 17.0297 9.88164 16.6245L8.58323 17.3755ZM17.25 18C17.25 18.6904 16.6904 19.25 16 19.25V20.75C17.5188 20.75 18.75 19.5188 18.75 18H17.25ZM16 19.25C15.3096 19.25 14.75 18.6904 14.75 18H13.25C13.25 19.5188 14.4812 20.75 16 20.75V19.25ZM14.75 18C14.75 17.7711 14.8109 17.5586 14.9168 17.3755L13.6184 16.6245C13.3839 17.0297 13.25 17.5004 13.25 18H14.75ZM17.0832 17.3755C17.1891 17.5586 17.25 17.7711 17.25 18H18.75C18.75 17.5004 18.6161 17.0297 18.3816 16.6245L17.0832 17.3755ZM17.25 6V8H18.75V6H17.25ZM17.6646 5.32918L15.6646 6.32918L16.3354 7.67082L18.3354 6.67082L17.6646 5.32918ZM15.6646 7.67082L17.6646 8.67082L18.3354 7.32918L16.3354 6.32918L15.6646 7.67082ZM19.0833 16.25H12V17.75H19.0833V16.25Z" fill="black"/>
</svg>
