<svg width="24" height="24" viewBox="0 0 24 24" fill="none" xmlns="http://www.w3.org/2000/svg">
<path d="M6 6H10.5C12.7033 6 14.778 7.03736 16.1 8.8L16.8126 9.7501C16.9346 9.91282 17.1034 10.0345 17.2963 10.0988L18.6325 10.5442C19.4491 10.8164 20 11.5807 20 12.4415V14C20 15.1046 19.1046 16 18 16M18 16C18 17.1046 17.1046 18 16 18C14.8954 18 14 17.1046 14 16M18 16C18 14.8954 17.1046 14 16 14C14.8954 14 14 14.8954 14 16M10 16C10 17.1046 9.10457 18 8 18C6.89543 18 6 17.1046 6 16M10 16C10 14.8954 9.10457 14 8 14C6.89543 14 6 14.8954 6 16M10 16H14M6 16H4M4 12L7 12M5 9L9 9M12 10L17 10" stroke="black" stroke-width="1.5" stroke-linecap="round"/>
</svg>
