<svg width="24" height="24" viewBox="0 0 24 24" fill="none" xmlns="http://www.w3.org/2000/svg">
<path d="M8 3.25C7.58579 3.25 7.25 3.58579 7.25 4C7.25 4.41421 7.58579 4.75 8 4.75V3.25ZM15.6455 6.30411L16.3868 6.41816V6.41816L15.6455 6.30411ZM4.35448 14.6959L5.09576 14.8099L4.35448 14.6959ZM5.24128 13.864C5.30426 13.4546 5.02344 13.0717 4.61404 13.0087C4.20465 12.9457 3.82171 13.2266 3.75872 13.636L5.24128 13.864ZM21.0431 11.7845L20.3077 11.6374V11.6374L21.0431 11.7845ZM20.3216 15.3922L21.057 15.5393L20.3216 15.3922ZM5 6.25C4.58579 6.25 4.25 6.58579 4.25 7C4.25 7.41421 4.58579 7.75 5 7.75L5 6.25ZM10 7.75C10.4142 7.75 10.75 7.41421 10.75 7C10.75 6.58579 10.4142 6.25 10 6.25V7.75ZM4 9.75C3.58579 9.75 3.25 10.0858 3.25 10.5C3.25 10.9142 3.58579 11.25 4 11.25V9.75ZM9 11.25C9.41421 11.25 9.75 10.9142 9.75 10.5C9.75 10.0858 9.41421 9.75 9 9.75V11.25ZM18 11.25C17.5858 11.25 17.25 11.5858 17.25 12C17.25 12.4142 17.5858 12.75 18 12.75V11.25ZM21 12.75C21.4142 12.75 21.75 12.4142 21.75 12C21.75 11.5858 21.4142 11.25 21 11.25V12.75ZM8 4.75H13.6688V3.25H8V4.75ZM14.9042 6.19007L13.2587 16.886L14.7413 17.114L16.3868 6.41816L14.9042 6.19007ZM14 16.25H6.33122V17.75H14V16.25ZM5.09576 14.8099L5.24128 13.864L3.75872 13.636L3.6132 14.5818L5.09576 14.8099ZM6.33122 16.25C5.56512 16.25 4.97927 15.5671 5.09576 14.8099L3.6132 14.5818C3.35692 16.2477 4.64579 17.75 6.33122 17.75V16.25ZM13.6688 4.75C14.4349 4.75 15.0207 5.43287 14.9042 6.19007L16.3868 6.41816C16.6431 4.75232 15.3542 3.25 13.6688 3.25V4.75ZM16 7.75H17.1208V6.25H16V7.75ZM20.3077 11.6374L19.5861 15.2451L21.057 15.5393L21.7785 11.9316L20.3077 11.6374ZM18.3604 16.25H14V17.75H18.3604V16.25ZM19.5861 15.2451C19.4693 15.8294 18.9562 16.25 18.3604 16.25V17.75C19.6713 17.75 20.7999 16.8247 21.057 15.5393L19.5861 15.2451ZM17.1208 7.75C19.1717 7.75 20.7099 9.6263 20.3077 11.6374L21.7785 11.9316C22.3664 8.99229 20.1183 6.25 17.1208 6.25V7.75ZM10.25 18C10.25 18.6904 9.69036 19.25 9 19.25V20.75C10.5188 20.75 11.75 19.5188 11.75 18H10.25ZM9 19.25C8.30964 19.25 7.75 18.6904 7.75 18H6.25C6.25 19.5188 7.48122 20.75 9 20.75V19.25ZM10.0832 17.3755C10.1891 17.5586 10.25 17.7711 10.25 18H11.75C11.75 17.5004 11.6161 17.0297 11.3816 16.6245L10.0832 17.3755ZM7.75 18C7.75 17.7711 7.81085 17.5586 7.91677 17.3755L6.61836 16.6245C6.38393 17.0297 6.25 17.5004 6.25 18H7.75ZM17.25 18C17.25 18.6904 16.6904 19.25 16 19.25V20.75C17.5188 20.75 18.75 19.5188 18.75 18H17.25ZM16 19.25C15.3096 19.25 14.75 18.6904 14.75 18H13.25C13.25 19.5188 14.4812 20.75 16 20.75V19.25ZM17.0832 17.3755C17.1891 17.5586 17.25 17.7711 17.25 18H18.75C18.75 17.5004 18.6161 17.0297 18.3816 16.6245L17.0832 17.3755ZM14.75 18C14.75 17.7711 14.8109 17.5586 14.9168 17.3755L13.6184 16.6245C13.3839 17.0297 13.25 17.5004 13.25 18H14.75ZM5 7.75L10 7.75V6.25L5 6.25L5 7.75ZM4 11.25H9V9.75H4V11.25ZM18 12.75H21V11.25H18V12.75Z" fill="black"/>
</svg>
