<svg width="24" height="24" viewBox="0 0 24 24" fill="none" xmlns="http://www.w3.org/2000/svg">
<path d="M13.9997 4.2618C13.8625 4.31143 13.7284 4.36765 13.5977 4.43004C12.5841 4.91425 11.3877 4.89142 10.3703 4.41517C9.56096 4.03632 8.62021 3.89399 7.62642 4.08361C5.81426 4.42938 4.36054 5.91797 4.0623 7.73855C3.88266 8.83513 4.10095 9.87267 4.59514 10.732C5.79905 12.8253 6.38386 15.2182 6.69233 17.6132L6.80679 18.5019C6.91712 19.3585 7.64647 20 8.51018 20C9.36488 20 10.0895 19.3715 10.2104 18.5254L10.8583 13.9899C10.9395 13.4219 11.4259 13 11.9997 13C12.5735 13 13.06 13.4219 13.1411 13.9899L13.7891 18.5254C13.9099 19.3715 14.6346 20 15.4893 20C16.353 20 17.0823 19.3585 17.1927 18.5019L17.3556 17.2368C17.6631 14.8493 18.5285 12.5993 19.5647 10.4266C19.7748 9.98591 19.9152 9.50572 19.9716 9.00006M17.9998 4V8M19.9998 6H15.9998" stroke="black" stroke-width="1.5" stroke-linecap="round" stroke-linejoin="round"/>
</svg>
