<svg width="24" height="24" viewBox="0 0 24 24" fill="none" xmlns="http://www.w3.org/2000/svg">
<path d="M8 7H16M8 7C6.89543 7 6 7.89543 6 9V15C6 16.1046 6.89543 17 8 17M8 7L8.77208 4.68377C8.90819 4.27543 9.29033 4 9.72076 4H14.2792C14.7097 4 15.0918 4.27543 15.2279 4.68377L16 7M16 7C17.1046 7 18 7.89543 18 9V15C18 16.1046 17.1046 17 16 17M16 17H8M16 17L15.2279 19.3162C15.0918 19.7246 14.7097 20 14.2792 20H9.72076C9.29033 20 8.90819 19.7246 8.77208 19.3162L8 17M12 10V12L13 13" stroke="black" stroke-width="1.5" stroke-linecap="round" stroke-linejoin="round"/>
</svg>
