<svg width="24" height="24" viewBox="0 0 24 24" fill="none" xmlns="http://www.w3.org/2000/svg">
<path fill-rule="evenodd" clip-rule="evenodd" d="M7.64289 2.25H16.3571C17.3491 2.25 18.2642 2.78423 18.7519 3.64801L21.8945 9.21383C22.4726 10.2376 22.3361 11.5156 21.5548 12.3942L14.055 20.8274C13.5332 21.4142 12.7853 21.75 12 21.75C11.2147 21.75 10.4669 21.4142 9.94503 20.8274L2.44522 12.3941C1.66394 11.5156 1.52742 10.2376 2.10548 9.21379L5.24815 3.64804C5.73585 2.78423 6.65093 2.25 7.64289 2.25ZM17.4457 4.3855C17.224 3.99284 16.808 3.75 16.3571 3.75H7.64289C7.192 3.75 6.77604 3.99284 6.55433 4.38553L3.41164 9.9513C3.14882 10.4168 3.21089 10.9979 3.56611 11.3973L11.0659 19.8306C11.3031 20.0974 11.6431 20.25 12 20.25C12.357 20.25 12.6969 20.0974 12.9341 19.8306L20.4339 11.3974C20.7891 10.9979 20.8512 10.4168 20.5884 9.95134L17.4457 4.3855Z" fill="#323232"/>
</svg>
