<svg width="24" height="24" viewBox="0 0 24 24" fill="none" xmlns="http://www.w3.org/2000/svg">
<path d="M9.37596 14.584C9.1462 14.9286 9.23933 15.3943 9.58398 15.624C9.92862 15.8538 10.3943 15.7607 10.624 15.416L9.37596 14.584ZM14.624 9.41601C14.8538 9.07136 14.7606 8.60571 14.416 8.37595C14.0713 8.14619 13.6057 8.23932 13.3759 8.58397L14.624 9.41601ZM19.25 12C19.25 16.0041 16.0041 19.25 12 19.25V20.75C16.8325 20.75 20.75 16.8325 20.75 12H19.25ZM12 19.25C7.99594 19.25 4.75 16.0041 4.75 12H3.25C3.25 16.8325 7.16751 20.75 12 20.75V19.25ZM4.75 12C4.75 7.99594 7.99594 4.75 12 4.75V3.25C7.16751 3.25 3.25 7.16751 3.25 12H4.75ZM12 4.75C16.0041 4.75 19.25 7.99594 19.25 12H20.75C20.75 7.16751 16.8325 3.25 12 3.25V4.75ZM9.25 9.5C9.25 9.36193 9.36193 9.25 9.5 9.25V10.75C10.1904 10.75 10.75 10.1904 10.75 9.5H9.25ZM9.5 9.25C9.63807 9.25 9.75 9.36193 9.75 9.5H8.25C8.25 10.1904 8.80964 10.75 9.5 10.75V9.25ZM9.75 9.5C9.75 9.63807 9.63807 9.75 9.5 9.75V8.25C8.80964 8.25 8.25 8.80964 8.25 9.5H9.75ZM9.5 9.75C9.36193 9.75 9.25 9.63807 9.25 9.5H10.75C10.75 8.80964 10.1904 8.25 9.5 8.25V9.75ZM14.25 14.5C14.25 14.3619 14.3619 14.25 14.5 14.25V15.75C15.1904 15.75 15.75 15.1904 15.75 14.5H14.25ZM14.5 14.25C14.6381 14.25 14.75 14.3619 14.75 14.5H13.25C13.25 15.1904 13.8096 15.75 14.5 15.75V14.25ZM14.75 14.5C14.75 14.6381 14.6381 14.75 14.5 14.75V13.25C13.8096 13.25 13.25 13.8096 13.25 14.5H14.75ZM14.5 14.75C14.3619 14.75 14.25 14.6381 14.25 14.5H15.75C15.75 13.8096 15.1904 13.25 14.5 13.25V14.75ZM10.624 15.416L14.624 9.41601L13.3759 8.58397L9.37596 14.584L10.624 15.416Z" fill="black"/>
</svg>
