<svg width="24" height="24" viewBox="0 0 24 24" fill="none" xmlns="http://www.w3.org/2000/svg">
<path d="M13.6031 19.5C12.7984 19.8225 11.9199 20 11 20C7.13401 20 4 16.866 4 13C4 9.13401 7.13401 6 11 6C14.2369 6 16.9606 8.19698 17.7614 11.1811" stroke="black" stroke-width="1.5" stroke-linecap="round" stroke-linejoin="round"/>
<path d="M14 13C14 9.13401 12.6569 6 11 6C9.34315 6 8 9.13401 8 13C8 16.866 9.34315 20 11 20" stroke="black" stroke-width="1.5" stroke-linecap="round" stroke-linejoin="round"/>
<path d="M11 16.2563C8.05394 16.2563 5.53295 15.7363 4.5 15" stroke="black" stroke-width="1.5" stroke-linecap="round" stroke-linejoin="round"/>
<path d="M17 10C15.9939 10.5846 14.4343 11 11.4356 11C8.55744 11 6.08382 10.6173 5 10.0697" stroke="black" stroke-width="1.5" stroke-linecap="round" stroke-linejoin="round"/>
<path d="M11 4V6" stroke="black" stroke-width="1.5" stroke-linecap="round" stroke-linejoin="round"/>
<path d="M17 14L17.032 14.0685C17.628 15.3455 18.6545 16.372 19.9315 16.968L20 17L19.9315 17.032C18.6545 17.628 17.628 18.6545 17.032 19.9315L17 20L16.968 19.9315C16.372 18.6545 15.3455 17.628 14.0685 17.032L14 17L14.0685 16.968C15.3455 16.372 16.372 15.3455 16.968 14.0685L17 14Z" stroke="black" stroke-width="1.5" stroke-linecap="round" stroke-linejoin="round"/>
</svg>
