<svg width="24" height="24" viewBox="0 0 24 24" fill="none" xmlns="http://www.w3.org/2000/svg">
<path d="M6.99999 8V10C6.99999 12.7614 9.23857 15 12 15M6.99999 8H17M6.99999 8V6C6.99999 4.89617 7.89616 4 8.99999 4H15C16.1038 4 17 4.89617 17 6V8M12 15C14.7614 15 17 12.7614 17 10V8M12 15H15M12 15H8.99999M15 18V15M15 18C15.8293 18 16.5016 18.6723 16.5016 19.5016V20M15 18C14.1707 18 13.4984 18.6723 13.4984 19.5016V20M15 15C17.7614 15 20 17.2386 20 20M8.99999 18V15M8.99999 15C6.23857 15 4 17.2386 4 20M10.0045 19C10.0045 19.5523 9.55679 20 9.00451 20C8.45222 20 8.00451 19.5523 8.00451 19C8.00451 18.4477 8.45222 18 9.00451 18C9.55679 18 10.0045 18.4477 10.0045 19Z" stroke="black" stroke-width="1.5" stroke-linecap="round" stroke-linejoin="round"/>
</svg>
