<svg width="24" height="24" viewBox="0 0 24 24" fill="none" xmlns="http://www.w3.org/2000/svg">
<path d="M20 12C20 16.4183 16.4183 20 12 20C7.58172 20 4 16.4183 4 12M20 12C20 7.58172 16.4183 4 12 4C7.58172 4 4 7.58172 4 12M20 12C19.8333 11.6667 19 10.5 18 11C17 11.5 17.5 13.5 15 13M4 12C4.16667 11.6667 5 10.5 6 11C7 11.5 6.5 13.5 9 13M15 12C15 13.6569 13.6569 15 12 15C10.3431 15 9 13.6569 9 12C9 10.3431 10.3431 9 12 9C13.6569 9 15 10.3431 15 12Z" stroke="black" stroke-width="1.5" stroke-linecap="round" stroke-linejoin="round"/>
</svg>
