<svg width="24" height="24" viewBox="0 0 24 24" fill="none" xmlns="http://www.w3.org/2000/svg">
<path d="M14 4C17.0657 4.43851 19.4906 6.86342 19.9291 9.92911M14 7.05542C15.4056 7.4172 16.5122 8.52379 16.874 9.9294M14 9.92944H14.01M11 14V7.5C11 5.567 9.433 4 7.5 4C5.567 4 4 5.567 4 7.5V16.5C4 18.433 5.567 20 7.5 20C9.26324 20 10.7219 18.6961 10.9646 17M7 15.5C7 14.6716 7.67157 14 8.5 14L18.5 14C19.3284 14 20 14.6716 20 15.5C20 16.3284 19.3284 17 18.5 17H8.5C7.67157 17 7 16.3284 7 15.5Z" stroke="black" stroke-width="1.5" stroke-linecap="round" stroke-linejoin="round"/>
</svg>
