<svg width="24" height="24" viewBox="0 0 24 24" fill="none" xmlns="http://www.w3.org/2000/svg">
<path d="M5 9H19M7 14.5H10M10 14.5C10 16.1569 10.8954 17.5 12 17.5C13.1046 17.5 14 16.1569 14 14.5M10 14.5C10 12.8431 10.8954 11.5 12 11.5C13.1046 11.5 14 12.8431 14 14.5M14 14.5H17M6 9H18L16.2986 18.3578C16.1257 19.3087 15.2974 20 14.3308 20H9.66915C8.70258 20 7.87432 19.3088 7.70141 18.3578L6 9ZM8 6C8 4.89543 8.89543 4 10 4H14C15.1046 4 16 4.89543 16 6H16.5C17.3284 6 18 6.67157 18 7.5C18 8.32843 17.3284 9 16.5 9H7.5C6.67157 9 6 8.32843 6 7.5C6 6.67157 6.67157 6 7.5 6H8Z" stroke="black" stroke-width="1.5" stroke-linecap="round" stroke-linejoin="round"/>
</svg>
