<svg width="24" height="24" viewBox="0 0 24 24" fill="none" xmlns="http://www.w3.org/2000/svg">
<path d="M19.4242 8.11091L18.8939 8.64124L19.4242 8.11091ZM15.8887 4.57537L16.419 4.04504L15.8887 4.57537ZM8.11054 19.4246L7.58021 19.9549L8.11054 19.4246ZM4.57501 15.8891L5.10534 15.3588H5.10534L4.57501 15.8891ZM16.19 11.6586L16.5557 11.0038L15.2461 10.2724L14.8804 10.9272L16.19 11.6586ZM10.9268 14.8807C10.5652 15.0827 10.4357 15.5396 10.6377 15.9012C10.8397 16.2629 11.2966 16.3923 11.6582 16.1903L10.9268 14.8807ZM13.0724 9.11925L13.7272 8.75355L12.9958 7.44395L12.341 7.80966L13.0724 9.11925ZM7.8093 12.3414C7.60732 12.703 7.73675 13.1599 8.09839 13.3619C8.46002 13.5639 8.91691 13.4344 9.11889 13.0728L7.8093 12.3414ZM18.8939 6.87347L18.3636 7.4038L19.4242 8.46446L19.9546 7.93413L18.8939 6.87347ZM16.0655 4.04504L15.5352 4.57537L16.5958 5.63603L17.1262 5.1057L16.0655 4.04504ZM5.10534 17.1265L5.63567 16.5962L4.57501 15.5355L4.04468 16.0659L5.10534 17.1265ZM7.93376 19.9549L8.46409 19.4246L7.40343 18.364L6.8731 18.8943L7.93376 19.9549ZM15.3584 5.1057L18.8939 8.64124L19.9546 7.58058L16.419 4.04504L15.3584 5.1057ZM16.419 11.1161L12.8835 7.58058L11.8228 8.64124L15.3584 12.1768L16.419 11.1161ZM18.8939 11.1161C18.2105 11.7995 17.1025 11.7995 16.419 11.1161L15.3584 12.1768C16.6276 13.446 18.6854 13.446 19.9546 12.1768L18.8939 11.1161ZM18.8939 8.64124C19.5773 9.32465 19.5773 10.4327 18.8939 11.1161L19.9546 12.1768C21.2238 10.9076 21.2238 8.84978 19.9546 7.58058L18.8939 8.64124ZM12.8835 5.1057C13.5669 4.42229 14.675 4.42229 15.3584 5.1057L16.419 4.04504C15.1498 2.77584 13.0921 2.77584 11.8228 4.04504L12.8835 5.1057ZM11.8228 4.04504C10.5536 5.31425 10.5536 7.37203 11.8228 8.64124L12.8835 7.58058C12.2001 6.89716 12.2001 5.78912 12.8835 5.1057L11.8228 4.04504ZM7.58021 12.8839L11.1157 16.4194L12.1764 15.3588L8.64087 11.8232L7.58021 12.8839ZM8.64087 18.8943L5.10534 15.3588L4.04468 16.4194L7.58021 19.9549L8.64087 18.8943ZM11.1157 18.8943C10.4323 19.5777 9.32429 19.5777 8.64087 18.8943L7.58021 19.9549C8.84941 21.2241 10.9072 21.2241 12.1764 19.9549L11.1157 18.8943ZM11.1157 16.4194C11.7992 17.1028 11.7992 18.2109 11.1157 18.8943L12.1764 19.9549C13.4456 18.6857 13.4456 16.628 12.1764 15.3588L11.1157 16.4194ZM5.10534 12.8839C5.78875 12.2005 6.89679 12.2005 7.58021 12.8839L8.64087 11.8232C7.37167 10.554 5.31388 10.554 4.04468 11.8232L5.10534 12.8839ZM4.04468 11.8232C2.77547 13.0924 2.77547 15.1502 4.04468 16.4194L5.10534 15.3588C4.42192 14.6753 4.42192 13.5673 5.10534 12.8839L4.04468 11.8232ZM15.5352 11.2929C14.8804 10.9272 14.8804 10.9271 14.8804 10.9271C14.8804 10.9271 14.8804 10.927 14.8805 10.927C14.8805 10.927 14.8805 10.927 14.8805 10.927C14.8804 10.927 14.8804 10.9272 14.8802 10.9274C14.88 10.9278 14.8795 10.9287 14.8788 10.9299C14.8775 10.9323 14.8753 10.9362 14.8723 10.9415C14.8663 10.9521 14.8571 10.9683 14.8449 10.9895C14.8204 11.0321 14.7839 11.0948 14.7373 11.1732C14.6438 11.3301 14.5103 11.5485 14.3508 11.7928C14.0246 12.2922 13.6169 12.8576 13.2371 13.2374L14.2977 14.2981C14.7911 13.8047 15.2673 13.1327 15.6067 12.613C15.78 12.3476 15.9246 12.111 16.0262 11.9404C16.0771 11.855 16.1173 11.7857 16.1452 11.7373C16.1591 11.7131 16.17 11.694 16.1775 11.6807C16.1813 11.6741 16.1842 11.6688 16.1863 11.6651C16.1873 11.6633 16.1882 11.6618 16.1888 11.6607C16.1891 11.6602 16.1893 11.6597 16.1895 11.6594C16.1896 11.6592 16.1897 11.659 16.1898 11.6589C16.1898 11.6588 16.1899 11.6588 16.1899 11.6587C16.1899 11.6587 16.19 11.6586 15.5352 11.2929ZM13.2371 13.2374C12.8572 13.6173 12.2918 14.025 11.7924 14.3512C11.5482 14.5107 11.3298 14.6442 11.1728 14.7377C11.0944 14.7843 11.0317 14.8207 10.9892 14.8452C10.9679 14.8575 10.9517 14.8667 10.9411 14.8727C10.9358 14.8757 10.9319 14.8779 10.9295 14.8792C10.9283 14.8799 10.9275 14.8804 10.927 14.8806C10.9268 14.8807 10.9267 14.8808 10.9266 14.8808C10.9266 14.8808 10.9266 14.8808 10.9266 14.8808C10.9267 14.8808 10.9267 14.8808 10.9267 14.8808C10.9268 14.8808 10.9268 14.8807 11.2925 15.5355C11.6582 16.1903 11.6583 16.1903 11.6584 16.1902C11.6584 16.1902 11.6585 16.1902 11.6585 16.1901C11.6587 16.1901 11.6588 16.19 11.659 16.1899C11.6593 16.1897 11.6598 16.1894 11.6603 16.1891C11.6614 16.1885 11.6629 16.1877 11.6648 16.1867C11.6685 16.1846 11.6737 16.1816 11.6803 16.1779C11.6936 16.1703 11.7127 16.1595 11.7369 16.1455C11.7854 16.1177 11.8546 16.0774 11.9401 16.0266C12.1107 15.925 12.3473 15.7803 12.6126 15.6071C13.1323 15.2677 13.8043 14.7915 14.2977 14.2981L13.2371 13.2374ZM12.7067 8.46446C12.341 7.80966 12.341 7.8097 12.3409 7.80974C12.3409 7.80976 12.3408 7.8098 12.3407 7.80984C12.3406 7.80991 12.3404 7.80999 12.3403 7.81009C12.3399 7.81029 12.3395 7.81054 12.3389 7.81085C12.3378 7.81146 12.3363 7.81229 12.3345 7.81333C12.3308 7.81542 12.3256 7.81836 12.3189 7.82212C12.3056 7.82966 12.2866 7.8405 12.2623 7.85444C12.2139 7.8823 12.1446 7.92256 12.0592 7.97342C11.8886 8.07498 11.652 8.21965 11.3867 8.39293C10.867 8.73233 10.1949 9.20851 9.70153 9.7019L10.7622 10.7626C11.142 10.3827 11.7074 9.975 12.2069 9.64883C12.4511 9.48932 12.6695 9.35578 12.8265 9.26233C12.9048 9.21568 12.9675 9.17924 13.0101 9.15477C13.0314 9.14253 13.0476 9.13331 13.0582 9.12731C13.0634 9.12432 13.0673 9.12213 13.0697 9.12077C13.0709 9.1201 13.0718 9.11963 13.0722 9.11938C13.0725 9.11925 13.0726 9.11917 13.0726 9.11915C13.0726 9.11914 13.0726 9.11915 13.0726 9.11916C13.0726 9.11917 13.0726 9.11919 13.0725 9.1192C13.0725 9.11923 13.0724 9.11925 12.7067 8.46446ZM9.70153 9.7019C9.20814 10.1953 8.73197 10.8673 8.39257 11.387C8.21928 11.6524 8.07462 11.889 7.97305 12.0596C7.92219 12.145 7.88193 12.2143 7.85407 12.2627C7.84014 12.2869 7.82929 12.306 7.82176 12.3193C7.81799 12.3259 7.81505 12.3311 7.81297 12.3349C7.81192 12.3367 7.81109 12.3382 7.81048 12.3393C7.81018 12.3398 7.80992 12.3403 7.80973 12.3406C7.80963 12.3408 7.80954 12.341 7.80947 12.3411C7.80944 12.3411 7.80939 12.3412 7.80938 12.3413C7.80934 12.3413 7.8093 12.3414 8.46409 12.7071C9.11889 13.0728 9.11886 13.0729 9.11883 13.0729C9.11883 13.0729 9.11881 13.073 9.1188 13.073C9.11878 13.073 9.11878 13.073 9.11879 13.073C9.11881 13.073 9.11888 13.0728 9.11901 13.0726C9.11927 13.0721 9.11973 13.0713 9.12041 13.0701C9.12176 13.0677 9.12395 13.0638 9.12695 13.0585C9.13294 13.0479 9.14217 13.0317 9.1544 13.0105C9.17887 12.9679 9.21532 12.9052 9.26197 12.8268C9.35541 12.6699 9.48896 12.4515 9.64846 12.2072C9.97463 11.7078 10.3823 11.1424 10.7622 10.7626L9.70153 9.7019ZM18.8939 5.1057C19.3821 5.59386 19.3821 6.38531 18.8939 6.87347L19.9546 7.93413C21.0285 6.86019 21.0285 5.11898 19.9546 4.04504L18.8939 5.1057ZM17.1262 5.1057C17.6143 4.61755 18.4058 4.61755 18.8939 5.1057L19.9546 4.04504C18.8806 2.9711 17.1394 2.9711 16.0655 4.04504L17.1262 5.1057ZM5.10534 18.8943C4.61718 18.4061 4.61718 17.6147 5.10534 17.1265L4.04468 16.0659C2.97074 17.1398 2.97073 18.881 4.04468 19.9549L5.10534 18.8943ZM6.8731 18.8943C6.38495 19.3824 5.59349 19.3824 5.10534 18.8943L4.04468 19.9549C5.11862 21.0289 6.85982 21.0289 7.93376 19.9549L6.8731 18.8943Z" fill="black"/>
</svg>
