<svg width="24" height="24" viewBox="0 0 24 24" fill="none" xmlns="http://www.w3.org/2000/svg">
<path d="M5.15789 18L4 20L12.1398 5.52922C12.6712 4.58459 13.6707 4 14.7545 4H15.1614C16.9447 4 18.3343 5.54642 18.1443 7.3196L17.5744 12.6392C17.2477 15.688 14.6748 18 11.6085 18H9L19 18M5.15789 18L8.65584 11.9581C9.1698 11.0703 10.1558 10.5656 11.1765 10.6676C12.8657 10.8366 13.9476 12.5467 13.3766 14.1455L12.8883 15.5128C12.3556 17.0043 10.9428 18 9.35892 18H5.15789ZM5.15789 18H5.11111M18.5 7.99999H20" stroke="black" stroke-width="1.5" stroke-linecap="round" stroke-linejoin="round"/>
</svg>
