<svg width="24" height="24" viewBox="0 0 24 24" fill="none" xmlns="http://www.w3.org/2000/svg">
<path d="M8 6L8 4M16 6V4M12 6V4M8 19H16C17.6569 19 19 17.6569 19 16V8C19 6.34315 17.6569 5 16 5H8C6.34315 5 5 6.34315 5 8V16C5 17.6569 6.34315 19 8 19ZM10.5643 10.9198L9.19836 11.1182C8.78825 11.1778 8.62449 11.6818 8.92125 11.9711L9.90965 12.9346C10.0275 13.0494 10.0813 13.2149 10.0535 13.3771L9.82012 14.7375C9.75007 15.146 10.1788 15.4575 10.5456 15.2646L11.7673 14.6223C11.913 14.5457 12.087 14.5457 12.2327 14.6223L13.4544 15.2646C13.8212 15.4575 14.2499 15.146 14.1799 14.7375L13.9465 13.3771C13.9187 13.2149 13.9725 13.0494 14.0903 12.9346L15.0788 11.9711C15.3755 11.6818 15.2118 11.1778 14.8016 11.1182L13.4357 10.9198C13.2728 10.8961 13.1321 10.7938 13.0592 10.6462L12.4484 9.40849C12.265 9.03687 11.735 9.03687 11.5516 9.40849L10.9408 10.6462C10.8679 10.7938 10.7272 10.8961 10.5643 10.9198Z" stroke="black" stroke-width="1.5" stroke-linecap="round" stroke-linejoin="round"/>
</svg>
