<svg width="24" height="24" viewBox="0 0 24 24" fill="none" xmlns="http://www.w3.org/2000/svg">
<path d="M17 20.75C17.4142 20.75 17.75 20.4142 17.75 20C17.75 19.5858 17.4142 19.25 17 19.25V20.75ZM10.5643 8.41977L10.4564 7.67756V7.67756L10.5643 8.41977ZM10.9408 8.14625L10.2682 7.81432L10.9408 8.14625ZM8.92125 9.47109L8.39774 10.0082L8.92125 9.47109ZM9.19836 8.61825L9.3062 9.36045L9.19836 8.61825ZM10.0535 10.8771L10.7927 11.0039L10.0535 10.8771ZM9.90965 10.4346L10.4332 9.89749L9.90965 10.4346ZM10.5456 12.7646L10.8946 13.4285H10.8946L10.5456 12.7646ZM9.82012 12.2375L9.08091 12.1108V12.1108L9.82012 12.2375ZM12.2327 12.1223L11.8837 12.7862L12.2327 12.1223ZM11.7673 12.1223L11.4183 11.4585H11.4183L11.7673 12.1223ZM14.1799 12.2375L14.9191 12.1108L14.1799 12.2375ZM13.4544 12.7646L13.8034 12.1008L13.4544 12.7646ZM14.0903 10.4346L14.6139 10.9716L14.0903 10.4346ZM13.9465 10.8771L13.2073 11.0039L13.9465 10.8771ZM14.8016 8.61825L14.9095 7.87604H14.9095L14.8016 8.61825ZM15.0788 9.4711L14.5552 8.93403L15.0788 9.4711ZM13.0592 8.14625L13.7318 7.81432V7.81432L13.0592 8.14625ZM13.4357 8.41977L13.3279 9.16197H13.3279L13.4357 8.41977ZM12.4484 6.90849L11.7758 7.24042V7.24042L12.4484 6.90849ZM11.5516 6.90849L12.2242 7.24042L11.5516 6.90849ZM9 16V15.25C8.58579 15.25 8.25 15.5858 8.25 16H9ZM15 16H15.75C15.75 15.5858 15.4142 15.25 15 15.25V16ZM15 20V20.75C15.4142 20.75 15.75 20.4142 15.75 20H15ZM9 20H8.25C8.25 20.4142 8.58579 20.75 9 20.75V20ZM7 4.75H17V3.25H7V4.75ZM19.25 7V13H20.75V7H19.25ZM17 15.25H7V16.75H17V15.25ZM4.75 13V7H3.25V13H4.75ZM7 15.25C5.75736 15.25 4.75 14.2426 4.75 13H3.25C3.25 15.0711 4.92893 16.75 7 16.75V15.25ZM19.25 13C19.25 14.2426 18.2426 15.25 17 15.25V16.75C19.0711 16.75 20.75 15.0711 20.75 13H19.25ZM17 4.75C18.2426 4.75 19.25 5.75736 19.25 7H20.75C20.75 4.92893 19.0711 3.25 17 3.25V4.75ZM7 3.25C4.92893 3.25 3.25 4.92893 3.25 7H4.75C4.75 5.75736 5.75736 4.75 7 4.75V3.25ZM17 19.25H7V20.75H17V19.25ZM11.7758 7.24042L12.3867 8.47817L13.7318 7.81432L13.1209 6.57657L11.7758 7.24042ZM13.3279 9.16197L14.6938 9.36045L14.9095 7.87604L13.5436 7.67756L13.3279 9.16197ZM14.5552 8.93403L13.5668 9.89749L14.6139 10.9716L15.6023 10.0082L14.5552 8.93403ZM13.2073 11.0039L13.4407 12.3643L14.9191 12.1108L14.6858 10.7503L13.2073 11.0039ZM13.8034 12.1008L12.5817 11.4585L11.8837 12.7862L13.1054 13.4285L13.8034 12.1008ZM11.4183 11.4585L10.1966 12.1008L10.8946 13.4285L12.1163 12.7862L11.4183 11.4585ZM10.5593 12.3643L10.7927 11.0039L9.31424 10.7503L9.08091 12.1108L10.5593 12.3643ZM10.4332 9.89749L9.44476 8.93403L8.39774 10.0082L9.38614 10.9716L10.4332 9.89749ZM9.3062 9.36045L10.6721 9.16197L10.4564 7.67756L9.09051 7.87604L9.3062 9.36045ZM11.6133 8.47817L12.2242 7.24042L10.8791 6.57657L10.2682 7.81432L11.6133 8.47817ZM10.6721 9.16197C11.0793 9.10281 11.4312 8.8471 11.6133 8.47817L10.2682 7.81432C10.3046 7.74053 10.375 7.68939 10.4564 7.67756L10.6721 9.16197ZM9.44476 8.93403C9.59314 9.07867 9.51126 9.33066 9.3062 9.36045L9.09051 7.87604C8.06524 8.02502 7.65584 9.28499 8.39774 10.0082L9.44476 8.93403ZM10.7927 11.0039C10.8622 10.5984 10.7278 10.1847 10.4332 9.89749L9.38614 10.9716C9.32722 10.9142 9.30034 10.8314 9.31424 10.7503L10.7927 11.0039ZM10.1966 12.1008C10.38 12.0044 10.5944 12.1601 10.5593 12.3643L9.08091 12.1108C8.90578 13.1319 9.97756 13.9106 10.8946 13.4285L10.1966 12.1008ZM12.5817 11.4585C12.2175 11.267 11.7825 11.267 11.4183 11.4585L12.1163 12.7862C12.0435 12.8245 11.9565 12.8245 11.8837 12.7862L12.5817 11.4585ZM13.4407 12.3643C13.4056 12.1601 13.62 12.0044 13.8034 12.1008L13.1054 13.4285C14.0224 13.9106 15.0942 13.1319 14.9191 12.1108L13.4407 12.3643ZM13.5668 9.89749C13.2722 10.1847 13.1378 10.5984 13.2073 11.0039L14.6858 10.7503C14.6997 10.8314 14.6728 10.9142 14.6139 10.9716L13.5668 9.89749ZM14.6938 9.36045C14.4887 9.33066 14.4069 9.07866 14.5552 8.93403L15.6023 10.0082C16.3442 9.28499 15.9348 8.02502 14.9095 7.87604L14.6938 9.36045ZM12.3867 8.47817C12.5688 8.8471 12.9207 9.10281 13.3279 9.16197L13.5436 7.67756C13.625 7.68939 13.6954 7.74054 13.7318 7.81432L12.3867 8.47817ZM13.1209 6.57657C12.6624 5.64751 11.3376 5.64751 10.8791 6.57657L12.2242 7.24042C12.1325 7.42623 11.8675 7.42623 11.7758 7.24042L13.1209 6.57657ZM9 16.75H15V15.25H9V16.75ZM14.25 16V20H15.75V16H14.25ZM15 19.25H9V20.75H15V19.25ZM9.75 20V16H8.25V20H9.75Z" fill="black"/>
</svg>
