<svg width="24" height="24" viewBox="0 0 24 24" fill="none" xmlns="http://www.w3.org/2000/svg">
<path d="M2.21336 12.2909C1.92888 12.0064 1.92888 11.5452 2.21336 11.2607L4.2737 9.20034C8.54082 4.93322 15.4592 4.93322 19.7263 9.20034L21.7866 11.2607C22.0711 11.5452 22.0711 12.0064 21.7866 12.2909L19.7263 14.3512C15.4592 18.6183 8.54082 18.6183 4.2737 14.3512L2.21336 12.2909Z" stroke="black" stroke-width="1.5"/>
<path d="M14.8102 11.7758C14.8102 13.385 13.5057 14.6895 11.8965 14.6895C10.2872 14.6895 8.98269 13.385 8.98269 11.7758C8.98269 10.1665 10.2872 8.862 11.8965 8.862C13.5057 8.862 14.8102 10.1665 14.8102 11.7758Z" stroke="black" stroke-width="1.5"/>
</svg>
