<svg width="24" height="24" viewBox="0 0 24 24" fill="none" xmlns="http://www.w3.org/2000/svg">
<path d="M11.8965 9.362C10.2872 9.362 8.98269 10.6665 8.98269 12.2758C8.98269 12.5983 9.0351 12.9086 9.13187 13.1987M15.4484 7.05156C11.6376 5.76654 7.31017 6.66387 4.2737 9.70034L2.21336 11.7607C1.92888 12.0452 1.92888 12.5064 2.21336 12.7909L4.2737 14.8512C4.86693 15.4444 5.31854 16.0717 6 16.5M17.5 7.98206C17.6688 8.08051 17.8355 8.18387 18 8.29214C18.6104 8.69397 19.1893 9.16337 19.7263 9.70034L21.7866 11.7607C22.0711 12.0452 22.0711 12.5064 21.7866 12.7909L19.7263 14.8512C16.707 17.8705 12.3604 18.7534 8.5648 17.5C8.37508 17.4373 8.18673 17.3694 8 17.296M14.5 10.9661C14.5853 11.1353 14.6546 11.3139 14.7058 11.5C14.7739 11.747 14.8102 12.0071 14.8102 12.2758C14.8102 13.885 13.5057 15.1895 11.8965 15.1895C11.5837 15.1895 11.2824 15.1403 11 15.049C10.8374 14.9965 10.6811 14.9301 10.5324 14.8512M17.5 5L4 18.5" stroke="black" stroke-width="1.5" stroke-linecap="round" stroke-linejoin="round"/>
</svg>
