<svg width="24" height="24" viewBox="0 0 24 24" fill="none" xmlns="http://www.w3.org/2000/svg">
<path d="M4 10.6399C6.26371 8.62389 9.08643 7.5 12.0002 7.5C14.9145 7.5 17.7372 8.62404 20.0003 10.6395M20.0001 7C18.8956 7 18.0001 7.89543 18.0001 9M17.3615 5.64771C16.2569 5.64771 15.3615 6.54314 15.3615 7.64771M14.0001 5C12.8956 5 12.0001 5.89543 12.0001 7M19.5761 13.806C15.4587 8.73134 8.54153 8.73134 4.42415 13.806C3.85878 14.5028 3.85878 15.4972 4.42415 16.194C8.54153 21.2686 15.4587 21.2686 19.5761 16.194C20.1415 15.4971 20.1415 14.5028 19.5761 13.806ZM14.0001 15C14.0001 16.1046 13.1047 17 12.0001 17C10.8956 17 10.0001 16.1046 10.0001 15C10.0001 13.8954 10.8956 13 12.0001 13C13.1047 13 14.0001 13.8954 14.0001 15Z" stroke="black" stroke-width="1.5" stroke-linecap="round" stroke-linejoin="round"/>
</svg>
