<svg width="24" height="24" viewBox="0 0 24 24" fill="none" xmlns="http://www.w3.org/2000/svg">
<path d="M12 9.51938V8.60898C12 7.05479 12.6791 5.60261 13.8535 4.75792C14.9478 3.9708 16.3584 3.76937 17.5821 4.28306C19.2443 4.98084 20.461 6.93451 19.8054 8.91684C19.6457 9.39967 19.3536 9.86548 18.8977 10.0314C18.3548 10.2291 17.7829 9.94197 17.3423 9.59685C15.4691 8.12991 13.7296 8.89658 13.7296 11M9.51938 12H8.60898C7.05479 12 5.60261 11.3209 4.75792 10.1466C3.9708 9.05225 3.76937 7.64166 4.28306 6.41795C4.98084 4.75568 6.93451 3.53898 8.91684 4.19466C9.39967 4.35436 9.86548 4.64642 10.0314 5.10227C10.2291 5.6452 9.94197 6.21708 9.59685 6.65776C8.12991 8.53087 8.89658 10.2704 11 10.2704M12 14.4806V15.391C12 16.9452 11.3209 18.3974 10.1466 19.2421C9.05225 20.0292 7.64166 20.2306 6.41795 19.717C4.75568 19.0192 3.53898 17.0655 4.19466 15.0832C4.35436 14.6003 4.64642 14.1345 5.10227 13.9686C5.6452 13.7709 6.21708 14.058 6.65776 14.4032C8.53087 15.8701 10.2704 15.1034 10.2704 13M14.4806 12H15.391C16.9452 12 18.3974 12.6791 19.2421 13.8535C20.0292 14.9478 20.2306 16.3584 19.717 17.5821C19.0192 19.2443 17.0655 20.461 15.0832 19.8054C14.6003 19.6457 14.1345 19.3536 13.9686 18.8977C13.7709 18.3548 14.058 17.7829 14.4032 17.3423C15.8701 15.4691 15.1034 13.7296 13 13.7296M14 12C14 13.1046 13.1046 14 12 14C10.8954 14 10 13.1046 10 12C10 10.8954 10.8954 10 12 10C13.1046 10 14 10.8954 14 12Z" stroke="black" stroke-width="1.5" stroke-linecap="round" stroke-linejoin="round"/>
</svg>
