<svg width="24" height="24" viewBox="0 0 24 24" fill="none" xmlns="http://www.w3.org/2000/svg">
<path d="M4.75 4.75L14.427 14.427M14.427 14.427C13.3806 15.4735 13.3805 17.1703 14.427 18.2168C14.9503 18.74 15.7987 18.74 16.3219 18.2168L18.2168 16.3219C18.74 15.7987 18.74 14.9503 18.2168 14.427C17.1703 13.3805 15.4735 13.3806 14.427 14.427ZM19.75 19.75L17.2694 17.2694M11.75 11.75L9.07295 14.427M9.07295 14.427C8.02646 13.3806 6.32974 13.3805 5.28325 14.427C4.75998 14.9503 4.75998 15.7987 5.28325 16.3219L7.17806 18.2168C7.70133 18.74 8.54971 18.74 9.07298 18.2168C10.1195 17.1703 10.1194 15.4735 9.07295 14.427ZM18.75 4.75L13.75 9.75M3.75 19.75L6.23065 17.2694M4.75 4.25C4.75 4.52614 4.52614 4.75 4.25 4.75C3.97386 4.75 3.75 4.52614 3.75 4.25C3.75 3.97386 3.97386 3.75 4.25 3.75C4.52614 3.75 4.75 3.97386 4.75 4.25ZM19.75 4.25C19.75 4.52614 19.5261 4.75 19.25 4.75C18.9739 4.75 18.75 4.52614 18.75 4.25C18.75 3.97386 18.9739 3.75 19.25 3.75C19.5261 3.75 19.75 3.97386 19.75 4.25Z" stroke="black" stroke-width="1.5" stroke-linecap="round" stroke-linejoin="round"/>
</svg>
