<svg width="24" height="24" viewBox="0 0 24 24" fill="none" xmlns="http://www.w3.org/2000/svg">
<path d="M12 20C16.4183 20 20 16.4183 20 12C20 7.58172 16.4183 4 12 4C7.58172 4 4 7.58172 4 12C4 16.4183 7.58172 20 12 20ZM12 20H20M16.0355 12C16.0355 12.2761 15.8117 12.5 15.5355 12.5C15.2594 12.5 15.0355 12.2761 15.0355 12C15.0355 11.7239 15.2594 11.5 15.5355 11.5C15.8117 11.5 16.0355 11.7239 16.0355 12ZM12.5 8.46445C12.5 8.74059 12.2761 8.96445 12 8.96445C11.7239 8.96445 11.5 8.74059 11.5 8.46445C11.5 8.1883 11.7239 7.96445 12 7.96445C12.2761 7.96445 12.5 8.1883 12.5 8.46445ZM12.5 15.5355C12.5 15.8117 12.2761 16.0355 12 16.0355C11.7239 16.0355 11.5 15.8117 11.5 15.5355C11.5 15.2594 11.7239 15.0355 12 15.0355C12.2761 15.0355 12.5 15.2594 12.5 15.5355ZM8.96446 12C8.96446 12.2761 8.7406 12.5 8.46446 12.5C8.18832 12.5 7.96446 12.2761 7.96446 12C7.96446 11.7239 8.18832 11.5 8.46446 11.5C8.7406 11.5 8.96446 11.7239 8.96446 12Z" stroke="black" stroke-width="1.5" stroke-linecap="round"/>
</svg>
