<svg width="24" height="24" viewBox="0 0 24 24" fill="none" xmlns="http://www.w3.org/2000/svg">
<path d="M4 8.9C4.27 8.3768 4.59 7.88378 4.96 7.41088C6.7 5.23757 9.27 4 12.01 4C12.41 4 12.77 4.02012 13.11 4.06037C16.1 4.42259 18.67 6.2538 20 8.84969M7.93 18.88C6.96 17.18 6.44 15.55 6.15 14.29C5.75 12.53 6.17 10.71 7.3 9.3C8.46 7.86 10.17 7.03 12.01 7.03C12.25 7.03 12.49 7.04 12.73 7.07C15.28 7.37 17.34 9.23 17.87 11.69C18.1 12.75 18.8968 13.8406 20 14.5972M12.49 20C10.56 18.006 9.53 15.7114 9.07 13.6372C8.62 11.6332 10.34 9.80956 12.37 10.05C13.62 10.2003 14.67 11.1022 14.94 12.3246C15.24 13.7274 16.07 15.5912 18.26 16.994M12.02 13C12.43 14.82 13.43 17.15 15.88 18.99" stroke="black" stroke-width="1.5" stroke-linecap="round" stroke-linejoin="round"/>
</svg>
