<svg width="24" height="24" viewBox="0 0 24 24" fill="none" xmlns="http://www.w3.org/2000/svg">
<path d="M6 13V9.99999C6 6.68628 8.68629 4 12 4C13.2266 4 14.3672 4.36805 15.3174 4.99973M17.1972 6.99977C17.7078 7.88234 18 8.90704 18 9.99999V14C18 17.3137 15.3137 20 12 20C9.38759 20 7.16512 18.3304 6.34144 16M9.99988 7.76579C10.531 7.28981 11.2323 6.99999 12 6.99999C13.6543 6.99999 15 8.34569 15 9.99999V14C15 14.3505 14.9396 14.6871 14.8286 15M13.0001 16.8286C12.6872 16.9396 12.3505 17 12 17C10.3457 17 9 15.6543 9 14V9.99999M12 9.99999V14" stroke="black" stroke-width="1.5" stroke-linecap="round" stroke-linejoin="round"/>
</svg>
