<svg width="24" height="24" viewBox="0 0 24 24" fill="none" xmlns="http://www.w3.org/2000/svg">
<path d="M17.9582 10.2305L18.7037 10.149V10.149L17.9582 10.2305ZM19.8624 15.8166L20.4624 15.3666L19.8624 15.8166ZM19.4 16.45C19.6485 16.7814 20.1186 16.8485 20.45 16.6C20.7814 16.3515 20.8485 15.8814 20.6 15.55L19.4 16.45ZM7.67818 3.99619C7.30404 4.17392 7.14482 4.62131 7.32255 4.99545C7.50029 5.36959 7.94768 5.52881 8.32182 5.35108L7.67818 3.99619ZM5.78006 7.56133C6.00829 7.21567 5.91308 6.75043 5.56741 6.52221C5.22175 6.29398 4.75651 6.38919 4.52829 6.73486L5.78006 7.56133ZM5.37596 18.416C5.60573 18.7607 6.07138 18.8538 6.41603 18.624C6.76067 18.3943 6.8538 17.9286 6.62404 17.584L5.37596 18.416ZM18.1267 11.7602L17.3869 11.8835V11.8835L18.1267 11.7602ZM15.7454 10.9172C15.6997 10.5055 15.3289 10.2088 14.9172 10.2546C14.5055 10.3003 14.2088 10.6711 14.2546 11.0828L15.7454 10.9172ZM15.1096 11.9861L15.855 11.9033V11.9033L15.1096 11.9861ZM9.96967 19.5303C10.2626 19.8232 10.7374 19.8232 11.0303 19.5303C11.3232 19.2374 11.3232 18.7626 11.0303 18.4697L9.96967 19.5303ZM13.4377 8.85048C13.7118 9.16103 14.1857 9.19058 14.4963 8.91648C14.8069 8.64238 14.8364 8.16843 14.5623 7.85788L13.4377 8.85048ZM17.4697 18.5303C17.7626 18.8232 18.2374 18.8232 18.5303 18.5303C18.8232 18.2374 18.8232 17.7626 18.5303 17.4697L17.4697 18.5303ZM13.6433 16.6145C13.4305 16.2592 12.9698 16.1438 12.6145 16.3566C12.2592 16.5695 12.1437 17.0301 12.3566 17.3855L13.6433 16.6145ZM15.084 20.624C15.4286 20.8538 15.8943 20.7607 16.124 20.416C16.3538 20.0714 16.2607 19.6057 15.916 19.376L15.084 20.624ZM11.6708 10.3354C11.8561 9.96495 11.7059 9.51444 11.3355 9.32918C10.965 9.14393 10.5145 9.29408 10.3292 9.66456L11.6708 10.3354ZM10.8292 14.3354C11.0144 14.7059 11.4649 14.8561 11.8354 14.6708C12.2059 14.4856 12.356 14.0351 12.1708 13.6646L10.8292 14.3354ZM11 4.75C14.2191 4.75 16.8707 7.18431 17.2126 10.3121L18.7037 10.149C18.2795 6.26883 14.9928 3.25 11 3.25V4.75ZM19.2624 16.2666L19.4 16.45L20.6 15.55L20.4624 15.3666L19.2624 16.2666ZM3.25 11V11.3944H4.75V11H3.25ZM8.32182 5.35108C9.13264 4.9659 10.0401 4.75 11 4.75V3.25C9.81274 3.25 8.68587 3.51749 7.67818 3.99619L8.32182 5.35108ZM4.75 11C4.75 9.7283 5.12901 8.5474 5.78006 7.56133L4.52829 6.73486C3.72031 7.95861 3.25 9.42552 3.25 11H4.75ZM3.25 11.3944C3.25 13.8935 3.98973 16.3367 5.37596 18.416L6.62404 17.584C5.40207 15.751 4.75 13.5974 4.75 11.3944H3.25ZM17.3869 11.8835C17.6519 13.4737 18.2952 14.9769 19.2624 16.2666L20.4624 15.3666C19.6393 14.2691 19.092 12.99 18.8665 11.6369L17.3869 11.8835ZM17.2126 10.3121C17.2622 10.7656 17.2984 11.3527 17.3869 11.8835L18.8665 11.6369C18.7863 11.1558 18.7657 10.7153 18.7037 10.149L17.2126 10.3121ZM7.75 11C7.75 9.20507 9.20507 7.75 11 7.75V6.25C8.37665 6.25 6.25 8.37665 6.25 11H7.75ZM14.2546 11.0828L14.3642 12.0689L15.855 11.9033L15.7454 10.9172L14.2546 11.0828ZM9.65165 19.2123L9.96967 19.5303L11.0303 18.4697L10.7123 18.1517L9.65165 19.2123ZM11 7.75C11.9706 7.75 12.8411 8.17452 13.4377 8.85048L14.5623 7.85788C13.693 6.87299 12.4188 6.25 11 6.25V7.75ZM6.25 11C6.25 14.0802 7.47361 17.0343 9.65165 19.2123L10.7123 18.1517C8.81557 16.2549 7.75 13.6824 7.75 11H6.25ZM14.3642 12.0689C14.6357 14.5128 15.7309 16.7916 17.4697 18.5303L18.5303 17.4697C17.0324 15.9718 16.0889 14.0087 15.855 11.9033L14.3642 12.0689ZM12.3566 17.3855C13.1516 18.7124 13.6605 19.675 15.084 20.624L15.916 19.376C14.8153 18.6422 14.4615 17.98 13.6433 16.6145L12.3566 17.3855ZM10.3292 9.66456C9.96735 10.3882 10.0049 11.3416 10.1352 12.1233C10.2714 12.9406 10.5429 13.7629 10.8292 14.3354L12.1708 13.6646C11.957 13.2371 11.7286 12.5594 11.6148 11.8767C11.4951 11.1584 11.5327 10.6118 11.6708 10.3354L10.3292 9.66456Z" fill="black"/>
</svg>
