<svg width="24" height="24" viewBox="0 0 24 24" fill="none" xmlns="http://www.w3.org/2000/svg">
<path d="M12.4142 17.5858L11.8839 17.0555H11.8839L12.4142 17.5858ZM9.58579 17.5858L9.05546 18.1161L9.58579 17.5858ZM6.41421 14.4142L6.94455 13.8839L6.41421 14.4142ZM10.7043 5.70663L10.1737 6.23661L10.7043 5.70663ZM18.2777 13.2901L18.8084 12.7602L18.2777 13.2901ZM18.9853 4.00001L18.9853 4.75001L18.9853 4.00001ZM11.4119 4L11.4119 4.75L11.4119 4ZM19.9853 5.00001L20.7353 5.00001V5.00001H19.9853ZM19.9853 12.5835H19.2353H19.9853ZM3.46967 19.4697C3.17678 19.7626 3.17678 20.2374 3.46967 20.5303C3.76256 20.8232 4.23744 20.8232 4.53033 20.5303L3.46967 19.4697ZM16.9697 11.9697L11.8839 17.0555L12.9445 18.1161L18.0303 13.0303L16.9697 11.9697ZM10.1161 17.0555L6.94455 13.8839L5.88388 14.9446L9.05546 18.1161L10.1161 17.0555ZM6.94455 12.1161L12.0303 7.03034L10.9697 5.96968L5.88388 11.0555L6.94455 12.1161ZM6.94455 13.8839C6.45639 13.3957 6.45639 12.6043 6.94455 12.1161L5.88388 11.0555C4.80994 12.1294 4.80994 13.8706 5.88388 14.9446L6.94455 13.8839ZM11.8839 17.0555C11.3957 17.5436 10.6043 17.5436 10.1161 17.0555L9.05546 18.1161C10.1294 19.1901 11.8706 19.1901 12.9445 18.1161L11.8839 17.0555ZM10.1737 6.23661L17.747 13.8201L18.8084 12.7602L11.235 5.17666L10.1737 6.23661ZM18.9853 3.25001L11.4119 3.25L11.4119 4.75L18.9853 4.75001L18.9853 3.25001ZM19.2353 5.00001L19.2353 12.5835H20.7353L20.7353 5.00001L19.2353 5.00001ZM18.9853 4.75001C19.1234 4.75001 19.2353 4.86194 19.2353 5.00001H20.7353C20.7353 4.03352 19.9518 3.25001 18.9853 3.25001L18.9853 4.75001ZM17.747 13.8201C18.8491 14.9237 20.7353 14.1432 20.7353 12.5835H19.2353C19.2353 12.8063 18.9658 12.9178 18.8084 12.7602L17.747 13.8201ZM11.235 5.17666C11.0777 5.01912 11.1893 4.75 11.4119 4.75L11.4119 3.25C9.85341 3.25 9.07236 5.13383 10.1737 6.23661L11.235 5.17666ZM4.53033 20.5303L8.53033 16.5303L7.46967 15.4697L3.46967 19.4697L4.53033 20.5303ZM7 15.75H15V14.25H7V15.75ZM7 11.75H16V10.25H7V11.75Z" fill="black"/>
</svg>
