<svg width="24" height="24" viewBox="0 0 24 24" fill="none" xmlns="http://www.w3.org/2000/svg">
<path d="M12 20C15.866 20 19 16.866 19 13C19 10 17.345 7.70196 16 7.00001C16.006 7.65933 16.112 8.36751 15.9623 9.01444C15.7873 9.77064 15.2674 10.4533 14.5576 10.78C13.5898 11.2253 12.3469 10.9722 11.6303 10.1839C11.5572 10.1036 11.49 10.018 11.4289 9.92823C10.6471 8.78068 11.1024 7.54045 11.6247 6.40218C12.0078 5.5674 12.4675 4.74979 13 4C8 5 5 9 5 13C5 16.866 8.13401 20 12 20ZM12 20C13.3807 20 14.5 18.8807 14.5 17.5C14.5 16.1193 12 14 12 14C12 14 9.5 16.1193 9.5 17.5C9.5 18.8807 10.6193 20 12 20Z" stroke="black" stroke-width="1.5" stroke-linecap="round" stroke-linejoin="round"/>
</svg>
