<svg width="24" height="24" viewBox="0 0 24 24" fill="none" xmlns="http://www.w3.org/2000/svg">
<path d="M7.60388 4H15.6039M8.04443 12H15.1634M10.6039 15.5C10.6039 15.7761 10.38 16 10.1039 16C9.82774 16 9.60388 15.7761 9.60388 15.5C9.60388 15.2239 9.82774 15 10.1039 15C10.38 15 10.6039 15.2239 10.6039 15.5ZM14.6039 16.5C14.6039 16.7761 14.38 17 14.1039 17C13.8277 17 13.6039 16.7761 13.6039 16.5C13.6039 16.2239 13.8277 16 14.1039 16C14.38 16 14.6039 16.2239 14.6039 16.5ZM14.6039 9.70437V4H8.60385V9.70437C8.60385 10.5541 8.3873 11.3898 7.97464 12.1326L5.25456 17.0287C4.51397 18.3618 5.47791 20 7.00287 20H16.2048C17.7298 20 18.6937 18.3618 17.9531 17.0287L15.2331 12.1326C14.8204 11.3898 14.6039 10.5541 14.6039 9.70437Z" stroke="black" stroke-width="1.5" stroke-linecap="round" stroke-linejoin="round"/>
</svg>
