<svg width="24" height="24" viewBox="0 0 24 24" fill="none" xmlns="http://www.w3.org/2000/svg">
<path d="M7.75062 11.1594C7.38858 11.5382 7.06508 11.8777 6.79765 12.159C6.49541 12.4768 6.72137 13 7.15997 13H10.2417C10.6007 13 10.8444 13.3651 10.7054 13.696C9.96216 15.4661 8.0976 20 8.5 20C8.9024 20 10.584 18.0568 12.5 15.9762M10.9257 7.87105C12.9031 5.84913 14.5 4 15 4C15.5 4 13.5378 8.53392 12.7946 10.304C12.6556 10.6349 12.8993 11 13.2583 11H15.8866C16.318 11 16.5462 11.5091 16.2584 11.8305C16.074 12.0365 15.8609 12.2742 15.6256 12.5361M6 6.2L18 18.2" stroke="black" stroke-width="1.5" stroke-linecap="round"/>
</svg>
