<svg width="24" height="24" viewBox="0 0 24 24" fill="none" xmlns="http://www.w3.org/2000/svg">
<path d="M16 6V5.25V6ZM8 6V6.75V6ZM5 11L5 10.25L5 11ZM19 11V11.75V11ZM12.3995 16.0794L12.9757 15.5993V15.5993L12.3995 16.0794ZM14 18L13.4238 18.4801C13.5663 18.6511 13.7774 18.75 14 18.75C14.2226 18.75 14.4337 18.6511 14.5762 18.4801L14 18ZM15.7853 15.8577L16.3615 16.3378L15.7853 15.8577ZM11.5303 6.53033C11.8232 6.23743 11.8232 5.76256 11.5303 5.46967C11.2374 5.17678 10.7625 5.17678 10.4697 5.46967L11.5303 6.53033ZM8.46966 7.46968C8.17677 7.76258 8.17677 8.23745 8.46967 8.53034C8.76256 8.82323 9.23743 8.82323 9.53033 8.53034L8.46966 7.46968ZM13.4697 7.46968C13.1768 7.76257 13.1768 8.23744 13.4696 8.53034C13.7625 8.82323 14.2374 8.82323 14.5303 8.53034L13.4697 7.46968ZM18 17.25H6V18.75H18V17.25ZM5 15.75H9V14.25H5V15.75ZM18 15.75H19V14.25H18V15.75ZM6 17.25C5.30964 17.25 4.75 16.6904 4.75 16H3.25C3.25 17.5188 4.48122 18.75 6 18.75V17.25ZM19.25 16C19.25 16.6904 18.6904 17.25 18 17.25V18.75C19.5188 18.75 20.75 17.5188 20.75 16H19.25ZM20.75 16C20.75 15.0335 19.9665 14.25 19 14.25V15.75C19.1381 15.75 19.25 15.8619 19.25 16H20.75ZM4.75 16C4.75 15.8619 4.86193 15.75 5 15.75V14.25C4.0335 14.25 3.25 15.0335 3.25 16H4.75ZM19 10.25L5 10.25L5 11.75L19 11.75V10.25ZM8 6.75L16 6.75V5.25L8 5.25V6.75ZM16 6.75C17.7949 6.75 19.25 8.20508 19.25 10H20.75C20.75 7.37665 18.6234 5.25 16 5.25V6.75ZM4.75 10C4.75 8.20507 6.20507 6.75 8 6.75V5.25C5.37665 5.25 3.25 7.37665 3.25 10H4.75ZM5 10.25C4.86193 10.25 4.75 10.1381 4.75 10H3.25C3.25 10.9665 4.0335 11.75 5 11.75L5 10.25ZM19 11.75C19.9665 11.75 20.75 10.9665 20.75 10H19.25C19.25 10.1381 19.1381 10.25 19 10.25V11.75ZM6 15.75H10.0949V14.25H6V15.75ZM17.6164 15.75H18V14.25H17.6164V15.75ZM11.8234 16.5596L13.4238 18.4801L14.5762 17.5199L12.9757 15.5993L11.8234 16.5596ZM14.5762 18.4801L16.3615 16.3378L15.2091 15.3775L13.4238 17.5199L14.5762 18.4801ZM6 11.75H18V10.25H6V11.75ZM18 11.75C18.6904 11.75 19.25 12.3096 19.25 13H20.75C20.75 11.4812 19.5188 10.25 18 10.25V11.75ZM17.6164 14.25C16.6864 14.25 15.8045 14.6631 15.2091 15.3775L16.3615 16.3378C16.6718 15.9653 17.1316 15.75 17.6164 15.75V14.25ZM10.0949 15.75C10.7626 15.75 11.3959 16.0466 11.8234 16.5596L12.9757 15.5993C12.2632 14.7443 11.2078 14.25 10.0949 14.25V15.75ZM18 15.75C19.5188 15.75 20.75 14.5188 20.75 13H19.25C19.25 13.6904 18.6904 14.25 18 14.25V15.75ZM4.75 13C4.75 12.3096 5.30964 11.75 6 11.75V10.25C4.48122 10.25 3.25 11.4812 3.25 13H4.75ZM6 14.25C5.30964 14.25 4.75 13.6904 4.75 13H3.25C3.25 14.5188 4.48122 15.75 6 15.75V14.25ZM10.4697 5.46967L8.46966 7.46968L9.53033 8.53034L11.5303 6.53033L10.4697 5.46967ZM15.4697 5.46967L13.4697 7.46968L14.5303 8.53034L16.5303 6.53033L15.4697 5.46967Z" fill="black"/>
</svg>
