<svg width="24" height="24" viewBox="0 0 24 24" fill="none" xmlns="http://www.w3.org/2000/svg">
<path d="M14 7V6.25C13.5858 6.25 13.25 6.58579 13.25 7H14ZM17 11.25C16.5858 11.25 16.25 11.5858 16.25 12C16.25 12.4142 16.5858 12.75 17 12.75V11.25ZM20 12.75C20.4142 12.75 20.75 12.4142 20.75 12C20.75 11.5858 20.4142 11.25 20 11.25V12.75ZM11 9.25C11.4142 9.25 11.75 8.91421 11.75 8.5C11.75 8.08579 11.4142 7.75 11 7.75V9.25ZM7 7.75C6.58579 7.75 6.25 8.08579 6.25 8.5C6.25 8.91421 6.58579 9.25 7 9.25V7.75ZM9 12.75C9.41421 12.75 9.75 12.4142 9.75 12C9.75 11.5858 9.41421 11.25 9 11.25V12.75ZM7 11.25C6.58579 11.25 6.25 11.5858 6.25 12C6.25 12.4142 6.58579 12.75 7 12.75L7 11.25ZM6 4.75H12V3.25H6V4.75ZM13.25 6V17H14.75V6H13.25ZM14 16.25H6V17.75H14V16.25ZM4.75 15V6H3.25V15H4.75ZM6 16.25C5.30964 16.25 4.75 15.6904 4.75 15H3.25C3.25 16.5188 4.48122 17.75 6 17.75V16.25ZM12 4.75C12.6904 4.75 13.25 5.30964 13.25 6H14.75C14.75 4.48122 13.5188 3.25 12 3.25V4.75ZM6 3.25C4.48122 3.25 3.25 4.48122 3.25 6H4.75C4.75 5.30964 5.30964 4.75 6 4.75V3.25ZM14 7.75H16V6.25H14V7.75ZM19.25 11V15H20.75V11H19.25ZM18 16.25H14V17.75H18V16.25ZM14.75 17V7H13.25V17H14.75ZM19.25 15C19.25 15.6904 18.6904 16.25 18 16.25V17.75C19.5188 17.75 20.75 16.5188 20.75 15H19.25ZM16 7.75C17.7949 7.75 19.25 9.20508 19.25 11H20.75C20.75 8.37665 18.6234 6.25 16 6.25V7.75ZM10.25 18C10.25 18.6904 9.69036 19.25 9 19.25V20.75C10.5188 20.75 11.75 19.5188 11.75 18H10.25ZM9 19.25C8.30964 19.25 7.75 18.6904 7.75 18H6.25C6.25 19.5188 7.48122 20.75 9 20.75V19.25ZM10.0832 17.3755C10.1891 17.5586 10.25 17.7711 10.25 18H11.75C11.75 17.5004 11.6161 17.0297 11.3816 16.6245L10.0832 17.3755ZM7.75 18C7.75 17.7711 7.81085 17.5586 7.91677 17.3755L6.61836 16.6245C6.38393 17.0297 6.25 17.5004 6.25 18H7.75ZM17.25 18C17.25 18.6904 16.6904 19.25 16 19.25V20.75C17.5188 20.75 18.75 19.5188 18.75 18H17.25ZM16 19.25C15.3096 19.25 14.75 18.6904 14.75 18H13.25C13.25 19.5188 14.4812 20.75 16 20.75V19.25ZM17.0832 17.3755C17.1891 17.5586 17.25 17.7711 17.25 18H18.75C18.75 17.5004 18.6161 17.0297 18.3816 16.6245L17.0832 17.3755ZM14.75 18C14.75 17.7711 14.8109 17.5586 14.9168 17.3755L13.6184 16.6245C13.3839 17.0297 13.25 17.5004 13.25 18H14.75ZM17 12.75H20V11.25H17V12.75ZM11 7.75L7 7.75V9.25L11 9.25V7.75ZM9 11.25L7 11.25L7 12.75L9 12.75V11.25Z" fill="black"/>
</svg>
