<svg width="24" height="24" viewBox="0 0 24 24" fill="none" xmlns="http://www.w3.org/2000/svg">
<path d="M10 9.07013C10.5768 8.70355 11.2615 8.49331 12 8.49331C12.7385 8.49331 13.4232 8.70355 14 9.07013M10.9999 11C11.3111 10.8818 11.649 10.8185 12 10.8185C12.351 10.8185 12.6889 10.8818 13.0001 11M5 8.46849V19C5 19.5523 5.44772 20 6 20H8M8 20V15C8 14.4477 8.44772 14 9 14H15C15.5523 14 16 14.4477 16 15V20M8 20H16M16 20H18C18.5523 20 19 19.5523 19 19V8.46849M4 9L12 4L20 9M8 17H16" stroke="black" stroke-width="1.5" stroke-linecap="round" stroke-linejoin="round"/>
</svg>
