<svg width="24" height="24" viewBox="0 0 24 24" fill="none" xmlns="http://www.w3.org/2000/svg">
<path d="M12 20V15C12 12.7909 10.2091 11 8 11C5.79086 11 4 12.7909 4 15V20M20.0002 7.25867C18.8656 6.46564 17.4861 6 16 6C13.845 6 11.9155 6.98053 10.6303 8.5174C9.81732 8.18622 8.93048 8 8 8C6.51392 8 5.1344 8.46564 3.99976 9.25867M20 20V13C20 10.7909 18.2091 9 16 9C13.7909 9 12 10.7909 12 13V18M9.5 16V15C9.5 14.1729 8.82715 13.5 8 13.5C7.17285 13.5 6.5 14.1729 6.5 15V16C6.5 16.8695 9.5 16.8695 9.5 16ZM17.5 14V13C17.5 12.1729 16.8271 11.5 16 11.5C15.1728 11.5 14.5 12.1729 14.5 13V14C14.5 14.8695 17.5 14.8695 17.5 14Z" stroke="black" stroke-width="1.5" stroke-linecap="round" stroke-linejoin="round"/>
</svg>
