<svg width="24" height="24" viewBox="0 0 24 24" fill="none" xmlns="http://www.w3.org/2000/svg">
<path d="M12 20V15.5C12 13.2909 10.2092 11.5 8.00001 11.5C5.79087 11.5 4.00001 13.2909 4.00001 15.5V20M20 20V14C20 11.7909 18.2092 10 16 10C13.7909 10 12 11.7909 12 14V19M20.0004 7.99986C18.1759 5.57105 15.2713 4 11.9997 4C8.72814 4 5.82347 5.57107 3.99908 7.99993M3.99908 7.99993L3.99972 5M3.99908 7.99993L7.00001 8M9.50001 16.5V15.5C9.50001 14.6729 8.82716 14 8.00001 14C7.17286 14 6.50001 14.6729 6.50001 15.5V16.5C6.50001 17.3695 9.50001 17.3695 9.50001 16.5ZM17.5 15V14C17.5 13.1729 16.8272 12.5 16 12.5C15.1729 12.5 14.5 13.1729 14.5 14V15C14.5 15.8695 17.5 15.8695 17.5 15Z" stroke="black" stroke-width="1.5" stroke-linecap="round" stroke-linejoin="round"/>
</svg>
