<svg width="24" height="24" viewBox="0 0 24 24" fill="none" xmlns="http://www.w3.org/2000/svg">
<path d="M12 20V15.5C12 13.2909 10.2092 11.5 8.00002 11.5C5.79088 11.5 4.00002 13.2909 4.00002 15.5V20M20 20V14C20 11.7909 18.2092 10 16 10C13.7909 10 12 11.7909 12 14V19M3.99939 7.99986C5.82381 5.57105 8.72844 4 12 4C15.2716 4 18.1763 5.57107 20.0007 7.99993M20.0007 7.99993L20 5M20.0007 7.99993L17 8M9.50002 16.5V15.5C9.50002 14.6729 8.82717 14 8.00002 14C7.17287 14 6.50002 14.6729 6.50002 15.5V16.5C6.50002 17.3695 9.50002 17.3695 9.50002 16.5ZM17.5 15V14C17.5 13.1729 16.8272 12.5 16 12.5C15.1729 12.5 14.5 13.1729 14.5 14V15C14.5 15.8695 17.5 15.8695 17.5 15Z" stroke="black" stroke-width="1.5" stroke-linecap="round" stroke-linejoin="round"/>
</svg>
