<svg width="24" height="24" viewBox="0 0 24 24" fill="none" xmlns="http://www.w3.org/2000/svg">
<path d="M8.68775 20L7.22638 17.5644C6.8514 16.9394 6.94988 16.1394 7.46524 15.6241C8.08551 15.0038 9.09118 15.0038 9.71145 15.6241L10.5883 16.501L10.5844 10.4609C10.5839 9.65477 11.2373 9.00099 12.0434 9.00099H12.081C12.918 9.00099 13.5904 9.66892 13.5897 10.4986C13.5883 12.1272 13.5883 14.501 13.5883 14.501L16.9333 15.17C17.9151 15.3663 18.6236 16.26 18.5382 17.2575C18.4598 18.1718 18.2591 19.086 17.745 20.0002M6.26611 13.3916C5.82275 12.501 5.58838 11.501 5.58838 10.5C5.58838 6.91602 8.5044 4 12.0884 4C15.6724 4 18.5884 6.91602 18.5884 10.5C18.5884 11.501 18.354 12.501 17.9106 13.3916M8.67751 12.0007C8.42397 11.4908 8.28139 10.916 8.28139 10.3079C8.28139 8.20541 9.98582 6.50098 12.0883 6.50098C14.1909 6.50098 15.8953 8.20541 15.8953 10.3079C15.8953 10.916 15.7527 11.4908 15.4992 12.0007" stroke="black" stroke-width="1.5" stroke-linecap="round" stroke-linejoin="round"/>
</svg>
