<svg width="24" height="24" viewBox="0 0 24 24" fill="none" xmlns="http://www.w3.org/2000/svg">
<path d="M6.58835 20L4.22638 16.0634C3.8514 15.4384 3.94988 14.6385 4.46524 14.1231C5.08551 13.5028 6.09118 13.5028 6.71145 14.1231L7.58835 15L7.58444 8.95992C7.58392 8.15379 8.23727 7.50001 9.04341 7.50001H9.08098C9.91805 7.50001 10.5904 8.16794 10.5897 8.99762C10.5884 10.6262 10.5884 13 10.5884 13L13.9333 13.669C14.9151 13.8654 15.6236 14.759 15.5382 15.7566C15.4169 17.171 15.0028 18.5855 13.5884 20M16.5 7.5L17.2071 6.79289M20 7.5C20 9.433 18.433 11 16.5 11C14.567 11 13 9.433 13 7.5C13 5.567 14.567 4 16.5 4C18.433 4 20 5.567 20 7.5Z" stroke="black" stroke-width="1.5" stroke-linecap="round" stroke-linejoin="round"/>
</svg>
