<svg width="24" height="24" viewBox="0 0 24 24" fill="none" xmlns="http://www.w3.org/2000/svg">
<path d="M12 20V15.5C12 13.2909 10.2091 11.5 8 11.5C5.79086 11.5 4 13.2909 4 15.5V20M20 20V14C20 11.7909 18.2091 10 16 10C13.7909 10 12 11.7909 12 14V19M14 6H19M18 4L20 6L18 8M10 6H5M6 4L4 6L6 8M9.5 16.5V15.5C9.5 14.6729 8.82715 14 8 14C7.17285 14 6.5 14.6729 6.5 15.5V16.5C6.5 17.3695 9.5 17.3695 9.5 16.5ZM17.5 15V14C17.5 13.1729 16.8271 12.5 16 12.5C15.1729 12.5 14.5 13.1729 14.5 14V15C14.5 15.8695 17.5 15.8695 17.5 15Z" stroke="black" stroke-width="1.5" stroke-linecap="round" stroke-linejoin="round"/>
</svg>
