<svg width="24" height="24" viewBox="0 0 24 24" fill="none" xmlns="http://www.w3.org/2000/svg">
<path d="M10.1434 18.1883L8.88083 13.7745C8.68038 13.0738 8.98255 12.3265 9.61373 11.9621C10.3734 11.5235 11.3448 11.7838 11.7834 12.5435L12.4035 13.6174L13.963 7.78216C14.1711 7.00336 14.9714 6.54096 15.7501 6.7496L15.7864 6.75932C16.5949 6.97597 17.0715 7.79516 16.8561 8.59639C16.4333 10.1691 15.8189 12.462 15.8189 12.462L18.8767 13.974C19.7742 14.4177 20.2273 15.4644 19.8866 16.4058C19.4034 17.7407 18.6373 18.9998 16.9049 20M7 6H12M12 6L10 8M12 6L10 4M9 10H4M4 10L6 12M4 10L6 8" stroke="black" stroke-width="1.5" stroke-linecap="round" stroke-linejoin="round"/>
</svg>
