<svg width="24" height="24" viewBox="0 0 24 24" fill="none" xmlns="http://www.w3.org/2000/svg">
<path d="M8.99997 20.0001L6.638 16.0635C6.26302 15.4385 6.3615 14.6386 6.87686 14.1232C7.49713 13.5029 8.5028 13.5029 9.12307 14.1232L9.99997 15.0001L9.99606 8.96003C9.99554 8.1539 10.6489 7.50012 11.455 7.50012H11.4926C12.3297 7.50012 13.0021 8.16805 13.0014 8.99773C13 10.6263 13 13.0001 13 13.0001L16.3449 13.6691C17.3267 13.8655 18.0353 14.7592 17.9498 15.7567C17.8286 17.1712 17.4145 18.5856 16 20.0001M7.4682 11.0005C7.1685 10.3977 6.99997 9.7183 6.99997 8.99951C6.99997 6.51423 9.01469 4.49951 11.5 4.49951C13.9853 4.49951 16 6.51423 16 8.99951C16 9.7183 15.8314 10.3977 15.5318 11.0004" stroke="black" stroke-width="1.5" stroke-linecap="round" stroke-linejoin="round"/>
</svg>
