<svg width="24" height="24" viewBox="0 0 24 24" fill="none" xmlns="http://www.w3.org/2000/svg">
<path d="M12.0003 20V15.5C12.0003 13.2909 10.2094 11.5 8.00026 11.5C5.79112 11.5 4.00026 13.2909 4.00026 15.5V20M3.99994 6.88662C5.84234 6.03271 7.93697 5.78103 9.92873 6.19922C11.6226 4.78613 13.7603 4 16 4C17.3965 4 18.7545 4.30188 20.0001 4.88283M20.0005 7.75867C18.8659 6.96564 17.4863 6.5 16.0003 6.5C13.8452 6.5 11.9157 7.48053 10.6306 9.0174C9.81759 8.68622 8.93075 8.5 8.00027 8.5C6.51419 8.5 5.13467 8.96564 4.00003 9.75867M20.0003 20V13.5C20.0003 11.2909 18.2094 9.5 16.0003 9.5C13.7911 9.5 12.0003 11.2909 12.0003 13.5V18.5M9.50026 16.5V15.5C9.50026 14.6729 8.82741 14 8.00026 14C7.17311 14 6.50026 14.6729 6.50026 15.5V16.5C6.50026 17.3695 9.50026 17.3695 9.50026 16.5ZM17.5003 14.5V13.5C17.5003 12.6729 16.8274 12 16.0003 12C15.1731 12 14.5003 12.6729 14.5003 13.5V14.5C14.5003 15.3695 17.5003 15.3695 17.5003 14.5Z" stroke="black" stroke-width="1.5" stroke-linecap="round" stroke-linejoin="round"/>
</svg>
