<svg width="24" height="24" viewBox="0 0 24 24" fill="none" xmlns="http://www.w3.org/2000/svg">
<path d="M12.3237 20L9.02333 16.8088C8.49938 16.3022 8.38746 15.504 8.75187 14.8729C9.19047 14.1132 10.1619 13.8529 10.9215 14.2915L11.9955 14.9116L10.4284 9.0783C10.2193 8.29977 10.6812 7.49917 11.4598 7.29052L11.4961 7.2808C12.3047 7.06415 13.127 7.53529 13.3411 8.33689C13.7613 9.91036 14.3756 12.2032 14.3756 12.2032L17.7798 11.9837C18.7789 11.9193 19.6946 12.5991 19.8702 13.5848C20.1192 14.9824 20.0853 16.4559 19.0852 18.1883M7.34703 11.947C5.44849 11.6352 4 9.98678 4 8C4 5.79086 5.79086 4 8 4C9.93299 4 11.5457 5.37112 11.9187 7.19385M6.56016 9.18123L7.59719 11.9963L4.78213 13.0333" stroke="black" stroke-width="1.5" stroke-linecap="round" stroke-linejoin="round"/>
</svg>
