<svg width="24" height="24" viewBox="0 0 24 24" fill="none" xmlns="http://www.w3.org/2000/svg">
<path d="M7.45 5.43C8.26 6.47 9 7.55 9 8C9 9 7.8 10 7.8 11C7.8 11.92 8.83 13.7 4.24 13.96M7.49 18.6C8.18 17.12 9 14.9988 12 14.9997C13 15 13.3936 16.5678 14 17C15.0984 17.7828 16.9479 17.6914 17.27 18.02M13 4.06V7C13 9 14 8 15 10C16 12 16 14 18 13C18.8 12.6 19.43 11.73 19.91 10.82M20 12C20 16.4183 16.4183 20 12 20C7.58172 20 4 16.4183 4 12C4 7.58172 7.58172 4 12 4C16.4183 4 20 7.58172 20 12Z" stroke="black" stroke-width="1.5" stroke-linecap="round" stroke-linejoin="round"/>
</svg>
