<svg width="24" height="24" viewBox="0 0 24 24" fill="none" xmlns="http://www.w3.org/2000/svg">
<path d="M8.32918 19.3354L8.66459 20.0062L10.0062 19.3354L9.67082 18.6646L8.32918 19.3354ZM10 16L9.66459 15.3292L10 16ZM14 15L14.416 14.376L14 15ZM16 12L15.2724 12.1819L16 12ZM19.25 12C19.25 16.0041 16.0041 19.25 12 19.25V20.75C16.8325 20.75 20.75 16.8325 20.75 12H19.25ZM12 19.25C7.99594 19.25 4.75 16.0041 4.75 12H3.25C3.25 16.8325 7.16751 20.75 12 20.75V19.25ZM4.75 12C4.75 7.99594 7.99594 4.75 12 4.75V3.25C7.16751 3.25 3.25 7.16751 3.25 12H4.75ZM12 4.75C16.0041 4.75 19.25 7.99594 19.25 12H20.75C20.75 7.16751 16.8325 3.25 12 3.25V4.75ZM3.6279 11.6512C4.29262 12.031 5.38069 12.4391 6.51368 12.3995C7.70173 12.358 8.93082 11.8154 9.67082 10.3354L8.32918 9.66459C7.86918 10.5846 7.1816 10.8753 6.46132 10.9005C5.68597 10.9275 4.87405 10.6356 4.3721 10.3488L3.6279 11.6512ZM9.67082 10.3354C10.379 8.91905 10.9958 8.51717 11.3848 8.41107C11.7845 8.30207 12.1868 8.43192 12.6646 8.67082L13.3354 7.32918C12.8132 7.06808 11.9655 6.69793 10.9902 6.96393C10.0042 7.23283 9.121 8.08095 8.32918 9.66459L9.67082 10.3354ZM12.6646 8.67082C13.4038 9.04045 14.3411 9.03206 15.148 8.40451C15.9203 7.8038 16.4745 6.715 16.7398 5.12329L15.2602 4.8767C15.0255 6.285 14.5797 6.9462 14.227 7.22048C13.9089 7.46793 13.5962 7.45955 13.3354 7.32918L12.6646 8.67082ZM9.67082 18.6646C9.55783 18.4386 9.45419 18.048 9.51538 17.6698C9.56904 17.338 9.75404 16.9615 10.3354 16.6708L9.66459 15.3292C8.64596 15.8385 8.16429 16.6286 8.03462 17.4302C7.91248 18.1853 8.10884 18.8947 8.32918 19.3354L9.67082 18.6646ZM10.3354 16.6708C10.8687 16.4042 11.2999 16.1384 11.654 15.918C12.0237 15.6881 12.2695 15.5343 12.4921 15.4354C12.694 15.3456 12.824 15.3266 12.9428 15.3394C13.0717 15.3533 13.2693 15.4142 13.584 15.624L14.416 14.376C13.9808 14.0858 13.5533 13.8967 13.1041 13.8481C12.6447 13.7984 12.2435 13.9044 11.8829 14.0646C11.543 14.2157 11.1951 14.4369 10.8616 14.6445C10.5126 14.8616 10.1313 15.0958 9.66459 15.3292L10.3354 16.6708ZM13.584 15.624C14.6748 16.3512 15.9129 17.8005 16.4 18.45L17.6 17.55C17.0872 16.8662 15.7253 15.2488 14.416 14.376L13.584 15.624ZM19.3181 8.27239C18.6005 8.45178 17.5364 8.82955 16.6824 9.40201C15.8771 9.94184 14.9477 10.8828 15.2724 12.1819L16.7276 11.8181C16.6524 11.5171 16.8063 11.1248 17.5176 10.648C18.1803 10.2038 19.0662 9.88154 19.6819 9.7276L19.3181 8.27239ZM15.2724 12.1819C15.5231 13.1846 16.1423 13.9354 16.79 14.4846C17.4359 15.0322 18.1519 15.4145 18.6646 15.6708L19.3354 14.3292C18.848 14.0855 18.2641 13.7678 17.76 13.3404C17.2577 12.9146 16.877 12.4154 16.7276 11.8181L15.2724 12.1819Z" fill="black"/>
</svg>
