<svg width="24" height="24" viewBox="0 0 24 24" fill="none" xmlns="http://www.w3.org/2000/svg">
<path d="M11.9996 4V7M18.1209 6L15.9996 8.12132M5.99959 6L8.12091 8.12132M14.0156 20H17.9835C18.9883 20 19.709 19.0314 19.4203 18.069L18.8203 16.069C18.6299 15.4345 18.046 15 17.3835 15H14.6156C13.9532 15 13.3692 15.4345 13.1789 16.069L12.5789 18.069C12.2902 19.0314 13.0108 20 14.0156 20ZM10.0156 15H13.9835C14.9883 15 15.709 14.0314 15.4203 13.069L14.8203 11.069C14.6299 10.4345 14.046 10 13.3835 10H10.6156C9.95322 10 9.36924 10.4345 9.17889 11.069L8.57889 13.069C8.29017 14.0314 9.01084 15 10.0156 15ZM6.01563 20H9.98354C10.9883 20 11.709 19.0314 11.4203 18.069L10.8203 16.069C10.6299 15.4345 10.046 15 9.38354 15H6.61563C5.95322 15 5.36924 15.4345 5.17889 16.069L4.57889 18.069C4.29017 19.0314 5.01084 20 6.01563 20Z" stroke="black" stroke-width="1.5" stroke-linecap="round"/>
</svg>
