<svg width="24" height="24" viewBox="0 0 24 24" fill="none" xmlns="http://www.w3.org/2000/svg">
<path d="M4.00001 5.99999C4.00001 4.89542 4.89544 4 6.00001 4H8.00001C9.10458 4 10 4.89543 10 6V8C10 9.10457 9.10458 10 8.00001 10H6C4.89543 10 4 9.10456 4 7.99999L4.00001 5.99999Z" stroke="black" stroke-width="1.5"/>
<path d="M14 5.99999C14 4.89542 14.8954 3.99999 16 3.99999L18 3.99998C19.1046 3.99998 20 4.89541 20 5.99998L20 7.99999C20 9.10456 19.1046 10 18 10H16C14.8954 10 14 9.10457 14 8V5.99999Z" stroke="black" stroke-width="1.5"/>
<path d="M4.00003 16C4.00003 14.8954 4.89546 14 6.00003 14H8.00001C9.10458 14 10 14.8954 10 16V18C10 19.1046 9.10458 20 8.00001 20H6.00003C4.89546 20 4.00003 19.1046 4.00003 18V16Z" stroke="black" stroke-width="1.5"/>
<path d="M14 16C14 14.8954 14.8954 14 16 14H18C19.1046 14 20 14.8954 20 16L20 18C20 19.1046 19.1046 20 18 20H16C14.8954 20 14 19.1046 14 18V16Z" stroke="black" stroke-width="1.5"/>
</svg>
