<svg width="24" height="24" viewBox="0 0 24 24" fill="none" xmlns="http://www.w3.org/2000/svg">
<path d="M12 14C14.7614 14 17 11.7614 17 9C17 6.23858 14.7614 4 12 4C9.23858 4 7 6.23858 7 9C7 11.7614 9.23858 14 12 14ZM12 14V19M12 7C13.1046 7 14 7.89543 14 9M12 19V20M12 19C12 17.3431 13.3431 16 15 16H16C17.1046 16 18 16.8954 18 18C18 19.1046 17.1046 20 16 20H12M12 19C12 17.3431 10.6569 16 9 16H8C6.89543 16 6 16.8954 6 18C6 19.1046 6.89543 20 8 20H12" stroke="black" stroke-width="1.5" stroke-linecap="round" stroke-linejoin="round"/>
</svg>
