<svg width="24" height="24" viewBox="0 0 24 24" fill="none" xmlns="http://www.w3.org/2000/svg">
<path d="M20 14V15C20 16.1046 19.1046 17 18 17H12.5C10.8431 17 9.5 15.6569 9.5 14V8H14C17.3137 8 20 10.6863 20 14ZM20 14H16C14.3431 14 13 12.6569 13 11V4M11 8H5C4.44772 8 4 7.55228 4 7V6M12 20V17M17 20V17M20 19L19.8787 19.1213C19.3161 19.6839 18.553 20 17.7574 20H11.2426C10.447 20 9.68393 19.6839 9.12132 19.1213L9 19M8 5H18" stroke="black" stroke-width="1.5" stroke-linecap="round" stroke-linejoin="round"/>
</svg>
