<svg width="24" height="24" viewBox="0 0 24 24" fill="none" xmlns="http://www.w3.org/2000/svg">
<path d="M8.99951 14.5C8.99951 14.7761 8.77565 15 8.49951 15C8.22337 15 7.99951 14.7761 7.99951 14.5C7.99951 14.2239 8.22337 14 8.49951 14C8.77565 14 8.99951 14.2239 8.99951 14.5Z" fill="black"/>
<path d="M11.9995 16V14C11.9995 12.8954 12.8949 12 13.9995 12H19.9274C19.9276 11.9761 19.9277 11.9522 19.9277 11.9282C19.9277 7.50991 16.346 3.92819 11.9277 3.92819C7.50946 3.92819 3.92773 7.50991 3.92773 11.9282C3.92773 13.8241 4.58723 15.5659 5.68933 16.9369C6.28838 17.682 7.24423 18 8.20033 18H9.99951C11.1041 18 11.9995 17.1046 11.9995 16ZM11.9995 16H14.9995M14.9995 16V18C14.9995 19.1046 15.8949 20 16.9995 20H17.9995C19.1041 20 19.9995 19.1046 19.9995 18V17C19.9995 16.4477 19.5518 16 18.9995 16H14.9995ZM8.99951 14.5C8.99951 14.7761 8.77565 15 8.49951 15C8.22337 15 7.99951 14.7761 7.99951 14.5C7.99951 14.2239 8.22337 14 8.49951 14C8.77565 14 8.99951 14.2239 8.99951 14.5Z" stroke="black" stroke-width="1.5" stroke-linejoin="round"/>
</svg>
