<svg width="24" height="24" viewBox="0 0 24 24" fill="none" xmlns="http://www.w3.org/2000/svg">
<path d="M9 6.45729V9.54271M10.5427 8H7.45728M14 20V7C14 5.34425 12.6558 4 11 4H7C5.34425 4 4 5.34425 4 7V19C4 19.5519 4.44808 20 5 20H14ZM14 20V8L17.3072 9.14953C18.9145 9.70822 19.9925 11.2227 19.9939 12.9244L19.9991 18.9991C19.9996 19.5518 19.5518 20 18.9991 20H14ZM10.5 13H11.5M6.5 13H7.5M10.5 16.0006H11.5M6.5 16.0006H7.5" stroke="black" stroke-width="1.5" stroke-linecap="round" stroke-linejoin="round"/>
</svg>
