<svg width="24" height="24" viewBox="0 0 24 24" fill="none" xmlns="http://www.w3.org/2000/svg">
<path d="M12.0004 4C10.5945 4 9.21154 4.57354 8.08512 5.487C5.13079 7.88282 6.58506 12.2045 8.62716 15.4135L9.00039 16M12.0004 4C13.4063 4 14.7892 4.57354 15.9157 5.48701C18.87 7.88282 17.4157 12.2045 15.3736 15.4135L15.0004 16M12.0004 4C10.3435 4 9.00039 5.34315 9.00039 7C9.00039 10 10.1037 13.7037 11.0004 16M12.0004 4C13.6572 4 15.0004 5.34315 15.0004 7C15.0004 10 13.8971 13.7037 13.0004 16M9.00039 16H15.0004M9.00039 16V19C9.00039 19.5523 9.44811 20 10.0004 20H14.0004C14.5527 20 15.0004 19.5523 15.0004 19V16M17.0004 16H7.00039" stroke="black" stroke-width="1.5" stroke-linecap="round" stroke-linejoin="round"/>
</svg>
