<svg width="24" height="24" viewBox="0 0 24 24" fill="none" xmlns="http://www.w3.org/2000/svg">
<path d="M16 20H7M7 20C5.34315 20 4 18.6569 4 17V7C4 5.34315 5.34315 4 7 4H13C14.6569 4 16 5.34315 16 7V10M7 20H13V17C13 15.8954 12.1046 15 11 15H9C7.89543 15 7 15.8954 7 17V20ZM20 20H15M8.5 11V7M11.5 11V7M8.5 9H11.5M18 16C19.1046 16 20 15.1046 20 14C20 12.8954 19.1046 12 18 12C16.8954 12 16 12.8954 16 14C16 15.1046 16.8954 16 18 16ZM18 16L18 20" stroke="black" stroke-width="1.5" stroke-linecap="round"/>
</svg>
