<svg width="24" height="24" viewBox="0 0 24 24" fill="none" xmlns="http://www.w3.org/2000/svg">
<path d="M12.0004 10C12.0004 8.34315 13.3435 7 15.0004 7M12.0004 10C12.0004 10.3506 12.0605 10.6872 12.1711 11M12.0004 10C12.0004 8.34315 10.6572 7 9.00035 7M12.0004 10C12.0004 10.3506 11.9402 10.6872 11.8296 11M15.0004 7C16.6572 7 18.0004 8.34315 18.0004 10C18.0004 10.4516 17.9006 10.88 17.7218 11.2641M15.0004 7C15.0004 5.34315 13.6572 4 12.0004 4C10.3435 4 9.00035 5.34315 9.00035 7M9.00035 7C7.3435 7 6.00035 8.34315 6.00035 10C6.00035 10.4516 6.10015 10.88 6.2789 11.2641M6.86887 11H17.1318C17.9305 11 18.4069 11.8901 17.9639 12.5547L13.6645 19.0038C12.8728 20.1913 11.1279 20.1913 10.3363 19.0038L6.03682 12.5547C5.59378 11.8901 6.07017 11 6.86887 11Z" stroke="black" stroke-width="1.5" stroke-linejoin="round"/>
</svg>
