<svg width="24" height="24" viewBox="0 0 24 24" fill="none" xmlns="http://www.w3.org/2000/svg">
<path d="M17.671 4.33541C17.8563 3.96493 17.7061 3.51442 17.3356 3.32918C16.9651 3.14394 16.5146 3.29411 16.3294 3.66459L17.671 4.33541ZM13.7268 10.5468L14.3976 10.8822L13.7268 10.5468ZM11.429 11.5865L11.6198 10.8612H11.6198L11.429 11.5865ZM6.52173 10.2951L6.33086 11.0204L6.52173 10.2951ZM4.04317 12.5769L4.78176 12.4465L4.04317 12.5769ZM4.56279 15.5214L3.8242 15.6517H3.8242L4.56279 15.5214ZM20.7065 4.25225C20.8458 3.86217 20.6425 3.43301 20.2525 3.29369C19.8624 3.15438 19.4332 3.35767 19.2939 3.74775L20.7065 4.25225ZM11.0002 18.75C11.4144 18.75 11.7502 18.4142 11.7502 18C11.7502 17.5858 11.4144 17.25 11.0002 17.25V18.75ZM16.1689 12.4977C16.0296 12.8878 16.2329 13.317 16.6229 13.4563C17.013 13.5956 17.4422 13.3923 17.5815 13.0023L16.1689 12.4977ZM7.31084 17.7046C7.14767 18.0853 7.32404 18.5262 7.70476 18.6894C8.08548 18.8525 8.52639 18.6762 8.68956 18.2954L7.31084 17.7046ZM16.3294 3.66459L13.056 10.2114L14.3976 10.8822L17.671 4.33541L16.3294 3.66459ZM11.6198 10.8612L6.7126 9.56983L6.33086 11.0204L11.2381 12.3118L11.6198 10.8612ZM3.30459 12.7072L3.8242 15.6517L5.30138 15.391L4.78176 12.4465L3.30459 12.7072ZM7.51714 18.75H11.0002V17.25H7.51714V18.75ZM3.8242 15.6517C4.14043 17.4437 5.69749 18.75 7.51714 18.75V17.25C6.42535 17.25 5.49112 16.4662 5.30138 15.391L3.8242 15.6517ZM6.7126 9.56983C4.77222 9.05921 2.9559 10.7313 3.30459 12.7072L4.78176 12.4465C4.62327 11.5484 5.44887 10.7883 6.33086 11.0204L6.7126 9.56983ZM13.056 10.2114C12.7914 10.7406 12.192 11.0118 11.6198 10.8612L11.2381 12.3118C12.4969 12.6431 13.8155 12.0464 14.3976 10.8822L13.056 10.2114ZM15.5002 16.75H18.5002V15.25H15.5002V16.75ZM19.2502 17.5V18.5H20.7502V17.5H19.2502ZM18.5002 19.25H15.5002V20.75H18.5002V19.25ZM14.7502 18.5V17.5H13.2502V18.5H14.7502ZM15.5002 19.25C15.086 19.25 14.7502 18.9142 14.7502 18.5H13.2502C13.2502 19.7426 14.2576 20.75 15.5002 20.75V19.25ZM19.2502 18.5C19.2502 18.9142 18.9144 19.25 18.5002 19.25V20.75C19.7428 20.75 20.7502 19.7426 20.7502 18.5H19.2502ZM18.5002 16.75C18.9144 16.75 19.2502 17.0858 19.2502 17.5H20.7502C20.7502 16.2574 19.7428 15.25 18.5002 15.25V16.75ZM15.5002 15.25C14.2576 15.25 13.2502 16.2574 13.2502 17.5H14.7502C14.7502 17.0858 15.086 16.75 15.5002 16.75V15.25ZM8.68956 18.2954L11.6896 11.2954L10.3108 10.7046L7.31084 17.7046L8.68956 18.2954ZM17.5815 13.0023L20.7065 4.25225L19.2939 3.74775L16.1689 12.4977L17.5815 13.0023Z" fill="black"/>
</svg>
