<svg width="24" height="24" viewBox="0 0 24 24" fill="none" xmlns="http://www.w3.org/2000/svg">
<path d="M4.04837 13H7.67157C8.20201 13 8.71071 13.2107 9.08579 13.5858L9.91421 14.4142C10.2893 14.7893 10.798 15 11.3284 15H12.6716C13.202 15 13.7107 14.7893 14.0858 14.4142L14.9142 13.5858C15.2893 13.2107 15.798 13 16.3284 13H19.9516M4.00001 12.3693L4 17C4 18.6569 5.34315 20 7 20H17C18.6569 20 20 18.6569 20 17V12.3693C20 12.124 19.9699 11.8797 19.9104 11.6417L18.5681 6.27239C18.2342 4.93689 17.0343 4 15.6577 4H8.34234C6.96574 4 5.76579 4.93689 5.43191 6.27239L4.08958 11.6417C4.03009 11.8797 4.00001 12.124 4.00001 12.3693Z" stroke="black" stroke-width="1.5"/>
</svg>
