<svg width="24" height="24" viewBox="0 0 24 24" fill="none" xmlns="http://www.w3.org/2000/svg">
<path d="M16.4062 7.60156H16.4142M4 17C4 18.6569 5.34314 20 7 20H17C18.6569 20 20 18.6569 20 17V7C20 5.34315 18.6569 4 17 4H7.00001C5.34315 4 4.00001 5.34315 4.00001 7L4 17ZM15.2091 11.4962C15.3079 12.162 15.1941 12.842 14.8841 13.4395C14.5741 14.0369 14.0837 14.5214 13.4824 14.824C12.8812 15.1266 12.1999 15.2319 11.5354 15.125C10.8708 15.0181 10.2569 14.7043 9.78101 14.2284C9.30507 13.7524 8.99132 13.1385 8.88439 12.474C8.77746 11.8095 8.88279 11.1282 9.1854 10.5269C9.48801 9.92572 9.97249 9.43523 10.5699 9.12523C11.1674 8.81524 11.8473 8.70151 12.5131 8.80024C13.1923 8.90095 13.821 9.21741 14.3065 9.70289C14.792 10.1884 15.1084 10.8171 15.2091 11.4962Z" stroke="black" stroke-width="1.5" stroke-linecap="round" stroke-linejoin="round"/>
</svg>
