<svg width="24" height="24" viewBox="0 0 24 24" fill="none" xmlns="http://www.w3.org/2000/svg">
<path d="M12 20L11.794 20.7211C11.9286 20.7596 12.0714 20.7596 12.206 20.7211L12 20ZM10.8022 19.6578L10.5962 20.3789L10.8022 19.6578ZM13.1978 19.6578L13.4038 20.3789L13.1978 19.6578ZM17.8316 5.2713L18.1707 4.60235L17.8316 5.2713ZM6.16838 5.2713L6.50751 5.94024L6.16838 5.2713ZM13.5 10.25C13.9142 10.25 14.25 9.91421 14.25 9.5C14.25 9.08579 13.9142 8.75 13.5 8.75V10.25ZM10.5 13.75C10.0858 13.75 9.75 14.0858 9.75 14.5C9.75 14.9142 10.0858 15.25 10.5 15.25V13.75ZM12.75 8.5C12.75 8.08579 12.4142 7.75 12 7.75C11.5858 7.75 11.25 8.08579 11.25 8.5H12.75ZM11.25 9C11.25 9.41421 11.5858 9.75 12 9.75C12.4142 9.75 12.75 9.41421 12.75 9H11.25ZM12.75 15C12.75 14.5858 12.4142 14.25 12 14.25C11.5858 14.25 11.25 14.5858 11.25 15H12.75ZM11.25 15.5C11.25 15.9142 11.5858 16.25 12 16.25C12.4142 16.25 12.75 15.9142 12.75 15.5H11.25ZM18.25 7.3798V11.9656H19.75V7.3798H18.25ZM5.75 11.9656V7.3798H4.25V11.9656H5.75ZM12.9917 18.9366L11.794 19.2789L12.206 20.7211L13.4038 20.3789L12.9917 18.9366ZM12.206 19.2789L11.0083 18.9366L10.5962 20.3789L11.794 20.7211L12.206 19.2789ZM6.50751 5.94024C7.54292 5.41534 9.37137 4.75 12 4.75V3.25C9.10842 3.25 7.04912 3.98393 5.82925 4.60235L6.50751 5.94024ZM12 4.75C14.6286 4.75 16.4571 5.41534 17.4925 5.94024L18.1707 4.60235C16.9509 3.98393 14.8916 3.25 12 3.25V4.75ZM4.25 11.9656C4.25 15.8723 6.8398 19.3057 10.5962 20.3789L11.0083 18.9366C7.89584 18.0474 5.75 15.2026 5.75 11.9656H4.25ZM18.25 11.9656C18.25 15.2026 16.1042 18.0474 12.9917 18.9366L13.4038 20.3789C17.1602 19.3057 19.75 15.8723 19.75 11.9656H18.25ZM19.75 7.3798C19.75 6.30153 19.2682 5.1587 18.1707 4.60235L17.4925 5.94024C17.9573 6.17589 18.25 6.70653 18.25 7.3798H19.75ZM5.75 7.3798C5.75 6.70653 6.04268 6.17589 6.50751 5.94024L5.82925 4.60235C4.73182 5.1587 4.25 6.30153 4.25 7.3798H5.75ZM11.25 10.25H13.5V8.75H11.25V10.25ZM12.75 11.25H11.25V12.75H12.75V11.25ZM12.75 13.75H10.5V15.25H12.75V13.75ZM13.25 13.25C13.25 13.5261 13.0261 13.75 12.75 13.75V15.25C13.8546 15.25 14.75 14.3546 14.75 13.25H13.25ZM11.25 11.25C10.9739 11.25 10.75 11.0261 10.75 10.75H9.25C9.25 11.8546 10.1454 12.75 11.25 12.75V11.25ZM12.75 12.75C13.0261 12.75 13.25 12.9739 13.25 13.25H14.75C14.75 12.1454 13.8546 11.25 12.75 11.25V12.75ZM11.25 8.75C10.1454 8.75 9.25 9.64543 9.25 10.75H10.75C10.75 10.4739 10.9739 10.25 11.25 10.25V8.75ZM11.25 8.5V9H12.75V8.5H11.25ZM11.25 15V15.5H12.75V15H11.25Z" fill="black"/>
</svg>
