<svg width="24" height="24" viewBox="0 0 24 24" fill="none" xmlns="http://www.w3.org/2000/svg">
<path d="M9 9H13M9 12H15M13.355 19.374C12.6498 20.2202 11.3502 20.2202 10.645 19.374C10.0152 18.6183 8.88896 18.5237 8.14206 19.1639L7.45888 19.7495C6.88562 20.2409 6 19.8336 6 19.0785L6 7C6 5.34315 7.34315 4 9 4L15 4C16.6569 4 18 5.34315 18 7L18 19.0785C18 19.8336 17.1144 20.2409 16.5411 19.7495L15.8579 19.1639C15.111 18.5237 13.9848 18.6183 13.355 19.374Z" stroke="black" stroke-width="1.5" stroke-linecap="round"/>
</svg>
