<svg width="24" height="24" viewBox="0 0 24 24" fill="none" xmlns="http://www.w3.org/2000/svg">
<path d="M6.75 9.75L5.60962 6.90075C5.14903 5.74997 5.8301 4.43474 7.04742 4.20116C10.1825 3.5996 13.3175 3.59959 16.4524 4.20128C17.6694 4.43485 18.3505 5.74948 17.8905 6.90011L16.7512 9.75M14.25 14.25C14.25 15.6307 13.1307 16.75 11.75 16.75C10.3693 16.75 9.25 15.6307 9.25 14.25C9.25 12.8693 10.3693 11.75 11.75 11.75C13.1307 11.75 14.25 12.8693 14.25 14.25ZM8.28791 19.75H15.2099C16.2277 19.75 17.2028 19.251 17.7325 18.3819C18.5925 16.9711 18.9675 15.233 18.6227 13.3959C18.1062 10.6449 15.9002 8.41936 13.1524 7.88626C8.67148 7.01695 4.75 10.4255 4.75 14.75C4.75 16.0877 5.12621 17.3366 5.77777 18.3988C6.30606 19.26 7.27756 19.75 8.28791 19.75Z" stroke="black" stroke-width="1.5" stroke-linejoin="round"/>
</svg>
