<svg width="24" height="24" viewBox="0 0 24 24" fill="none" xmlns="http://www.w3.org/2000/svg">
<path d="M9.5 17H12.1459C12.6693 17 13.1479 16.7043 13.382 16.2361C13.7233 15.5534 13.4466 14.7233 12.7639 14.382L11.2361 13.618C9.82843 12.9142 8.17157 12.9142 6.76393 13.618L5.7082 14.1459C4.6613 14.6693 4 15.7394 4 16.9098C4 18.6165 5.38352 20 7.09017 20H11.3438C13.3196 20 15.1687 19.0273 16.2881 17.3992L19.2281 13.1227C19.6755 12.4721 19.5949 11.5949 19.0366 11.0366C18.4465 10.4465 17.507 10.3944 16.8553 10.9158L13 14M15 7C15 8.65685 13.6569 10 12 10C10.3431 10 9 8.65685 9 7C9 5.34315 10.3431 4 12 4C13.6569 4 15 5.34315 15 7Z" stroke="black" stroke-width="1.5" stroke-linecap="round" stroke-linejoin="round"/>
</svg>
