<svg width="24" height="24" viewBox="0 0 24 24" fill="none" xmlns="http://www.w3.org/2000/svg">
<path d="M12 10V4M12 6.99939V7.61423M12 7.61423C12 10.8667 13.9802 13.7915 17 14.9994M12 7.61423C12 10.8667 10.0198 13.7915 7 14.9994M17.6712 19.9723C15.5527 19.6192 14 17.7863 14 15.6386V12C14 10.8954 14.8954 10 16 10C18.2091 10 20 11.7909 20 14V17.9995C20 19.2354 18.8903 20.1755 17.6712 19.9723ZM6.32879 19.9723C8.44727 19.6192 9.99999 17.7863 9.99999 15.6386V12C9.99999 10.8954 9.10456 10 8 10C5.79086 10 4 11.7909 4 14V17.9995C4 19.2354 5.10972 20.1755 6.32879 19.9723Z" stroke="black" stroke-width="1.5" stroke-linecap="round" stroke-linejoin="round"/>
</svg>
