<svg width="24" height="24" viewBox="0 0 24 24" fill="none" xmlns="http://www.w3.org/2000/svg">
<path d="M17 15.5C17 15.7761 16.7761 16 16.5 16C16.2239 16 16 15.7761 16 15.5C16 15.2239 16.2239 15 16.5 15C16.7761 15 17 15.2239 17 15.5Z" fill="black"/>
<path d="M16.5 20L16.1279 20.6512C16.3585 20.7829 16.6415 20.7829 16.8721 20.6512L16.5 20ZM12 20.75C12.4142 20.75 12.75 20.4142 12.75 20C12.75 19.5858 12.4142 19.25 12 19.25V20.75ZM19.25 10C19.25 10.4142 19.5858 10.75 20 10.75C20.4142 10.75 20.75 10.4142 20.75 10H19.25ZM18.0303 5.03033C18.3232 4.73744 18.3232 4.26256 18.0303 3.96967C17.7374 3.67678 17.2626 3.67678 16.9697 3.96967L18.0303 5.03033ZM7.46967 8.53033C7.76257 8.82322 8.23744 8.82322 8.53033 8.53033C8.82323 8.23744 8.82323 7.76256 8.53033 7.46967L7.46967 8.53033ZM19.25 15.5C19.25 16.4169 18.5867 17.3514 17.7397 18.1379C17.3356 18.5131 16.9284 18.8188 16.6207 19.0313C16.4676 19.137 16.341 19.2184 16.2541 19.2725C16.2107 19.2995 16.1773 19.3196 16.1557 19.3325C16.1449 19.3389 16.137 19.3435 16.1323 19.3462C16.13 19.3476 16.1284 19.3485 16.1277 19.349C16.1273 19.3492 16.1271 19.3493 16.1272 19.3492C16.1272 19.3492 16.1272 19.3492 16.1274 19.3491C16.1274 19.3491 16.1276 19.349 16.1276 19.349C16.1277 19.3489 16.1279 19.3488 16.5 20C16.8721 20.6512 16.8723 20.6511 16.8725 20.651C16.8726 20.6509 16.8728 20.6508 16.873 20.6507C16.8733 20.6505 16.8737 20.6503 16.8741 20.65C16.875 20.6495 16.8761 20.6489 16.8774 20.6481C16.88 20.6466 16.8835 20.6446 16.8878 20.6421C16.8963 20.6372 16.9081 20.6302 16.9229 20.6214C16.9526 20.6037 16.9944 20.5785 17.0467 20.5459C17.1512 20.4809 17.298 20.3864 17.473 20.2656C17.8216 20.0249 18.2894 19.6744 18.7603 19.2371C19.6633 18.3986 20.75 17.0831 20.75 15.5H19.25ZM16.5 20C16.8721 19.3488 16.8723 19.3489 16.8724 19.349C16.8724 19.349 16.8726 19.3491 16.8726 19.3491C16.8728 19.3492 16.8728 19.3492 16.8728 19.3492C16.8729 19.3493 16.8727 19.3492 16.8723 19.349C16.8716 19.3485 16.87 19.3476 16.8677 19.3462C16.863 19.3435 16.8551 19.3389 16.8443 19.3325C16.8227 19.3196 16.7893 19.2995 16.7459 19.2725C16.6591 19.2184 16.5324 19.137 16.3793 19.0313C16.0716 18.8188 15.6644 18.5131 15.2603 18.1379C14.4133 17.3514 13.75 16.4169 13.75 15.5H12.25C12.25 17.0831 13.3367 18.3986 14.2397 19.2371C14.7106 19.6744 15.1784 20.0249 15.527 20.2656C15.702 20.3864 15.8488 20.4809 15.9533 20.5459C16.0056 20.5785 16.0474 20.6037 16.0771 20.6214C16.0919 20.6302 16.1037 20.6372 16.1122 20.6421C16.1165 20.6446 16.12 20.6466 16.1226 20.6481C16.1239 20.6489 16.125 20.6495 16.1259 20.65C16.1263 20.6503 16.1267 20.6505 16.1271 20.6507C16.1272 20.6508 16.1274 20.6509 16.1275 20.651C16.1277 20.6511 16.1279 20.6512 16.5 20ZM13.75 15.5C13.75 13.9812 14.9812 12.75 16.5 12.75V11.25C14.1528 11.25 12.25 13.1528 12.25 15.5H13.75ZM16.5 12.75C18.0188 12.75 19.25 13.9812 19.25 15.5H20.75C20.75 13.1528 18.8472 11.25 16.5 11.25V12.75ZM7 4.75H17V3.25H7V4.75ZM4.75 17V7H3.25V17H4.75ZM12 19.25H7V20.75H12V19.25ZM19.25 7V10H20.75V7H19.25ZM3.25 17C3.25 19.0711 4.92893 20.75 7 20.75V19.25C5.75736 19.25 4.75 18.2426 4.75 17H3.25ZM17 4.75C18.2426 4.75 19.25 5.75736 19.25 7H20.75C20.75 4.92893 19.0711 3.25 17 3.25V4.75ZM7 3.25C4.92893 3.25 3.25 4.92893 3.25 7H4.75C4.75 5.75736 5.75736 4.75 7 4.75V3.25ZM16.9697 3.96967L3.46967 17.4697L4.53033 18.5303L18.0303 5.03033L16.9697 3.96967ZM8.53033 7.46967L5.53033 4.46967L4.46967 5.53033L7.46967 8.53033L8.53033 7.46967ZM16.25 15.5C16.25 15.3619 16.3619 15.25 16.5 15.25V16.75C17.1904 16.75 17.75 16.1904 17.75 15.5H16.25ZM16.5 15.25C16.6381 15.25 16.75 15.3619 16.75 15.5H15.25C15.25 16.1904 15.8096 16.75 16.5 16.75V15.25ZM16.75 15.5C16.75 15.6381 16.6381 15.75 16.5 15.75V14.25C15.8096 14.25 15.25 14.8096 15.25 15.5H16.75ZM16.5 15.75C16.3619 15.75 16.25 15.6381 16.25 15.5H17.75C17.75 14.8096 17.1904 14.25 16.5 14.25V15.75ZM12.4697 3.46967L3.46967 12.4697L4.53033 13.5303L13.5303 4.53033L12.4697 3.46967Z" fill="black"/>
</svg>
