<svg width="24" height="24" viewBox="0 0 24 24" fill="none" xmlns="http://www.w3.org/2000/svg">
<path d="M7.41421 4.91426L7.94454 4.38393V4.38393L7.41421 4.91426ZM19.0858 16.5858L18.5555 17.1162L19.0858 16.5858ZM7.70703 4.25004C7.29282 4.25004 6.95703 4.58583 6.95703 5.00004C6.95703 5.41426 7.29282 5.75004 7.70703 5.75004V4.25004ZM13.25 11.4001C13.25 11.8143 13.5858 12.1501 14 12.1501C14.4142 12.1501 14.75 11.8143 14.75 11.4001H13.25ZM14 16.75C14.4142 16.75 14.75 16.4143 14.75 16C14.75 15.5858 14.4142 15.25 14 15.25V16.75ZM7 15.25C6.58579 15.25 6.25 15.5858 6.25 16C6.25 16.4143 6.58579 16.75 7 16.75V15.25ZM11 13.75C11.4142 13.75 11.75 13.4143 11.75 13C11.75 12.5858 11.4142 12.25 11 12.25V13.75ZM7 12.25C6.58579 12.25 6.25 12.5858 6.25 13C6.25 13.4143 6.58579 13.75 7 13.75L7 12.25ZM8 10.75C8.41421 10.75 8.75 10.4143 8.75 10C8.75 9.58583 8.41421 9.25004 8 9.25004L8 10.75ZM7 9.25004C6.58579 9.25004 6.25 9.58583 6.25 10C6.25 10.4143 6.58579 10.75 7 10.75L7 9.25004ZM17.6716 19.25H7V20.75H17.6716V19.25ZM4.75 17V6.32847H3.25V17H4.75ZM6.88388 5.44459L18.5555 17.1162L19.6161 16.0555L7.94454 4.38393L6.88388 5.44459ZM7 19.25C5.75736 19.25 4.75 18.2427 4.75 17H3.25C3.25 19.0711 4.92893 20.75 7 20.75V19.25ZM17.6716 20.75C20.1216 20.75 21.3485 17.7879 19.6161 16.0555L18.5555 17.1162C19.3429 17.9036 18.7852 19.25 17.6716 19.25V20.75ZM4.75 6.32847C4.75 5.21484 6.09643 4.65713 6.88388 5.44459L7.94454 4.38393C6.21214 2.65153 3.25 3.87848 3.25 6.32847H4.75ZM7.70703 5.75004H12V4.25004H7.70703V5.75004ZM13.25 7.00005V11.4001H14.75V7.00005H13.25ZM12 5.75004C12.6904 5.75004 13.25 6.30969 13.25 7.00005H14.75C14.75 5.48126 13.5188 4.25004 12 4.25004V5.75004ZM16 9.75004C17.7949 9.75004 19.25 11.2051 19.25 13H20.75C20.75 10.3767 18.6234 8.25004 16 8.25004V9.75004ZM19.25 13C19.25 13.9706 18.8255 14.8411 18.1495 15.4377L19.1421 16.5623C20.127 15.6931 20.75 14.4188 20.75 13H19.25ZM14.3755 10.1844C14.8528 9.90829 15.4068 9.75004 16 9.75004V8.25004C15.1361 8.25004 14.3239 8.48137 13.6245 8.88597L14.3755 10.1844ZM14 15.25L7 15.25V16.75L14 16.75V15.25ZM11 12.25L7 12.25L7 13.75L11 13.75V12.25ZM8 9.25004L7 9.25004L7 10.75L8 10.75L8 9.25004Z" fill="black"/>
</svg>
