<svg width="24" height="24" viewBox="0 0 24 24" fill="none" xmlns="http://www.w3.org/2000/svg">
<path d="M15 6.9994V7.19586C15 8.32226 15.5629 9.37416 16.5 9.99911C17.4371 10.624 18 11.6759 18 12.8023V18C18 19.1046 17.1046 20 16 20H8C6.89543 20 6 19.1046 6 18V12.8023C6 11.6759 6.56287 10.6241 7.5 9.99911C8.43714 9.37416 9 8.32226 9 7.19586V6.9994M15 6.9994H9M15 6.9994C15.5523 6.9994 16 6.55228 16 6V5C16 4.44772 15.5523 4 15 4H9C8.44772 4 8 4.44772 8 5V6C8 6.55228 8.44772 6.9994 9 6.9994M12 12V16M14 14H10" stroke="black" stroke-width="1.5" stroke-linecap="round" stroke-linejoin="round"/>
</svg>
