<svg width="24" height="24" viewBox="0 0 24 24" fill="none" xmlns="http://www.w3.org/2000/svg">
<path d="M16.1471 4.73544C16.5533 4.6542 16.8167 4.25908 16.7354 3.85291C16.6542 3.44674 16.2591 3.18333 15.8529 3.26456L16.1471 4.73544ZM9.21554 5.35689L9.06845 4.62146L9.21554 5.35689ZM9 15H8.25C8.25 15.4142 8.58579 15.75 9 15.75V15ZM15 15V15.75C15.4142 15.75 15.75 15.4142 15.75 15H15ZM12.75 11C12.75 10.5858 12.4142 10.25 12 10.25C11.5858 10.25 11.25 10.5858 11.25 11H12.75ZM9 7.75H15V6.25H9V7.75ZM17.25 10V17H18.75V10H17.25ZM15 19.25H9V20.75H15V19.25ZM6.75 17V10H5.25V17H6.75ZM9 19.25C7.75736 19.25 6.75 18.2426 6.75 17H5.25C5.25 19.0711 6.92893 20.75 9 20.75V19.25ZM17.25 17C17.25 18.2426 16.2426 19.25 15 19.25V20.75C17.0711 20.75 18.75 19.0711 18.75 17H17.25ZM15 7.75C16.2426 7.75 17.25 8.75736 17.25 10H18.75C18.75 7.92893 17.0711 6.25 15 6.25V7.75ZM9 6.25C6.92893 6.25 5.25 7.92893 5.25 10H6.75C6.75 8.75736 7.75736 7.75 9 7.75V6.25ZM15.8529 3.26456L9.06845 4.62146L9.36262 6.09233L16.1471 4.73544L15.8529 3.26456ZM5.25 9.27922V10H6.75V9.27922H5.25ZM9.06845 4.62146C6.84819 5.06551 5.25 7.01498 5.25 9.27922H6.75C6.75 7.73 7.8435 6.39615 9.36262 6.09233L9.06845 4.62146ZM9.75 15C9.75 13.7574 10.7574 12.75 12 12.75V11.25C9.92893 11.25 8.25 12.9289 8.25 15H9.75ZM12 12.75C13.2426 12.75 14.25 13.7574 14.25 15H15.75C15.75 12.9289 14.0711 11.25 12 11.25V12.75ZM15 14.25H9V15.75H15V14.25ZM11.25 11V12H12.75V11H11.25Z" fill="black"/>
</svg>
