<svg width="24" height="24" viewBox="0 0 24 24" fill="none" xmlns="http://www.w3.org/2000/svg">
<path d="M14.7931 10.2676C15.0859 9.97474 15.0859 9.49987 14.7931 9.20697C14.5002 8.91408 14.0253 8.91408 13.7324 9.20697L14.7931 10.2676ZM9.20691 13.7325C8.91402 14.0254 8.91402 14.5002 9.20691 14.7931C9.49981 15.086 9.97468 15.086 10.2676 14.7931L9.20691 13.7325ZM13.7324 14.7931C14.0253 15.086 14.5002 15.086 14.7931 14.7931C15.0859 14.5002 15.0859 14.0254 14.7931 13.7325L13.7324 14.7931ZM10.2676 9.20697C9.97468 8.91408 9.49981 8.91408 9.20691 9.20697C8.91402 9.49987 8.91402 9.97474 9.20691 10.2676L10.2676 9.20697ZM20 12H19.25L19.25 12.002L20 12ZM19.1529 15.5765L18.4835 15.2383L18.482 15.2412L19.1529 15.5765ZM12 20L11.9997 19.25L11.998 19.25L12 20ZM4.00003 12L4.75003 12.002L4.75003 12.0003L4.00003 12ZM8.42354 4.84708L8.75884 5.51797L8.76168 5.51653L8.42354 4.84708ZM12 4.00003L11.998 4.75003H12V4.00003ZM12.4706 4.00003L12.5119 3.25117C12.4981 3.25041 12.4844 3.25003 12.4706 3.25003V4.00003ZM20 11.5294H20.75C20.75 11.5156 20.7496 11.5019 20.7488 11.4881L20 11.5294ZM4.73722 16.225L3.99775 16.0998C3.99518 16.1149 3.99308 16.1302 3.99145 16.1454L4.73722 16.225ZM4.57531 14.9776L5.27061 14.6964L4.57531 14.9776ZM9.0224 19.4247L8.74121 20.12L9.0224 19.4247ZM7.77496 19.2628L7.8544 20.0086C7.86973 20.0069 7.88502 20.0048 7.90023 20.0023L7.77496 19.2628ZM5.72923 19.4807L5.6498 18.7349H5.6498L5.72923 19.4807ZM4.51894 18.2701L5.2647 18.3497L4.51894 18.2701ZM13.7324 9.20697L11.4697 11.4697L12.5303 12.5304L14.7931 10.2676L13.7324 9.20697ZM11.4697 11.4697L9.20691 13.7325L10.2676 14.7931L12.5303 12.5304L11.4697 11.4697ZM14.7931 13.7325L12.5303 11.4697L11.4697 12.5304L13.7324 14.7931L14.7931 13.7325ZM12.5303 11.4697L10.2676 9.20697L9.20691 10.2676L11.4697 12.5304L12.5303 11.4697ZM19.25 12.002C19.2529 13.1261 18.9903 14.2349 18.4835 15.2383L19.8224 15.9146C20.4357 14.7003 20.7535 13.3584 20.75 11.998L19.25 12.002ZM18.482 15.2412C17.8802 16.4453 16.9551 17.4581 15.8102 18.1661L16.5991 19.4419C17.9809 18.5874 19.0975 17.365 19.8238 15.9118L18.482 15.2412ZM15.8102 18.1661C14.6653 18.8742 13.3459 19.2495 11.9997 19.25L12.0003 20.75C13.6249 20.7493 15.2173 20.2964 16.5991 19.4419L15.8102 18.1661ZM11.998 19.25C11.0728 19.2524 10.1579 19.0749 9.30359 18.7294L8.74121 20.12C9.77502 20.5381 10.8823 20.7529 12.002 20.75L11.998 19.25ZM7.69553 18.517L5.6498 18.7349L5.80866 20.2265L7.8544 20.0086L7.69553 18.517ZM5.2647 18.3497L5.48298 16.3046L3.99145 16.1454L3.77318 18.1905L5.2647 18.3497ZM5.27061 14.6964C4.92511 13.8421 4.74761 12.9272 4.75002 12.002L3.25003 11.998C3.24711 13.1177 3.46192 14.225 3.88002 15.2588L5.27061 14.6964ZM4.75003 12.0003C4.75055 10.6541 5.12584 9.33473 5.83387 8.18983L4.55812 7.40088C3.7036 8.78265 3.25066 10.3751 3.25003 11.9997L4.75003 12.0003ZM5.83387 8.18983C6.5419 7.04493 7.5547 6.11977 8.75884 5.51796L8.08825 4.1762C6.63498 4.90252 5.41264 6.0191 4.55812 7.40088L5.83387 8.18983ZM8.76168 5.51653C9.76505 5.00973 10.8739 4.74709 11.998 4.75002L12.002 3.25003C10.6416 3.24648 9.29965 3.56431 8.0854 4.17763L8.76168 5.51653ZM12 4.75003H12.4706V3.25003H12V4.75003ZM12.4293 4.74889C14.2067 4.84694 15.8854 5.59715 17.1441 6.85586L18.2048 5.7952C16.685 4.27539 14.658 3.36956 12.5119 3.25117L12.4293 4.74889ZM17.1441 6.85586C18.4028 8.11458 19.1531 9.79334 19.2511 11.5707L20.7488 11.4881C20.6304 9.34202 19.7246 7.31502 18.2048 5.7952L17.1441 6.85586ZM19.25 11.5294V12H20.75V11.5294H19.25ZM5.47668 16.3503C5.57632 15.7621 5.47019 15.1899 5.27061 14.6964L3.88002 15.2588C4.00084 15.5575 4.04084 15.8454 3.99775 16.0998L5.47668 16.3503ZM9.30359 18.7294C8.8101 18.5298 8.23789 18.4237 7.6497 18.5233L7.90023 20.0023C8.15461 19.9592 8.44246 19.9992 8.74121 20.12L9.30359 18.7294ZM5.6498 18.7349C5.42803 18.7585 5.24104 18.5715 5.2647 18.3497L3.77318 18.1905C3.64807 19.3627 4.63648 20.3513 5.80866 20.2265L5.6498 18.7349Z" fill="black"/>
</svg>
