<svg width="24" height="24" viewBox="0 0 24 24" fill="none" xmlns="http://www.w3.org/2000/svg">
<path d="M9.5 9.60358C9.68808 9.06891 10.0593 8.61807 10.548 8.33089C11.0366 8.04371 11.6111 7.93873 12.1697 8.03455C12.7284 8.13037 13.2351 8.4208 13.6001 8.8544C13.9651 9.28801 14.1648 9.8368 14.164 10.4036C14.164 12.0036 13.0051 11.8012 12.128 12.8036C11.9394 13.0191 11.828 13.4036 11.828 13.4036M11.828 16.0036H11.836M20 12C20.0032 13.2422 19.713 14.4676 19.1529 15.5765C18.4889 16.9052 17.468 18.0227 16.2046 18.804C14.9413 19.5853 13.4854 19.9994 12 20C10.9775 20.0026 9.96645 19.8065 9.0224 19.4247C8.62628 19.2645 8.19625 19.1914 7.77496 19.2628L5.72923 19.4807C5.03226 19.5549 4.44455 18.9671 4.51894 18.2701L4.73722 16.225C4.80858 15.8038 4.73551 15.3737 4.57531 14.9776C4.19352 14.0336 3.99736 13.0225 4.00003 12C4.0006 10.5146 4.41472 9.05869 5.19599 7.79536C5.97727 6.53202 7.09484 5.51114 8.42354 4.84708C9.53235 4.28702 10.7578 3.99679 12 4.00003H12.4706C14.4323 4.10825 16.2852 4.93627 17.6745 6.32553C19.0637 7.7148 19.8917 9.56768 20 11.5294V12Z" stroke="black" stroke-width="1.5" stroke-linecap="round" stroke-linejoin="round"/>
</svg>
