<svg width="24" height="24" viewBox="0 0 24 24" fill="none" xmlns="http://www.w3.org/2000/svg">
<path d="M12.0807 16.8042C12.0265 16.5405 11.9993 16.2711 12 16V15.7647C12.0541 14.7838 12.4681 13.8574 13.1628 13.1628C13.8574 12.4681 14.7838 12.0541 15.7647 12H16C16.2717 11.9993 16.5418 12.0267 16.8061 12.0811M12.0807 16.8042C12.1507 17.1448 12.2657 17.4758 12.4235 17.7882C12.7556 18.4526 13.266 19.0114 13.8977 19.402C14.5293 19.7926 15.2573 19.9997 16 20C16.5112 20.0013 17.0168 19.9032 17.4888 19.7123C17.6869 19.6322 17.9019 19.5957 18.1125 19.6314L18.7043 19.6944C19.2745 19.7552 19.7554 19.2742 19.6945 18.704L19.6314 18.1125C19.5957 17.9019 19.6322 17.6869 19.7123 17.4888C19.9032 17.0168 20.0013 16.5112 20 16C19.9997 15.2573 19.7926 14.5293 19.402 13.8977C19.0114 13.266 18.4526 12.7556 17.7882 12.4235C17.4763 12.266 17.146 12.1512 16.8061 12.0811M12.0807 16.8042C11.5663 16.9334 11.0355 16.9998 10.5 17C9.66924 17.0021 8.84774 16.8428 8.0807 16.5326C7.75885 16.4024 7.40945 16.343 7.06716 16.401L5.65904 16.551C4.96207 16.6252 4.37437 16.0374 4.44875 15.3404L4.59899 13.9328C4.65697 13.5905 4.5976 13.2411 4.46744 12.9193C4.15723 12.1523 3.99786 11.3308 4.00002 10.5C4.00049 9.29311 4.33696 8.11019 4.97175 7.08373C5.60653 6.05726 6.51456 5.2278 7.59413 4.68825C8.49504 4.2332 9.49069 3.99739 10.5 4.00002H10.8824C12.4763 4.08796 13.9817 4.76072 15.1105 5.8895C16.2393 7.01827 16.912 8.52374 17 10.1176V10.5C17.0014 11.0349 16.9358 11.566 16.8061 12.0811" stroke="black" stroke-width="1.5" stroke-linecap="round" stroke-linejoin="round"/>
</svg>
