<svg width="24" height="24" viewBox="0 0 24 24" fill="none" xmlns="http://www.w3.org/2000/svg">
<path d="M17.0995 10.5L16.7813 12C16.7813 12 16.4639 14.4262 15.2902 15.5998C14.3355 16.5545 13.0406 17.0909 11.6904 17.0909M11.6904 17.0909C10.3402 17.0909 9.04534 16.5545 8.0906 15.5998C6.67261 14.1818 6.49951 10.5455 6.49951 10.5455M11.6904 17.0909V20M8.78133 20H14.5995M11.7904 4C10.1995 4 9.19951 5 9.19951 6.18182C9.19951 6.18182 9.19951 9.5 9.6086 12C9.71392 12.6436 9.83847 13.1336 10.2476 13.5428C10.6568 13.9519 11.2118 14.1818 11.7904 14.1818C12.3691 14.1818 12.924 13.9519 13.3332 13.5428C13.7424 13.1336 13.9722 12 13.9722 12C14.4327 9 14.4327 6.18182 14.4327 6.18182C14.4327 5.37658 13.6995 4 11.7904 4Z" stroke="black" stroke-width="1.5" stroke-linecap="round" stroke-linejoin="round"/>
</svg>
