<svg width="24" height="24" viewBox="0 0 24 24" fill="none" xmlns="http://www.w3.org/2000/svg">
<path d="M14.4634 14.5897C14.7891 14.3338 14.8456 13.8623 14.5897 13.5366C14.3338 13.2109 13.8623 13.1544 13.5366 13.4103L14.4634 14.5897ZM8.39003 18.4078L7.92666 17.8181L8.39003 18.4078ZM5.59217 15.61L6.1819 16.0733L5.59217 15.61ZM10.5897 10.4634C10.8456 10.1377 10.7891 9.66617 10.4634 9.41026C10.1377 9.15435 9.66617 9.21093 9.41026 9.53663L10.5897 10.4634ZM3.46967 19.4697C3.17678 19.7626 3.17678 20.2374 3.46967 20.5303C3.76256 20.8232 4.23744 20.8232 4.53033 20.5303L3.46967 19.4697ZM6.03033 19.0303C6.32322 18.7374 6.32322 18.2626 6.03033 17.9697C5.73744 17.6768 5.26256 17.6768 4.96967 17.9697L6.03033 19.0303ZM9.53033 8.46967C9.23744 8.17678 8.76256 8.17678 8.46967 8.46967C8.17678 8.76256 8.17678 9.23744 8.46967 9.53033L9.53033 8.46967ZM14.4697 15.5303C14.7626 15.8232 15.2374 15.8232 15.5303 15.5303C15.8232 15.2374 15.8232 14.7626 15.5303 14.4697L14.4697 15.5303ZM19.25 9C19.25 11.3472 17.3472 13.25 15 13.25V14.75C18.1756 14.75 20.75 12.1756 20.75 9H19.25ZM10.75 9C10.75 6.65279 12.6528 4.75 15 4.75V3.25C11.8244 3.25 9.25 5.82436 9.25 9H10.75ZM15 4.75C17.3472 4.75 19.25 6.65279 19.25 9H20.75C20.75 5.82436 18.1756 3.25 15 3.25V4.75ZM15 13.25C14.5545 13.25 14.1264 13.1817 13.7247 13.0556L13.2753 14.4866C13.8207 14.6579 14.4003 14.75 15 14.75V13.25ZM10.9149 10.177C10.8077 9.80411 10.75 9.40943 10.75 9H9.25C9.25 9.55104 9.32773 10.0852 9.47328 10.5915L10.9149 10.177ZM13.5366 13.4103L7.92666 17.8181L8.85339 18.9976L14.4634 14.5897L13.5366 13.4103ZM6.1819 16.0733L10.5897 10.4634L9.41026 9.53663L5.00243 15.1466L6.1819 16.0733ZM6.28033 17.7197C5.83556 17.2749 5.7933 16.5679 6.1819 16.0733L5.00243 15.1466C4.14471 16.2382 4.23799 17.7987 5.21967 18.7803L6.28033 17.7197ZM7.92666 17.8181C7.43207 18.2067 6.7251 18.1644 6.28033 17.7197L5.21967 18.7803C6.20135 19.762 7.76175 19.8553 8.85339 18.9976L7.92666 17.8181ZM4.53033 20.5303L6.03033 19.0303L4.96967 17.9697L3.46967 19.4697L4.53033 20.5303ZM8.46967 9.53033L14.4697 15.5303L15.5303 14.4697L9.53033 8.46967L8.46967 9.53033Z" fill="black"/>
</svg>
