<svg width="24" height="24" viewBox="0 0 24 24" fill="none" xmlns="http://www.w3.org/2000/svg">
<path d="M5 20H18.9988M12.9988 10V11C12.9988 12.1046 12.1033 13 10.9988 13H8.99878C7.89421 13 6.99878 12.1046 6.99878 11V5C6.99878 4.44772 7.4465 4 7.99878 4H11.9988C12.5511 4 12.9988 4.44772 12.9988 5V6M12.9988 10C14.1033 10 14.9988 9.10457 14.9988 8C14.9988 6.89543 14.1033 6 12.9988 6M12.9988 10C11.8942 10 10.9988 9.10457 10.9988 8C10.9988 6.89543 11.8942 6 12.9988 6M14.9988 8.02182C16.8029 9.17689 17.9988 11.1988 17.9988 13.5C17.9988 17.0898 15.0886 20 11.4988 20M6.99878 16H12.9988M7.99878 16H11.9988V20H7.99878V16Z" stroke="black" stroke-width="1.5" stroke-linecap="round" stroke-linejoin="round"/>
</svg>
