<svg width="24" height="24" viewBox="0 0 24 24" fill="none" xmlns="http://www.w3.org/2000/svg">
<path d="M5.96967 1.96967C6.23594 1.7034 6.6526 1.6792 6.94621 1.89705L7.03033 1.96967L8.53033 3.46967C8.7966 3.73594 8.8208 4.1526 8.60295 4.44621L8.53033 4.53033L7.03033 6.03033C6.73744 6.32322 6.26256 6.32322 5.96967 6.03033C5.7034 5.76406 5.6792 5.3474 5.89705 5.05379L5.96967 4.96967L6.939 4L5.96967 3.03033C5.7034 2.76406 5.6792 2.3474 5.89705 2.05379L5.96967 1.96967Z" fill="#323232"/>
<path d="M8 3.25C8.41421 3.25 8.75 3.58579 8.75 4C8.75 4.3797 8.46785 4.69349 8.10177 4.74315L8 4.75H6C4.75736 4.75 3.75 5.75736 3.75 7C3.75 7.41421 3.41421 7.75 3 7.75C2.58579 7.75 2.25 7.41421 2.25 7C2.25 4.99574 3.82236 3.35873 5.80084 3.2552L6 3.25H8Z" fill="#323232"/>
<path d="M16.9697 17.9697C17.2626 17.6768 17.7374 17.6768 18.0303 17.9697C18.2966 18.2359 18.3208 18.6526 18.1029 18.9462L18.0303 19.0303L17.061 20L18.0303 20.9697C18.2966 21.2359 18.3208 21.6526 18.1029 21.9462L18.0303 22.0303C17.7641 22.2966 17.3474 22.3208 17.0538 22.1029L16.9697 22.0303L15.4697 20.5303C15.2034 20.2641 15.1792 19.8474 15.3971 19.5538L15.4697 19.4697L16.9697 17.9697Z" fill="#323232"/>
<path d="M21 16.25C21.4142 16.25 21.75 16.5858 21.75 17C21.75 19.0043 20.1776 20.6413 18.1992 20.7448L18 20.75H16C15.5858 20.75 15.25 20.4142 15.25 20C15.25 19.6203 15.5322 19.3065 15.8982 19.2568L16 19.25H18C19.1909 19.25 20.1656 18.3248 20.2448 17.154L20.25 17C20.25 16.5858 20.5858 16.25 21 16.25Z" fill="#323232"/>
<path fill-rule="evenodd" clip-rule="evenodd" d="M3.25 14.5C3.25 17.8751 5.92524 20.6253 9.27087 20.7459L9.5 20.75L9.79174 20.7432C11.3432 20.6708 12.8163 20.0226 13.9194 18.9194C15.0915 17.7473 15.75 16.1576 15.75 14.5C15.75 11.0482 12.9518 8.25 9.5 8.25C6.04822 8.25 3.25 11.0482 3.25 14.5ZM4.75 14.5C4.75 11.8766 6.87665 9.75 9.5 9.75C12.1234 9.75 14.25 11.8766 14.25 14.5C14.25 15.7598 13.7496 16.968 12.8588 17.8588L12.6764 18.0317C11.8688 18.7582 10.836 19.186 9.75119 19.2434L9.5 19.25L9.28257 19.2451C6.76014 19.1315 4.75 17.0505 4.75 14.5Z" fill="#323232"/>
<path d="M8.96898 12.1361C9.41634 11.6877 10.1658 11.9642 10.2434 12.5631L10.25 12.6658V15.9138C10.25 16.328 9.91418 16.6638 9.49996 16.6638C9.12027 16.6638 8.80647 16.3816 8.75681 16.0155L8.74996 15.9138L8.74905 14.2259C8.56806 14.2392 8.39044 14.1911 8.2435 14.0823L8.15929 14.0098C7.89269 13.7439 7.86797 13.3272 8.08547 13.0333L8.15798 12.9491L8.96898 12.1361Z" fill="#323232"/>
<path d="M10.3087 15.166C10.723 15.166 11.0587 15.5018 11.0587 15.916C11.0587 16.2957 10.7766 16.6095 10.4105 16.6592L10.3087 16.666H8.69092C8.2767 16.666 7.94092 16.3302 7.94092 15.916C7.94092 15.5363 8.22307 15.2225 8.58915 15.1729L8.69092 15.166H10.3087Z" fill="#323232"/>
<path d="M10.0805 5.13283C12.5213 2.69205 16.4786 2.69205 18.9193 5.13283C21.3601 7.57361 21.3601 11.5309 18.9193 13.9717C18.6264 14.2646 18.1516 14.2646 17.8587 13.9717C17.5658 13.6788 17.5658 13.2039 17.8587 12.911C19.7137 11.056 19.7137 8.04848 17.8587 6.19349C16.0037 4.3385 12.9962 4.3385 11.1412 6.19349C10.8483 6.48638 10.3734 6.48638 10.0805 6.19349C9.78762 5.90059 9.78762 5.42572 10.0805 5.13283Z" fill="#323232"/>
</svg>
