<svg width="24" height="24" viewBox="0 0 24 24" fill="none" xmlns="http://www.w3.org/2000/svg">
<path d="M12 8C14.9385 8 17.4999 9.99991 18.2126 12.8507L19.0681 16.2724C19.5414 18.1658 18.1094 20 16.1576 20H7.8423C5.89058 20 4.45851 18.1658 4.93187 16.2724L5.78729 12.8507C6.49999 9.99991 9.06143 8 12 8ZM12 8C11.3597 8 10.7456 7.74565 10.2929 7.29289L8.70707 5.70711C8.07711 5.07714 8.52328 4 9.41418 4H14.5858C15.4767 4 15.9228 5.07714 15.2929 5.70711L13.7071 7.29289C13.2543 7.74565 12.6403 8 12 8ZM13.5 11.5H11.25C10.5596 11.5 9.99997 12.0596 9.99997 12.75C9.99997 13.4404 10.5596 14 11.25 14H12.75C13.4403 14 14 14.5596 14 15.25C14 15.9404 13.4403 16.5 12.75 16.5H10.5M12 10.5V11M12 17V17.5" stroke="black" stroke-width="1.5" stroke-linecap="round"/>
</svg>
