<svg width="24" height="24" viewBox="0 0 24 24" fill="none" xmlns="http://www.w3.org/2000/svg">
<path d="M19.2061 13.2302C19.5976 13.0374 20.0869 13.3319 19.9868 13.7567C19.7225 14.8785 19.2207 15.9354 18.5105 16.8539C17.5693 18.0713 16.3009 18.9954 14.8536 19.5182C13.4064 20.0409 11.8401 20.1407 10.3383 19.8058C8.83637 19.4709 7.46092 18.7152 6.37284 17.6272C5.28476 16.5391 4.52907 15.1636 4.19418 13.6617C3.8593 12.1599 3.95907 10.5936 4.48183 9.14639C5.00459 7.69914 5.92871 6.4307 7.14606 5.48948C8.06464 4.77927 9.12152 4.27754 10.2433 4.01321C10.6681 3.9131 10.9626 4.40237 10.7698 4.79395C10.2764 5.79617 10.0553 6.91817 10.1394 8.04561C10.2516 9.55064 10.9003 10.9654 11.9674 12.0326C13.0346 13.0997 14.4494 13.7484 15.9544 13.8606C17.0818 13.9447 18.2038 13.7236 19.2061 13.2302Z" stroke="black" stroke-width="1.5" stroke-linecap="round" stroke-linejoin="round"/>
</svg>
