<svg width="24" height="24" viewBox="0 0 24 24" fill="none" xmlns="http://www.w3.org/2000/svg">
<path d="M10 15.3485L14 10M18 9V19H6V9M4 10.5L11.4 4.95C11.7556 4.68333 12.2444 4.68333 12.6 4.95L20 10.5M4 19H20M10.5 10.5C10.5 10.7761 10.2761 11 10 11C9.72386 11 9.5 10.7761 9.5 10.5C9.5 10.2239 9.72386 10 10 10C10.2761 10 10.5 10.2239 10.5 10.5ZM14.5 15C14.5 15.2761 14.2761 15.5 14 15.5C13.7239 15.5 13.5 15.2761 13.5 15C13.5 14.7239 13.7239 14.5 14 14.5C14.2761 14.5 14.5 14.7239 14.5 15Z" stroke="black" stroke-width="1.5" stroke-linecap="round" stroke-linejoin="round"/>
</svg>
