<svg width="24" height="24" viewBox="0 0 24 24" fill="none" xmlns="http://www.w3.org/2000/svg">
<path d="M7.99996 9L9.29285 10.2929C9.68337 10.6834 10.3165 10.6834 10.7071 10.2929L11.2928 9.70711C11.6834 9.31658 12.3165 9.31658 12.7071 9.70711L13.2928 10.2929C13.6834 10.6834 14.3165 10.6834 14.7071 10.2929L16 9M5.44631 19H18.5536C20.0892 19 21.052 17.341 20.2901 16.0077L14.5758 6.00772C14.2197 5.38457 13.557 5 12.8393 5H11.1606C10.4429 5 9.7802 5.38457 9.42411 6.00772L3.70983 16.0077C2.94793 17.341 3.91067 19 5.44631 19Z" stroke="black" stroke-width="1.5" stroke-linejoin="round"/>
</svg>
