<svg width="24" height="24" viewBox="0 0 24 24" fill="none" xmlns="http://www.w3.org/2000/svg">
<path d="M4 9H20M6.5 9L5.75748 10.3613C5.29489 11.2094 5.36221 12.248 5.93041 13.0293C6.56807 13.9061 6.56807 15.0939 5.93041 15.9707C5.36221 16.752 5.29489 17.7906 5.75748 18.6387L6.5 20M10.5 9L9.75748 10.3613C9.29489 11.2094 9.36221 12.248 9.93041 13.0293C10.5681 13.9061 10.5681 15.0939 9.93041 15.9707C9.36221 16.752 9.29489 17.7906 9.75748 18.6387L10.5 20M14.5 9L13.7575 10.3613C13.2949 11.2094 13.3622 12.248 13.9304 13.0293C14.5681 13.9061 14.5681 15.0939 13.9304 15.9707C13.3622 16.752 13.2949 17.7906 13.7575 18.6387L14.5 20M4 6L20 4" stroke="black" stroke-width="1.5" stroke-linecap="round"/>
</svg>
