<svg width="24" height="24" viewBox="0 0 24 24" fill="none" xmlns="http://www.w3.org/2000/svg">
<path d="M18.75 14.7512V17.7512" stroke="black" stroke-width="1.5" stroke-linecap="round" stroke-linejoin="round"/>
<path d="M8.75 14.7512V17.7512M19.2152 11.7506C18.5237 10.5546 17.2308 9.75 15.75 9.75H14.75C16.4068 9.75 17.75 8.40685 17.75 6.75C17.75 5.09315 16.4068 3.75 14.75 3.75H12.75M3.75 3.7506L19.75 19.7506M4.75 14.7512H18.75C19.3023 14.7512 19.75 15.1989 19.75 15.7512V16.7512C19.75 17.3035 19.3023 17.7512 18.75 17.7512H4.75C4.19772 17.7512 3.75 17.3035 3.75 16.7512V15.7512C3.75 15.1989 4.19772 14.7512 4.75 14.7512Z" stroke="black" stroke-width="1.5" stroke-linecap="round" stroke-linejoin="round"/>
</svg>
