<svg width="24" height="24" viewBox="0 0 24 24" fill="none" xmlns="http://www.w3.org/2000/svg">
<path d="M15 17C15 18.6568 13.6568 20 12 20C10.3431 20 9 18.6568 9 17M14.1213 8.87867L9.87868 13.1213M14.1213 13.1213L9.87868 8.87867M4.80626 14.7906C5.58464 13.623 6 12.2512 6 10.848V9.99999C6 6.68629 8.68629 4 12 4C15.3137 4 18 6.68629 18 9.99999V10.848C18 12.2512 18.4153 13.623 19.1937 14.7906C19.5914 15.3871 19.2484 16.1868 18.546 16.3305C14.182 17.2232 9.818 17.2232 5.45401 16.3305C4.7516 16.1868 4.40856 15.3871 4.80626 14.7906Z" stroke="black" stroke-width="1.5" stroke-linecap="round" stroke-linejoin="round"/>
</svg>
