<svg width="24" height="24" viewBox="0 0 24 24" fill="none" xmlns="http://www.w3.org/2000/svg">
<path d="M8.99978 4.80282C9.88235 4.29223 10.907 4 12 4C15.3137 4 18 6.68629 18 9.99999V10.8479C18 12.2512 18.4153 13.623 19.1937 14.7906M16.6606 16.6606C12.9251 17.2047 9.18953 17.0946 5.45402 16.3305C4.75161 16.1868 4.40856 15.3872 4.80626 14.7906C5.58464 13.623 6 12.2512 6 10.848V10C6 8.84911 6.32404 7.7739 6.88585 6.86063M15 17C15 18.6568 13.6568 20 12 20C10.3432 20 9 18.6568 9 17M4 4L20 20" stroke="black" stroke-width="1.5" stroke-linecap="round" stroke-linejoin="round"/>
</svg>
