<svg width="24" height="24" viewBox="0 0 24 24" fill="none" xmlns="http://www.w3.org/2000/svg">
<path d="M6.69153 10.0006V6L11.6915 4L16.6915 6V10.0006M6.69153 10.0006C10.0249 8.66727 13.3582 8.66727 16.6915 10.0006M6.69153 10.0006V9M6.69153 10.0006C6.69153 12.762 8.93011 15 11.6915 15C14.4529 15 16.6915 12.762 16.6915 10.0006M6.69153 10.0006C6.38629 11.2701 5.90162 12.4117 5.19921 13.3981C4.72003 14.071 5.15421 15 5.98031 15H10.6916M16.6915 10.0006V9M16.6915 10.0006C16.9968 11.2701 17.4815 12.4117 18.1839 13.3981C18.6631 14.071 18.2289 15 17.4028 15H12.6915M11.5706 6.75508H11.8126M9.69031 15H12.6903C15.4517 15 17.6903 17.2386 17.6903 20M13.6927 15H10.6927C7.93132 15 5.69275 17.2386 5.69275 20M8.69153 15L11.6915 18M11.6915 18L14.6915 15M11.6915 18V20" stroke="black" stroke-width="1.5" stroke-linecap="round" stroke-linejoin="round"/>
</svg>
