<svg width="24" height="24" viewBox="0 0 24 24" fill="none" xmlns="http://www.w3.org/2000/svg">
<path d="M12 14V10H14M12 12L13.6814 11.9947M16 14V10H18M16 12L17.6814 11.9947M6 6H18C19.1046 6 20 6.89543 20 8V16C20 17.1046 19.1046 18 18 18H6C4.89543 18 4 17.1046 4 16V8C4 6.89543 4.89543 6 6 6ZM9.63734 12C9.63734 13.1046 8.90428 14 8 14C7.09572 14 6.36266 13.1046 6.36266 12C6.36266 10.8954 7.09572 10 8 10C8.90428 10 9.63734 10.8954 9.63734 12Z" stroke="black" stroke-width="1.5" stroke-linecap="round" stroke-linejoin="round"/>
</svg>
