<svg width="24" height="24" viewBox="0 0 24 24" fill="none" xmlns="http://www.w3.org/2000/svg">
<path d="M4 7V17C4 18.6569 5.34315 20 7 20H8M4 7C4 5.34315 5.34315 4 7 4H17C18.6569 4 20 5.34315 20 7M4 7H20M20 7V10M11 20H20M19 15V20M15.5 15V20M12 15V20M19.8486 15H11.1514C10.6567 15 10.4624 14.3584 10.874 14.084L15.2227 11.1849C15.3906 11.0729 15.6094 11.0729 15.7773 11.1849L20.126 14.084C20.5376 14.3584 20.3433 15 19.8486 15Z" stroke="black" stroke-width="1.5" stroke-linecap="round" stroke-linejoin="round"/>
</svg>
