<svg width="24" height="24" viewBox="0 0 24 24" fill="none" xmlns="http://www.w3.org/2000/svg">
<path d="M8 11.25C7.58579 11.25 7.25 11.5858 7.25 12C7.25 12.4142 7.58579 12.75 8 12.75V11.25ZM12.75 7C12.75 6.58579 12.4142 6.25 12 6.25C11.5858 6.25 11.25 6.58579 11.25 7H12.75ZM12 20L11.6279 20.6512C11.8585 20.7829 12.1415 20.7829 12.3721 20.6512L12 20ZM15 12V12.75C15.4142 12.75 15.75 12.4142 15.75 12H15ZM9 12H8.25C8.25 12.4142 8.58579 12.75 9 12.75V12ZM8 12.75H16V11.25H8V12.75ZM11.25 7V8H12.75V7H11.25ZM18.25 11C18.25 13.1669 16.7117 15.2264 14.9897 16.8254C14.1481 17.6068 13.3034 18.2407 12.6676 18.6797C12.3504 18.8987 12.087 19.068 11.9045 19.1816C11.8132 19.2384 11.7423 19.2813 11.695 19.3094C11.6714 19.3234 11.6537 19.3338 11.6424 19.3404C11.6367 19.3437 11.6326 19.3461 11.6302 19.3475C11.629 19.3482 11.6282 19.3487 11.6278 19.3489C11.6276 19.349 11.6275 19.349 11.6275 19.349C11.6275 19.349 11.6276 19.349 11.6276 19.349C11.6278 19.3489 11.6279 19.3488 12 20C12.3721 20.6512 12.3723 20.6511 12.3725 20.6509C12.3726 20.6509 12.3729 20.6507 12.3731 20.6506C12.3736 20.6504 12.3741 20.65 12.3748 20.6497C12.3761 20.6489 12.3778 20.6479 12.38 20.6467C12.3843 20.6442 12.3902 20.6407 12.3978 20.6363C12.413 20.6275 12.4346 20.6148 12.4622 20.5983C12.5175 20.5654 12.597 20.5174 12.6971 20.4551C12.8973 20.3305 13.1808 20.1482 13.5199 19.914C14.1966 19.4468 15.1019 18.7682 16.0103 17.9246C17.7883 16.2736 19.75 13.8331 19.75 11H18.25ZM12 20C12.3721 19.3488 12.3722 19.3489 12.3724 19.349C12.3724 19.349 12.3725 19.349 12.3725 19.349C12.3725 19.349 12.3724 19.349 12.3722 19.3489C12.3718 19.3487 12.371 19.3482 12.3698 19.3475C12.3674 19.3461 12.3633 19.3437 12.3576 19.3404C12.3463 19.3338 12.3286 19.3234 12.305 19.3094C12.2577 19.2813 12.1868 19.2384 12.0955 19.1816C11.913 19.068 11.6496 18.8987 11.3324 18.6797C10.6966 18.2407 9.85186 17.6068 9.01034 16.8254C7.28828 15.2264 5.75 13.1669 5.75 11H4.25C4.25 13.8331 6.21172 16.2736 7.98966 17.9246C8.89814 18.7682 9.80338 19.4468 10.4801 19.914C10.8192 20.1482 11.1027 20.3305 11.3029 20.4551C11.403 20.5174 11.4825 20.5654 11.5378 20.5983C11.5654 20.6148 11.587 20.6275 11.6022 20.6363C11.6098 20.6407 11.6157 20.6442 11.62 20.6467C11.6222 20.6479 11.6239 20.6489 11.6252 20.6497C11.6259 20.65 11.6264 20.6504 11.6269 20.6506C11.6271 20.6507 11.6274 20.6509 11.6275 20.6509C11.6277 20.6511 11.6279 20.6512 12 20ZM5.75 11C5.75 7.54822 8.54822 4.75 12 4.75V3.25C7.71979 3.25 4.25 6.71979 4.25 11H5.75ZM12 4.75C15.4518 4.75 18.25 7.54822 18.25 11H19.75C19.75 6.71979 16.2802 3.25 12 3.25V4.75ZM9.75 11C9.75 9.75736 10.7574 8.75 12 8.75V7.25C9.92893 7.25 8.25 8.92893 8.25 11H9.75ZM12 8.75C13.2426 8.75 14.25 9.75736 14.25 11H15.75C15.75 8.92893 14.0711 7.25 12 7.25V8.75ZM14.25 11V12H15.75V11H14.25ZM15 11.25H9V12.75H15V11.25ZM9.75 12V11H8.25V12H9.75Z" fill="black"/>
</svg>
