<svg width="24" height="24" viewBox="0 0 24 24" fill="none" xmlns="http://www.w3.org/2000/svg">
<path d="M8.99997 8L4.99997 4M4.99997 13C7.99997 10 12.9339 13.0661 16.9339 11.0661M10.2426 4.12132L17.0606 10.9393L11.4038 16.5962C10.6233 17.3767 9.35587 17.3767 8.57535 16.5962L4.58576 12.6066C3.80523 11.8261 3.80524 10.5587 4.58576 9.77818L10.2426 4.12132ZM20 18C20 19.1046 19.1045 20 18 20C16.8954 20 16 19.1046 16 18C16 16.8954 18 15 18 15C18 15 20 16.8954 20 18Z" stroke="black" stroke-width="1.5" stroke-linecap="round" stroke-linejoin="round"/>
</svg>
