<svg width="24" height="24" viewBox="0 0 24 24" fill="none" xmlns="http://www.w3.org/2000/svg">
<path d="M20 11C18.1362 11 16.5701 9.72525 16.126 8.00004M16.0032 17.8397C16.0873 15.7049 17.8445 14 20 14M4.00001 13C5.86384 13 7.42993 14.2747 7.87398 16M7.99242 6.24845C7.86414 8.34187 6.12571 10 4.00001 10M18.6232 17.6817C14.186 19.1802 9.74878 14.8154 5.31158 16.3717C4.66943 16.5969 4 16.1087 4 15.4282V8.22658C4 7.36211 4.55782 6.59494 5.37685 6.31834C9.81404 4.81981 14.2512 9.18461 18.6884 7.6283C19.3306 7.40307 20 7.89129 20 8.57179V15.7734C20 16.6379 19.4422 17.4051 18.6232 17.6817ZM14 12C14 13.1046 13.1046 14 12 14C10.8954 14 10 13.1046 10 12C10 10.8954 10.8954 10 12 10C13.1046 10 14 10.8954 14 12Z" stroke="black" stroke-width="1.5" stroke-linecap="round" stroke-linejoin="round"/>
</svg>
