<svg width="24" height="24" viewBox="0 0 24 24" fill="none" xmlns="http://www.w3.org/2000/svg">
<path d="M19.4771 16.9055L18.8493 17.3159V17.3159L19.4771 16.9055ZM4.52371 16.9055L5.15144 17.3159H5.15144L4.52371 16.9055ZM7.3636 19.5501C7.14477 19.9018 7.25248 20.3643 7.60417 20.5832C7.95586 20.802 8.41836 20.6943 8.63719 20.3426L7.3636 19.5501ZM15.1372 9.89623C15.356 9.54454 15.2483 9.08204 14.8966 8.86321C14.5449 8.64438 14.0824 8.75208 13.8636 9.10377L15.1372 9.89623ZM12.8616 19.6069C12.6445 19.9597 12.7545 20.4217 13.1073 20.6387C13.4601 20.8558 13.922 20.7458 14.1391 20.3931L12.8616 19.6069ZM12.3727 7.41044L18.8493 17.3159L20.1048 16.4951L13.6281 6.58956L12.3727 7.41044ZM17.8031 19.25H6.19765V20.75H17.8031V19.25ZM5.15144 17.3159L11.6281 7.41044L10.3727 6.58956L3.89598 16.4951L5.15144 17.3159ZM6.19765 19.25C5.20433 19.25 4.60784 18.1473 5.15144 17.3159L3.89598 16.4951C2.70008 18.3241 4.01235 20.75 6.19765 20.75V19.25ZM18.8493 17.3159C19.3929 18.1473 18.7964 19.25 17.8031 19.25V20.75C19.9884 20.75 21.3007 18.3241 20.1048 16.4951L18.8493 17.3159ZM13.2504 6C13.2504 6.69036 12.6907 7.25 12.0004 7.25V8.75C13.5192 8.75 14.7504 7.51878 14.7504 6H13.2504ZM12.0004 7.25C11.31 7.25 10.7504 6.69036 10.7504 6H9.25038C9.25038 7.51878 10.4816 8.75 12.0004 8.75V7.25ZM10.7504 6C10.7504 5.30964 11.31 4.75 12.0004 4.75V3.25C10.4816 3.25 9.25038 4.48122 9.25038 6H10.7504ZM12.0004 4.75C12.6907 4.75 13.2504 5.30964 13.2504 6H14.7504C14.7504 4.48122 13.5192 3.25 12.0004 3.25V4.75ZM8.63719 20.3426L15.1372 9.89623L13.8636 9.10377L7.3636 19.5501L8.63719 20.3426ZM14.1391 20.3931L18.1391 13.8931L16.8616 13.1069L12.8616 19.6069L14.1391 20.3931Z" fill="black"/>
</svg>
