<svg width="24" height="24" viewBox="0 0 24 24" fill="none" xmlns="http://www.w3.org/2000/svg">
<path d="M12 17.75C12.4142 17.75 12.75 17.4142 12.75 17C12.75 16.5858 12.4142 16.25 12 16.25V17.75ZM8 16.25C7.58579 16.25 7.25 16.5858 7.25 17C7.25 17.4142 7.58579 17.75 8 17.75V16.25ZM19 16H19.75H19ZM19 8H18.25H19ZM16 5V4.25V5ZM16 19V18.25V19ZM5 4.75H13V3.25H5V4.75ZM15.25 7V17H16.75V7H15.25ZM13 19.25H5V20.75H13V19.25ZM4.75 19V5H3.25V19H4.75ZM5 19.25C4.86193 19.25 4.75 19.1381 4.75 19H3.25C3.25 19.9665 4.0335 20.75 5 20.75V19.25ZM15.25 17C15.25 18.2426 14.2426 19.25 13 19.25V20.75C15.0711 20.75 16.75 19.0711 16.75 17H15.25ZM13 4.75C14.2426 4.75 15.25 5.75736 15.25 7H16.75C16.75 4.92893 15.0711 3.25 13 3.25V4.75ZM5 3.25C4.0335 3.25 3.25 4.0335 3.25 5H4.75C4.75 4.86193 4.86193 4.75 5 4.75V3.25ZM12.25 10C12.25 11.2426 11.2426 12.25 10 12.25V13.75C12.0711 13.75 13.75 12.0711 13.75 10H12.25ZM10 12.25C8.75736 12.25 7.75 11.2426 7.75 10H6.25C6.25 12.0711 7.92893 13.75 10 13.75V12.25ZM7.75 10C7.75 8.75736 8.75736 7.75 10 7.75V6.25C7.92893 6.25 6.25 7.92893 6.25 10H7.75ZM10 7.75C11.2426 7.75 12.25 8.75736 12.25 10H13.75C13.75 7.92893 12.0711 6.25 10 6.25V7.75ZM12 16.25H8V17.75H12V16.25ZM19.75 16V8H18.25V16H19.75ZM16 4.25H15.5V5.75H16V4.25ZM15.5 19.75H16V18.25H15.5V19.75ZM19.75 8C19.75 5.92893 18.0711 4.25 16 4.25V5.75C17.2426 5.75 18.25 6.75736 18.25 8H19.75ZM18.25 16C18.25 17.2426 17.2426 18.25 16 18.25V19.75C18.0711 19.75 19.75 18.0711 19.75 16H18.25Z" fill="black"/>
</svg>
