<svg width="24" height="24" viewBox="0 0 24 24" fill="none" xmlns="http://www.w3.org/2000/svg">
<path d="M16.7913 4.29289L19.7071 7.20867C20.0974 7.59893 20.0974 8.23261 19.7071 8.62288L18.2492 10.0808L13.9192 5.75078L15.3771 4.29289C15.7674 3.90263 16.4011 3.90263 16.7913 4.29289Z" stroke="black" stroke-width="1.5" stroke-linecap="round" stroke-linejoin="round"/>
<path d="M18.2492 10.0808L17.6362 15.5979C17.5764 16.1361 17.1126 16.5333 16.5718 16.5041C14.7602 16.4062 10.6816 16.3663 7.04099 17.6128C6.63601 17.7514 6.24856 17.364 6.38722 16.959C7.63374 13.3184 7.59376 9.23975 7.49589 7.42817C7.46668 6.88743 7.86389 6.4236 8.4021 6.3638L13.9192 5.75079L18.2492 10.0808Z" stroke="black" stroke-width="1.5" stroke-linecap="round" stroke-linejoin="round"/>
<path d="M12.8367 12.6941C13.6822 12.6941 14.3676 12.0087 14.3676 11.1633C14.3676 10.3178 13.6822 9.63239 12.8367 9.63239C11.9912 9.63239 11.3058 10.3178 11.3058 11.1633C11.3058 12.0087 11.9912 12.6941 12.8367 12.6941Z" stroke="black" stroke-width="1.5" stroke-linecap="round" stroke-linejoin="round"/>
<path d="M12 20C7.58172 20 4 16.4183 4 12" stroke="black" stroke-width="1.5" stroke-linecap="round" stroke-linejoin="round"/>
</svg>
