<svg width="24" height="24" viewBox="0 0 24 24" fill="none" xmlns="http://www.w3.org/2000/svg">
<path d="M17 3.25C16.5858 3.25 16.25 3.58579 16.25 4C16.25 4.41421 16.5858 4.75 17 4.75V3.25ZM14.6541 17.9244L15.3939 17.8011C15.3295 17.415 14.9791 17.1434 14.5892 17.1772L14.6541 17.9244ZM11.3341 17.9953L11.3436 17.2453C10.9734 17.2406 10.6552 17.5068 10.5943 17.872L11.3341 17.9953ZM11 20V20.75C11.3666 20.75 11.6795 20.4849 11.7398 20.1233L11 20ZM8 20L7.2602 20.1233C7.32048 20.4849 7.63337 20.75 8 20.75V20ZM7.57757 17.4654L8.31737 17.3421C8.27375 17.0804 8.09508 16.8612 7.84751 16.7657L7.57757 17.4654ZM5 15.5L4.37596 15.916C4.38799 15.9341 4.4008 15.9516 4.41435 15.9685L5 15.5ZM4 14H3.25C3.25 14.1481 3.29383 14.2928 3.37596 14.416L4 14ZM4 10V9.25C3.58579 9.25 3.25 9.58579 3.25 10H4ZM5.42676 10V10.75C5.72375 10.75 5.99277 10.5748 6.11279 10.3031L5.42676 10ZM6.3072 8.61439L6.877 9.10207C7.07308 8.87296 7.11288 8.5487 6.97802 8.27898L6.3072 8.61439ZM5 6V5.25C4.74007 5.25 4.49867 5.38459 4.36201 5.6057C4.22536 5.82681 4.21293 6.10292 4.32918 6.33541L5 6ZM8.90313 6.73373L8.53025 7.38447C8.73643 7.50261 8.9864 7.51606 9.20407 7.42071L8.90313 6.73373ZM18.5917 16.4496L18.0604 15.9203C17.9504 16.0307 17.8776 16.1726 17.8519 16.3263L18.5917 16.4496ZM18 20V20.75C18.3666 20.75 18.6795 20.4849 18.7398 20.1233L18 20ZM15 20L14.2602 20.1233C14.3205 20.4849 14.6334 20.75 15 20.75V20ZM19.25 6C19.25 6.69036 18.6904 7.25 18 7.25V8.75C19.5188 8.75 20.75 7.51878 20.75 6H19.25ZM18 4.75C18.6904 4.75 19.25 5.30964 19.25 6H20.75C20.75 4.48122 19.5188 3.25 18 3.25V4.75ZM18 3.25H17V4.75H18V3.25ZM12.5 18.75C13.2575 18.75 14.0053 18.7336 14.719 18.6716L14.5892 17.1772C13.9383 17.2337 13.2399 17.25 12.5 17.25V18.75ZM11.3246 18.7452C11.7041 18.75 12.0971 18.75 12.5 18.75V17.25C12.0951 17.25 11.7119 17.25 11.3436 17.2453L11.3246 18.7452ZM11.7398 20.1233L12.0739 18.1186L10.5943 17.872L10.2602 19.8767L11.7398 20.1233ZM8 20.75H11V19.25H8V20.75ZM6.83778 17.5887L7.2602 20.1233L8.7398 19.8767L8.31737 17.3421L6.83778 17.5887ZM4.41435 15.9685C5.29357 17.0675 6.24112 17.7537 7.30763 18.1652L7.84751 16.7657C7.05085 16.4584 6.31452 15.9426 5.58565 15.0315L4.41435 15.9685ZM3.37596 14.416L4.37596 15.916L5.62404 15.084L4.62404 13.584L3.37596 14.416ZM3.25 10V14H4.75V10H3.25ZM5.42676 9.25H4V10.75H5.42676V9.25ZM5.73739 8.12672C5.32883 8.60409 4.99088 9.13074 4.74074 9.69691L6.11279 10.3031C6.29995 9.87948 6.557 9.47595 6.877 9.10207L5.73739 8.12672ZM6.97802 8.27898L5.67082 5.66459L4.32918 6.33541L5.63638 8.9498L6.97802 8.27898ZM5 6.75C6.55959 6.75 7.77965 6.95435 8.53025 7.38447L9.27602 6.083C8.17016 5.44931 6.61714 5.25 5 5.25V6.75ZM12.5 5.25C11.0952 5.25 9.76684 5.53658 8.6022 6.04675L9.20407 7.42071C10.1751 6.99533 11.2982 6.75 12.5 6.75V5.25ZM20.75 12C20.75 8.12455 16.8915 5.25 12.5 5.25V6.75C16.3927 6.75 19.25 9.24803 19.25 12H20.75ZM19.1231 16.9789C20.1999 15.8978 20.75 14.2816 20.75 12H19.25C19.25 14.0554 18.7561 15.2218 18.0604 15.9203L19.1231 16.9789ZM18.7398 20.1233L19.3315 16.5729L17.8519 16.3263L17.2602 19.8767L18.7398 20.1233ZM15 20.75H18V19.25H15V20.75ZM13.9143 18.0477L14.2602 20.1233L15.7398 19.8767L15.3939 17.8011L13.9143 18.0477Z" fill="black"/>
</svg>
