<svg width="24" height="24" viewBox="0 0 24 24" fill="none" xmlns="http://www.w3.org/2000/svg">
<path d="M10.0001 19.5903C8.442 20.3362 6.51829 20.0636 5.22733 18.7727C3.59089 17.1362 3.59089 14.483 5.22733 12.8466L12.8466 5.22733C14.483 3.59089 17.1362 3.59089 18.7727 5.22733C20.0636 6.51826 20.3362 8.44192 19.5904 10M11.4979 11.4979L9.03699 9.03696M15 17L17 15M20 16C20 18.2091 18.2091 20 16 20C13.7909 20 12 18.2091 12 16C12 13.7909 13.7909 12 16 12C18.2091 12 20 13.7909 20 16Z" stroke="black" stroke-width="1.5" stroke-linecap="round" stroke-linejoin="round"/>
</svg>
