<svg width="24" height="24" viewBox="0 0 24 24" fill="none" xmlns="http://www.w3.org/2000/svg">
<path d="M14.6101 17.5C13.0866 17.3272 11.0177 16.741 9.27673 15C7.26559 12.9889 6.79543 10.54 6.72335 9.00002M18.7325 9.00002C18.3866 8.40222 17.7403 8.00002 17 8.00002C15.8955 8.00002 15 8.89545 15 10C15 11.1046 15.8955 12 17 12C17.2714 12 17.5301 11.946 17.7661 11.8481M5.48347 9.34071L17.2482 4.11194C18.9218 3.36811 20.6319 5.07823 19.8881 6.75184L14.6593 18.5166C14.248 19.4421 13.3925 20.1064 12.3813 20.0471C10.8363 19.9565 8.46025 19.4603 6.50002 17.5C4.53979 15.5398 4.04352 13.1637 3.9529 11.6187C3.89359 10.6076 4.55791 9.75207 5.48347 9.34071ZM11 10.5C11 10.7762 10.7762 11 10.5 11C10.2239 11 10 10.7762 10 10.5C10 10.2239 10.2239 10 10.5 10C10.7762 10 11 10.2239 11 10.5Z" stroke="black" stroke-width="1.5" stroke-linejoin="round"/>
</svg>
