<svg width="24" height="24" viewBox="0 0 24 24" fill="none" xmlns="http://www.w3.org/2000/svg">
<path d="M14.4205 5.23633L13.8234 4.78251V4.78251L14.4205 5.23633ZM7.30025 14.6051L7.89737 15.0589L7.89737 15.0589L7.30025 14.6051ZM9.39503 16.6999L9.84884 17.297L9.39503 16.6999ZM18.7638 9.57961L18.31 8.98249L18.7638 9.57961ZM19.0699 5.06981L18.5396 5.60014L18.5396 5.60014L19.0699 5.06981ZM18.9303 4.93025L19.4607 4.39992L19.4607 4.39992L18.9303 4.93025ZM4.70722 16.7071L5.23755 16.1768H5.23755L4.70722 16.7071ZM7.293 19.2929L6.76267 19.8233L7.293 19.2929ZM16.8258 19.387L17.3303 18.8321L17.3303 18.8321L16.8258 19.387ZM12.5046 14.4451C12.1981 14.1664 11.7238 14.189 11.4452 14.4955C11.1665 14.802 11.1891 15.2764 11.4956 15.555L12.5046 14.4451ZM18.2584 19.4945L18.6744 20.1186L18.2584 19.4945ZM5.84584 5.28194L6.08301 4.57043L5.84584 5.28194ZM4.61311 7.17434L5.16807 6.66983H5.16807L4.61311 7.17434ZM8.44515 12.5045C8.72378 12.811 9.19812 12.8336 9.50461 12.555C9.81111 12.2764 9.83369 11.802 9.55506 11.4955L8.44515 12.5045ZM4.50561 5.74179L3.88157 5.32576L3.88157 5.32576L4.50561 5.74179ZM13.8234 4.78251L6.70312 14.1513L7.89737 15.0589L15.0176 5.69014L13.8234 4.78251ZM9.84884 17.297L19.2176 10.1767L18.31 8.98249L8.94121 16.1028L9.84884 17.297ZM19.6002 4.53948L19.4607 4.39992L18.4 5.46058L18.5396 5.60014L19.6002 4.53948ZM8.25011 17.4961V18.5858H9.75011V17.4961H8.25011ZM5.41432 15.75H6.50408V14.25H5.41432V15.75ZM4.17689 17.2375L6.76267 19.8233L7.82333 18.7626L5.23755 16.1768L4.17689 17.2375ZM5.41432 14.25C3.85524 14.25 3.07445 16.135 4.17689 17.2375L5.23755 16.1768C5.08005 16.0193 5.1916 15.75 5.41432 15.75V14.25ZM8.25011 18.5858C8.25011 18.8085 7.98082 18.9201 7.82333 18.7626L6.76267 19.8233C7.86511 20.9257 9.75011 20.1449 9.75011 18.5858H8.25011ZM19.2176 10.1767C21.0269 8.80172 21.2071 6.14634 19.6002 4.53948L18.5396 5.60014C19.5037 6.56426 19.3955 8.15748 18.31 8.98249L19.2176 10.1767ZM8.94121 16.1028C8.50579 16.4337 8.25011 16.9492 8.25011 17.4961H9.75011C9.75011 17.4179 9.78663 17.3443 9.84884 17.297L8.94121 16.1028ZM6.70312 14.1513C6.65585 14.2135 6.58221 14.25 6.50408 14.25V15.75C7.05099 15.75 7.56644 15.4944 7.89737 15.0589L6.70312 14.1513ZM15.0176 5.69014C15.8427 4.6046 17.4359 4.49647 18.4 5.46058L19.4607 4.39992C17.8538 2.79306 15.1984 2.97328 13.8234 4.78251L15.0176 5.69014ZM15.7886 11.7372L18.0067 18.3915L19.4297 17.9171L17.2116 11.2629L15.7886 11.7372ZM17.3303 18.8321L12.5046 14.4451L11.4956 15.555L16.3213 19.942L17.3303 18.8321ZM17.8423 18.8705C17.6831 18.9767 17.472 18.9608 17.3303 18.8321L16.3213 19.942C16.9722 20.5337 17.9424 20.6066 18.6744 20.1186L17.8423 18.8705ZM18.0067 18.3915C18.0662 18.5699 17.9989 18.7661 17.8423 18.8705L18.6744 20.1186C19.3937 19.639 19.7031 18.7373 19.4297 17.9171L18.0067 18.3915ZM12.7373 6.78852L6.08301 4.57043L5.60867 5.99345L12.2629 8.21154L12.7373 6.78852ZM4.05816 7.67884L8.44515 12.5045L9.55506 11.4955L5.16807 6.66983L4.05816 7.67884ZM3.88157 5.32576C3.39358 6.05774 3.46639 7.0279 4.05816 7.67884L5.16807 6.66983C5.0393 6.52819 5.02346 6.31709 5.12964 6.15781L3.88157 5.32576ZM6.08301 4.57043C5.26283 4.29703 4.36113 4.60641 3.88157 5.32576L5.12964 6.15781C5.234 6.00128 5.4302 5.93396 5.60867 5.99345L6.08301 4.57043Z" fill="black"/>
</svg>
