<svg width="24" height="24" viewBox="0 0 24 24" fill="none" xmlns="http://www.w3.org/2000/svg">
<path d="M14.855 15.4401L14.1178 15.3018L14.855 15.4401ZM9.14501 15.4401L9.88216 15.3018L9.14501 15.4401ZM18.9588 17.5529L18.2217 17.4146V17.4146L18.9588 17.5529ZM19.5089 14.619L20.2461 14.7572V14.7572L19.5089 14.619ZM15.1618 13.8039L15.8989 13.9421L15.1618 13.8039ZM5.04116 17.5529L4.30401 17.6911L5.04116 17.5529ZM4.49106 14.619L5.22822 14.4808L4.49106 14.619ZM6.00698 8.16825L6.25515 8.876C6.5775 8.76297 6.78274 8.4464 6.75439 8.106L6.00698 8.16825ZM8.49951 6.06288L8.31275 6.78926C8.64343 6.87428 8.98981 6.72522 9.1554 6.42662L8.49951 6.06288ZM15.5005 6.06288L14.8446 6.42662C15.0102 6.72522 15.3566 6.87428 15.6873 6.78926L15.5005 6.06288ZM17.993 8.16825L17.2456 8.106C17.2173 8.44641 17.4225 8.76297 17.7448 8.876L17.993 8.16825ZM14.3263 7.46977C13.9127 7.44807 13.5598 7.7658 13.5381 8.17945C13.5164 8.59309 13.8341 8.94601 14.2477 8.96771L14.3263 7.46977ZM14.7719 9.54994C14.7502 9.96358 15.068 10.3165 15.4816 10.3382C15.8953 10.3599 16.2482 10.0422 16.2699 9.62852L14.7719 9.54994ZM8.28892 8.99783C8.15722 9.39055 8.36881 9.81567 8.76153 9.94738C9.15424 10.0791 9.57937 9.86749 9.71108 9.47477L8.28892 8.99783ZM10.4124 9.12569C10.8052 9.25739 11.2303 9.0458 11.362 8.65308C11.4937 8.26037 11.2821 7.83524 10.8894 7.70354L10.4124 9.12569ZM14.1178 15.3018L13.2628 19.8618L14.7372 20.1382L15.5921 15.5783L14.1178 15.3018ZM14 19.25H10V20.75H14V19.25ZM10.7372 19.8618L9.88216 15.3018L8.40786 15.5783L9.26285 20.1382L10.7372 19.8618ZM12 12.75C13.3492 12.75 14.3665 13.9758 14.1178 15.3018L15.5921 15.5783C16.0139 13.3291 14.2884 11.25 12 11.25V12.75ZM12 11.25C9.71163 11.25 7.98614 13.3291 8.40786 15.5783L9.88216 15.3018C9.63353 13.9758 10.6508 12.75 12 12.75V11.25ZM18.7718 14.4808L18.2217 17.4146L19.696 17.6911L20.2461 14.7572L18.7718 14.4808ZM16.0102 19.25H14V20.75H16.0102V19.25ZM14.7372 20.1382L15.8989 13.9421L14.4246 13.6657L13.2628 19.8618L14.7372 20.1382ZM18.2217 17.4146C18.0221 18.4788 17.093 19.25 16.0102 19.25V20.75C17.8148 20.75 19.3634 19.4647 19.696 17.6911L18.2217 17.4146ZM17.3354 12.75C18.2504 12.75 18.9404 13.5814 18.7718 14.4808L20.2461 14.7572C20.5878 12.9347 19.1896 11.25 17.3354 11.25V12.75ZM17.3354 11.25C15.9102 11.25 14.6872 12.265 14.4246 13.6657L15.8989 13.9421C16.0285 13.2509 16.6321 12.75 17.3354 12.75V11.25ZM3.75391 14.7572L4.30401 17.6911L5.77832 17.4146L5.22822 14.4808L3.75391 14.7572ZM7.98978 20.75H10V19.25H7.98978V20.75ZM10.7372 19.8618L9.57539 13.6657L8.10108 13.9421L9.26285 20.1382L10.7372 19.8618ZM4.30401 17.6911C4.63657 19.4647 6.18522 20.75 7.98978 20.75V19.25C6.90705 19.25 5.97785 18.4788 5.77832 17.4146L4.30401 17.6911ZM6.66465 11.25C4.81036 11.25 3.41219 12.9347 3.75391 14.7572L5.22822 14.4808C5.05958 13.5814 5.74957 12.75 6.66465 12.75V11.25ZM6.66465 12.75C7.36793 12.75 7.97147 13.2509 8.10108 13.9421L9.57539 13.6657C9.31276 12.265 8.08975 11.25 6.66465 11.25V12.75ZM3.25 11C3.25 11.9798 3.62674 12.8733 4.24192 13.5408L5.34494 12.5243C4.97497 12.1228 4.75 11.5885 4.75 11H3.25ZM5.7588 7.4605C4.29874 7.97248 3.25 9.3628 3.25 11H4.75C4.75 10.0196 5.37754 9.18374 6.25515 8.876L5.7588 7.4605ZM5.25 8C5.25 8.07747 5.25322 8.15435 5.25956 8.2305L6.75439 8.106C6.75149 8.07121 6.75 8.03586 6.75 8H5.25ZM8 5.25C6.48122 5.25 5.25 6.48122 5.25 8H6.75C6.75 7.30964 7.30964 6.75 8 6.75V5.25ZM8.68627 5.33651C8.4661 5.2799 8.236 5.25 8 5.25V6.75C8.10895 6.75 8.21359 6.76376 8.31275 6.78926L8.68627 5.33651ZM12 3.25C10.2102 3.25 8.65268 4.24023 7.84362 5.69915L9.1554 6.42662C9.71078 5.42515 10.7771 4.75 12 4.75V3.25ZM16.1564 5.69915C15.3473 4.24023 13.7898 3.25 12 3.25V4.75C13.2229 4.75 14.2892 5.42515 14.8446 6.42662L16.1564 5.69915ZM16 5.25C15.764 5.25 15.5339 5.2799 15.3137 5.33651L15.6873 6.78926C15.7864 6.76376 15.8911 6.75 16 6.75V5.25ZM18.75 8C18.75 6.48122 17.5188 5.25 16 5.25V6.75C16.6904 6.75 17.25 7.30964 17.25 8H18.75ZM18.7404 8.23051C18.7468 8.15435 18.75 8.07747 18.75 8H17.25C17.25 8.03586 17.2485 8.07121 17.2456 8.106L18.7404 8.23051ZM20.75 11C20.75 9.3628 19.7013 7.97248 18.2412 7.4605L17.7448 8.876C18.6225 9.18374 19.25 10.0196 19.25 11H20.75ZM19.7581 13.5408C20.3733 12.8733 20.75 11.9798 20.75 11H19.25C19.25 11.5885 19.025 12.1228 18.6551 12.5243L19.7581 13.5408ZM14.2477 8.96771C14.5533 8.98374 14.788 9.24441 14.7719 9.54994L16.2699 9.62852C16.3293 8.4957 15.4591 7.52919 14.3263 7.46977L14.2477 8.96771ZM9.71108 9.47477C9.80836 9.1847 10.1224 9.02841 10.4124 9.12569L10.8894 7.70354C9.81388 7.34285 8.64961 7.92232 8.28892 8.99783L9.71108 9.47477Z" fill="black"/>
</svg>
