<svg width="24" height="24" viewBox="0 0 24 24" fill="none" xmlns="http://www.w3.org/2000/svg">
<path d="M7 10.25C6.58579 10.25 6.25 10.5858 6.25 11C6.25 11.4142 6.58579 11.75 7 11.75V10.25ZM10 17L10.6708 17.3354C10.7871 17.1029 10.7746 16.8268 10.638 16.6057C10.5013 16.3846 10.2599 16.25 10 16.25V17ZM14 17V16.25C13.7401 16.25 13.4987 16.3846 13.362 16.6057C13.2254 16.8268 13.2129 17.1029 13.3292 17.3354L14 17ZM19.25 8V15H20.75V8H19.25ZM18 16.25H6V17.75H18V16.25ZM4.75 15V10H3.25V15H4.75ZM6 8.75H12V7.25H6V8.75ZM6 16.25C5.30964 16.25 4.75 15.6904 4.75 15H3.25C3.25 16.5188 4.48122 17.75 6 17.75V16.25ZM19.25 15C19.25 15.6904 18.6904 16.25 18 16.25V17.75C19.5188 17.75 20.75 16.5188 20.75 15H19.25ZM4.75 10C4.75 9.30964 5.30964 8.75 6 8.75V7.25C4.48122 7.25 3.25 8.48122 3.25 10H4.75ZM19.25 8C19.25 9.79493 17.7949 11.25 16 11.25V12.75C18.6234 12.75 20.75 10.6234 20.75 8H19.25ZM16 11.25C14.2051 11.25 12.75 9.79493 12.75 8H11.25C11.25 10.6234 13.3766 12.75 16 12.75V11.25ZM12.75 8C12.75 6.20507 14.2051 4.75 16 4.75V3.25C13.3766 3.25 11.25 5.37665 11.25 8H12.75ZM16 4.75C17.7949 4.75 19.25 6.20507 19.25 8H20.75C20.75 5.37665 18.6234 3.25 16 3.25V4.75ZM15.75 8C15.75 7.86193 15.8619 7.75 16 7.75V9.25C16.6904 9.25 17.25 8.69036 17.25 8H15.75ZM16 7.75C16.1381 7.75 16.25 7.86193 16.25 8H14.75C14.75 8.69036 15.3096 9.25 16 9.25V7.75ZM16.25 8C16.25 8.13807 16.1381 8.25 16 8.25V6.75C15.3096 6.75 14.75 7.30964 14.75 8H16.25ZM16 8.25C15.8619 8.25 15.75 8.13807 15.75 8H17.25C17.25 7.30964 16.6904 6.75 16 6.75V8.25ZM7 11.75H9V10.25H7V11.75ZM6 17.75H10V16.25H6V17.75ZM9.32918 16.6646L8.24377 18.8354L9.58541 19.5062L10.6708 17.3354L9.32918 16.6646ZM7.57295 19.25H7.5V20.75H7.57295V19.25ZM6.75 18.5V17H5.25V18.5H6.75ZM7.5 19.25C7.08579 19.25 6.75 18.9142 6.75 18.5H5.25C5.25 19.7426 6.25736 20.75 7.5 20.75V19.25ZM8.24377 18.8354C8.11673 19.0895 7.85703 19.25 7.57295 19.25V20.75C8.42519 20.75 9.20428 20.2685 9.58541 19.5062L8.24377 18.8354ZM18 16.25H14V17.75H18V16.25ZM13.3292 17.3354L14.4146 19.5062L15.7562 18.8354L14.6708 16.6646L13.3292 17.3354ZM16.4271 20.75H16.5V19.25H16.4271V20.75ZM18.75 18.5V17H17.25V18.5H18.75ZM16.5 20.75C17.7426 20.75 18.75 19.7426 18.75 18.5H17.25C17.25 18.9142 16.9142 19.25 16.5 19.25V20.75ZM14.4146 19.5062C14.7957 20.2685 15.5748 20.75 16.4271 20.75V19.25C16.143 19.25 15.8833 19.0895 15.7562 18.8354L14.4146 19.5062Z" fill="black"/>
</svg>
