<svg width="24" height="24" viewBox="0 0 24 24" fill="none" xmlns="http://www.w3.org/2000/svg">
<path d="M18.2715 12.8889C18.2715 12.4747 18.6073 12.1389 19.0215 12.1389C19.4357 12.1389 19.7715 12.4747 19.7715 12.8889H18.2715ZM17.072 6.95963C17.3843 7.23171 17.4169 7.70547 17.1449 8.01778C16.8728 8.3301 16.399 8.36271 16.0867 8.09062L17.072 6.95963ZM16.4937 4C16.4937 3.58579 16.8295 3.25 17.2437 3.25C17.6579 3.25 17.9937 3.58579 17.9937 4H16.4937ZM17.2437 8.26697H17.9937C17.9937 8.68118 17.6579 9.01697 17.2437 9.01697V8.26697ZM12.9767 9.01697C12.5625 9.01697 12.2267 8.68118 12.2267 8.26697C12.2267 7.85276 12.5625 7.51697 12.9767 7.51697V9.01697ZM5.54926 12.8889C5.54926 16.402 8.39723 19.25 11.9104 19.25V20.75C7.5688 20.75 4.04926 17.2305 4.04926 12.8889H5.54926ZM11.9104 19.25C15.4235 19.25 18.2715 16.402 18.2715 12.8889H19.7715C19.7715 17.2305 16.2519 20.75 11.9104 20.75V19.25ZM11.9104 6.52778C8.39723 6.52778 5.54926 9.37574 5.54926 12.8889H4.04926C4.04926 8.54732 7.5688 5.02778 11.9104 5.02778V6.52778ZM16.0867 8.09062C14.9688 7.11675 13.5093 6.52778 11.9104 6.52778V5.02778C13.8852 5.02778 15.6915 5.75692 17.072 6.95963L16.0867 8.09062ZM17.9937 4V8.26697H16.4937V4H17.9937ZM17.2437 9.01697H12.9767V7.51697H17.2437V9.01697Z" fill="black"/>
</svg>
