<svg width="24" height="24" viewBox="0 0 24 24" fill="none" xmlns="http://www.w3.org/2000/svg">
<path d="M5.55078 12.8889C5.55078 12.4747 5.21499 12.1389 4.80078 12.1389C4.38657 12.1389 4.05078 12.4747 4.05078 12.8889H5.55078ZM6.75025 6.95963C6.43794 7.23171 6.40533 7.70547 6.67742 8.01778C6.9495 8.3301 7.42326 8.36271 7.73557 8.09062L6.75025 6.95963ZM7.32856 4C7.32856 3.58579 6.99277 3.25 6.57856 3.25C6.16435 3.25 5.82856 3.58579 5.82856 4H7.32856ZM6.57856 8.26697H5.82856C5.82856 8.68118 6.16435 9.01697 6.57856 9.01697V8.26697ZM10.8455 9.01697C11.2597 9.01697 11.5955 8.68118 11.5955 8.26697C11.5955 7.85276 11.2597 7.51697 10.8455 7.51697V9.01697ZM18.273 12.8889C18.273 16.402 15.425 19.25 11.9119 19.25V20.75C16.2535 20.75 19.773 17.2305 19.773 12.8889H18.273ZM11.9119 19.25C8.39875 19.25 5.55078 16.402 5.55078 12.8889H4.05078C4.05078 17.2305 7.57032 20.75 11.9119 20.75V19.25ZM11.9119 6.52778C15.425 6.52778 18.273 9.37574 18.273 12.8889H19.773C19.773 8.54732 16.2535 5.02778 11.9119 5.02778V6.52778ZM7.73557 8.09062C8.85342 7.11675 10.3129 6.52778 11.9119 6.52778V5.02778C9.93711 5.02778 8.13077 5.75692 6.75025 6.95963L7.73557 8.09062ZM5.82856 4V8.26697H7.32856V4H5.82856ZM6.57856 9.01697H10.8455V7.51697H6.57856V9.01697Z" fill="black"/>
</svg>
