<svg width="24" height="24" viewBox="0 0 24 24" fill="none" xmlns="http://www.w3.org/2000/svg">
<path d="M12 8V11M12 15V20M15 20L9 20M17.5239 12.2191L16.2739 11.2191C16.0966 11.0773 15.8763 11 15.6492 11H7C6.44772 11 6 11.4477 6 12V14C6 14.5523 6.44772 15 7 15H15.6492C15.8763 15 16.0966 14.9227 16.2739 14.7809L17.5239 13.7809C18.0243 13.3805 18.0243 12.6195 17.5239 12.2191ZM6.47609 5.21913L7.72609 4.21913C7.9034 4.07728 8.12371 4 8.35078 4H17C17.5523 4 18 4.44772 18 5V7C18 7.55228 17.5523 8 17 8H8.35078C8.12371 8 7.9034 7.92272 7.72609 7.78087L6.47609 6.78087C5.97568 6.38054 5.97568 5.61946 6.47609 5.21913Z" stroke="black" stroke-width="1.5" stroke-linecap="round" stroke-linejoin="round"/>
</svg>
