<svg width="24" height="24" viewBox="0 0 24 24" fill="none" xmlns="http://www.w3.org/2000/svg">
<path d="M17.5 7C17.5 7.27614 17.2761 7.5 17 7.5C16.7239 7.5 16.5 7.27614 16.5 7C16.5 6.72386 16.7239 6.5 17 6.5C17.2761 6.5 17.5 6.72386 17.5 7Z" fill="black"/>
<path d="M7.5 16C7.5 16.2761 7.27614 16.5 7 16.5C6.72386 16.5 6.5 16.2761 6.5 16C6.5 15.7239 6.72386 15.5 7 15.5C7.27614 15.5 7.5 15.7239 7.5 16Z" fill="black"/>
<path d="M17 11C17 11 20 9.25 20 7.0625C20 5.37113 18.6569 4 17 4C15.3431 4 14 5.37113 14 7.0625C14 9.25 17 11 17 11ZM17 11H14.25C13.0074 11 12 12.0074 12 13.25C12 14.4926 13.0074 15.5 14.25 15.5H17.75C18.9926 15.5 20 16.5074 20 17.75C20 18.9926 18.9926 20 17.75 20H7M7 20C7 20 10 18.25 10 16.0625C10 14.3711 8.65685 13 7 13C5.34315 13 4 14.3711 4 16.0625C4 18.25 7 20 7 20ZM17.5 7C17.5 7.27614 17.2761 7.5 17 7.5C16.7239 7.5 16.5 7.27614 16.5 7C16.5 6.72386 16.7239 6.5 17 6.5C17.2761 6.5 17.5 6.72386 17.5 7ZM7.5 16C7.5 16.2761 7.27614 16.5 7 16.5C6.72386 16.5 6.5 16.2761 6.5 16C6.5 15.7239 6.72386 15.5 7 15.5C7.27614 15.5 7.5 15.7239 7.5 16Z" stroke="black" stroke-width="1.5" stroke-linejoin="round"/>
</svg>
