<svg width="24" height="24" viewBox="0 0 24 24" fill="none" xmlns="http://www.w3.org/2000/svg">
<path d="M5.79423 19.8663L5.70265 20.6107H5.70265L5.79423 19.8663ZM4.13372 18.2058L3.38933 18.2973L3.38933 18.2973L4.13372 18.2058ZM18.2058 4.13373L18.2974 3.38934L18.2974 3.38934L18.2058 4.13373ZM19.8663 5.79423L20.6107 5.70266L20.6107 5.70265L19.8663 5.79423ZM8.25 20C8.25 20.4142 8.58579 20.75 9 20.75C9.41421 20.75 9.75 20.4142 9.75 20H8.25ZM20 9.75C20.4142 9.75 20.75 9.41421 20.75 9C20.75 8.58579 20.4142 8.25 20 8.25V9.75ZM9.87306 8.81237C9.58016 8.51947 9.10529 8.51947 8.8124 8.81237C8.5195 9.10526 8.5195 9.58013 8.8124 9.87303L9.87306 8.81237ZM10.7528 11.8135C11.0457 12.1064 11.5206 12.1064 11.8135 11.8135C12.1064 11.5206 12.1064 11.0457 11.8135 10.7528L10.7528 11.8135ZM12.2527 7.31117C11.9598 7.01828 11.4849 7.01828 11.192 7.31117C10.8991 7.60407 10.8991 8.07894 11.192 8.37183L12.2527 7.31117ZM13.1324 10.3123C13.4253 10.6052 13.9002 10.6052 14.1931 10.3123C14.486 10.0194 14.486 9.54451 14.1931 9.25161L13.1324 10.3123ZM8.35981 11.18C8.06692 10.8871 7.59205 10.8871 7.29915 11.18C7.00626 11.4729 7.00626 11.9478 7.29915 12.2407L8.35981 11.18ZM9.23959 14.1811C9.53249 14.474 10.0074 14.474 10.3003 14.1811C10.5931 13.8882 10.5931 13.4134 10.3003 13.1205L9.23959 14.1811ZM8.11005 12.4276C7.96368 12.8151 8.15915 13.2479 8.54664 13.3942C8.93413 13.5406 9.36691 13.3451 9.51328 12.9576L8.11005 12.4276ZM12.9556 9.51409C13.3435 9.36884 13.5402 8.93662 13.3949 8.54871C13.2497 8.1608 12.8174 7.9641 12.4295 8.10935L12.9556 9.51409ZM5.88581 19.1219C5.35467 19.0565 4.94346 18.6453 4.87811 18.1142L3.38933 18.2973C3.53874 19.5117 4.48827 20.4613 5.70265 20.6107L5.88581 19.1219ZM4.87811 18.1142C4.58446 15.7273 4.52744 11.0038 7.76563 7.76562L6.70497 6.70496C2.94552 10.4644 3.08476 15.8217 3.38933 18.2973L4.87811 18.1142ZM7.76563 7.76562C11.0038 4.52743 15.7273 4.58445 18.1142 4.87811L18.2974 3.38934C15.8217 3.08476 10.4644 2.94551 6.70497 6.70496L7.76563 7.76562ZM18.1142 4.87811C18.6453 4.94346 19.0565 5.35467 19.1219 5.88582L20.6107 5.70265C20.4613 4.48828 19.5117 3.53875 18.2974 3.38934L18.1142 4.87811ZM19.1219 5.88581C19.4155 8.27273 19.4726 12.9962 16.2344 16.2344L17.295 17.295C21.0545 13.5356 20.9152 8.17831 20.6107 5.70266L19.1219 5.88581ZM16.2344 16.2344C12.9962 19.4726 8.27273 19.4155 5.88581 19.1219L5.70265 20.6107C8.17831 20.9152 13.5356 21.0545 17.295 17.295L16.2344 16.2344ZM4 15.75C6.34721 15.75 8.25 17.6528 8.25 20H9.75C9.75 16.8244 7.17563 14.25 4 14.25V15.75ZM20 8.25C17.6528 8.25 15.75 6.34721 15.75 4H14.25C14.25 7.17563 16.8244 9.75 20 9.75V8.25ZM8.8124 9.87303L10.7528 11.8135L11.8135 10.7528L9.87306 8.81237L8.8124 9.87303ZM11.192 8.37183L13.1324 10.3123L14.1931 9.25161L12.2527 7.31117L11.192 8.37183ZM7.29915 12.2407L9.23959 14.1811L10.3003 13.1205L8.35981 11.18L7.29915 12.2407ZM9.51328 12.9576C10.1495 11.2733 11.2841 10.14 12.9556 9.51409L12.4295 8.10935C10.3504 8.88791 8.89788 10.3419 8.11005 12.4276L9.51328 12.9576Z" fill="black"/>
</svg>
