<svg width="24" height="24" viewBox="0 0 24 24" fill="none" xmlns="http://www.w3.org/2000/svg">
<path d="M16.25 19C16.25 19.4142 16.5858 19.75 17 19.75C17.4142 19.75 17.75 19.4142 17.75 19H16.25ZM13 10.25C12.5858 10.25 12.25 10.5858 12.25 11C12.25 11.4142 12.5858 11.75 13 11.75V10.25ZM6 8.75C6.41421 8.75 6.75 8.41421 6.75 8C6.75 7.58579 6.41421 7.25 6 7.25V8.75ZM6 14.75C6.41421 14.75 6.75 14.4142 6.75 14C6.75 13.5858 6.41421 13.25 6 13.25V14.75ZM6.25 19C6.25 19.4142 6.58579 19.75 7 19.75C7.41421 19.75 7.75 19.4142 7.75 19H6.25ZM7 5.75H17V4.25H7V5.75ZM19.25 8V14H20.75V8H19.25ZM17 16.25H7V17.75H17V16.25ZM4.75 14V8H3.25V14H4.75ZM7 16.25C5.75736 16.25 4.75 15.2426 4.75 14H3.25C3.25 16.0711 4.92893 17.75 7 17.75V16.25ZM19.25 14C19.25 15.2426 18.2426 16.25 17 16.25V17.75C19.0711 17.75 20.75 16.0711 20.75 14H19.25ZM17 5.75C18.2426 5.75 19.25 6.75736 19.25 8H20.75C20.75 5.92893 19.0711 4.25 17 4.25V5.75ZM7 4.25C4.92893 4.25 3.25 5.92893 3.25 8H4.75C4.75 6.75736 5.75736 5.75 7 5.75V4.25ZM16.25 17V19H17.75V17H16.25ZM15 10.25H13V11.75H15V10.25ZM6 7.25H4V8.75H6V7.25ZM6 13.25H4V14.75H6V13.25ZM6.25 17V19H7.75V17H6.25ZM14.25 11C14.25 12.2426 13.2426 13.25 12 13.25V14.75C14.0711 14.75 15.75 13.0711 15.75 11H14.25ZM12 13.25C10.7574 13.25 9.75 12.2426 9.75 11H8.25C8.25 13.0711 9.92893 14.75 12 14.75V13.25ZM9.75 11C9.75 9.75736 10.7574 8.75 12 8.75V7.25C9.92893 7.25 8.25 8.92893 8.25 11H9.75ZM12 8.75C13.2426 8.75 14.25 9.75736 14.25 11H15.75C15.75 8.92893 14.0711 7.25 12 7.25V8.75Z" fill="black"/>
</svg>
