<svg width="24" height="24" viewBox="0 0 24 24" fill="none" xmlns="http://www.w3.org/2000/svg">
<path d="M16.4444 20V15.8889C16.4444 14.7843 15.549 13.8889 14.4444 13.8889H9.55554C8.45097 13.8889 7.55554 14.7843 7.55554 15.8889V20M7.55554 4V6.44444C7.55554 7.54901 8.45097 8.44444 9.55554 8.44444H14.6667M19.1213 7.56577L16.4342 4.87868C15.8716 4.31607 15.1085 4 14.3129 4L6.99999 4.00002C5.34314 4.00003 4 5.34317 4 7.00002V17C4 18.6569 5.34315 20 7 20H17C18.6568 20 20 18.6569 20 17V9.68708C20 8.89144 19.6839 8.12837 19.1213 7.56577Z" stroke="black" stroke-width="1.5" stroke-linecap="round" stroke-linejoin="round"/>
</svg>
