<svg width="24" height="24" viewBox="0 0 24 24" fill="none" xmlns="http://www.w3.org/2000/svg">
<path d="M13.5 9.5H11.25C10.5596 9.5 10 10.0596 10 10.75C10 11.4404 10.5596 12 11.25 12H12.75C13.4404 12 14 12.5596 14 13.25C14 13.9404 13.4404 14.5 12.75 14.5H10.5M12 8.5V9M12 15V15.5M20 12C20 16.4183 16.4183 20 12 20C7.58172 20 4 16.4183 4 12C4 7.58172 7.58172 4 12 4M18 4V8M19.9142 7.08579L18.3536 8.64645C18.1583 8.84171 17.8417 8.84171 17.6464 8.64645L16.0858 7.08579" stroke="black" stroke-width="1.5" stroke-linecap="round" stroke-linejoin="round"/>
</svg>
