<svg width="24" height="24" viewBox="0 0 24 24" fill="none" xmlns="http://www.w3.org/2000/svg">
<path d="M6 20C10 18.6667 14 18.6667 18 20M10 7.2698L7 11.2698H10V13.2698M13 7.2698V13.2698M13 11.2698L17 7.2698M17 13.2698L14 10.2698M17.6552 16.4997C13.8851 15.8334 10.1149 15.8334 6.34476 16.4997C5.12128 16.7159 4 15.7821 4 14.5396V6C4 4.75756 5.12128 3.82367 6.34476 4.03989C10.1149 4.70617 13.8851 4.70617 17.6552 4.03989C18.8787 3.82367 20 4.75756 20 6V14.5396C20 15.7821 18.8787 16.7159 17.6552 16.4997Z" stroke="black" stroke-width="1.5" stroke-linecap="round" stroke-linejoin="round"/>
</svg>
