<svg width="24" height="24" viewBox="0 0 24 24" fill="none" xmlns="http://www.w3.org/2000/svg">
<path d="M7 12.25C6.58579 12.25 6.25 12.5858 6.25 13C6.25 13.4142 6.58579 13.75 7 13.75V12.25ZM17 13.75C17.4142 13.75 17.75 13.4142 17.75 13C17.75 12.5858 17.4142 12.25 17 12.25V13.75ZM17.75 9.25V12H19.25V9.25H17.75ZM12.75 13V9.25H11.25V13H12.75ZM15.25 6.75C16.6307 6.75 17.75 7.86929 17.75 9.25H19.25C19.25 7.04086 17.4591 5.25 15.25 5.25V6.75ZM15.25 5.25C13.0409 5.25 11.25 7.04086 11.25 9.25H12.75C12.75 7.86929 13.8693 6.75 15.25 6.75V5.25ZM4.75 9.25V12H6.25V9.25H4.75ZM8.75 5.25C6.54086 5.25 4.75 7.04086 4.75 9.25H6.25C6.25 7.86929 7.36929 6.75 8.75 6.75V5.25ZM8.75 6.75C10.1307 6.75 11.25 7.86929 11.25 9.25H12.75C12.75 7.04086 10.9591 5.25 8.75 5.25V6.75ZM19.25 13.5V16H20.75V13.5H19.25ZM18 17.25H17V18.75H18V17.25ZM17.75 18V13.5H16.25V18H17.75ZM19.25 16C19.25 16.6904 18.6904 17.25 18 17.25V18.75C19.5188 18.75 20.75 17.5188 20.75 16H19.25ZM18.5 12.75C18.9142 12.75 19.25 13.0858 19.25 13.5H20.75C20.75 12.2574 19.7426 11.25 18.5 11.25V12.75ZM18.5 11.25C17.2574 11.25 16.25 12.2574 16.25 13.5H17.75C17.75 13.0858 18.0858 12.75 18.5 12.75V11.25ZM6.25 13.5V18H7.75V13.5H6.25ZM7 17.25H6V18.75H7V17.25ZM4.75 16V13.5H3.25V16H4.75ZM6 17.25C5.30964 17.25 4.75 16.6904 4.75 16H3.25C3.25 17.5188 4.48122 18.75 6 18.75V17.25ZM5.5 12.75C5.91421 12.75 6.25 13.0858 6.25 13.5H7.75C7.75 12.2574 6.74264 11.25 5.5 11.25V12.75ZM5.5 11.25C4.25736 11.25 3.25 12.2574 3.25 13.5H4.75C4.75 13.0858 5.08579 12.75 5.5 12.75V11.25ZM7 18.75H17V17.25H7V18.75ZM7 13.75H17V12.25H7V13.75Z" fill="black"/>
</svg>
