<svg width="24" height="24" viewBox="0 0 24 24" fill="none" xmlns="http://www.w3.org/2000/svg">
<path d="M9.472 13.208L14.936 16.392M14.928 7.608L9.472 10.792M19.4 6.4C19.4 7.72548 18.3255 8.8 17 8.8C15.6745 8.8 14.6 7.72548 14.6 6.4C14.6 5.07452 15.6745 4 17 4C18.3255 4 19.4 5.07452 19.4 6.4ZM9.8 12C9.8 13.3255 8.72548 14.4 7.4 14.4C6.07452 14.4 5 13.3255 5 12C5 10.6745 6.07452 9.6 7.4 9.6C8.72548 9.6 9.8 10.6745 9.8 12ZM19.4 17.6C19.4 18.9255 18.3255 20 17 20C15.6745 20 14.6 18.9255 14.6 17.6C14.6 16.2745 15.6745 15.2 17 15.2C18.3255 15.2 19.4 16.2745 19.4 17.6Z" stroke="black" stroke-width="1.5" stroke-linecap="round" stroke-linejoin="round"/>
</svg>
