<svg width="24" height="24" viewBox="0 0 24 24" fill="none" xmlns="http://www.w3.org/2000/svg">
<path d="M11.2426 18.2427L10.7123 18.773L10.7123 18.773L11.2426 18.2427ZM5.12132 12.1213L5.65165 11.591H5.65165L5.12132 12.1213ZM5.12132 7.8787L4.59099 7.34837L4.59099 7.34837L5.12132 7.8787ZM8.94606 4.05396L8.41573 3.52363V3.52363L8.94606 4.05396ZM15.75 7.00002C15.75 6.58581 15.4142 6.25002 15 6.25002C14.5858 6.25002 14.25 6.58581 14.25 7.00002H15.75ZM10.4544 5.8193L11.1969 5.92537L10.4544 5.8193ZM10.5892 4.87554L11.3317 4.98161V4.98161L10.5892 4.87554ZM13.0775 9.92327L12.862 10.6416L13.0775 9.92327ZM17.5 14L17.2215 14.6964L17.5 14ZM6.03033 7.46969C5.73744 7.1768 5.26256 7.1768 4.96967 7.46969C4.67678 7.76258 4.67678 8.23746 4.96967 8.53035L6.03033 7.46969ZM9 20.75C9.41421 20.75 9.75 20.4142 9.75 20C9.75 19.5858 9.41421 19.25 9 19.25V20.75ZM4 19.25C3.58579 19.25 3.25 19.5858 3.25 20C3.25 20.4142 3.58579 20.75 4 20.75V19.25ZM6 17.75C6.41421 17.75 6.75 17.4142 6.75 17C6.75 16.5858 6.41421 16.25 6 16.25V17.75ZM4 16.25C3.58579 16.25 3.25 16.5858 3.25 17C3.25 17.4142 3.58579 17.75 4 17.75V16.25ZM18 19.25H15.4853V20.75H18V19.25ZM11.773 17.7123L5.65165 11.591L4.59099 12.6517L10.7123 18.773L11.773 17.7123ZM5.65165 8.40903L9.47639 4.58429L8.41573 3.52363L4.59099 7.34837L5.65165 8.40903ZM14.25 7.00002V8.49288H15.75V7.00002H14.25ZM14.25 8.49288V10.3074H15.75V8.49288H14.25ZM19.25 17.6926V18H20.75V17.6926H19.25ZM11.1969 5.92537L11.3317 4.98161L9.84675 4.76947L9.71193 5.71323L11.1969 5.92537ZM12.862 10.6416C14.3014 11.0735 15.75 9.99563 15.75 8.49288H14.25C14.25 8.99084 13.77 9.34799 13.293 9.2049L12.862 10.6416ZM13.293 9.2049C11.8792 8.78077 10.9881 7.38656 11.1969 5.92537L9.71193 5.71323C9.39823 7.90909 10.7374 10.0043 12.862 10.6416L13.293 9.2049ZM17.2215 14.6964C18.4466 15.1864 19.25 16.3731 19.25 17.6926H20.75C20.75 15.7597 19.5732 14.0215 17.7785 13.3037L17.2215 14.6964ZM9.47639 4.58429C9.5235 4.53718 9.56451 4.52307 9.59711 4.51876C9.63526 4.51372 9.68201 4.52026 9.7283 4.54341C9.7746 4.56656 9.80788 4.60004 9.82674 4.63358C9.84286 4.66225 9.85617 4.70351 9.84675 4.76947L11.3317 4.98161C11.5652 3.34695 9.58334 2.35602 8.41573 3.52363L9.47639 4.58429ZM5.65165 11.591C4.77297 10.7123 4.77297 9.28771 5.65165 8.40903L4.59099 7.34837C3.12653 8.81283 3.12652 11.1872 4.59099 12.6517L5.65165 11.591ZM15.4853 19.25C14.0929 19.25 12.7575 18.6969 11.773 17.7123L10.7123 18.773C11.9782 20.0389 13.6951 20.75 15.4853 20.75V19.25ZM14.25 10.3074C14.25 12.2403 15.4268 13.9785 17.2215 14.6964L17.7785 13.3037C16.5534 12.8136 15.75 11.627 15.75 10.3074H14.25ZM18 20.75C19.5188 20.75 20.75 19.5188 20.75 18H19.25C19.25 18.6904 18.6904 19.25 18 19.25V20.75ZM13.773 15.2123L6.03033 7.46969L4.96967 8.53035L12.7123 16.273L13.773 15.2123ZM19.5 16.75H17.4853V18.25H19.5V16.75ZM12.7123 16.273C13.9782 17.5389 15.6951 18.25 17.4853 18.25V16.75C16.0929 16.75 14.7575 16.1969 13.773 15.2123L12.7123 16.273ZM9 19.25H4V20.75H9V19.25ZM6 16.25H4V17.75H6V16.25Z" fill="black"/>
</svg>
