<svg width="24" height="24" viewBox="0 0 24 24" fill="none" xmlns="http://www.w3.org/2000/svg">
<path d="M15.8398 12C15.8398 11.5858 15.504 11.25 15.0898 11.25C14.6756 11.25 14.3398 11.5858 14.3398 12H15.8398ZM11.8898 15.2V15.95V15.2ZM9.43979 12C9.43979 11.5858 9.104 11.25 8.68979 11.25C8.27557 11.25 7.93979 11.5858 7.93979 12H9.43979ZM19.8735 8.57826L20.5919 8.36275L19.8735 8.57826ZM4.00001 9.4403L4.75001 9.4403V9.4403H4.00001ZM4.12653 8.57827L3.40816 8.36276L4.12653 8.57827ZM4 17L4.75 17L4 17ZM19.1414 6.13795L18.423 6.35346L19.1414 6.13795ZM4.85862 6.13796L5.57699 6.35347L4.85862 6.13796ZM14.3398 12C14.3398 12.6498 14.0817 13.2729 13.6222 13.7324L14.6829 14.7931C15.4236 14.0523 15.8398 13.0476 15.8398 12H14.3398ZM13.6222 13.7324C13.1627 14.1919 12.5396 14.45 11.8898 14.45V15.95C12.9374 15.95 13.9421 15.5338 14.6829 14.7931L13.6222 13.7324ZM11.8898 14.45C11.24 14.45 10.6168 14.1919 10.1574 13.7324L9.09672 14.7931C9.83749 15.5338 10.8422 15.95 11.8898 15.95V14.45ZM10.1574 13.7324C9.69791 13.2729 9.43979 12.6498 9.43979 12H7.93979C7.93979 13.0476 8.35595 14.0523 9.09672 14.7931L10.1574 13.7324ZM4 9.75H19.7796V8.25H4V9.75ZM4.8449 8.79378L5.57699 6.35347L4.14025 5.92245L3.40816 8.36276L4.8449 8.79378ZM18.423 6.35346L19.1551 8.79377L20.5919 8.36275L19.8598 5.92244L18.423 6.35346ZM19.1551 8.79377C19.218 9.00352 19.25 9.22133 19.25 9.44031H20.75C20.75 9.07534 20.6967 8.71233 20.5919 8.36275L19.1551 8.79377ZM4.75001 9.4403C4.75001 9.22132 4.78198 9.00352 4.8449 8.79378L3.40816 8.36276C3.30329 8.71233 3.25001 9.07534 3.25001 9.4403H4.75001ZM3.25 17C3.25 19.0711 4.92893 20.75 7 20.75V19.25C5.75736 19.25 4.75 18.2426 4.75 17L3.25 17ZM19.25 17C19.25 18.2426 18.2427 19.25 17 19.25V20.75C19.0711 20.75 20.75 19.0711 20.75 17H19.25ZM16.2679 4.75C17.2615 4.75 18.1375 5.40175 18.423 6.35346L19.8598 5.92244C19.3839 4.33625 17.9239 3.25 16.2679 3.25V4.75ZM7.7321 3.25C6.07606 3.25 4.6161 4.33626 4.14025 5.92245L5.57699 6.35347C5.8625 5.40176 6.73848 4.75 7.7321 4.75V3.25ZM19.25 9.44031V17H20.75V9.44031H19.25ZM4.75 17L4.75001 9.4403L3.25001 9.4403L3.25 17L4.75 17ZM7.7321 4.75H16.2679V3.25H7.7321V4.75ZM17 19.25H7V20.75H17V19.25Z" fill="black"/>
</svg>
