<svg width="24" height="24" viewBox="0 0 24 24" fill="none" xmlns="http://www.w3.org/2000/svg">
<path d="M4 7H10.1716C10.702 7 11.2107 7.21071 11.5858 7.58579L12.4142 8.41421C12.7893 8.78929 13.298 9 13.8284 9H20V7C20 5.34315 18.6569 4 17 4H7C5.34315 4 4 5.34315 4 7ZM4 7V21M4 21H7C8.10457 21 9 20.1046 9 19V15C9 13.8954 8.10457 13 7 13H4V21ZM14 12.5C14 12.7761 13.7761 13 13.5 13C13.2239 13 13 12.7761 13 12.5C13 12.2239 13.2239 12 13.5 12C13.7761 12 14 12.2239 14 12.5ZM14 16C14 16.2761 13.7761 16.5 13.5 16.5C13.2239 16.5 13 16.2761 13 16C13 15.7239 13.2239 15.5 13.5 15.5C13.7761 15.5 14 15.7239 14 16ZM14 19.5C14 19.7761 13.7761 20 13.5 20C13.2239 20 13 19.7761 13 19.5C13 19.2239 13.2239 19 13.5 19C13.7761 19 14 19.2239 14 19.5ZM17 12.5C17 12.7761 16.7761 13 16.5 13C16.2239 13 16 12.7761 16 12.5C16 12.2239 16.2239 12 16.5 12C16.7761 12 17 12.2239 17 12.5ZM17 16C17 16.2761 16.7761 16.5 16.5 16.5C16.2239 16.5 16 16.2761 16 16C16 15.7239 16.2239 15.5 16.5 15.5C16.7761 15.5 17 15.7239 17 16ZM17 19.5C17 19.7761 16.7761 20 16.5 20C16.2239 20 16 19.7761 16 19.5C16 19.2239 16.2239 19 16.5 19C16.7761 19 17 19.2239 17 19.5ZM20 12.5C20 12.7761 19.7761 13 19.5 13C19.2239 13 19 12.7761 19 12.5C19 12.2239 19.2239 12 19.5 12C19.7761 12 20 12.2239 20 12.5ZM20 16C20 16.2761 19.7761 16.5 19.5 16.5C19.2239 16.5 19 16.2761 19 16C19 15.7239 19.2239 15.5 19.5 15.5C19.7761 15.5 20 15.7239 20 16ZM20 19.5C20 19.7761 19.7761 20 19.5 20C19.2239 20 19 19.7761 19 19.5C19 19.2239 19.2239 19 19.5 19C19.7761 19 20 19.2239 20 19.5Z" stroke="black" stroke-width="1.5" stroke-linejoin="round"/>
</svg>
