<svg width="24" height="24" viewBox="0 0 24 24" fill="none" xmlns="http://www.w3.org/2000/svg">
<path d="M12.5033 14.5345C12.3843 14.9312 12.6094 15.3493 13.0061 15.4684C13.4029 15.5874 13.821 15.3623 13.94 14.9655L12.5033 14.5345ZM15.6885 6.52713L14.9701 6.31162L14.9701 6.31162L15.6885 6.52713ZM14.3329 4.02857L14.5242 3.3034L14.5242 3.3034L14.3329 4.02857ZM10.1104 4.02857L9.91906 3.3034L9.91906 3.3034L10.1104 4.02857ZM8.75479 6.52713L9.47316 6.31162L9.47316 6.31162L8.75479 6.52713ZM10.5033 14.9655C10.6223 15.3623 11.0404 15.5874 11.4372 15.4684C11.8339 15.3493 12.059 14.9312 11.94 14.5345L10.5033 14.9655ZM15.8862 4.07918L15.2154 4.41459L15.8862 5.75623L16.5571 5.42082L15.8862 4.07918ZM18.1446 4.56767L18.2936 3.83262V3.83262L18.1446 4.56767ZM19.519 7.33075L20.2044 7.63537L20.2044 7.63537L19.519 7.33075ZM7.88624 5.42082L8.55706 5.75623L9.22788 4.41459L8.55705 4.07918L7.88624 5.42082ZM6.29866 4.56767L6.14968 3.83262L6.14968 3.83262L6.29866 4.56767ZM4.92425 7.33075L4.23889 7.63537L4.2389 7.63537L4.92425 7.33075ZM9.72165 9.75L10.0379 9.06995C9.75214 8.93705 9.41377 8.99698 9.19104 9.21995L9.72165 9.75ZM14.7216 9.75L15.2523 9.21995C15.0279 8.9954 14.6866 8.93636 14.3999 9.07254L14.7216 9.75ZM17.743 11.9346C18.1558 11.9688 18.5182 11.6619 18.5524 11.2491C18.5867 10.8363 18.2798 10.4739 17.867 10.4397L17.743 11.9346ZM6.57629 10.4397C6.16349 10.4739 5.85662 10.8363 5.89088 11.2491C5.92513 11.6619 6.28753 11.9688 6.70033 11.9346L6.57629 10.4397ZM8.22165 15.4994H16.2216V13.9994H8.22165V15.4994ZM15.4716 14.7494V15.75H16.9716V14.7494H15.4716ZM15.4716 15.75C15.4716 17.5434 14.0151 19 12.2216 19V20.5C14.8435 20.5 16.9716 18.3719 16.9716 15.75H15.4716ZM12.2216 19C10.4282 19 8.97165 17.5434 8.97165 15.75H7.47165C7.47165 18.3719 9.59977 20.5 12.2216 20.5V19ZM8.97165 15.75V14.7494H7.47165V15.75H8.97165ZM13.94 14.9655L16.4069 6.74264L14.9701 6.31162L12.5033 14.5345L13.94 14.9655ZM16.4069 6.74265C16.8401 5.29859 16.0336 3.70174 14.5242 3.3034L14.1415 4.75374C14.7797 4.92216 15.1752 5.62823 14.9701 6.31162L16.4069 6.74265ZM14.5242 3.3034C12.9913 2.89887 11.452 2.89887 9.91906 3.3034L10.3018 4.75375C11.5838 4.41542 12.8594 4.41542 14.1415 4.75375L14.5242 3.3034ZM9.91906 3.3034C8.40965 3.70174 7.6032 5.29859 8.03642 6.74264L9.47316 6.31162C9.26814 5.62822 9.66363 4.92216 10.3018 4.75375L9.91906 3.3034ZM8.03642 6.74264L10.5033 14.9655L11.94 14.5345L9.47316 6.31162L8.03642 6.74264ZM16.2216 4.75C16.5571 5.42082 16.5568 5.42095 16.5566 5.42107C16.5565 5.42111 16.5562 5.42123 16.5561 5.42131C16.5558 5.42146 16.5555 5.42161 16.5552 5.42175C16.5546 5.42204 16.5541 5.4223 16.5536 5.42254C16.5526 5.42302 16.5518 5.4234 16.5512 5.42369C16.55 5.42427 16.5496 5.4245 16.5498 5.42439C16.5503 5.42417 16.5535 5.42264 16.5595 5.42002C16.5715 5.41477 16.5941 5.40525 16.6264 5.39331C16.6913 5.36931 16.7934 5.33614 16.9252 5.30775C17.1896 5.25082 17.5636 5.21515 17.9957 5.30273L18.2936 3.83262C17.6169 3.69545 17.0293 3.75095 16.6094 3.84137C16.3991 3.88665 16.2284 3.9412 16.1059 3.98651C16.0446 4.00921 15.9949 4.02975 15.9581 4.04588C15.9396 4.05395 15.9243 4.06095 15.9123 4.06658C15.9063 4.0694 15.9011 4.07188 15.8968 4.07399C15.8946 4.07505 15.8926 4.07601 15.8909 4.07688C15.89 4.07731 15.8892 4.07772 15.8884 4.0781C15.888 4.07829 15.8876 4.07848 15.8873 4.07866C15.8871 4.07875 15.8868 4.07888 15.8868 4.07892C15.8865 4.07905 15.8862 4.07918 16.2216 4.75ZM17.9957 5.30273C18.7251 5.45057 19.1616 6.28841 18.8337 7.02613L20.2044 7.63537C20.8961 6.07903 20.0246 4.18346 18.2936 3.83262L17.9957 5.30273ZM18.8337 7.02613L15.5363 14.4448L16.907 15.054L20.2044 7.63537L18.8337 7.02613ZM8.22165 4.75C8.55705 4.07918 8.5568 4.07905 8.55654 4.07892C8.55645 4.07888 8.55619 4.07875 8.55601 4.07866C8.55565 4.07848 8.55528 4.07829 8.55489 4.0781C8.55411 4.07772 8.55329 4.07731 8.55241 4.07688C8.55065 4.07601 8.54868 4.07505 8.54651 4.07399C8.54215 4.07188 8.53697 4.0694 8.53096 4.06658C8.51896 4.06095 8.50367 4.05395 8.48523 4.04588C8.44836 4.02975 8.39872 4.00921 8.33737 3.98651C8.21491 3.9412 8.04416 3.88665 7.83385 3.84137C7.41395 3.75095 6.82644 3.69545 6.14968 3.83262L6.44764 5.30273C6.87972 5.21515 7.2537 5.25082 7.51809 5.30775C7.64991 5.33614 7.75201 5.36931 7.81685 5.39331C7.84915 5.40525 7.87178 5.41477 7.88377 5.42002C7.88975 5.42264 7.89304 5.42417 7.8935 5.42439C7.89373 5.4245 7.89325 5.42427 7.89205 5.42369C7.89145 5.4234 7.89066 5.42302 7.8897 5.42254C7.88921 5.4223 7.88868 5.42204 7.88811 5.42175C7.88782 5.42161 7.88752 5.42146 7.88721 5.42131C7.88705 5.42123 7.88681 5.42111 7.88673 5.42107C7.88649 5.42095 7.88624 5.42082 8.22165 4.75ZM6.14968 3.83262C4.41869 4.18346 3.54715 6.07903 4.23889 7.63537L5.6096 7.02613C5.2817 6.28841 5.71821 5.45057 6.44764 5.30273L6.14968 3.83262ZM4.2389 7.63537L7.5363 15.054L8.907 14.4448L5.6096 7.02613L4.2389 7.63537ZM9.40538 10.4301C11.288 11.3056 13.1886 11.3085 15.0434 10.4275L14.3999 9.07254C12.9565 9.7581 11.5238 9.76097 10.0379 9.06995L9.40538 10.4301ZM14.191 10.2801C15.173 11.263 16.3663 11.8203 17.743 11.9346L17.867 10.4397C16.8482 10.3551 15.9859 9.95434 15.2523 9.21995L14.191 10.2801ZM9.19104 9.21995C8.45742 9.95434 7.59514 10.3551 6.57629 10.4397L6.70033 11.9346C8.07701 11.8203 9.27029 11.263 10.2523 10.2801L9.19104 9.21995Z" fill="black"/>
</svg>
