<svg width="24" height="24" viewBox="0 0 24 24" fill="none" xmlns="http://www.w3.org/2000/svg">
<path d="M15.3927 8.26448C15.8391 8.71037 16.1932 9.23987 16.4348 9.8227C16.6764 10.4055 16.8008 11.0303 16.8008 11.6612C16.8008 12.2921 16.6764 12.9169 16.4348 13.4997C16.1932 14.0826 15.8391 14.612 15.3927 15.0579M8.60728 15.0499C8.16089 14.604 7.80677 14.0745 7.56517 13.4917C7.32356 12.9089 7.1992 12.2841 7.1992 11.6532C7.1992 11.0223 7.32356 10.3975 7.56517 9.8147C7.80677 9.23187 8.16089 8.70237 8.60728 8.25648M17.6572 6C19.1573 7.50054 20 9.53544 20 11.6572C20 13.779 19.1573 15.8139 17.6572 17.3144M6.34279 17.3144C4.8427 15.8139 4 13.779 4 11.6572C4 9.53544 4.8427 7.50054 6.34279 6M13.6003 11.6572C13.6003 12.5411 12.8838 13.2575 12 13.2575C11.1162 13.2575 10.3997 12.5411 10.3997 11.6572C10.3997 10.7734 11.1162 10.0569 12 10.0569C12.8838 10.0569 13.6003 10.7734 13.6003 11.6572Z" stroke="black" stroke-width="1.5" stroke-linecap="round" stroke-linejoin="round"/>
</svg>
