<svg width="24" height="24" viewBox="0 0 24 24" fill="none" xmlns="http://www.w3.org/2000/svg">
<path d="M13 11L16.9487 12.3162C18.1737 12.7246 19 13.871 19 15.1623V16C19 16.5523 18.5523 17 18 17H7C5.89543 17 5 16.1046 5 15V6.78077C5 6.3219 5.3123 5.92192 5.75746 5.81062L11.7575 4.31062C12.3886 4.15284 13 4.6302 13 5.28077V11ZM13 11H10M4 20H18.1716C18.702 20 19.2107 19.7893 19.5858 19.4142L20 19M13 7.99999H10M15 17V20M8 17V20" stroke="black" stroke-width="1.5" stroke-linecap="round" stroke-linejoin="round"/>
</svg>
