<svg width="24" height="24" viewBox="0 0 24 24" fill="none" xmlns="http://www.w3.org/2000/svg">
<path d="M16.4752 13.7215L16.8194 14.0657C17.3897 14.636 18.3144 14.636 18.8847 14.0657L19.5731 13.3773C20.1435 12.807 20.1435 11.8823 19.5731 11.312L18.8847 10.6236M13.3773 5.11616L12.6889 4.42773C12.1186 3.85742 11.1939 3.85742 10.6236 4.42773L9.93518 5.11616C9.36487 5.68647 9.36487 6.61113 9.93518 7.18144L10.2794 7.52565M10.6235 18.8847L11.312 19.5731C11.8823 20.1434 12.8069 20.1434 13.3772 19.5731L14.0657 18.8847C14.636 18.3144 14.636 17.3897 14.0657 16.8194L13.7215 16.4752M7.52565 10.2794L7.18144 9.93515C6.61113 9.36484 5.68647 9.36484 5.11616 9.93515L4.42773 10.6236C3.85742 11.1939 3.85742 12.1185 4.42773 12.6889L5.11616 13.3773M13.8627 8.13815L15.8627 10.1382M8.13904 13.8619L10.139 15.8619M5.13845 18.8624C3.62166 17.3456 3.62166 14.8864 5.13845 13.3696L13.3705 5.13759C14.8873 3.6208 17.3465 3.6208 18.8633 5.13759C20.3801 6.65439 20.3801 9.11359 18.8633 10.6304L10.6312 18.8624C9.11445 20.3792 6.65524 20.3792 5.13845 18.8624Z" stroke="black" stroke-width="1.5" stroke-linecap="round" stroke-linejoin="round"/>
</svg>
