<svg width="24" height="24" viewBox="0 0 24 24" fill="none" xmlns="http://www.w3.org/2000/svg">
<path d="M12.0001 4C8.68641 4 6.00012 6.68629 6.00012 10L6.00012 14M12.0001 4C15.3138 4 18.0001 6.68629 18.0001 10L18.0001 14M12.0001 4C9.79098 4 8.00012 5.79086 8.00012 8C8.00012 10.2091 9.79098 12 12.0001 12C14.2093 12 16.0001 10.2091 16.0001 8C16.0001 5.79086 14.2093 4 12.0001 4ZM20.0001 14H16.0001M8.00012 14H4.00012M17.775 20H18.2253C19.5904 20 20.5543 18.6626 20.1226 17.3675L19.228 14.6838C19.0919 14.2754 18.7098 14 18.2794 14H17.7209C17.2904 14 16.9083 14.2754 16.7722 14.6838L15.8776 17.3675C15.4459 18.6626 16.4099 20 17.775 20ZM5.77497 20H6.22527C7.59038 20 8.55432 18.6626 8.12263 17.3675L7.22804 14.6838C7.09193 14.2754 6.70979 14 6.27936 14H5.72088C5.29045 14 4.90831 14.2754 4.77219 14.6838L3.8776 17.3675C3.44592 18.6626 4.40986 20 5.77497 20Z" stroke="black" stroke-width="1.5" stroke-linecap="round" stroke-linejoin="round"/>
</svg>
