<svg width="24" height="24" viewBox="0 0 24 24" fill="none" xmlns="http://www.w3.org/2000/svg">
<path d="M10 20V18M14 20V18M11 15.0006L12 14.0006L13 15.0006M13.9009 9.00002L15.9009 11M15.9009 9.00002L13.9009 11M10.0991 9.00002L8.09912 11M8.09912 9.00002L10.0991 11M18.9335 11.9564C18.9764 11.6436 19 11.3247 19 11C19 6.67629 15.08 3.26821 10.6002 4.13576C7.86828 4.66481 5.6679 6.86635 5.13659 9.5978C4.97888 10.4086 4.96911 11.1981 5.07214 11.9517C4.42523 12.4036 4 13.1511 4 14C4 15.3807 5.11926 16.5 6.5 16.5C6.60199 16.5 6.69891 16.4818 6.79767 16.47C6.92407 16.9677 7 17.4787 7 17.9976V18C7 19.1046 7.89545 20 9 20H15C16.1046 20 17 19.1046 17 18C17 17.4792 17.0806 16.9687 17.2098 16.4708C17.3062 16.4821 17.4006 16.5 17.5 16.5C18.8807 16.5 20 15.3807 20 14C20 13.1537 19.5769 12.4088 18.9335 11.9564Z" stroke="black" stroke-width="1.5" stroke-linecap="round" stroke-linejoin="round"/>
</svg>
