<svg width="24" height="24" viewBox="0 0 24 24" fill="none" xmlns="http://www.w3.org/2000/svg">
<path d="M19 17H5C4.44772 17 4 17.4477 4 18V19C4 19.5523 4.44772 20 5 20H19M19 17C19.5523 17 20 17.4477 20 18V19C20 19.5523 19.5523 20 19 20M19 17V20M9 17V20M20 14C20 11.7909 18.2091 10 16 10H15C16.6568 10 18 8.65685 18 7C18 5.34315 16.6568 4 15 4H13M9.83026 4C9.83026 5.65685 11.1734 7 12.8303 7C11.1199 7 9.74391 8.43122 9.8345 10.1613C9.91945 11.7836 11.3755 13 13 13H14.5858C15.4913 13 16.3597 13.3597 17 14" stroke="black" stroke-width="1.5" stroke-linecap="round" stroke-linejoin="round"/>
</svg>
