<svg width="24" height="24" viewBox="0 0 24 24" fill="none" xmlns="http://www.w3.org/2000/svg">
<path d="M12 15V17M12 15L9.37443 13.5002V10.4997L12 9M12 15L14.625 13.5V10.4999L12 9M12 17V20M12 17L9.97927 18M12 17L14.0207 18M12 9V7M12 7V4M12 7L9.97927 6M12 7L14.0207 6M14.62 13.5L19 16M9.37 10.5L5 8M16.2396 16.732L16.3746 14.4998L18.2604 13.268M5.73964 10.732L7.62473 9.49985L7.76036 7.26795M14.62 10.5L19 8M9.37 13.5L5 16M18.2604 10.732L16.3746 9.5002L16.2396 7.26795M7.76036 16.732L7.62473 14.5001L5.73964 13.268" stroke="black" stroke-width="1.5" stroke-linecap="round" stroke-linejoin="round"/>
</svg>
