<svg width="24" height="24" viewBox="0 0 24 24" fill="none" xmlns="http://www.w3.org/2000/svg">
<path d="M12.1 7.35C9.48 7.35 7.35 9.48 7.35 12.1V14.39C7.35 14.59 7.27 14.78 7.13 14.92C6.99 15.06 6.79 15.15 6.59 15.15C4.71 15.15 3.25 13.69 3.25 11.9V6.5C3.25 4.71 4.71 3.25 6.5 3.25H11.9C13.69 3.25 15.15 4.71 15.15 6.5V6.56C15.15 6.76 15.07 6.95 14.93 7.09C14.79 7.23 14.56 7.35 14.36 7.35H12.1ZM17.5 8.85H12.1C10.31 8.85 8.85 10.31 8.85 12.1V17.5C8.85 19.29 10.31 20.75 12.1 20.75H17.5C19.29 20.75 20.75 19.29 20.75 17.5V12.1C20.75 10.31 19.29 8.85 17.5 8.85Z" fill="black"/>
</svg>
