<svg width="24" height="24" viewBox="0 0 24 24" fill="none" xmlns="http://www.w3.org/2000/svg">
<path d="M9.86 15.41C9.86 15.82 9.52 16.16 9.11 16.16H9.1C8.69 16.16 8.35 15.82 8.35 15.41C8.35 15 8.69 14.66 9.1 14.66H9.11C9.52 14.66 9.86 15 9.86 15.41ZM9.11 17.57H9.1C8.69 17.57 8.35 17.91 8.35 18.32C8.35 18.73 8.69 19.07 9.1 19.07H9.11C9.52 19.07 9.86 18.73 9.86 18.32C9.86 17.91 9.52 17.57 9.11 17.57ZM12.01 16.11C11.6 16.11 11.26 16.45 11.26 16.86C11.26 17.27 11.6 17.61 12.01 17.61C12.42 17.61 12.76 17.27 12.76 16.86C12.76 16.45 12.42 16.11 12.01 16.11ZM12.01 19.02C11.6 19.02 11.26 19.36 11.26 19.77C11.26 20.18 11.6 20.52 12.01 20.52C12.42 20.52 12.76 20.18 12.76 19.77C12.76 19.36 12.42 19.02 12.01 19.02ZM14.92 14.66H14.91C14.5 14.66 14.16 15 14.16 15.41C14.16 15.82 14.5 16.16 14.91 16.16H14.92C15.33 16.16 15.67 15.82 15.67 15.41C15.67 15 15.33 14.66 14.92 14.66ZM14.92 17.57H14.91C14.5 17.57 14.16 17.91 14.16 18.32C14.16 18.73 14.5 19.07 14.91 19.07H14.92C15.33 19.07 15.67 18.73 15.67 18.32C15.67 17.91 15.33 17.57 14.92 17.57ZM19.46 9.11998C19.06 8.71998 18.58 8.39998 18.06 8.17998C17.35 5.40998 14.87 3.47998 12 3.47998C9.13 3.47998 6.65 5.40998 5.94 8.17998C5.41 8.39998 4.94 8.71998 4.54 9.11998C3.71 9.94998 3.25 11.05 3.25 12.23C3.25 13.41 3.71 14.5 4.54 15.33C5.02 15.82 5.61 16.18 6.27 16.39C6.34 16.42 6.42 16.43 6.5 16.43H7.68C7.47 16.14 7.35 15.79 7.35 15.41C7.35 15.24 7.37 15.08 7.43 14.93C7.62 14.2 8.3 13.66 9.1 13.66C9.9 13.66 10.58 14.2 10.78 14.93C10.84 15.08 10.86 15.24 10.86 15.41C10.86 15.46 10.84 15.51 10.84 15.57C11.15 15.29 11.56 15.11 12 15.11C12.44 15.11 12.87 15.29 13.18 15.57C13.18 15.52 13.16 15.46 13.16 15.41C13.16 15.24 13.18 15.08 13.24 14.93C13.44 14.2 14.11 13.66 14.91 13.66C15.71 13.66 16.4 14.2 16.59 14.93C16.65 15.08 16.67 15.24 16.67 15.41C16.67 15.79 16.55 16.14 16.34 16.43H17.5C17.58 16.43 17.66 16.42 17.74 16.39C18.38 16.18 18.98 15.81 19.46 15.33C20.29 14.5 20.75 13.4 20.75 12.23C20.75 11.06 20.29 9.94998 19.46 9.11998Z" fill="black"/>
</svg>
