<svg width="24" height="24" viewBox="0 0 24 24" fill="none" xmlns="http://www.w3.org/2000/svg">
<path d="M7.25 16C7.25 16.41 7.59 16.75 8 16.75H10.75V19C10.75 19.96 9.96 20.75 9 20.75H5C4.04 20.75 3.25 19.96 3.25 19V5C3.25 4.8 3.29 4.6 3.36 4.42L10.19 11.25H8C7.59 11.25 7.25 11.59 7.25 12C7.25 12.41 7.59 12.75 8 12.75H10.75V15.25H8C7.59 15.25 7.25 15.59 7.25 16ZM19 3.25H5C4.8 3.25 4.6 3.29 4.42 3.36L11.25 10.19V8C11.25 7.59 11.59 7.25 12 7.25C12.41 7.25 12.75 7.59 12.75 8V10.75H15.25V8C15.25 7.59 15.59 7.25 16 7.25C16.41 7.25 16.75 7.59 16.75 8V10.75H19C19.96 10.75 20.75 9.96 20.75 9V5C20.75 4.04 19.96 3.25 19 3.25Z" fill="black"/>
</svg>
