<svg width="24" height="24" viewBox="0 0 24 24" fill="none" xmlns="http://www.w3.org/2000/svg">
<path d="M20.3001 18.55L19.0501 18.56C19.2401 16.73 18.9401 14.74 17.8801 13.16C17.6101 12.77 17.2601 12.34 16.8001 11.95C17.1101 11.93 17.4201 11.95 17.7401 12C21.0501 12.67 21.1401 16.43 20.3001 18.55ZM7.20011 11.95C6.89011 11.93 6.58011 11.95 6.26011 12C2.95011 12.67 2.86011 16.43 3.70011 18.55L4.95011 18.56C4.76011 16.73 5.06011 14.74 6.12011 13.16C6.39011 12.77 6.74011 12.34 7.20011 11.95ZM12.0001 12C6.16011 12 5.89011 17.67 7.13011 20.73V20.75H16.8701V20.73C18.1201 17.67 17.8401 12 12.0101 12H12.0001ZM12.0001 9.81C13.8101 9.81 15.2801 8.34 15.2801 6.53C15.2801 4.72 13.8101 3.25 12.0001 3.25C10.1901 3.25 8.72011 4.72 8.72011 6.53C8.72011 8.34 10.1901 9.81 12.0001 9.81ZM16.4101 9.77C16.5701 9.79 16.7501 9.81 16.9201 9.81C18.4301 9.81 19.6501 8.59 19.6501 7.08C19.6501 6.42 19.4201 5.81 19.0301 5.34C18.9801 5.27 18.9201 5.21 18.8601 5.14C18.7401 5.02 18.6001 4.91 18.4601 4.81C18.3801 4.76 18.3201 4.71 18.2301 4.67C18.1001 4.6 17.9701 4.54 17.8101 4.48C17.7901 4.48 17.7701 4.47 17.7301 4.46C17.6501 4.44 17.5701 4.42 17.4701 4.39C17.3301 4.36 17.1701 4.35 17.0201 4.34H16.9201C16.7601 4.34 16.5801 4.35 16.4301 4.38C16.7501 5.03 16.9201 5.76 16.9201 6.52C16.9201 7.68 16.5301 8.74 15.8501 9.58C16.0201 9.66 16.2101 9.71 16.4101 9.75V9.77ZM7.08011 9.81C7.26011 9.81 7.43011 9.79 7.59011 9.77C7.79011 9.73 7.97011 9.67 8.15011 9.6C7.47011 8.76 7.08011 7.7 7.08011 6.54C7.08011 5.77 7.26011 5.04 7.57011 4.4C7.42011 4.37 7.24011 4.36 7.08011 4.36H6.98011C6.83011 4.37 6.67011 4.38 6.53011 4.41C6.43011 4.43 6.34011 4.45 6.27011 4.48C6.01011 4.57 5.77011 4.68 5.55011 4.83C5.47011 4.87 5.41011 4.93 5.34011 4.98C4.73011 5.48 4.34011 6.24 4.34011 7.09C4.34011 8.6 5.56011 9.82 7.07011 9.82L7.08011 9.81Z" fill="black"/>
</svg>
