<svg width="24" height="24" viewBox="0 0 24 24" fill="none" xmlns="http://www.w3.org/2000/svg">
<path d="M19.03 4.97C17.92 3.86 16.44 3.25 14.87 3.25C13.3 3.25 11.83 3.86 10.72 4.97C9.36 6.33 8.77 8.3 9.12 10.2L3.47 15.84C3.33 15.99 3.25 16.18 3.25 16.38V20C3.25 20.41 3.59 20.75 4 20.75H7.62C7.82 20.75 8.01 20.67 8.15 20.53L9.97 18.72C10.17 18.51 10.24 18.2 10.14 17.93L9.87 17.19L10.21 16.85L11.03 17.09C11.3 17.17 11.58 17.1 11.78 16.91L13.8 14.88C14.16 14.95 14.52 14.98 14.88 14.98C16.42 14.98 17.93 14.38 19.03 13.28C21.32 10.99 21.32 7.26 19.03 4.97ZM16.55 8.51L15.85 9.21C15.7 9.36 15.51 9.43 15.32 9.43C15.12 9.43 14.93 9.36 14.79 9.21C14.49 8.92 14.49 8.45 14.79 8.15L15.49 7.45C15.79 7.15 16.26 7.15 16.55 7.45C16.85 7.74 16.85 8.21 16.55 8.51Z" fill="black"/>
</svg>
