<svg width="24" height="24" viewBox="0 0 24 24" fill="none" xmlns="http://www.w3.org/2000/svg">
<path d="M19.67 19.0899C19.67 19.9099 19 20.5799 18.18 20.5799C17.36 20.5799 16.68 19.9099 16.68 19.0899C16.68 18.2699 17.35 17.5899 18.18 17.5899C19.01 17.5899 19.67 18.2599 19.67 19.0899ZM9.97 17.5899C9.14 17.5899 8.47 18.2599 8.47 19.0899C8.47 19.9199 9.14 20.5799 9.97 20.5799C10.8 20.5799 11.47 19.9099 11.47 19.0899C11.47 18.2699 10.79 17.5899 9.97 17.5899ZM20.26 8.01992C19.82 7.45992 19.17 7.14992 18.46 7.14992H8.36L7.97 5.23992C7.75 4.17992 6.81 3.41992 5.73 3.41992H4C3.59 3.41992 3.25 3.74992 3.25 4.16992C3.25 4.58992 3.59 4.91992 4 4.91992H5.73C6.1 4.91992 6.43 5.17992 6.5 5.53992L6.98 7.85992V7.89992C6.98 8.00992 7.01 8.11992 7.05 8.21992L8.15 13.5399C8.42 14.8399 9.57 15.7799 10.9 15.7799H17.08C18.38 15.7799 19.5 14.8999 19.8 13.6299L20.69 9.96992C20.85 9.28992 20.7 8.56992 20.26 8.01992Z" fill="black"/>
</svg>
