<svg width="24" height="24" viewBox="0 0 24 24" fill="none" xmlns="http://www.w3.org/2000/svg">
<path d="M17.5898 11.4699C17.8798 11.1799 17.8798 10.6999 17.5898 10.4099L10.7698 3.58994C10.6298 3.44994 10.4398 3.36994 10.2398 3.36994C10.0398 3.36994 9.84982 3.44994 9.70982 3.58994L7.67982 5.61994L5.52982 3.46994C5.23982 3.17994 4.75982 3.17994 4.46982 3.46994C4.17982 3.75994 4.17982 4.23994 4.46982 4.52994L6.61982 6.67994L4.05982 9.24994C2.98982 10.3199 2.98982 12.0699 4.05982 13.1399L8.04982 17.1299C8.57982 17.6699 9.28982 17.9299 9.98982 17.9299C10.6898 17.9299 11.3998 17.6699 11.9298 17.1299L17.5898 11.4699ZM5.11982 10.3099L7.67982 7.73994L8.46982 8.52994C8.61982 8.67994 8.80982 8.74994 8.99982 8.74994C9.18982 8.74994 9.37982 8.67994 9.52982 8.52994C9.81982 8.23994 9.81982 7.75994 9.52982 7.46994L8.73982 6.67994L10.2398 5.17994L15.7798 10.7199C15.5998 10.7799 15.4098 10.8299 15.2198 10.8699C15.1898 10.8799 15.1698 10.8799 15.1498 10.8799C14.9598 10.9199 14.7598 10.9499 14.5698 10.9799H14.5598C14.3498 10.9999 14.1398 11.0199 13.9398 11.0299C13.0298 11.0799 12.0998 11.0099 11.1798 10.9499C10.3798 10.8899 9.56982 10.8299 8.78982 10.8599C8.67982 10.8599 8.57982 10.8599 8.46982 10.8699C7.23982 10.9299 6.06982 11.1999 5.02982 11.9799C4.62982 11.4899 4.65982 10.7699 5.11982 10.3099ZM20.7498 17.9999C20.7498 19.5199 19.5198 20.7499 17.9998 20.7499C16.4798 20.7499 15.2498 19.5199 15.2498 17.9999C15.2498 16.6799 16.9598 14.9499 17.4798 14.4599C17.7698 14.1799 18.2298 14.1799 18.5198 14.4599C19.0398 14.9499 20.7498 16.6799 20.7498 17.9999Z" fill="black"/>
</svg>
