<svg width="24" height="24" viewBox="0 0 24 24" fill="none" xmlns="http://www.w3.org/2000/svg">
<path d="M20.7402 9.08002C20.6802 9.92002 20.2602 10.68 19.5902 11.19L15.6402 14.15V16.24C15.6402 16.86 15.4002 17.44 14.9602 17.87C14.0902 18.74 12.5702 18.74 11.7002 17.87L9.44018 15.61L4.52018 20.53C4.37018 20.68 4.18018 20.75 3.99018 20.75C3.80018 20.75 3.61018 20.68 3.46018 20.53C3.17018 20.24 3.17018 19.76 3.46018 19.47L8.38018 14.55L6.12018 12.29C5.68018 11.85 5.44018 11.27 5.44018 10.66C5.44018 10.05 5.68018 9.46002 6.12018 9.03002C6.55018 8.60002 7.14018 8.35002 7.75018 8.35002H9.84018L12.8002 4.40002C13.3002 3.73002 14.0702 3.31002 14.9102 3.25002C15.7402 3.19002 16.5702 3.50002 17.1602 4.09002L19.9002 6.83002C20.4902 7.42002 20.8002 8.24002 20.7402 9.08002Z" fill="black"/>
</svg>
