<svg width="24" height="24" viewBox="0 0 24 24" fill="none" xmlns="http://www.w3.org/2000/svg">
<path d="M20.56 8.25H3.44L4.14 5.92C4.62 4.34 6.08 3.25 7.73 3.25H16.27C17.92 3.25 19.38 4.34 19.86 5.92L20.56 8.25ZM20.75 9.75V17C20.75 19.07 19.07 20.75 17 20.75H7C4.93 20.75 3.25 19.07 3.25 17V9.75H20.75ZM15.84 12C15.84 11.59 15.5 11.25 15.09 11.25C14.68 11.25 14.34 11.59 14.34 12C14.34 12.65 14.08 13.27 13.62 13.73C13.16 14.19 12.54 14.45 11.89 14.45C11.24 14.45 10.62 14.19 10.16 13.73C9.7 13.27 9.44 12.65 9.44 12C9.44 11.59 9.1 11.25 8.69 11.25C8.28 11.25 7.94 11.59 7.94 12C7.94 13.05 8.36 14.05 9.1 14.79C9.84 15.53 10.84 15.95 11.89 15.95C12.94 15.95 13.94 15.53 14.68 14.79C15.42 14.05 15.84 13.05 15.84 12Z" fill="black"/>
</svg>
