<svg width="24" height="24" viewBox="0 0 24 24" fill="none" xmlns="http://www.w3.org/2000/svg">
<path d="M20.7498 14.1802C20.7498 15.3402 20.2898 16.4602 19.4698 17.2802C18.6498 18.1002 17.5298 18.5602 16.3698 18.5602H7.63977C6.47977 18.5602 5.35977 18.1002 4.53977 17.2802C3.71977 16.4602 3.25977 15.3402 3.25977 14.1802C3.25977 13.0202 3.71977 11.9002 4.53977 11.0802C4.94977 10.6702 5.42977 10.3602 5.94977 10.1402C6.63977 7.44018 9.07977 5.43018 11.9998 5.43018C14.9198 5.43018 17.3598 7.43018 18.0498 10.1402C18.5698 10.3602 19.0598 10.6702 19.4598 11.0802C20.2798 11.9002 20.7398 13.0202 20.7398 14.1802H20.7498Z" fill="black"/>
</svg>
