<svg width="24" height="24" viewBox="0 0 24 24" fill="none" xmlns="http://www.w3.org/2000/svg">
<path d="M4.2 13.2098C3.91 13.2298 3.63 13.2398 3.34 13.2598C3.28 12.8498 3.25 12.4298 3.25 11.9998C3.25 9.3198 4.46 6.9098 6.37 5.2998C6.54 5.4898 6.71 5.6998 6.86 5.8898C7.5 6.7098 7.84 7.2398 8.03 7.5598C8.22 7.8798 8.25 7.9998 8.25 7.9998C8.25 8.2898 8 8.7098 7.76 9.1098C7.43 9.6698 7.05 10.2898 7.05 10.9998C7.05 11.1598 7.07 11.3498 7.1 11.5498C7.17 12.0198 7.18 12.2598 7.02 12.4598C6.83 12.6898 6.21 13.0998 4.2 13.2098Z" fill="black"/>
<path d="M13.75 7.00018V3.43018C16.43 3.97018 18.66 5.74018 19.85 8.12018C19.81 8.92018 19.64 9.73018 19.25 10.4702C18.74 11.4302 18.21 12.0602 17.67 12.3302C17.3 12.5102 17.09 12.5402 17 12.5002C16.78 12.4202 16.51 11.7102 16.29 11.1402C16.12 10.6902 15.93 10.1802 15.67 9.66018C15.13 8.58018 14.54 8.20018 14.14 7.94018C13.81 7.73018 13.75 7.69018 13.75 7.00018Z" fill="black"/>
<path d="M17.0499 18.78C17.1199 18.83 17.2099 18.9 17.2999 18.97C15.8199 20.08 13.9899 20.75 11.9999 20.75C10.5099 20.75 9.10988 20.38 7.87988 19.72C7.91988 19.49 8.01988 19.24 8.16988 18.92L8.27988 18.69C8.93988 17.24 9.62988 15.75 11.9999 15.75C12.1099 15.75 12.1299 15.75 12.3599 16.18C12.5899 16.59 12.8999 17.16 13.5799 17.62C14.3599 18.15 15.0499 18.22 15.5999 18.28C16.1399 18.34 16.5299 18.38 17.0499 18.78Z" fill="black"/>
<path d="M20.7499 12C20.7499 14.29 19.8599 16.39 18.4099 17.95C18.2399 17.79 18.0799 17.67 17.9599 17.58C17.0999 16.93 16.3599 16.85 15.7599 16.79C15.2699 16.74 14.8899 16.7 14.4199 16.38C14.0399 16.12 13.8699 15.8 13.6799 15.46C13.4199 14.98 13.0199 14.25 11.9999 14.25C8.66994 14.25 7.60994 16.54 6.90994 18.06L6.80994 18.28C6.71994 18.47 6.63994 18.66 6.56994 18.86C5.24994 17.81 4.22994 16.38 3.68994 14.74C3.88994 14.73 4.08994 14.72 4.27994 14.71C6.30994 14.59 7.54994 14.18 8.17994 13.41C8.77994 12.68 8.65994 11.87 8.58994 11.34C8.56994 11.22 8.54994 11.1 8.54994 11C8.54994 10.71 8.79994 10.29 9.03994 9.89C9.36994 9.33 9.74994 8.71 9.74994 8C9.74994 7.59 9.54994 6.9 8.03994 4.97C7.89994 4.8 7.75994 4.62 7.60994 4.44C8.89994 3.68 10.3999 3.25 11.9999 3.25C12.0799 3.25 12.1699 3.25 12.2499 3.26V7C12.2499 8.39 12.7199 8.81 13.3299 9.2C13.6399 9.41 13.9699 9.62 14.3299 10.34C14.5499 10.78 14.7299 11.24 14.8899 11.67C15.2599 12.65 15.6099 13.57 16.4599 13.9C16.6499 13.98 16.8599 14.02 17.0799 14.02C17.4599 14.02 17.8699 13.9 18.3299 13.67C19.1699 13.25 19.9099 12.43 20.5699 11.17C20.6099 11.09 20.6499 11.02 20.6799 10.94C20.7299 11.29 20.7499 11.64 20.7499 12Z" fill="black"/>
</svg>
