<svg width="24" height="24" viewBox="0 0 24 24" fill="none" xmlns="http://www.w3.org/2000/svg">
<path d="M22.3199 10.9502L20.2599 8.89022C18.0499 6.69022 15.1199 5.47021 11.9999 5.47021C8.87994 5.47021 5.94994 6.69022 3.73994 8.89022L1.67994 10.9502C1.10994 11.5302 1.10994 12.4702 1.67994 13.0502L3.73994 15.1102C5.94994 17.3102 8.87994 18.5302 11.9999 18.5302C15.1199 18.5302 18.0499 17.3102 20.2599 15.1102L22.3199 13.0502C22.8899 12.4702 22.8899 11.5302 22.3199 10.9502ZM11.9999 15.6602C9.97994 15.6602 8.33994 14.0202 8.33994 12.0002C8.33994 9.98022 9.97994 8.34022 11.9999 8.34022C14.0199 8.34022 15.6599 9.98022 15.6599 12.0002C15.6599 14.0202 14.0199 15.6602 11.9999 15.6602ZM14.1599 12.0002C14.1599 13.1902 13.1899 14.1602 11.9999 14.1602C10.8099 14.1602 9.83994 13.1902 9.83994 12.0002C9.83994 10.8102 10.8099 9.84022 11.9999 9.84022C13.1899 9.84022 14.1599 10.8102 14.1599 12.0002Z" fill="black"/>
</svg>
