<svg width="24" height="24" viewBox="0 0 24 24" fill="none" xmlns="http://www.w3.org/2000/svg">
<path d="M15.25 12.9398C14.84 12.8598 14.45 13.1298 14.37 13.5298L13.35 18.7698C13.27 19.1798 13.54 19.5698 13.94 19.6498C13.99 19.6498 14.04 19.6598 14.08 19.6598C14.43 19.6598 14.75 19.4098 14.82 19.0498L15.84 13.8098C15.92 13.3998 15.65 13.0098 15.25 12.9298V12.9398Z" fill="black"/>
<path d="M9.99023 12.9198C9.59023 12.8398 9.19023 13.1098 9.11023 13.5098L8.09023 18.7498C8.01023 19.1598 8.28023 19.5498 8.68023 19.6298C8.73023 19.6298 8.78023 19.6398 8.82023 19.6398C9.17023 19.6398 9.49023 19.3898 9.56023 19.0298L10.5802 13.7898C10.6602 13.3798 10.3902 12.9898 9.99023 12.9098V12.9198Z" fill="black"/>
<path d="M12.3701 13.7399C11.9701 13.6699 11.5701 13.9299 11.4901 14.3299L10.4701 19.5699C10.3901 19.9799 10.6601 20.3699 11.0601 20.4499C11.1101 20.4499 11.1601 20.4599 11.2001 20.4599C11.5501 20.4599 11.8701 20.2099 11.9401 19.8499L12.9601 14.6099C13.0401 14.1999 12.7701 13.8099 12.3701 13.7299V13.7399Z" fill="black"/>
<path d="M20.75 12.23C20.75 13.4 20.29 14.5 19.46 15.33C18.98 15.81 18.38 16.18 17.74 16.39C17.66 16.42 17.58 16.43 17.5 16.43H16.35L16.64 14.93L16.82 14.01C17 13.06 16.38 12.14 15.43 11.96C15.32 11.93 15.21 11.92 15.1 11.92C14.31 11.92 13.64 12.46 13.43 13.21C13.2 12.99 12.9 12.82 12.55 12.75C12.45 12.74 12.34 12.73 12.24 12.73C11.95 12.73 11.69 12.82 11.44 12.94C11.22 12.44 10.76 12.05 10.18 11.94C10.07 11.92 9.96 11.91 9.85 11.91C9.02 11.91 8.29 12.5 8.13 13.32L7.82 14.93L7.52 16.43H6.5C6.42 16.43 6.34 16.42 6.27 16.39C5.61 16.18 5.02 15.82 4.54 15.33C3.71 14.5 3.25 13.4 3.25 12.23C3.25 11.06 3.71 9.94998 4.54 9.11998C4.94 8.71998 5.41 8.39998 5.94 8.17998C6.65 5.40998 9.12 3.47998 12 3.47998C14.88 3.47998 17.35 5.40998 18.06 8.17998C18.58 8.39998 19.06 8.71998 19.46 9.11998C20.29 9.94998 20.75 11.05 20.75 12.23Z" fill="black"/>
</svg>
