<svg width="24" height="24" viewBox="0 0 24 24" fill="none" xmlns="http://www.w3.org/2000/svg">
<path d="M18.2605 20.27C17.8905 20.58 17.4305 20.75 16.9805 20.75C16.6405 20.75 16.3005 20.66 15.9905 20.48L12.2405 18.34C12.0905 18.25 11.9005 18.25 11.7505 18.34L8.01048 20.48C7.27048 20.9 6.38048 20.82 5.73048 20.27C5.08048 19.72 4.85048 18.85 5.15048 18.06L10.1305 4.55C10.4205 3.76 11.1505 3.25 12.0005 3.25C12.8505 3.25 13.5805 3.76 13.8705 4.55L18.8505 18.06C19.1405 18.85 18.9105 19.72 18.2705 20.27H18.2605Z" fill="black"/>
</svg>
