<svg width="24" height="24" viewBox="0 0 24 24" fill="none" xmlns="http://www.w3.org/2000/svg">
<path d="M20.53 19.47L17.17 16.11C18.3 14.75 18.97 13.01 18.97 11.11C18.97 6.78 15.45 3.25 11.11 3.25C6.77 3.25 3.25 6.78 3.25 11.11C3.25 15.44 6.78 18.97 11.11 18.97C13.01 18.97 14.75 18.3 16.11 17.17L19.47 20.53C19.62 20.68 19.81 20.75 20 20.75C20.19 20.75 20.38 20.68 20.53 20.53C20.82 20.24 20.82 19.76 20.53 19.47ZM10.34 7.22C8.61 7.22 7.21 8.62 7.21 10.35C7.21 10.76 6.87 11.1 6.46 11.1C6.05 11.1 5.71 10.76 5.71 10.35C5.71 7.8 7.79 5.72 10.34 5.72C10.75 5.72 11.09 6.06 11.09 6.47C11.09 6.88 10.75 7.22 10.34 7.22Z" fill="black"/>
</svg>
