<svg width="24" height="24" viewBox="0 0 24 24" fill="none" xmlns="http://www.w3.org/2000/svg">
<path d="M15.49 9.28C16.32 9.95 16.8 10.94 16.8 12C16.8 13.06 16.32 14.06 15.49 14.72L8.92 19.98C8.28 20.49 7.52 20.75 6.75 20.75C6.24 20.75 5.72 20.64 5.23 20.4C4.01 19.81 3.25 18.61 3.25 17.26V6.74C3.25 5.39 4.01 4.18 5.23 3.6C6.45 3.01 7.86 3.18 8.92 4.02L15.49 9.28ZM20 3.25C19.59 3.25 19.25 3.59 19.25 4V20C19.25 20.41 19.59 20.75 20 20.75C20.41 20.75 20.75 20.41 20.75 20V4C20.75 3.59 20.41 3.25 20 3.25Z" fill="black"/>
</svg>
