<svg width="24" height="24" viewBox="0 0 24 24" fill="none" xmlns="http://www.w3.org/2000/svg">
<path d="M20.6102 15.7899L20.5102 17.2299C20.4002 18.9499 19.1302 20.2399 17.5702 20.2399H17.5602C15.2702 20.2399 11.7802 19.5399 8.20018 16.2699C4.62018 12.9899 3.62018 9.57988 3.41018 7.29988C3.27018 5.73988 4.45018 4.35988 6.15018 4.08988L7.58018 3.86988C9.40018 3.58988 11.0902 4.77988 11.4302 6.57988L11.6502 7.78988C11.8302 8.69988 11.3202 9.59988 10.4602 9.92988C10.3602 9.96988 10.2902 10.0399 10.2502 10.1299C10.2302 10.1999 10.2302 10.2599 10.2702 10.3299C10.5802 10.9099 11.1002 11.7399 11.7802 12.3599C12.4602 12.9799 13.3302 13.4199 13.9302 13.6799C14.0002 13.7099 14.0702 13.7099 14.1302 13.6799C14.2202 13.6399 14.2902 13.5599 14.3202 13.4599C14.5702 12.5699 15.4102 11.9999 16.3402 12.0799L17.5602 12.1999C19.3902 12.3799 20.7302 13.9599 20.6102 15.7899Z" fill="black"/>
</svg>
