<svg width="24" height="24" viewBox="0 0 24 24" fill="none" xmlns="http://www.w3.org/2000/svg">
<path d="M18 6.8902H16.71C16.29 6.8902 15.9 6.6802 15.67 6.3302L15.4 5.9302C14.89 5.1602 14.03 4.7002 13.11 4.7002H10.89C9.97 4.7002 9.11 5.1602 8.6 5.9302L8.33 6.3302C8.1 6.6802 7.71 6.8902 7.29 6.8902H6C4.48 6.8902 3.25 8.1202 3.25 9.6402V15.5502C3.25 17.6102 4.93 19.3002 7 19.3002H17C19.07 19.3002 20.75 17.6102 20.75 15.5502V9.6402C20.75 8.1202 19.52 6.8902 18 6.8902ZM12 16.3902C9.98 16.3902 8.34 14.7502 8.34 12.7302C8.34 10.7102 9.98 9.0702 12 9.0702C14.02 9.0702 15.66 10.7102 15.66 12.7302C15.66 14.7502 14.02 16.3902 12 16.3902ZM14.16 12.7302C14.16 13.9202 13.19 14.8902 12 14.8902C10.81 14.8902 9.84 13.9202 9.84 12.7302C9.84 11.5402 10.81 10.5702 12 10.5702C13.19 10.5702 14.16 11.5402 14.16 12.7302Z" fill="black"/>
</svg>
