<svg width="24" height="24" viewBox="0 0 24 24" fill="none" xmlns="http://www.w3.org/2000/svg">
<path d="M18.5299 18.73C18.3799 18.88 18.1899 18.95 17.9999 18.95C17.8099 18.95 17.6199 18.88 17.4699 18.73L5.46994 6.73C5.17994 6.44 5.17994 5.96 5.46994 5.67C5.75994 5.38 6.23994 5.38 6.52994 5.67L9.31994 8.46L10.0199 7.74L10.3899 7.35C10.8699 6.85 11.3299 6.37 11.7599 5.92C13.6899 3.89 14.3299 3.25 14.9999 3.25H15.3999L15.6799 3.62C16.0199 4.13 15.9399 4.78 13.6999 10.08L13.6299 10.25H15.8899C16.3899 10.25 16.8199 10.53 17.0299 10.99C17.2299 11.44 17.1499 11.96 16.8199 12.33L15.7699 13.49L15.0899 14.23L18.5299 17.67C18.8199 17.96 18.8199 18.44 18.5299 18.73ZM11.3699 14.05L7.57994 10.26L6.24994 11.64C5.90994 12 5.80994 12.53 6.00994 12.99C6.20994 13.45 6.65994 13.75 7.15994 13.75H9.86994C7.37994 19.71 7.57994 20.01 7.83994 20.39L8.09994 20.75H8.49994C9.10994 20.75 9.62994 20.23 12.0399 17.59L13.4099 16.09L12.3399 15.02L11.3699 14.05Z" fill="black"/>
</svg>
