<svg width="24" height="24" viewBox="0 0 24 24" fill="none" xmlns="http://www.w3.org/2000/svg">
<path d="M9.02027 4.31H7.52027V4C7.52027 3.59 7.85027 3.25 8.27027 3.25C8.69027 3.25 9.02027 3.59 9.02027 4V4.31ZM16.4803 4C16.4803 3.59 16.1503 3.25 15.7303 3.25C15.3103 3.25 14.9803 3.59 14.9803 4V4.31H16.4803V4ZM16.6703 4.31H16.4803V6.82C16.4803 7.23 16.1503 7.57 15.7303 7.57C15.3103 7.57 14.9803 7.23 14.9803 6.82V4.31H9.02027V6.82C9.02027 7.23 8.68027 7.57 8.27027 7.57C7.86027 7.57 7.52027 7.23 7.52027 6.82V4.31H7.33027C5.37027 4.31 3.78027 5.9 3.78027 7.86V9.08H20.2203V7.86C20.2203 5.9 18.6303 4.31 16.6703 4.31ZM3.78027 17.2C3.78027 19.16 5.37027 20.75 7.33027 20.75H16.6703C18.6303 20.75 20.2203 19.16 20.2203 17.2V10.58H3.78027V17.2Z" fill="black"/>
</svg>
