<svg width="24" height="24" viewBox="0 0 24 24" fill="none" xmlns="http://www.w3.org/2000/svg">
<path d="M17.2498 7.07996V16.92C17.2498 17.6 16.8698 18.2 16.2598 18.5C16.0198 18.62 15.7598 18.68 15.4998 18.68C15.1098 18.68 14.7298 18.55 14.4098 18.29L11.4498 15.92C11.3198 15.81 11.1498 15.75 10.9798 15.75H9.50977C7.98977 15.75 6.75977 14.52 6.75977 13V11C6.75977 9.47996 7.98977 8.24996 9.50977 8.24996H10.9798C11.1498 8.24996 11.3198 8.18996 11.4498 8.07996L14.4098 5.70996C14.9398 5.28996 15.6498 5.20996 16.2598 5.49996C16.8698 5.78996 17.2498 6.39996 17.2498 7.07996Z" fill="black"/>
</svg>
