<svg width="24" height="24" viewBox="0 0 24 24" fill="none" xmlns="http://www.w3.org/2000/svg">
<path d="M20.25 12C20.25 13.53 19.65 14.98 18.57 16.06C18.42 16.21 18.23 16.28 18.04 16.28C17.85 16.28 17.66 16.21 17.51 16.06C17.22 15.77 17.22 15.29 17.51 15C18.31 14.2 18.76 13.13 18.76 11.99C18.76 10.85 18.32 9.78996 17.52 8.98996C17.23 8.69996 17.23 8.21996 17.52 7.92996C17.81 7.63996 18.29 7.63996 18.58 7.92996C19.67 9.01996 20.26 10.46 20.26 12H20.25ZM13.26 5.49996C12.65 5.20996 11.94 5.28996 11.41 5.70996L8.44 8.07996C8.31 8.18996 8.14 8.23996 7.97 8.23996H6.5C4.98 8.23996 3.75 9.46996 3.75 10.99V12.99C3.75 14.51 4.98 15.74 6.5 15.74H7.97C8.14 15.74 8.31 15.8 8.44 15.91L11.4 18.28C11.72 18.53 12.1 18.67 12.49 18.67C12.75 18.67 13.01 18.61 13.25 18.49C13.86 18.2 14.24 17.59 14.24 16.91V7.07996C14.24 6.39996 13.86 5.79996 13.25 5.49996H13.26Z" fill="black"/>
</svg>
