<svg width="24" height="24" viewBox="0 0 24 24" fill="none" xmlns="http://www.w3.org/2000/svg">
<path d="M15.69 15.89V20.75H8.31V15.89C8.31 15.2 8.87 14.64 9.56 14.64H14.44C15.13 14.64 15.69 15.2 15.69 15.89ZM19.65 7.04L16.96 4.35C16.27 3.65 15.3 3.25 14.31 3.25H8.31V6.44C8.31 7.13 8.87 7.69 9.56 7.69H14.67C15.08 7.69 15.42 8.03 15.42 8.44C15.42 8.85 15.08 9.19 14.67 9.19H9.56C8.04 9.19 6.81 7.96 6.81 6.44V3.26C4.83 3.36 3.25 4.99 3.25 7V17C3.25 19.01 4.83 20.64 6.81 20.74V15.89C6.81 14.37 8.04 13.14 9.56 13.14H14.44C15.96 13.14 17.19 14.37 17.19 15.89V20.74C19.17 20.64 20.75 19.01 20.75 17V9.69C20.75 8.7 20.35 7.73 19.65 7.04Z" fill="black"/>
</svg>
