<svg width="24" height="24" viewBox="0 0 24 24" fill="none" xmlns="http://www.w3.org/2000/svg">
<path d="M20.7502 9.77994C20.7502 10.4399 20.6202 11.0699 20.3702 11.6799C20.1202 12.2799 19.7602 12.8299 19.2902 13.2899L14.3702 18.2099C13.7302 18.8499 12.8902 19.1999 11.9902 19.1999C11.0902 19.1999 10.2402 18.8499 9.61023 18.2099L4.69023 13.2899C3.75023 12.3499 3.24023 11.1099 3.24023 9.77994C3.24023 8.44994 3.76023 7.20994 4.69023 6.26994C5.63023 5.32994 6.87023 4.81994 8.20023 4.81994C9.53023 4.81994 10.7702 5.33994 11.7102 6.26994L11.9902 6.54994L12.2702 6.26994C12.7302 5.80994 13.2702 5.44994 13.8802 5.18994C15.0902 4.68994 16.4702 4.68994 17.6802 5.18994C18.2902 5.43994 18.8302 5.79994 19.2902 6.26994C19.7502 6.72994 20.1202 7.26994 20.3702 7.87994C20.6202 8.47994 20.7502 9.11994 20.7502 9.77994Z" fill="black"/>
</svg>
