<svg width="24" height="24" viewBox="0 0 24 24" fill="none" xmlns="http://www.w3.org/2000/svg">
<path d="M19.96 9.9999L18.69 11.2699L15.71 8.2899C15.42 7.9899 14.94 7.9899 14.65 8.2899C14.36 8.5799 14.36 9.0599 14.65 9.3499L16.57 11.2699L17.63 12.3299L16.57 13.3899L15.51 12.3299L14.59 11.4099C14.3 11.1199 13.82 11.1199 13.53 11.4099C13.24 11.6999 13.24 12.1799 13.53 12.4699L14.45 13.3899L15.51 14.4499L14.45 15.5099L13.39 14.4499L11.47 12.5299C11.18 12.2399 10.7 12.2399 10.41 12.5299C10.12 12.8199 10.12 13.2999 10.41 13.5899L12.33 15.5099L13.39 16.5699L12.33 17.6299L11.27 16.5699L10.35 15.6499C10.06 15.3599 9.58 15.3599 9.29 15.6499C9 15.9399 9 16.4199 9.29 16.7099L11.27 18.6899L10 19.9599C9.49 20.4699 8.81 20.7499 8.08 20.7499C7.35 20.7499 6.68 20.4699 6.17 19.9599L4.04 17.8299C3.53 17.3199 3.25 16.6399 3.25 15.9199C3.25 15.1999 3.53 14.5099 4.04 13.9999L14 4.0399C15.02 3.0199 16.81 3.0199 17.83 4.0399L19.96 6.1699C21.01 7.2299 21.01 8.9399 19.96 9.9999Z" fill="black"/>
</svg>
