<svg width="24" height="24" viewBox="0 0 24 24" fill="none" xmlns="http://www.w3.org/2000/svg">
<path d="M20.61 6.62976C20.34 7.15976 20 7.63976 19.6 8.07976C19.61 8.20976 19.62 8.33976 19.62 8.47976C19.62 12.6098 17.93 15.9998 14.87 18.0298C13.09 19.2098 11 19.8098 8.83999 19.8098C7.24999 19.8098 5.61999 19.4798 4.05999 18.8298C3.60999 18.6398 3.34999 18.1898 3.42999 17.6998C3.49999 17.1998 3.90999 16.7998 4.40999 16.7498C5.33999 16.6498 6.23999 16.3998 7.07999 15.9998C2.35999 13.1398 3.11999 8.36976 3.66999 6.42976C3.79999 5.98976 4.13999 5.66976 4.57999 5.56976C5.03999 5.45976 5.52999 5.61976 5.85999 5.98976C6.49999 6.71976 7.26999 7.30976 8.13999 7.73976C9.04999 8.19976 10.03 8.46976 11.04 8.53976V8.51976C11.03 7.64976 11.28 6.79976 11.78 6.06976C12.28 5.33976 12.97 4.78976 13.79 4.47976C14.62 4.16976 15.5 4.10976 16.35 4.32976C17.04 4.49976 17.66 4.83976 18.18 5.30976C18.42 5.21976 18.65 5.12976 18.88 5.01976C19.4 4.76976 20.02 4.86976 20.41 5.27976C20.77 5.64976 20.85 6.18976 20.61 6.65976V6.62976Z" fill="black"/>
</svg>
