<svg width="24" height="24" viewBox="0 0 24 24" fill="none" xmlns="http://www.w3.org/2000/svg">
<path d="M16.4 18.4502L16.96 19.2102C15.55 20.1802 13.85 20.7502 12 20.7502C11.54 20.7502 11.09 20.7102 10.65 20.6502L10.01 19.3402L9.67003 18.6602C9.56003 18.4402 9.45003 18.0502 9.52003 17.6702C9.57003 17.3402 9.75003 16.9602 10.34 16.6702C10.87 16.4002 11.3 16.1402 11.65 15.9202C12.02 15.6902 12.27 15.5302 12.49 15.4402C12.69 15.3502 12.82 15.3302 12.94 15.3402C13.07 15.3502 13.27 15.4102 13.58 15.6202C14.67 16.3502 15.91 17.8002 16.4 18.4502Z" fill="black"/>
<path d="M4.37002 10.35L3.52002 9.87C4.46002 6.07 7.90002 3.25 12 3.25C13.21 3.25 14.36 3.5 15.41 3.94L15.26 4.88C15.03 6.28 14.58 6.95 14.23 7.22C13.91 7.47 13.6 7.46 13.34 7.33C12.81 7.07 11.97 6.7 10.99 6.96C10 7.23 9.12002 8.08 8.33002 9.66C7.87002 10.58 7.18002 10.88 6.46002 10.9C5.69002 10.93 4.87002 10.64 4.37002 10.35Z" fill="black"/>
<path d="M18.66 15.6699L19.66 16.2299C19.25 16.9799 18.72 17.6599 18.12 18.2599L17.6 17.5499C17.09 16.8699 15.73 15.2499 14.42 14.3799C13.98 14.0899 13.55 13.8999 13.1 13.8499C12.64 13.7999 12.24 13.8999 11.88 14.0599C11.54 14.2199 11.2 14.4399 10.86 14.6399C10.51 14.8599 10.13 15.0999 9.66 15.3299C8.65 15.8399 8.16 16.6299 8.03 17.4299C7.91 18.1899 8.11 18.8899 8.33 19.3399L8.66 20.0099L8.71 20.1099C5.51 18.8099 3.25 15.6699 3.25 11.9999C3.25 11.8199 3.26 11.6299 3.27 11.4499L3.63 11.6499C4.29 12.0299 5.38 12.4399 6.51 12.3999C7.7 12.3599 8.93 11.8199 9.67 10.3399C10.38 8.91994 11 8.51994 11.38 8.40994C11.78 8.29994 12.19 8.42994 12.66 8.66994C13.4 9.03994 14.34 9.02994 15.15 8.39994C15.92 7.79994 16.47 6.70994 16.74 5.11994L16.81 4.68994C18.11 5.54994 19.17 6.73994 19.86 8.14994L19.32 8.26994C18.6 8.44994 17.54 8.82994 16.68 9.39994C15.88 9.93994 14.95 10.8799 15.27 12.1799C15.52 13.1799 16.14 13.9399 16.79 14.4799C17.44 15.0299 18.15 15.4099 18.66 15.6699Z" fill="black"/>
<path d="M20.7502 11.9998C20.7502 12.9998 20.5802 13.9598 20.2702 14.8498L19.3402 14.3298C18.8502 14.0898 18.2602 13.7698 17.7602 13.3398C17.2602 12.9098 16.8802 12.4198 16.7302 11.8198C16.6502 11.5198 16.8102 11.1198 17.5202 10.6498C18.1802 10.1998 19.0702 9.87982 19.6802 9.72982L20.4102 9.56982C20.6302 10.3398 20.7502 11.1598 20.7502 11.9998Z" fill="black"/>
</svg>
