<svg width="24" height="24" viewBox="0 0 24 24" fill="none" xmlns="http://www.w3.org/2000/svg">
<path d="M19.58 9.84L13.84 4.1C13.29 3.55 12.55 3.25 11.78 3.25H6.17C4.56 3.25 3.25 4.56 3.25 6.17V11.78C3.25 12.56 3.55 13.29 4.1 13.84L9.85 19.58C10.63 20.36 11.65 20.75 12.68 20.75C13.71 20.75 14.73 20.36 15.51 19.58L19.58 15.5C20.33 14.75 20.75 13.74 20.75 12.67C20.75 11.6 20.33 10.6 19.58 9.84ZM8.34 9.34C7.79 9.34 7.34 8.89 7.34 8.34C7.34 7.79 7.78 7.34 8.34 7.34C8.9 7.34 9.34 7.78 9.34 8.34C9.34 8.9 8.9 9.34 8.34 9.34Z" fill="black"/>
</svg>
