<svg width="24" height="24" viewBox="0 0 24 24" fill="none" xmlns="http://www.w3.org/2000/svg">
<path d="M6.87 17.1298C7.16 17.4198 7.16 17.8998 6.87 18.1898C6.72 18.3398 6.53 18.4098 6.34 18.4098C6.15 18.4098 5.96 18.3398 5.81 18.1898C4.16 16.5398 3.25 14.3398 3.25 11.9998C3.25 9.65979 4.16 7.46979 5.81 5.80979C6.1 5.51979 6.58 5.51979 6.87 5.80979C7.16 6.09979 7.16 6.57979 6.87 6.86979C5.5 8.23979 4.75 10.0598 4.75 11.9998C4.75 13.9398 5.5 15.7598 6.87 17.1298ZM9.14 9.12979C9.43 8.83979 9.43 8.35978 9.14 8.06978C8.85 7.77978 8.37 7.77978 8.08 8.06978C7.56 8.58978 7.16 9.18979 6.87 9.86979C6.59 10.5498 6.45 11.2598 6.45 11.9998C6.45 12.7398 6.59 13.4498 6.87 14.1298C7.15 14.8098 7.56 15.4098 8.08 15.9298C8.23 16.0798 8.42 16.1498 8.61 16.1498C8.8 16.1498 8.99 16.0798 9.14 15.9298C9.43 15.6398 9.43 15.1598 9.14 14.8698C8.76 14.4898 8.47 14.0498 8.26 13.5598C8.06 13.0598 7.95 12.5398 7.95 12.0098C7.95 11.4798 8.05 10.9498 8.26 10.4598C8.46 9.96979 8.76 9.51978 9.14 9.14978V9.12979ZM18.19 5.80979C17.9 5.51979 17.42 5.51979 17.13 5.80979C16.84 6.09979 16.84 6.57979 17.13 6.86979C18.5 8.23979 19.25 10.0598 19.25 11.9998C19.25 13.9398 18.5 15.7598 17.13 17.1298C16.84 17.4198 16.84 17.8998 17.13 18.1898C17.28 18.3398 17.47 18.4098 17.66 18.4098C17.85 18.4098 18.04 18.3398 18.19 18.1898C19.84 16.5398 20.75 14.3398 20.75 11.9998C20.75 9.65979 19.84 7.46979 18.19 5.80979ZM12 9.64979C10.7 9.64979 9.65 10.6998 9.65 11.9998C9.65 13.2998 10.7 14.3498 12 14.3498C13.3 14.3498 14.35 13.2998 14.35 11.9998C14.35 10.6998 13.3 9.64979 12 9.64979ZM17.55 11.9998C17.55 11.2698 17.41 10.5498 17.13 9.86979C16.85 9.18979 16.44 8.58978 15.92 8.06978C15.63 7.77978 15.15 7.77978 14.86 8.06978C14.57 8.35978 14.57 8.83979 14.86 9.12979C15.24 9.50979 15.53 9.94979 15.74 10.4398C15.95 10.9398 16.05 11.4598 16.05 11.9898C16.05 12.5198 15.95 13.0498 15.74 13.5398C15.54 14.0298 15.24 14.4798 14.86 14.8498C14.57 15.1398 14.57 15.6198 14.86 15.9098C15.01 16.0598 15.2 16.1298 15.39 16.1298C15.58 16.1298 15.77 16.0598 15.92 15.9098C16.44 15.3898 16.85 14.7898 17.13 14.1098C17.41 13.4298 17.55 12.7198 17.55 11.9798V11.9998Z" fill="black"/>
</svg>
