<svg width="24" height="24" viewBox="0 0 24 24" fill="none" xmlns="http://www.w3.org/2000/svg">
<path d="M9.5 16.4902C9.09 16.4902 8.75 16.8302 8.75 17.2402V18.5702C8.75 18.9802 9.09 19.3202 9.5 19.3202C9.91 19.3202 10.25 18.9802 10.25 18.5702V17.2402C10.25 16.8302 9.91 16.4902 9.5 16.4902Z" fill="black"/>
<path d="M9.5 12.4902C9.09 12.4902 8.75 12.8302 8.75 13.2402V14.5702C8.75 14.9802 9.09 15.3202 9.5 15.3202C9.91 15.3202 10.25 14.9802 10.25 14.5702V13.2402C10.25 12.8302 9.91 12.4902 9.5 12.4902Z" fill="black"/>
<path d="M14.8301 16.4902C14.4201 16.4902 14.0801 16.8302 14.0801 17.2402V18.5702C14.0801 18.9802 14.4201 19.3202 14.8301 19.3202C15.2401 19.3202 15.5801 18.9802 15.5801 18.5702V17.2402C15.5801 16.8302 15.2401 16.4902 14.8301 16.4902Z" fill="black"/>
<path d="M14.8301 12.4902C14.4201 12.4902 14.0801 12.8302 14.0801 13.2402V14.5702C14.0801 14.9802 14.4201 15.3202 14.8301 15.3202C15.2401 15.3202 15.5801 14.9802 15.5801 14.5702V13.2402C15.5801 12.8302 15.2401 12.4902 14.8301 12.4902Z" fill="black"/>
<path d="M12.1699 17.8301C11.7599 17.8301 11.4199 18.1701 11.4199 18.5801V19.9101C11.4199 20.3201 11.7599 20.6601 12.1699 20.6601C12.5799 20.6601 12.9199 20.3201 12.9199 19.9101V18.5801C12.9199 18.1701 12.5799 17.8301 12.1699 17.8301Z" fill="black"/>
<path d="M12.1699 13.8301C11.7599 13.8301 11.4199 14.1701 11.4199 14.5801V15.9101C11.4199 16.3201 11.7599 16.6601 12.1699 16.6601C12.5799 16.6601 12.9199 16.3201 12.9199 15.9101V14.5801C12.9199 14.1701 12.5799 13.8301 12.1699 13.8301Z" fill="black"/>
<path d="M20.75 12.23C20.75 13.4 20.29 14.5 19.46 15.33C18.98 15.81 18.38 16.18 17.74 16.39C17.66 16.42 17.58 16.43 17.5 16.43H16.38C16.27 16.23 16.13 16.06 15.95 15.91C16.25 15.66 16.47 15.32 16.55 14.93C16.57 14.81 16.58 14.7 16.58 14.58V13.24C16.58 12.28 15.8 11.49 14.83 11.49C13.92 11.49 13.17 12.2 13.1 13.1C12.83 12.93 12.51 12.83 12.17 12.83C11.83 12.83 11.51 12.93 11.24 13.1C11.16 12.2 10.42 11.49 9.5 11.49C8.58 11.49 7.75 12.28 7.75 13.24V14.58C7.75 14.7 7.76 14.81 7.79 14.93C7.87 15.32 8.08 15.66 8.38 15.91C8.21 16.06 8.06 16.23 7.95 16.43H6.5C6.42 16.43 6.34 16.42 6.27 16.39C5.61 16.18 5.02 15.82 4.54 15.33C3.71 14.5 3.25 13.4 3.25 12.23C3.25 11.06 3.71 9.94998 4.54 9.11998C4.94 8.71998 5.41 8.39998 5.94 8.17998C6.65 5.40998 9.12 3.47998 12 3.47998C14.88 3.47998 17.35 5.40998 18.06 8.17998C18.58 8.39998 19.06 8.71998 19.46 9.11998C20.29 9.94998 20.75 11.05 20.75 12.23Z" fill="black"/>
</svg>
