<svg width="24" height="24" viewBox="0 0 24 24" fill="none" xmlns="http://www.w3.org/2000/svg">
<path d="M14.25 17.5001C14.25 18.7401 13.24 19.7502 12 19.7502C10.76 19.7502 9.75 18.7401 9.75 17.5001C9.75 16.6201 11.04 15.1802 12 14.3301C12.96 15.1802 14.25 16.6201 14.25 17.5001ZM16.35 6.33015C16.12 6.21015 15.83 6.22015 15.61 6.36015C15.38 6.50015 15.25 6.74015 15.25 7.01015C15.25 7.20015 15.26 7.40015 15.27 7.60015C15.29 8.05015 15.32 8.48015 15.23 8.85015C15.1 9.40015 14.73 9.88015 14.24 10.1002C13.57 10.4102 12.68 10.2302 12.19 9.68015C12.14 9.63015 12.09 9.57015 12.05 9.51015C11.54 8.76015 11.76 7.91015 12.31 6.71015C12.69 5.89015 13.13 5.12015 13.61 4.43015C13.79 4.18015 13.8 3.85015 13.63 3.59015C13.46 3.33015 13.16 3.21015 12.85 3.26015C7.87 4.26015 4.25 8.36015 4.25 13.0001C4.25 16.4302 6.49 19.3502 9.59 20.3602C8.77 19.6802 8.25 18.6501 8.25 17.5001C8.25 15.6701 10.5 13.6301 11.19 13.0501C11.64 12.6701 12.36 12.6601 12.81 13.0501C13.5 13.6301 15.75 15.6701 15.75 17.5001C15.75 18.6501 15.23 19.6802 14.41 20.3602C17.51 19.3502 19.75 16.4302 19.75 13.0001C19.75 9.83015 18 7.20015 16.35 6.33015Z" fill="black"/>
</svg>
