<svg width="24" height="24" viewBox="0 0 24 24" fill="none" xmlns="http://www.w3.org/2000/svg">
<path d="M20.75 15.2902V9.3802C20.75 7.8702 19.52 6.6302 18 6.6302H16.71C16.29 6.6302 15.9 6.4202 15.67 6.0802L15.4 5.6802C14.89 4.9102 14.03 4.4502 13.11 4.4502H10.89C9.97001 4.4502 9.11001 4.9102 8.60001 5.6702L8.33001 6.0802C8.10001 6.4202 7.71001 6.6302 7.29001 6.6302H6.00001C5.88001 6.6302 5.77001 6.6402 5.66001 6.6502L4.46001 5.7102C4.13001 5.4502 3.66001 5.5102 3.41001 5.8402C3.15001 6.1602 3.21001 6.6402 3.54001 6.8902L4.14001 7.3602L5.36001 8.3102L8.69001 10.9202L9.93001 11.8802C9.87001 12.0702 9.84001 12.2702 9.84001 12.4702C9.84001 12.7202 9.88001 12.9602 9.97001 13.1802C10.23 13.9602 10.95 14.5402 11.8 14.6202C11.86 14.6302 11.93 14.6302 12 14.6302C12.4 14.6302 12.77 14.5302 13.08 14.3402L14.32 15.3102L17.16 17.5302L18.62 18.6702L19.54 19.3902C19.68 19.5002 19.84 19.5502 20 19.5502C20.22 19.5502 20.44 19.4502 20.59 19.2602C20.85 18.9402 20.79 18.4602 20.46 18.2102L19.84 17.7302C20.06 17.4802 20.25 17.1902 20.39 16.8802C20.62 16.4002 20.75 15.8602 20.75 15.2902ZM14.03 13.1902C14.12 12.9602 14.16 12.7202 14.16 12.4702C14.16 12.3002 14.14 12.1302 14.1 11.9702C13.87 11.0202 13.02 10.3102 12 10.3102H11.98C11.55 10.3102 11.14 10.4402 10.81 10.6702L9.59001 9.7202C9.86001 9.4902 10.16 9.2902 10.49 9.1402C10.95 8.9302 11.46 8.8102 12 8.8102C14.02 8.8102 15.66 10.4602 15.66 12.4702C15.66 12.7002 15.64 12.9202 15.6 13.1402C15.53 13.4902 15.42 13.8302 15.26 14.1402L14.03 13.1902ZM15.54 17.5402L17.43 19.0102C17.29 19.0302 17.15 19.0402 17 19.0402H7.00001C4.93001 19.0402 3.25001 17.3602 3.25001 15.2902V9.3802C3.25001 8.9402 3.35001 8.5302 3.54001 8.1602L4.78001 9.1302L8.38001 11.9502C8.35001 12.1202 8.34001 12.2902 8.34001 12.4702C8.34001 14.4902 9.98001 16.1302 12 16.1302C12.49 16.1302 12.96 16.0302 13.38 15.8502L15.54 17.5402Z" fill="black"/>
</svg>
