<svg width="24" height="24" viewBox="0 0 24 24" fill="none" xmlns="http://www.w3.org/2000/svg">
<path d="M18.9699 13.6399C17.4299 15.1799 15.2499 15.7599 13.1499 15.2199L9.71994 19.4099C9.06994 20.2099 8.10994 20.6899 7.07994 20.7399C7.01994 20.7399 6.95994 20.7399 6.89994 20.7399C5.93994 20.7399 4.99994 20.3599 4.31994 19.6699C3.58994 18.9399 3.19994 17.9399 3.25994 16.9099C3.30994 15.8799 3.79994 14.9199 4.58994 14.2699L8.77994 10.8399C8.23994 8.74991 8.81994 6.55991 10.3599 5.01991C12.0699 3.30991 14.6299 2.77991 16.8899 3.65991C17.1299 3.74991 17.2999 3.95991 17.3499 4.19991C17.3999 4.44991 17.3199 4.69991 17.1499 4.87991L14.0199 8.00991L14.5099 9.47991L15.9799 9.96991L19.1099 6.83991C19.2899 6.65991 19.5499 6.58991 19.7899 6.63991C20.0399 6.68991 20.2399 6.86991 20.3299 7.09991C21.2099 9.35991 20.6799 11.9199 18.9699 13.6299V13.6399Z" fill="black"/>
</svg>
