<svg width="24" height="24" viewBox="0 0 24 24" fill="none" xmlns="http://www.w3.org/2000/svg">
<path d="M18.21 5.8C16.68 4.27 14.66 3.37 12.47 3.25H12C10.62 3.28 9.29 3.57 8.09 4.18C6.63 4.9 5.41 6.02 4.56 7.4C3.7 8.78 3.25 10.37 3.25 12C3.25 13.12 3.46 14.22 3.88 15.26C4 15.56 4.04 15.85 3.99 16.15L3.77 18.19C3.71 18.75 3.91 19.3 4.3 19.69C4.7 20.09 5.25 20.29 5.81 20.23L7.9 20C8.15 19.96 8.44 20 8.74 20.12C9.78 20.54 10.87 20.75 11.98 20.75H12C13.63 20.75 15.22 20.3 16.6 19.44C17.98 18.59 19.1 17.36 19.82 15.91C20.43 14.71 20.75 13.35 20.75 12V11.49C20.63 9.34 19.73 7.32 18.21 5.8ZM11.25 9.4C11.25 8.99 11.59 8.65 12 8.65C12.41 8.65 12.75 8.99 12.75 9.4V13.23C12.75 13.64 12.41 13.98 12 13.98C11.59 13.98 11.25 13.64 11.25 13.23V9.4ZM12.01 16.28C11.59 16.28 11.25 15.94 11.25 15.53C11.25 15.12 11.59 14.78 12 14.78H12.01C12.42 14.78 12.76 15.11 12.76 15.53C12.76 15.95 12.42 16.28 12.01 16.28Z" fill="black"/>
</svg>
