<svg width="24" height="24" viewBox="0 0 24 24" fill="none" xmlns="http://www.w3.org/2000/svg">
<path d="M3.25 8.00004C3.25 7.72004 3.41 7.46004 3.67 7.33004L10.32 4.00004C11.37 3.47004 12.63 3.47004 13.68 4.00004L20.33 7.33004C20.59 7.46004 20.75 7.72004 20.75 8.00004C20.75 8.28004 20.59 8.54004 20.33 8.67004L13.68 12C13.15 12.26 12.58 12.39 12 12.39C11.42 12.39 10.85 12.26 10.32 12L3.67 8.67004C3.41 8.54004 3.25 8.28004 3.25 8.00004ZM20.33 11.33L18.79 10.56L14.13 12.89C13.45 13.22 12.74 13.39 12 13.39C11.26 13.39 10.55 13.22 9.88 12.9L5.21 10.56L3.67 11.33C3.41 11.46 3.25 11.72 3.25 12C3.25 12.28 3.41 12.54 3.67 12.67L10.33 16C10.85 16.26 11.42 16.39 12 16.39C12.58 16.39 13.15 16.26 13.67 16L20.33 12.67C20.59 12.54 20.75 12.28 20.75 12C20.75 11.72 20.59 11.46 20.33 11.33ZM20.33 15.33L18.79 14.56L14.12 16.89C13.47 17.22 12.74 17.39 12 17.39C11.26 17.39 10.53 17.22 9.88 16.89L5.21 14.56L3.67 15.33C3.41 15.46 3.25 15.72 3.25 16C3.25 16.28 3.41 16.54 3.67 16.67L10.33 20C10.85 20.26 11.42 20.39 12 20.39C12.58 20.39 13.15 20.26 13.67 20L20.33 16.67C20.59 16.54 20.75 16.28 20.75 16C20.75 15.72 20.59 15.46 20.33 15.33Z" fill="black"/>
</svg>
