<svg width="24" height="24" viewBox="0 0 24 24" fill="none" xmlns="http://www.w3.org/2000/svg">
<path d="M17.3504 5.47C15.9204 4.04 14.0204 3.25 12.0004 3.25C9.98043 3.25 8.08043 4.04 6.65043 5.47C5.22043 6.9 4.44043 8.79 4.44043 10.81C4.44043 14.75 7.84043 18.23 9.87043 19.96C10.4904 20.48 11.2404 20.75 12.0004 20.75C12.7604 20.75 13.5104 20.48 14.1304 19.96C16.1604 18.24 19.5604 14.76 19.5604 10.81C19.5604 8.79 18.7804 6.9 17.3504 5.47ZM12.0004 13.84C10.3304 13.84 8.98043 12.48 8.98043 10.81C8.98043 9.14 10.3304 7.79 12.0004 7.79C13.6704 7.79 15.0204 9.15 15.0204 10.81C15.0204 12.47 13.6704 13.84 12.0004 13.84ZM13.5204 10.81C13.5204 11.65 12.8404 12.34 12.0004 12.34C11.1604 12.34 10.4804 11.65 10.4804 10.81C10.4804 9.97 11.1604 9.29 12.0004 9.29C12.8404 9.29 13.5204 9.98 13.5204 10.81Z" fill="black"/>
</svg>
