<svg width="24" height="24" viewBox="0 0 24 24" fill="none" xmlns="http://www.w3.org/2000/svg">
<path d="M20.75 11.49V12C20.75 13.35 20.43 14.71 19.82 15.91C19.1 17.36 17.98 18.59 16.6 19.44C15.22 20.3 13.63 20.75 12 20.75H11.98C10.87 20.75 9.78 20.54 8.74 20.12C8.44 20 8.15 19.96 7.9 20L5.81 20.23C5.25 20.29 4.7 20.09 4.3 19.69C3.91 19.3 3.71 18.75 3.77 18.19L3.99 16.15C4.04 15.85 4 15.56 3.88 15.26C3.46 14.22 3.25 13.12 3.25 12C3.25 10.37 3.7 8.78 4.56 7.4C5.41 6.02 6.63 4.9 8.09 4.18C9.29 3.57 10.63 3.25 11.98 3.25H12.47C14.66 3.37 16.68 4.27 18.21 5.8C19.73 7.32 20.63 9.34 20.75 11.49Z" fill="black"/>
</svg>
