<svg width="24" height="24" viewBox="0 0 24 24" fill="none" xmlns="http://www.w3.org/2000/svg">
<path d="M3.78027 17.2C3.78027 19.16 5.37027 20.75 7.33027 20.75H16.6703C18.6303 20.75 20.2203 19.16 20.2203 17.2V10.58H3.78027V17.2ZM10.0103 14.25H11.2603V13C11.2603 12.59 11.6003 12.25 12.0103 12.25C12.4203 12.25 12.7603 12.59 12.7603 13V14.25H14.0103C14.4303 14.25 14.7603 14.59 14.7603 15C14.7603 15.41 14.4303 15.75 14.0103 15.75H12.7603V17C12.7603 17.41 12.4303 17.75 12.0103 17.75C11.5903 17.75 11.2603 17.41 11.2603 17V15.75H10.0103C9.60027 15.75 9.26027 15.41 9.26027 15C9.26027 14.59 9.60027 14.25 10.0103 14.25ZM9.02027 4.31H7.52027V4C7.52027 3.59 7.85027 3.25 8.27027 3.25C8.69027 3.25 9.02027 3.59 9.02027 4V4.31ZM16.4803 4.31H14.9803V4C14.9803 3.59 15.3203 3.25 15.7303 3.25C16.1403 3.25 16.4803 3.59 16.4803 4V4.31ZM20.2203 7.86V9.08H3.78027V7.86C3.78027 5.9 5.37027 4.31 7.33027 4.31H7.52027V6.82C7.52027 7.23 7.85027 7.57 8.27027 7.57C8.69027 7.57 9.02027 7.23 9.02027 6.82V4.31H14.9803V6.82C14.9803 7.23 15.3203 7.57 15.7303 7.57C16.1403 7.57 16.4803 7.23 16.4803 6.82V4.31H16.6703C18.6303 4.31 20.2203 5.9 20.2203 7.86Z" fill="black"/>
</svg>
