<svg width="24" height="24" viewBox="0 0 24 24" fill="none" xmlns="http://www.w3.org/2000/svg">
<path d="M12 3.25C7.18 3.25 3.25 7.18 3.25 12C3.25 16.82 7.18 20.75 12 20.75C16.82 20.75 20.75 16.83 20.75 12C20.75 7.17 16.82 3.25 12 3.25ZM12.75 15.2C12.75 15.61 12.41 15.95 12 15.95C11.59 15.95 11.25 15.61 11.25 15.2V11.75C11.25 11.34 11.59 11 12 11C12.41 11 12.75 11.34 12.75 11.75V15.2ZM12.01 9.25C11.59 9.25 11.25 8.91 11.25 8.5C11.25 8.09 11.59 7.75 12 7.75H12.01C12.42 7.75 12.76 8.09 12.76 8.5C12.76 8.91 12.42 9.25 12.01 9.25Z" fill="black"/>
</svg>
