<svg width="24" height="24" viewBox="0 0 24 24" fill="none" xmlns="http://www.w3.org/2000/svg">
<path d="M20.7497 14.1802C20.7497 15.3502 20.2897 16.4502 19.4697 17.2802C18.6397 18.1102 17.5397 18.5602 16.3697 18.5602H9.81969C8.58969 18.5602 7.38969 18.2202 6.34969 17.5702C5.30969 16.9202 4.46969 15.9902 3.92969 14.8902C3.38969 13.7902 3.16969 12.5602 3.28969 11.3302C3.40969 10.1102 3.87969 8.95023 4.62969 7.97023C5.37969 6.99023 6.38969 6.26023 7.53969 5.83023C8.68969 5.40023 9.93969 5.31023 11.1397 5.56023C12.3497 5.81023 13.4497 6.39023 14.3397 7.23023C15.0897 7.94023 15.6497 8.82023 15.9997 9.78023H16.3597C17.5297 9.78023 18.6297 10.2402 19.4597 11.0602C20.2897 11.8902 20.7397 12.9902 20.7397 14.1602L20.7497 14.1802Z" fill="black"/>
</svg>
