<svg width="24" height="24" viewBox="0 0 24 24" fill="none" xmlns="http://www.w3.org/2000/svg">
<path d="M18.75 8.5V17C18.75 19.07 17.07 20.75 15 20.75H9C6.93 20.75 5.25 19.07 5.25 17V8.5C5.25 7.58 5.64 6.75 6.25 6.15V6.5C6.25 7.19 6.44 7.84 6.76 8.39C7.41 9.5 8.62 10.25 10 10.25H14C15.38 10.25 16.59 9.5 17.24 8.39C17.56 7.84 17.75 7.19 17.75 6.5V6.15C18.36 6.75 18.75 7.58 18.75 8.5ZM16.24 5.34C16.16 4.17 15.19 3.25 14 3.25H10C8.81 3.25 7.84 4.17 7.76 5.34C7.75 5.39 7.75 5.45 7.75 5.5V6.5C7.75 6.64 7.76 6.78 7.79 6.91C7.98 7.96 8.9 8.75 10 8.75H14C15.1 8.75 16.02 7.96 16.21 6.91C16.24 6.78 16.25 6.64 16.25 6.5V5.5C16.25 5.5 16.25 5.39 16.24 5.34Z" fill="black"/>
</svg>
