<svg width="24" height="24" viewBox="0 0 24 24" fill="none" xmlns="http://www.w3.org/2000/svg">
<path d="M18 5.25H6C4.48 5.25 3.25 6.48 3.25 8V16C3.25 17.52 4.48 18.75 6 18.75H18C19.52 18.75 20.75 17.52 20.75 16V8C20.75 6.48 19.52 5.25 18 5.25ZM9.25 14.75C7.93 14.75 6.86 13.52 6.86 12C6.86 10.48 7.93 9.25 9.25 9.25C10.57 9.25 11.64 10.48 11.64 12C11.64 13.52 10.57 14.75 9.25 14.75ZM16.75 14C16.75 14.32 16.54 14.61 16.24 14.71C16.16 14.74 16.08 14.75 16 14.75C15.77 14.75 15.54 14.64 15.4 14.45L13.75 12.25V14C13.75 14.41 13.41 14.75 13 14.75C12.59 14.75 12.25 14.41 12.25 14V10C12.25 9.68 12.46 9.39 12.76 9.29C13.07 9.19 13.41 9.29 13.6 9.55L15.25 11.75V10C15.25 9.59 15.59 9.25 16 9.25C16.41 9.25 16.75 9.59 16.75 10V14ZM10.14 12C10.14 12.68 9.73 13.25 9.25 13.25C8.77 13.25 8.36 12.68 8.36 12C8.36 11.32 8.77 10.75 9.25 10.75C9.73 10.75 10.14 11.32 10.14 12Z" fill="black"/>
</svg>
