<svg width="24" height="24" viewBox="0 0 24 24" fill="none" xmlns="http://www.w3.org/2000/svg">
<path d="M19.5596 7.26006L12.0196 11.1501H12.0096L6.13961 7.75006L4.72961 6.94006C4.92961 6.75006 5.14961 6.59006 5.39961 6.45006L10.4196 3.66006C11.3996 3.11006 12.5996 3.11006 13.5796 3.66006L18.5996 6.45006C18.9696 6.66006 19.2996 6.93006 19.5596 7.26006ZM3.72961 9.30006V14.7001C3.71961 15.8901 4.36961 16.9801 5.39961 17.5501L10.4196 20.3401C10.6796 20.4901 10.9596 20.6001 11.2496 20.6601V12.4501L3.92961 8.21006C3.79961 8.55006 3.72961 8.92006 3.72961 9.30006ZM20.1996 8.62006L18.7796 9.35006L12.8396 12.4101L12.7496 12.4601V20.6601C13.0396 20.6001 13.3196 20.4901 13.5796 20.3401L18.5996 17.5501C19.6296 16.9801 20.2796 15.8901 20.2796 14.7001V9.30006C20.2796 9.07006 20.2596 8.84006 20.1996 8.62006Z" fill="black"/>
</svg>
