<svg width="24" height="24" viewBox="0 0 24 24" fill="none" xmlns="http://www.w3.org/2000/svg">
<path d="M18.03 4.71994C17.74 4.42994 17.26 4.42994 16.97 4.71994L14.61 7.07994C11.02 6.17994 7.09 7.12994 4.27 9.94994L2.21 12.0099C1.93 12.2999 1.93 12.7599 2.21 13.0399L4.27 15.0999C4.68 15.4999 5.02 15.9199 5.41 16.2799L3.47 18.2199C3.18 18.5099 3.18 18.9899 3.47 19.2799C3.62 19.4299 3.81 19.4999 4 19.4999C4.19 19.4999 4.38 19.4299 4.53 19.2799L18.03 5.77994C18.32 5.48994 18.32 5.00994 18.03 4.71994ZM8.85 12.8399C8.83 12.7099 8.81 12.5799 8.81 12.4399C8.81 10.7799 10.15 9.43994 11.81 9.43994C11.95 9.43994 12.07 9.46994 12.21 9.47994L8.86 12.8299L8.85 12.8399ZM21.79 13.0399L19.73 15.0999C16.71 18.1199 12.36 18.9999 8.56 17.7499C8.38 17.6899 8.19 17.6199 8 17.5499L10.47 15.1199C10.87 15.3199 11.33 15.4399 11.81 15.4399C13.47 15.4399 14.81 14.0999 14.81 12.4399C14.81 11.9799 14.71 11.5399 14.52 11.1499L17.5 8.22994C17.67 8.32994 17.84 8.42994 18 8.53994C18.61 8.93994 19.19 9.40994 19.73 9.94994L21.79 12.0099C22.07 12.2999 22.07 12.7599 21.79 13.0399ZM11.26 14.3399L13.74 11.9199C13.78 12.0799 13.8 12.2499 13.8 12.4199C13.8 13.5199 12.91 14.4199 11.8 14.4199C11.61 14.4199 11.43 14.3899 11.26 14.3399Z" fill="black"/>
</svg>
