<svg width="24" height="24" viewBox="0 0 24 24" fill="none" xmlns="http://www.w3.org/2000/svg">
<path d="M20.75 9V15C20.75 17.07 19.07 18.75 17 18.75H7C4.93 18.75 3.25 17.07 3.25 15V9C3.25 8.66 3.3 8.33 3.39 8.01L4.14 8.6C4.27 8.7 4.48 8.85 4.75 9.05C6.37 10.2 10.16 12.75 12 12.75C13.84 12.75 17.61 10.21 19.25 9.05C19.52 8.86 19.74 8.7 19.87 8.6L20.62 8.03C20.71 8.34 20.75 8.66 20.75 9ZM17 5.25H7C5.82 5.25 4.77 5.79 4.08 6.65L5.05 7.41C5.12 7.46 5.19 7.51 5.26 7.57C7.29 9.05 10.76 11.25 12 11.25C13.24 11.25 16.68 9.06 18.74 7.57C18.82 7.51 18.9 7.45 18.97 7.4L19.93 6.67C19.25 5.8 18.19 5.25 17 5.25Z" fill="black"/>
</svg>
