<svg width="24" height="24" viewBox="0 0 24 24" fill="none" xmlns="http://www.w3.org/2000/svg">
<path d="M20.7199 13.9299C20.4299 15.1699 19.8899 16.3099 19.1099 17.3099C18.0799 18.6399 16.6999 19.6499 15.1099 20.2199C14.1399 20.5699 13.1199 20.7499 12.1099 20.7499C11.4599 20.7499 10.8199 20.6799 10.1799 20.5399C8.53995 20.1699 7.03995 19.3499 5.84995 18.1599C4.65995 16.9699 3.83995 15.4699 3.46995 13.8299C3.09995 12.1899 3.20995 10.4799 3.77995 8.89993C4.34995 7.31993 5.35995 5.92993 6.68995 4.89993C7.69995 4.11993 8.83995 3.57993 10.0699 3.28993C10.5299 3.18993 10.9999 3.33993 11.2899 3.71993C11.6099 4.11993 11.6699 4.66993 11.4399 5.13993C10.9999 6.02993 10.8099 7.01993 10.8899 7.99993C10.9899 9.32993 11.5599 10.5699 12.4999 11.5099C13.4399 12.4499 14.6899 13.0199 16.0099 13.1199C16.9999 13.1999 17.9899 12.9999 18.8799 12.5699C19.3399 12.3399 19.8999 12.3999 20.2999 12.7199C20.6699 13.0099 20.8399 13.4799 20.7299 13.9399L20.7199 13.9299Z" fill="black"/>
</svg>
