<svg width="24" height="24" viewBox="0 0 24 24" fill="none" xmlns="http://www.w3.org/2000/svg">
<path d="M16 12C13.79 12 12 13.79 12 16C12 18.21 13.79 20 16 20C18.21 20 20 18.21 20 16C20 13.79 18.21 12 16 12ZM17.53 17.53C17.38 17.68 17.19 17.75 17 17.75C16.81 17.75 16.62 17.68 16.47 17.53L15.47 16.53C15.33 16.39 15.25 16.2 15.25 16V15C15.25 14.59 15.59 14.25 16 14.25C16.41 14.25 16.75 14.59 16.75 15V15.69L17.53 16.47C17.82 16.76 17.82 17.24 17.53 17.53ZM6.63 5.09C8.12 3.94 9.97 3.25 12 3.25C13.37 3.25 14.66 3.56 15.81 4.12C15.61 4.56 15.12 4.93 14.51 5.05C13.05 5.33 12.44 5.64 12.31 7.59C12.29 7.92 12.15 8.11 11.9 8.14C11.68 8.16 11.38 8.04 11.26 7.63C10.66 5.69 9.32 5.84 8.14 5.97L7.8 6.01C7.28 6.05 6.86 5.48 6.63 5.09ZM7.26 16.14C7.48 17.25 7.07 18.4 6.78 19.03C5.31 17.93 4.2 16.38 3.64 14.59C4.1 14.38 5.04 14.1 5.47 14.53C5.9 14.96 6.3 15.23 6.62 15.45C7.11 15.78 7.21 15.87 7.26 16.14ZM20.74 11.47C20.76 11.78 20.59 12.06 20.31 12.2C20.04 12.33 19.71 12.28 19.49 12.08C18.54 11.22 17.3 10.75 16 10.75C13.11 10.75 10.75 13.11 10.75 16C10.75 17.3 11.22 18.54 12.08 19.49C12.28 19.71 12.33 20.04 12.2 20.31C12.07 20.58 11.81 20.74 11.52 20.74H11.47C10.24 20.67 9.09 20.34 8.06 19.82C8.44 19.07 9.06 17.48 8.74 15.86C8.56 14.95 8 14.57 7.46 14.2C7.16 14 6.86 13.8 6.53 13.47C5.62 12.56 4.26 12.74 3.32 13.09C3.27 12.73 3.25 12.37 3.25 12C3.25 9.75 4.1 7.7 5.5 6.14C6.01 6.89 6.83 7.61 7.95 7.5L8.3 7.46C9.54 7.33 9.6 7.35 9.82 8.07C10.12 9.02 10.93 9.64 11.84 9.64C11.92 9.64 12 9.64 12.08 9.63C13.05 9.51 13.74 8.74 13.81 7.69C13.8567 7.03 14.1833 6.64 14.79 6.52C15.83 6.32 16.67 5.69 17.1 4.89C19.17 6.38 20.57 8.75 20.74 11.47Z" fill="black"/>
</svg>
