<svg width="24" height="24" viewBox="0 0 24 24" fill="none" xmlns="http://www.w3.org/2000/svg">
<path d="M17 3.25H7C4.93 3.25 3.25 4.93 3.25 7V17C3.25 18.14 3.76 19.16 4.57 19.85L5.41 18.76C5.41 18.76 5.45 18.72 5.49 18.67C6.05 18 9.35 14.09 11.47 11.97C13.64 9.8 15.3 9.45 17.21 10.77C17.85 11.22 18.62 11.97 19.25 12.63C19.93 13.35 20.46 13.97 20.5 14.02L20.75 14.3V7C20.75 4.93 19.07 3.25 17 3.25ZM8.89 10.97C7.74 10.97 6.81 10.04 6.81 8.89C6.81 7.74 7.74 6.81 8.89 6.81C10.04 6.81 10.97 7.74 10.97 8.89C10.97 10.04 10.04 10.97 8.89 10.97ZM19.36 15L20.75 16.56V17C20.75 19.07 19.07 20.75 17 20.75H7C6.62 20.75 6.25 20.69 5.9 20.58L6.58 19.7C6.58 19.7 6.72 19.53 6.96 19.25C7.96 18.07 10.72 14.84 12.53 13.03C14.7 10.86 15.54 11.44 16.35 12C17.36 12.71 18.84 14.39 19.25 14.87C19.32 14.95 19.35 14.99 19.36 15Z" fill="black"/>
</svg>
