<svg width="24" height="24" viewBox="0 0 24 24" fill="none" xmlns="http://www.w3.org/2000/svg">
<path d="M19.9498 16.4198C19.9498 18.1598 18.5398 19.5698 16.7998 19.5698C15.0598 19.5698 13.6498 18.1598 13.6498 16.4198C13.6498 16.1098 13.6998 15.8098 13.7798 15.5198L9.4598 13.0098C8.8898 13.5998 8.0798 13.9698 7.1998 13.9698C5.4598 13.9698 4.0498 12.5598 4.0498 10.8198C4.0498 9.07982 5.4598 7.66982 7.1998 7.66982C8.0898 7.66982 8.8898 8.03982 9.4598 8.62982L13.7798 6.10982C13.6998 5.82982 13.6498 5.52982 13.6498 5.21982C13.6498 3.47982 15.0598 2.06982 16.7998 2.06982C18.5398 2.06982 19.9498 3.47982 19.9498 5.21982C19.9498 6.95982 18.5398 8.36982 16.7998 8.36982C15.9098 8.36982 15.1098 7.99982 14.5398 7.40982L10.2298 9.92982C10.3098 10.2098 10.3598 10.5098 10.3598 10.8198C10.3598 11.1298 10.3198 11.4298 10.2298 11.7098L14.5498 14.2298C15.1198 13.6398 15.9298 13.2698 16.8098 13.2698C18.5498 13.2698 19.9598 14.6798 19.9598 16.4198H19.9498Z" fill="black"/>
</svg>
