<svg width="24" height="24" viewBox="0 0 24 24" fill="none" xmlns="http://www.w3.org/2000/svg">
<path d="M17.8302 11.4601C18.1502 11.7301 18.1902 12.2001 17.9302 12.5201C17.7802 12.7001 17.5702 12.7901 17.3502 12.7901C17.1802 12.7901 17.0102 12.7301 16.8702 12.6201C15.5102 11.4901 13.7902 10.8701 12.0302 10.8701C10.2702 10.8701 8.54021 11.4901 7.19021 12.6201C6.87021 12.8901 6.40021 12.8401 6.13021 12.5201C5.86021 12.2001 5.91021 11.7301 6.23021 11.4601C7.86021 10.1101 9.92021 9.36008 12.0302 9.36008C14.1402 9.36008 16.2102 10.1101 17.8302 11.4601ZM20.5002 8.79008C18.1502 6.72008 15.1302 5.58008 12.0002 5.58008C8.87021 5.58008 5.85021 6.72008 3.50021 8.79008C3.19021 9.06008 3.16021 9.54008 3.43021 9.85008C3.70021 10.1601 4.18021 10.1901 4.49021 9.92008C6.56021 8.09008 9.23021 7.09008 11.9902 7.09008C14.7502 7.09008 17.4202 8.10008 19.4902 9.92008C19.6302 10.0501 19.8102 10.1101 19.9902 10.1101C20.2002 10.1101 20.4002 10.0201 20.5502 9.86008C20.8202 9.55008 20.7902 9.07008 20.4802 8.80008L20.5002 8.79008ZM8.94021 14.1201C8.60021 14.3601 8.52021 14.8301 8.76021 15.1701C9.00021 15.5101 9.47021 15.5901 9.81021 15.3501C11.1002 14.4401 12.9102 14.4401 14.2002 15.3501C14.3302 15.4401 14.4802 15.4901 14.6302 15.4901C14.8702 15.4901 15.1002 15.3801 15.2402 15.1701C15.4802 14.8301 15.4002 14.3601 15.0602 14.1301C13.2602 12.8501 10.7402 12.8501 8.94021 14.1301V14.1201ZM12.0102 16.6701H11.9902C11.4402 16.6701 11.0002 17.1201 11.0002 17.6701C11.0002 18.2201 11.4602 18.6701 12.0102 18.6701C12.5602 18.6701 13.0102 18.2201 13.0102 17.6701C13.0102 17.1201 12.5602 16.6701 12.0102 16.6701Z" fill="black"/>
</svg>
