<svg width="24" height="24" viewBox="0 0 24 24" fill="none" xmlns="http://www.w3.org/2000/svg">
<path d="M18.3399 5.97V15.71C15.8799 15.24 9.87992 14.41 5.66992 16.43V5.97C5.66992 4.47 6.88992 3.25 8.38992 3.25H15.6299C17.1299 3.25 18.3499 4.47 18.3499 5.97H18.3399ZM17.8199 17.67C17.8699 17.56 17.9199 17.46 17.9899 17.37C16.6899 17.16 14.8199 16.95 12.8299 16.95C10.6399 16.95 8.28992 17.23 6.41992 18.11C5.98992 18.3 5.70992 18.75 5.66992 19.24V19.34C5.66992 20.11 6.33992 20.75 7.15992 20.75H18.0099C17.4899 19.74 17.3999 18.61 17.8299 17.67H17.8199Z" fill="black"/>
</svg>
