<svg width="24" height="24" viewBox="0 0 24 24" fill="none" xmlns="http://www.w3.org/2000/svg">
<path d="M19.2603 19.5102C18.8303 20.2802 18.0203 20.7502 17.1403 20.7502H6.8703C5.9903 20.7502 5.1803 20.2702 4.7503 19.5102C4.5003 19.0602 4.4003 18.5802 4.4603 18.1302C4.5103 17.6802 4.7003 17.2502 5.0303 16.9202C6.0103 15.9302 8.2103 14.2602 11.9103 14.2602H12.1203C15.8203 14.2602 18.0203 15.9302 19.0003 16.9202C19.3303 17.2502 19.5203 17.6802 19.5703 18.1402C19.6203 18.6002 19.5303 19.0802 19.2803 19.5202L19.2603 19.5102ZM12.0103 11.8602C14.3803 11.8602 16.3203 9.93023 16.3203 7.55023C16.3203 5.17023 14.3903 3.24023 12.0103 3.24023C9.6303 3.24023 7.7003 5.17023 7.7003 7.55023C7.7003 9.93023 9.6303 11.8602 12.0103 11.8602Z" fill="black"/>
</svg>
