<svg width="24" height="24" viewBox="0 0 24 24" fill="none" xmlns="http://www.w3.org/2000/svg">
<path d="M20.75 13.75V17C20.75 19.07 19.07 20.75 17 20.75H7C4.93 20.75 3.25 19.07 3.25 17V13.75H7.67C8.01 13.75 8.32 13.88 8.56 14.12L9.38 14.94C9.9 15.46 10.59 15.75 11.33 15.75H12.67C13.41 15.75 14.1 15.46 14.62 14.94L15.44 14.12C15.68 13.88 15.99 13.75 16.33 13.75H20.75ZM20.64 11.46L19.3 6.09C18.88 4.42 17.38 3.25 15.66 3.25H8.34C6.62 3.25 5.12 4.42 4.7 6.09L3.36 11.46C3.3 11.72 3.26 11.98 3.26 12.25H7.67C8.41 12.25 9.1 12.54 9.62 13.06L10.44 13.88C10.68 14.12 10.99 14.25 11.33 14.25H12.67C13.01 14.25 13.32 14.12 13.56 13.88L14.38 13.06C14.9 12.54 15.59 12.25 16.33 12.25H20.74C20.74 11.98 20.7 11.72 20.64 11.46Z" fill="black"/>
</svg>
