<svg width="24" height="24" viewBox="0 0 24 24" fill="none" xmlns="http://www.w3.org/2000/svg">
<path d="M20.75 7.92C20.75 8.38 20.57 8.82 20.24 9.15L19.31 10.08L18.25 9.02L14.98 5.75L14.45 5.22L13.92 4.69L14.85 3.76C15.18 3.43 15.62 3.25 16.08 3.25H16.09C16.55 3.25 16.99 3.43 17.32 3.76L20.24 6.68C20.57 7.01 20.75 7.45 20.75 7.92ZM18.82 11.71L18.38 15.68C18.28 16.61 17.46 17.29 16.53 17.25C15.06 17.18 11.44 17.11 8.07 18.08C9.2 18.82 10.55 19.25 12 19.25C12.41 19.25 12.75 19.59 12.75 20C12.75 20.41 12.41 20.75 12 20.75C7.17 20.75 3.25 16.82 3.25 12C3.25 11.59 3.59 11.25 4 11.25C4.41 11.25 4.75 11.59 4.75 12C4.75 13.45 5.18 14.8 5.92 15.93C6.89 12.56 6.82 8.94 6.75 7.47C6.7 6.53 7.39 5.72 8.32 5.62L12.28 5.17L13.39 6.28L13.64 6.54L17.46 10.36L17.72 10.61L18.82 11.71ZM15.12 11.16C15.12 9.91 14.09 8.88 12.84 8.88C11.59 8.88 10.56 9.91 10.56 11.16C10.56 12.41 11.58 13.44 12.84 13.44C14.1 13.44 15.12 12.42 15.12 11.16ZM12.84 10.38C12.41 10.38 12.06 10.73 12.06 11.16C12.06 11.59 12.41 11.94 12.84 11.94C13.27 11.94 13.62 11.59 13.62 11.16C13.62 10.73 13.27 10.38 12.84 10.38Z" fill="black"/>
</svg>
