<svg width="24" height="24" viewBox="0 0 24 24" fill="none" xmlns="http://www.w3.org/2000/svg">
<path d="M20.5599 6.12993L14.3599 19.5699C14.0199 20.2999 13.3199 20.7499 12.5299 20.7499C12.4699 20.7499 12.4099 20.7499 12.3599 20.7499C11.4999 20.6799 10.7999 20.0899 10.5699 19.2599L9.39992 14.9799C9.34992 14.7999 9.20992 14.6599 9.02992 14.6099L4.74993 13.4399C3.91993 13.2099 3.32993 12.5099 3.25993 11.6499C3.18993 10.7899 3.64993 9.99993 4.42993 9.63993L17.8699 3.43993C18.6499 3.07993 19.5399 3.23993 20.1499 3.84993C20.7599 4.45993 20.9199 5.34993 20.5599 6.12993Z" fill="black"/>
</svg>
