<svg width="24" height="24" viewBox="0 0 24 24" fill="none" xmlns="http://www.w3.org/2000/svg">
<path d="M18.2 5.79C16.68 4.27 14.66 3.37 12.47 3.25H11.98C10.63 3.25 9.29 3.57 8.09 4.18C6.63 4.9 5.41 6.02 4.56 7.4C3.7 8.78 3.25 10.37 3.25 12C3.25 13.12 3.46 14.22 3.88 15.26C4 15.56 4.04 15.85 3.99 16.15L3.77 18.19C3.71 18.75 3.91 19.3 4.3 19.69C4.7 20.09 5.25 20.28 5.81 20.23L7.9 20C8.15 19.96 8.44 20 8.74 20.12C9.77 20.54 10.86 20.75 11.98 20.75H12C13.63 20.75 15.22 20.3 16.6 19.44C17.98 18.59 19.1 17.37 19.82 15.91C20.43 14.71 20.75 13.35 20.75 12V11.49C20.63 9.34 19.73 7.32 18.2 5.79ZM11.84 16.75C11.42 16.75 11.08 16.42 11.08 16C11.08 15.58 11.41 15.25 11.83 15.25H11.84C12.25 15.25 12.59 15.59 12.59 16C12.59 16.41 12.25 16.75 11.84 16.75ZM13.49 12.7C13.2 12.87 12.92 13.03 12.69 13.3C12.65 13.35 12.58 13.51 12.55 13.61C12.45 13.94 12.15 14.15 11.83 14.15C11.76 14.15 11.69 14.15 11.62 14.12C11.22 14.01 10.99 13.59 11.11 13.19C11.13 13.1 11.28 12.63 11.56 12.31C11.96 11.86 12.38 11.61 12.73 11.41C13.25 11.1 13.41 11 13.41 10.4C13.41 10.01 13.28 9.63 13.03 9.34C12.78 9.04 12.43 8.84 12.04 8.77C11.66 8.71 11.26 8.78 10.93 8.98C10.59 9.17 10.34 9.49 10.21 9.85C10.07 10.24 9.64 10.45 9.25 10.31C8.86 10.17 8.65 9.75 8.79 9.35C9.04 8.65 9.53 8.06 10.17 7.68C10.81 7.31 11.57 7.17 12.3 7.29C13.03 7.42 13.69 7.8 14.17 8.37C14.65 8.94 14.92 9.66 14.91 10.4C14.91 11.86 14.09 12.35 13.49 12.7Z" fill="black"/>
</svg>
