<svg width="24" height="24" viewBox="0 0 24 24" fill="none" xmlns="http://www.w3.org/2000/svg">
<path d="M20.5 12C20.5 16.69 16.69 20.5 12 20.5C7.31 20.5 3.5 16.69 3.5 12C3.5 7.31 7.31 3.5 12 3.5C14.11 3.5 16.06 4.29 17.55 5.57L12.35 10.77L10.31 8.73C9.48 7.9 8.14 7.9 7.31 8.73C6.47 9.56 6.47 10.91 7.31 11.74L10.09 14.52C10.72 15.15 11.52 15.45 12.34 15.45C13.16 15.45 13.98 15.14 14.59 14.52L19.98 9.13C20.31 10.02 20.49 10.99 20.49 12H20.5ZM12.13 12.49L9.34 9.7C9.05 9.41 8.57 9.41 8.28 9.7C7.99 9.99 7.99 10.47 8.28 10.76L11.07 13.55C11.42 13.9 11.89 14.08 12.35 14.08C12.81 14.08 13.28 13.9 13.63 13.55L19.96 7.22C20.25 6.93 20.25 6.45 19.96 6.16C19.67 5.87 19.19 5.87 18.9 6.16L12.57 12.49C12.45 12.61 12.25 12.61 12.13 12.49Z" fill="black"/>
</svg>
