<svg width="24" height="24" viewBox="0 0 24 24" fill="none" xmlns="http://www.w3.org/2000/svg">
<path d="M12 3.25C7.18 3.25 3.25 7.18 3.25 12C3.25 16.82 7.18 20.75 12 20.75C16.82 20.75 20.75 16.82 20.75 12C20.75 7.18 16.82 3.25 12 3.25ZM14.79 13.73C15.09 14.03 15.09 14.5 14.79 14.79C14.65 14.94 14.45 15.01 14.26 15.01C14.07 15.01 13.88 14.94 13.73 14.79L12 13.06L10.27 14.79C9.97 15.09 9.5 15.09 9.21 14.79C8.91 14.5 8.91 14.03 9.21 13.73L10.94 12L9.21 10.27C8.91 9.97 8.91 9.5 9.21 9.21C9.5 8.91 9.97 8.91 10.27 9.21L12 10.94L13.73 9.21C14.03 8.91 14.5 8.91 14.79 9.21C15.09 9.5 15.09 9.97 14.79 10.27L13.06 12L14.79 13.73Z" fill="black"/>
</svg>
