<svg width="24" height="24" viewBox="0 0 24 24" fill="none" xmlns="http://www.w3.org/2000/svg">
<path d="M12 3.25C7.17 3.25 3.25 7.18 3.25 12C3.25 16.82 7.17 20.75 12 20.75C16.83 20.75 20.75 16.82 20.75 12C20.75 7.18 16.83 3.25 12 3.25ZM13.65 9.6C13.65 9.19 13.99 8.85 14.4 8.85C14.81 8.85 15.15 9.19 15.15 9.6V10C15.15 10.41 14.81 10.75 14.4 10.75C13.99 10.75 13.65 10.41 13.65 10V9.6ZM8.86 9.6C8.86 9.19 9.19 8.85 9.61 8.85C10.03 8.85 10.36 9.19 10.36 9.6V10C10.36 10.41 10.02 10.75 9.61 10.75C9.2 10.75 8.86 10.41 8.86 10V9.6ZM15.8 14.05C15.74 14.13 14.35 15.95 12 15.95C9.65 15.95 8.26 14.13 8.2 14.05C7.95 13.72 8.02 13.25 8.35 13C8.68 12.75 9.15 12.82 9.4 13.15C9.4 13.16 10.42 14.45 12 14.45C13.58 14.45 14.59 13.16 14.6 13.15C14.86 12.82 15.33 12.76 15.65 13C15.98 13.25 16.05 13.72 15.8 14.05Z" fill="black"/>
</svg>
