<svg width="24" height="24" viewBox="0 0 24 24" fill="none" xmlns="http://www.w3.org/2000/svg">
<path d="M17.2898 12.3302L16.7398 12.9502C9.76978 20.7502 9.48978 20.7502 8.96978 20.7502H8.56978L8.28978 20.3802C7.94978 19.8602 8.02978 19.2102 10.2698 13.9002L10.3398 13.7402H7.62978C7.12978 13.7402 6.67978 13.4402 6.47978 12.9802C6.27978 12.5202 6.37978 11.9902 6.71978 11.6302L7.91978 10.3602C14.0798 3.82023 14.8498 3.24023 15.4698 3.24023H15.8698L16.1698 3.62023C16.5398 4.19023 16.3598 4.99023 14.3798 9.58023C14.2798 9.82023 14.1798 10.0402 14.0898 10.2402H16.3398C16.8398 10.2402 17.2798 10.5202 17.4798 10.9802C17.6798 11.4402 17.5998 11.9502 17.2698 12.3202L17.2898 12.3302Z" fill="black"/>
</svg>
