<svg width="24" height="24" viewBox="0 0 24 24" fill="none" xmlns="http://www.w3.org/2000/svg">
<path d="M18.0301 10.66L17.7101 12.16C17.7101 12.16 17.3601 14.79 16.0201 16.13C15.1001 17.05 13.9201 17.63 12.6401 17.79V19.25H14.8001C15.2101 19.25 15.5501 19.59 15.5501 20C15.5501 20.41 15.2101 20.75 14.8001 20.75H8.98011C8.57011 20.75 8.23011 20.41 8.23011 20C8.23011 19.59 8.57011 19.25 8.98011 19.25H11.1401V17.79C9.86011 17.63 8.68011 17.05 7.76011 16.13C6.18011 14.55 5.97011 10.98 5.95011 10.58C5.93011 10.17 6.25011 9.82 6.66011 9.8C7.07011 9.8 7.43011 10.1 7.45011 10.51C7.49011 11.44 7.83011 14.08 8.82011 15.07C9.64011 15.89 10.7301 16.34 11.8901 16.34C13.0501 16.34 14.1401 15.89 14.9601 15.07C15.7801 14.25 16.1601 12.51 16.2401 11.9L16.5701 10.34C16.6501 9.94 17.0501 9.67 17.4601 9.77C17.8601 9.85 18.1201 10.25 18.0301 10.66ZM9.92011 14.07C10.4701 14.63 11.2101 14.93 11.9901 14.93C12.7701 14.93 13.5101 14.63 14.0701 14.07C14.5901 13.54 14.8401 12.47 14.9101 12.11C15.3801 9.09 15.3801 6.3 15.3801 6.18C15.3801 4.96 14.3301 3.25 11.9901 3.25C10.0901 3.25 8.65011 4.51 8.65011 6.18C8.65011 6.32 8.65011 9.59 9.07011 12.12C9.18011 12.79 9.33011 13.49 9.92011 14.07Z" fill="black"/>
</svg>
