<svg width="24" height="24" viewBox="0 0 24 24" fill="none" xmlns="http://www.w3.org/2000/svg">
<path d="M19.75 4.98V15.01C19.75 15.29 19.59 15.55 19.34 15.68C19.09 15.81 18.79 15.78 18.56 15.62C16.55 14.15 14.56 14.88 12.26 15.72C10.25 16.46 8.01 17.27 5.75 16.31V20C5.75 20.41 5.41 20.75 5 20.75C4.59 20.75 4.25 20.41 4.25 20V4C4.25 3.59 4.59 3.25 5 3.25C5.41 3.25 5.75 3.59 5.75 4V4.59C7.66 5.78 9.56 5.08 11.74 4.28C14.1 3.42 16.78 2.44 19.44 4.38C19.63 4.52 19.75 4.75 19.75 4.99V4.98Z" fill="black"/>
</svg>
