<svg width="24" height="24" viewBox="0 0 24 24" fill="none" xmlns="http://www.w3.org/2000/svg">
<path d="M18.8201 12.19C18.6801 12.1 18.6801 11.9 18.8201 11.81C20.1401 11.06 20.5901 9.37 19.8301 8.06L19.3301 7.19C18.5701 5.88 16.8901 5.43 15.5701 6.19C15.4301 6.27 15.2501 6.16 15.2501 6C15.2501 4.48 14.0201 3.25 12.5001 3.25H11.5001C9.98009 3.25 8.75009 4.48 8.75009 6C8.75009 6.16 8.57009 6.27 8.43009 6.19C7.11009 5.43 5.43009 5.88 4.67009 7.19L4.17009 8.06C3.41009 9.37 3.86009 11.06 5.18009 11.81C5.32009 11.9 5.32009 12.1 5.18009 12.19C3.86009 12.94 3.41009 14.63 4.17009 15.94L4.67009 16.81C5.43009 18.12 7.11009 18.57 8.43009 17.81C8.57009 17.73 8.75009 17.84 8.75009 18C8.75009 19.52 9.98009 20.75 11.5001 20.75H12.5001C14.0201 20.75 15.2501 19.52 15.2501 18C15.2501 17.84 15.4301 17.73 15.5701 17.81C16.8901 18.57 18.5701 18.12 19.3301 16.81L19.8301 15.94C20.5901 14.63 20.1401 12.94 18.8201 12.19ZM12.0001 14.93C10.3801 14.93 9.07009 13.62 9.07009 12C9.07009 10.38 10.3801 9.07 12.0001 9.07C13.6201 9.07 14.9301 10.38 14.9301 12C14.9301 13.62 13.6201 14.93 12.0001 14.93ZM13.4301 12C13.4301 12.79 12.7901 13.43 12.0001 13.43C11.2101 13.43 10.5701 12.79 10.5701 12C10.5701 11.21 11.2101 10.57 12.0001 10.57C12.7901 10.57 13.4301 11.21 13.4301 12Z" fill="black"/>
</svg>
