<svg width="24" height="24" viewBox="0 0 24 24" fill="none" xmlns="http://www.w3.org/2000/svg">
<path d="M20.1501 19.41C19.6301 20.25 18.7301 20.75 17.7401 20.75H6.09006C5.10006 20.75 4.20006 20.25 3.68006 19.41C3.16006 18.57 3.11006 17.54 3.54006 16.66L9.37006 4.83C9.85006 3.86 10.8301 3.25 11.9201 3.25C13.0101 3.25 13.9801 3.86 14.4601 4.83L20.2901 16.66C20.7201 17.54 20.6701 18.57 20.1501 19.41ZM12.6701 13V9.37C12.6701 8.96 12.3301 8.62 11.9201 8.62C11.5101 8.62 11.1701 8.96 11.1701 9.37V13C11.1701 13.41 11.5101 13.75 11.9201 13.75C12.3301 13.75 12.6701 13.41 12.6701 13ZM12.6701 16.76C12.6701 16.35 12.3301 16.01 11.9201 16.01C11.5101 16.01 11.1701 16.35 11.1701 16.76C11.1701 17.17 11.5101 17.51 11.9201 17.51C12.3301 17.51 12.6701 17.17 12.6701 16.76Z" fill="black"/>
</svg>
