<svg width="24" height="24" viewBox="0 0 24 24" fill="none" xmlns="http://www.w3.org/2000/svg">
<path d="M20.7599 17.96C20.7599 18.88 20.3999 19.72 20.3599 19.81C20.2399 20.08 19.9699 20.25 19.6699 20.25H18.2099C18.3299 20.11 18.4399 19.95 18.5299 19.79C19.3499 18.33 19.0999 16.55 17.9299 15.47C17.6999 15.25 17.4199 15 17.0699 14.75H17.3799C19.2299 14.75 20.7499 16.19 20.7599 17.96ZM10.3799 11.92C12.6299 11.92 14.4599 10.08 14.4599 7.83C14.4599 5.58 12.6299 3.75 10.3799 3.75C8.12985 3.75 6.29985 5.58 6.29985 7.83C6.29985 10.08 8.12985 11.92 10.3799 11.92ZM14.2099 11.89C14.3599 11.91 14.5199 11.92 14.6799 11.92C16.9299 11.92 18.7599 10.08 18.7599 7.83C18.7599 5.58 16.9299 3.75 14.6799 3.75C14.5199 3.75 14.3699 3.76 14.2199 3.78C15.2899 4.81 15.9599 6.24 15.9599 7.83C15.9599 9.42 15.2899 10.87 14.2099 11.89ZM10.2799 14.06C6.78985 14.06 4.71985 15.63 3.78985 16.57C3.15985 17.21 3.05985 18.2 3.52985 19.04C3.94985 19.79 4.73985 20.25 5.59985 20.25H15.1799C16.0199 20.25 16.7999 19.79 17.2199 19.06C17.6999 18.2 17.5799 17.19 16.8999 16.56C15.9199 15.63 13.7499 14.06 10.2799 14.06Z" fill="black"/>
</svg>
