<svg width="24" height="24" viewBox="0 0 24 24" fill="none" xmlns="http://www.w3.org/2000/svg">
<path d="M20.75 12C20.75 14.94 19.84 18.02 19.73 18.41C19.66 18.72 19.45 19.57 19.01 20.01C18.53 20.49 17.9 20.75 17.22 20.75H16.33C15.66 20.75 15.02 20.49 14.55 20.01C14.07 19.53 13.81 18.9 13.81 18.22V15.56C13.81 14.88 14.07 14.25 14.55 13.77C15.02 13.29 15.66 13.03 16.33 13.03H19.21C19.24 12.69 19.25 12.34 19.25 12C19.25 9.29 18.57 8.32 17.13 6.87C15.76 5.5 13.94 4.75 12 4.75C10.06 4.75 8.24 5.5 6.87 6.87C5.5 8.24 4.75 10.06 4.75 12C4.75 12.3 4.77 12.65 4.81 13.03H7.67C8.34 13.03 8.98 13.29 9.45 13.77C9.93 14.25 10.19 14.88 10.19 15.56V18.22C10.19 18.9 9.93 19.53 9.45 20.01C8.98 20.49 8.34 20.75 7.67 20.75H6.78C6.1 20.75 5.47 20.49 4.99 20.01C4.54 19.56 4.33 18.67 4.27 18.39C4.21 18.16 3.67 15.91 3.4 13.9V13.86C3.31 13.18 3.25 12.54 3.25 12C3.25 9.66 4.16 7.47 5.81 5.81C7.47 4.16 9.66 3.25 12 3.25C14.34 3.25 16.53 4.16 18.19 5.81C19.69 7.31 20.75 8.64 20.75 12Z" fill="black"/>
</svg>
