<svg width="24" height="24" viewBox="0 0 24 24" fill="none" xmlns="http://www.w3.org/2000/svg">
<path d="M3.28019 12.2998L4.40019 6.13979C4.59019 5.08979 5.59019 4.39979 6.63019 4.57979L15.4502 6.10979V13.2698C15.4502 13.2698 13.6402 18.3498 12.2402 19.1698C10.8402 19.9898 9.90019 18.6998 9.90019 17.7698C9.90019 16.8398 10.5402 13.9198 10.5402 13.9198L5.42019 14.5598C4.12019 14.7198 3.04019 13.5798 3.28019 12.2898V12.2998ZM20.3102 12.8298C20.5902 12.5498 20.7502 12.1598 20.7502 11.7598V7.63979C20.7502 7.23979 20.5902 6.84979 20.3102 6.56979C20.0302 6.28979 19.6402 6.12979 19.2402 6.12979H16.9602V13.2898H19.2402C19.6402 13.2898 20.0302 13.1298 20.3102 12.8498V12.8298Z" fill="black"/>
</svg>
