<svg width="24" height="24" viewBox="0 0 24 24" fill="none" xmlns="http://www.w3.org/2000/svg">
<path d="M19.53 6.47C19.82 6.76 19.82 7.24 19.53 7.53L13.57 13.49C13.23 13.83 12.78 14 12.33 14C11.88 14 11.43 13.83 11.09 13.49L8.46 10.86C8.17 10.57 8.17 10.09 8.46 9.8C8.75 9.51 9.23 9.51 9.52 9.8L12.15 12.43C12.25 12.53 12.41 12.53 12.5 12.43L18.46 6.47C18.75 6.18 19.23 6.18 19.52 6.47H19.53ZM14.45 14.37C13.87 14.96 13.1 15.25 12.33 15.25C11.56 15.25 10.8 14.96 10.21 14.37L7.59 11.75C6.8 10.97 6.8 9.7 7.59 8.92C8.37 8.14 9.63 8.14 10.41 8.92L12.33 10.84L17.59 5.59C18.04 5.13 18.66 4.94 19.25 5.03C18.71 4.4 17.9 4 17 4H7C5.34 4 4 5.34 4 7V17C4 18.66 5.34 20 7 20H17C18.66 20 20 18.66 20 17V8.82L14.45 14.37Z" fill="black"/>
</svg>
