<svg width="24" height="24" viewBox="0 0 24 24" fill="none" xmlns="http://www.w3.org/2000/svg">
<path d="M18.2 5.8C16.68 4.28 14.66 3.37 12.51 3.25H12C10.64 3.25 9.3 3.56 8.09 4.18C6.63 4.9 5.41 6.02 4.56 7.4C3.7 8.78 3.25 10.37 3.25 12C3.25 13.12 3.46 14.23 3.88 15.26C4 15.56 4.04 15.85 4 16.1C4 16.11 3.99 16.13 3.99 16.15L3.77 18.19C3.65 19.36 4.64 20.35 5.81 20.23L7.85 20.01C7.85 20.01 7.89 20 7.9 20C8.15 19.96 8.44 20 8.74 20.12C9.77 20.54 10.88 20.75 12 20.75C13.63 20.75 15.22 20.3 16.6 19.44C17.98 18.59 19.1 17.37 19.82 15.91C20.44 14.7 20.75 13.36 20.75 12V11.49C20.63 9.34 19.72 7.32 18.2 5.8ZM14.79 13.73C15.09 14.03 15.09 14.5 14.79 14.79C14.5 15.09 14.03 15.09 13.73 14.79L12 13.06L10.27 14.79C9.97 15.09 9.5 15.09 9.21 14.79C8.91 14.5 8.91 14.03 9.21 13.73L10.94 12L9.21 10.27C8.91 9.97 8.91 9.5 9.21 9.21C9.5 8.91 9.97 8.91 10.27 9.21L12 10.94L13.73 9.21C14.03 8.91 14.5 8.91 14.79 9.21C15.09 9.5 15.09 9.97 14.79 10.27L13.06 12L14.79 13.73Z" fill="black"/>
</svg>
