<svg width="24" height="24" viewBox="0 0 24 24" fill="none" xmlns="http://www.w3.org/2000/svg">
<path d="M10.75 6V8C10.75 9.52 9.52 10.75 8 10.75H6C4.48 10.75 3.25 9.52 3.25 8V6C3.25 4.48 4.48 3.25 6 3.25H8C9.52 3.25 10.75 4.48 10.75 6ZM18 3.25H16C14.48 3.25 13.25 4.48 13.25 6V8C13.25 9.52 14.48 10.75 16 10.75H18C19.52 10.75 20.75 9.52 20.75 8V6C20.75 4.48 19.52 3.25 18 3.25ZM8 13.25H6C4.48 13.25 3.25 14.48 3.25 16V18C3.25 19.52 4.48 20.75 6 20.75H8C9.52 20.75 10.75 19.52 10.75 18V16C10.75 14.48 9.52 13.25 8 13.25ZM18 13.25H16C14.48 13.25 13.25 14.48 13.25 16V18C13.25 19.52 14.48 20.75 16 20.75H18C19.52 20.75 20.75 19.52 20.75 18V16C20.75 14.48 19.52 13.25 18 13.25Z" fill="black"/>
</svg>
