<svg width="24" height="24" viewBox="0 0 24 24" fill="none" xmlns="http://www.w3.org/2000/svg">
<path d="M12 3.25C7.18 3.25 3.25 7.18 3.25 12C3.25 16.82 7.18 20.75 12 20.75C16.82 20.75 20.75 16.82 20.75 12C20.75 7.18 16.82 3.25 12 3.25ZM15.94 10.18C15.6 12.06 15.02 13.41 14.22 14.22C13.41 15.02 12.06 15.6 10.18 15.94C10.07 15.96 9.96 15.97 9.85 15.97C9.36 15.97 8.89 15.78 8.55 15.43C8.13 15.01 7.94 14.4 8.05 13.8C8.38 11.93 8.96 10.57 9.77 9.77C10.57 8.96 11.93 8.38 13.8 8.05C13.91 8.03 14.03 8.02 14.14 8.02C14.62 8.02 15.09 8.21 15.43 8.55C15.86 8.97 16.04 9.58 15.94 10.18ZM14.37 9.61C14.42 9.65 14.49 9.75 14.46 9.92C14.19 11.44 13.73 12.59 13.16 13.16C12.59 13.73 11.44 14.19 9.92 14.46C9.76 14.49 9.65 14.42 9.61 14.37C9.56 14.33 9.49 14.23 9.52 14.06C9.8 12.54 10.26 11.39 10.83 10.83C11.39 10.26 12.54 9.8 14.06 9.52C14.23 9.5 14.33 9.57 14.37 9.61Z" fill="black"/>
</svg>
