<svg width="24" height="24" viewBox="0 0 24 24" fill="none" xmlns="http://www.w3.org/2000/svg">
<path d="M19.6399 7.17H15.9799V6C15.9799 4.48 14.7399 3.25 13.2299 3.25H10.8899C9.36986 3.25 8.13986 4.48 8.13986 6V7.17H4.35986C3.93986 7.17 3.60986 7.51 3.60986 7.92C3.60986 8.33 3.93986 8.67 4.35986 8.67H5.46986L6.06986 17.26C6.19986 19.22 7.84986 20.75 9.80986 20.75H14.2299C16.1799 20.75 17.8199 19.23 17.9699 17.29L18.6399 8.67H19.6399C20.0599 8.67 20.3899 8.34 20.3899 7.92C20.3899 7.5 20.0599 7.17 19.6399 7.17ZM9.63986 6C9.63986 5.31 10.1999 4.75 10.8899 4.75H13.2299C13.9199 4.75 14.4799 5.31 14.4799 6V7.17H9.63986V6ZM10.5199 16.91C10.5199 16.91 10.4799 16.92 10.4499 16.92C10.0699 16.92 9.73986 16.63 9.70986 16.24L9.25986 11.57C9.21986 11.16 9.51986 10.79 9.93986 10.75C10.3499 10.72 10.7199 11.02 10.7499 11.43L11.1999 16.1C11.2399 16.51 10.9399 16.87 10.5199 16.91ZM14.3099 16.24C14.2699 16.63 13.9499 16.92 13.5599 16.92C13.5399 16.92 13.5199 16.92 13.4899 16.91C13.0799 16.87 12.7799 16.51 12.8199 16.1L13.2599 11.43C13.2999 11.02 13.6599 10.71 14.0799 10.75C14.4899 10.79 14.7899 11.16 14.7499 11.57L14.3099 16.24Z" fill="black"/>
</svg>
