<svg width="24" height="24" viewBox="0 0 24 24" fill="none" xmlns="http://www.w3.org/2000/svg">
<path d="M20.7502 15.2998V15.3198C20.7502 17.1998 19.2102 18.7298 17.3302 18.7298C15.4502 18.7298 13.9102 17.1998 13.9102 15.3098C13.9102 13.4198 15.4402 11.8898 17.3302 11.8898C17.9302 11.8898 18.5002 12.0498 18.9902 12.3198L18.5302 7.04978C18.4802 6.41978 18.1702 5.85978 17.6702 5.46978C17.1702 5.07978 16.5502 4.91978 15.9202 5.02978L11.1902 5.81978C10.0402 6.00978 9.22023 7.06978 9.32023 8.22978L10.0402 16.5298C10.0702 16.7098 10.0802 16.8898 10.0802 17.0798V17.0998C10.0802 18.9798 8.54023 20.5098 6.66023 20.5098C4.78023 20.5098 3.24023 18.9798 3.24023 17.0898C3.24023 15.1998 4.77023 13.6698 6.66023 13.6698C7.26023 13.6698 7.82024 13.8298 8.31024 14.0998L7.81023 8.35978C7.64023 6.41978 9.01023 4.65978 10.9302 4.33978L15.6602 3.54978C16.6902 3.37978 17.7502 3.64978 18.5702 4.28978C19.3902 4.92978 19.9202 5.88978 20.0102 6.92978L20.6902 14.7598C20.7202 14.9398 20.7302 15.1198 20.7302 15.3098L20.7502 15.2998Z" fill="black"/>
</svg>
