<svg width="24" height="24" viewBox="0 0 24 24" fill="none" xmlns="http://www.w3.org/2000/svg">
<path d="M17 3.25H7C4.93 3.25 3.25 4.93 3.25 7V17C3.25 19.07 4.93 20.75 7 20.75H17C19.07 20.75 20.75 19.07 20.75 17V7C20.75 4.93 19.07 3.25 17 3.25ZM10.22 14.56C10.22 15.11 9.77 15.56 9.22 15.56H8.56C8 15.56 7.56 15.11 7.56 14.56V8.56C7.56 8 8 7.56 8.56 7.56H9.22C9.77 7.56 10.22 8 10.22 8.56V14.56ZM16.44 12C16.44 12.55 16 13 15.44 13H14.78C14.23 13 13.78 12.55 13.78 12V8.56C13.78 8 14.23 7.56 14.78 7.56H15.44C16 7.56 16.44 8 16.44 8.56V12Z" fill="black"/>
</svg>
