<svg width="24" height="24" viewBox="0 0 24 24" fill="none" xmlns="http://www.w3.org/2000/svg">
<path d="M20.75 12C20.75 16.82 16.82 20.75 12 20.75C7.18 20.75 3.25 16.82 3.25 12C3.25 7.18 7.18 3.25 12 3.25C16.82 3.25 20.75 7.18 20.75 12ZM12.75 12.2V8.75C12.75 8.34 12.41 8 12 8C11.59 8 11.25 8.34 11.25 8.75V12.2C11.25 12.61 11.59 12.95 12 12.95C12.41 12.95 12.75 12.61 12.75 12.2ZM12.76 15.8C12.76 15.39 12.42 15.05 12.01 15.05C11.6 15.05 11.26 15.39 11.26 15.8C11.26 16.21 11.6 16.55 12.01 16.55C12.42 16.55 12.76 16.21 12.76 15.8Z" fill="black"/>
</svg>
