<svg width="24" height="24" viewBox="0 0 24 24" fill="none" xmlns="http://www.w3.org/2000/svg">
<path d="M20.5298 13.47C20.8198 13.76 20.8198 14.24 20.5298 14.53C20.3798 14.68 20.1898 14.75 19.9998 14.75C19.8098 14.75 19.6198 14.68 19.4698 14.53L17.9998 13.06L16.5298 14.53C16.2398 14.82 15.7598 14.82 15.4698 14.53C15.1798 14.24 15.1798 13.76 15.4698 13.47L16.9398 12L15.4698 10.53C15.1798 10.24 15.1798 9.75996 15.4698 9.46996C15.7598 9.17996 16.2398 9.17996 16.5298 9.46996L17.9998 10.94L19.4698 9.46996C19.7598 9.17996 20.2398 9.17996 20.5298 9.46996C20.8198 9.75996 20.8198 10.24 20.5298 10.53L19.0598 12L20.5298 13.47ZM12.7598 5.49996C12.1498 5.20996 11.4398 5.28996 10.9098 5.70996L7.94977 8.07996C7.81977 8.18996 7.64977 8.24996 7.47977 8.24996H6.00977C4.48977 8.24996 3.25977 9.47996 3.25977 11V13C3.25977 14.52 4.48977 15.75 6.00977 15.75H7.47977C7.64977 15.75 7.81977 15.81 7.94977 15.92L10.9098 18.29C11.2298 18.54 11.6098 18.68 11.9998 18.68C12.2598 18.68 12.5198 18.62 12.7598 18.5C13.3698 18.21 13.7498 17.6 13.7498 16.92V7.07996C13.7498 6.39996 13.3698 5.79996 12.7598 5.49996Z" fill="black"/>
</svg>
