<svg width="24" height="24" viewBox="0 0 24 24" fill="none" xmlns="http://www.w3.org/2000/svg">
<path d="M17 6.25H12.96C12.58 6.25 12.22 6.08 11.99 5.78L11.49 5.16C10.77 4.26 9.7 3.75 8.56 3.75H6C4.48 3.75 3.25 4.98 3.25 6.5V16.5C3.25 18.57 4.93 20.25 7 20.25H17C19.07 20.25 20.75 18.57 20.75 16.5V10C20.75 7.93 19.07 6.25 17 6.25ZM14.4 13.95H12.75V15.6C12.75 16.01 12.41 16.35 12 16.35C11.59 16.35 11.25 16.01 11.25 15.6V13.95H9.6C9.19 13.95 8.85 13.61 8.85 13.2C8.85 12.79 9.19 12.45 9.6 12.45H11.25V10.8C11.25 10.39 11.59 10.05 12 10.05C12.41 10.05 12.75 10.39 12.75 10.8V12.45H14.4C14.81 12.45 15.15 12.79 15.15 13.2C15.15 13.61 14.81 13.95 14.4 13.95Z" fill="black"/>
</svg>
