<svg width="24" height="24" viewBox="0 0 24 24" fill="none" xmlns="http://www.w3.org/2000/svg">
<path d="M7.85008 18.2501C7.93008 18.6601 7.67008 19.0501 7.27008 19.1401C7.22008 19.1501 7.17008 19.1601 7.12008 19.1601C6.77008 19.1601 6.46008 18.9201 6.39008 18.5601C6.26008 17.9301 5.95008 17.3601 5.50008 16.9101C5.05008 16.4601 4.48008 16.1501 3.85008 16.0201C3.44008 15.9401 3.18008 15.5401 3.27008 15.1301C3.36008 14.7201 3.75008 14.4701 4.15008 14.5501C5.07008 14.7401 5.90008 15.1901 6.56008 15.8501C7.22008 16.5101 7.67008 17.3401 7.85008 18.2601V18.2501ZM4.08008 11.2901C3.66008 11.2501 3.30008 11.5401 3.25008 11.9501C3.20008 12.3601 3.50008 12.7301 3.91008 12.7801C5.36008 12.9401 6.73008 13.6001 7.76008 14.6301C8.79008 15.6601 9.45008 17.0301 9.61008 18.4801C9.65008 18.8601 9.98008 19.1501 10.3501 19.1501C10.3801 19.1501 10.4101 19.1501 10.4301 19.1501C10.8401 19.1001 11.1401 18.7301 11.0901 18.3201C10.8901 16.5301 10.0801 14.8501 8.81008 13.5801C7.54008 12.3101 5.85008 11.5001 4.07008 11.3001L4.08008 11.2901ZM17.0001 4.8501H7.00008C4.93008 4.8501 3.25008 6.5301 3.25008 8.6001V8.8001C3.25008 9.1801 3.53008 9.4901 3.90008 9.5401C5.21008 9.7201 7.72008 10.3401 9.89008 12.5101C12.0601 14.6801 12.6801 17.1901 12.8601 18.5001C12.9101 18.8701 13.2301 19.1501 13.6001 19.1501H17.0001C19.0701 19.1501 20.7501 17.4701 20.7501 15.4001V8.6001C20.7501 6.5301 19.0701 4.8501 17.0001 4.8501ZM4.01008 17.6501C3.60008 17.6501 3.26008 17.9901 3.26008 18.4001C3.26008 18.8101 3.60008 19.1501 4.01008 19.1501C4.42008 19.1501 4.76008 18.8101 4.76008 18.4001C4.76008 17.9901 4.42008 17.6501 4.01008 17.6501Z" fill="black"/>
</svg>
