<svg width="24" height="24" viewBox="0 0 24 24" fill="none" xmlns="http://www.w3.org/2000/svg">
<path d="M17.1997 14.3099C17.1397 14.3699 17.1097 14.4599 17.1197 14.5499L17.8697 18.9099C17.9497 19.3899 17.7597 19.8599 17.3697 20.1399C17.1497 20.2999 16.8897 20.3799 16.6297 20.3799C16.4297 20.3799 16.2297 20.3299 16.0397 20.2299L12.1197 18.1699C12.0397 18.1299 11.9497 18.1299 11.8697 18.1699L7.94971 20.2299C7.51971 20.4599 7.00971 20.4199 6.61971 20.1299C6.22971 19.8499 6.03971 19.3699 6.11971 18.8999L6.86971 14.5399C6.88971 14.4499 6.85971 14.3599 6.78971 14.2999L3.61971 11.2199C3.26971 10.8799 3.14971 10.3899 3.29971 9.92986C3.44971 9.46986 3.83971 9.13986 4.31971 9.06986L8.69971 8.42986C8.78971 8.41986 8.85971 8.35986 8.89971 8.27986L10.8597 4.30986C11.0697 3.87986 11.5097 3.60986 11.9897 3.60986C12.4697 3.60986 12.9097 3.87986 13.1197 4.30986L15.0797 8.27986C15.1197 8.35986 15.1997 8.41986 15.2797 8.42986L19.6597 9.06986C20.1397 9.13986 20.5297 9.46986 20.6797 9.92986C20.8297 10.3899 20.7097 10.8799 20.3597 11.2199L17.1897 14.2999L17.1997 14.3099Z" fill="black"/>
</svg>
