<svg width="24" height="24" viewBox="0 0 24 24" fill="none" xmlns="http://www.w3.org/2000/svg">
<path d="M19.6399 7.17H15.9799V6C15.9799 4.48 14.7499 3.25 13.2299 3.25H10.8899C9.36986 3.25 8.13986 4.48 8.13986 6V7.17H4.35986C3.93986 7.17 3.60986 7.51 3.60986 7.92C3.60986 8.33 3.93986 8.67 4.35986 8.67H5.46986L6.06986 17.26C6.19986 19.22 7.84986 20.75 9.80986 20.75H14.2299C16.1799 20.75 17.8199 19.23 17.9699 17.29L18.6399 8.67H19.6399C20.0599 8.67 20.3899 8.34 20.3899 7.92C20.3899 7.5 20.0599 7.17 19.6399 7.17ZM9.63986 7.17V6C9.63986 5.31 10.1999 4.75 10.8899 4.75H13.2299C13.9199 4.75 14.4799 5.31 14.4799 6V7.17H9.63986Z" fill="black"/>
</svg>
