<svg width="24" height="24" viewBox="0 0 24 24" fill="none" xmlns="http://www.w3.org/2000/svg">
<path d="M18 5.25H6C4.48 5.25 3.25 6.48 3.25 8V16C3.25 17.52 4.48 18.75 6 18.75H18C19.52 18.75 20.75 17.52 20.75 16V8C20.75 6.48 19.52 5.25 18 5.25ZM8 14.75C6.68 14.75 5.61 13.52 5.61 12C5.61 10.48 6.68 9.25 8 9.25C9.32 9.25 10.39 10.48 10.39 12C10.39 13.52 9.32 14.75 8 14.75ZM14 10.75H12.75V11.25H13.68C14.09 11.25 14.43 11.58 14.43 11.99C14.43 12.4 14.1 12.74 13.68 12.75H12.75V14C12.75 14.41 12.41 14.75 12 14.75C11.59 14.75 11.25 14.41 11.25 14V10C11.25 9.59 11.59 9.25 12 9.25H14C14.41 9.25 14.75 9.59 14.75 10C14.75 10.41 14.41 10.75 14 10.75ZM18 10.75H16.75V11.25H17.68C18.09 11.25 18.43 11.58 18.43 11.99C18.43 12.4 18.1 12.74 17.68 12.75H16.75V14C16.75 14.41 16.41 14.75 16 14.75C15.59 14.75 15.25 14.41 15.25 14V10C15.25 9.59 15.59 9.25 16 9.25H18C18.41 9.25 18.75 9.59 18.75 10C18.75 10.41 18.41 10.75 18 10.75ZM8.89 12C8.89 12.68 8.48 13.25 8 13.25C7.52 13.25 7.11 12.68 7.11 12C7.11 11.32 7.52 10.75 8 10.75C8.48 10.75 8.89 11.32 8.89 12Z" fill="black"/>
</svg>
