<svg width="24" height="24" viewBox="0 0 24 24" fill="none" xmlns="http://www.w3.org/2000/svg">
<path d="M14.0301 18.83C13.8901 18.6 13.6401 18.45 13.3801 18.45H10.6101C10.3401 18.45 10.0901 18.6 9.9601 18.83C9.8201 19.06 9.8201 19.35 9.9601 19.58C10.1601 19.93 10.4601 20.23 10.8201 20.44C11.1701 20.64 11.5801 20.75 11.9901 20.75C12.4001 20.75 12.8101 20.64 13.1701 20.44C13.5201 20.23 13.8201 19.93 14.0201 19.58C14.1601 19.35 14.1601 19.06 14.0301 18.83ZM19.8901 15.95C18.7301 17.5 14.1601 17.67 12.2601 17.67C11.1301 17.67 5.4201 17.59 4.1901 15.95C3.2001 14.63 4.0801 13.57 4.7901 12.72C5.5601 11.79 6.4401 10.74 6.4401 8.8C6.4401 7.32 7.0201 5.92 8.0701 4.88C9.1101 3.83 10.5101 3.25 11.9901 3.25C13.4701 3.25 14.8701 3.83 15.9201 4.88C16.9701 5.93 17.5401 7.32 17.5401 8.8C17.5401 10.75 18.4501 11.82 19.2501 12.76C19.9701 13.6 20.8601 14.65 19.8901 15.95Z" fill="black"/>
</svg>
