<svg width="24" height="24" viewBox="0 0 24 24" fill="none" xmlns="http://www.w3.org/2000/svg">
<path d="M17 3.25H7C4.93 3.25 3.25 4.93 3.25 7V17C3.25 19.07 4.93 20.75 7 20.75H17C19.07 20.75 20.75 19.07 20.75 17V7C20.75 4.93 19.07 3.25 17 3.25ZM15.55 13.79C15.17 14.53 14.57 15.12 13.82 15.49C13.26 15.77 12.66 15.92 12.05 15.92C11.84 15.92 11.63 15.9 11.42 15.87C10.59 15.73 9.84 15.35 9.25 14.76C8.66 14.17 8.28 13.42 8.14 12.59C8.01 11.77 8.14 10.94 8.52 10.19C8.89 9.44 9.48 8.84 10.22 8.46C10.97 8.07 11.8 7.93 12.62 8.06C13.47 8.18 14.23 8.57 14.84 9.17C15.43 9.77 15.83 10.55 15.95 11.39C16.07 12.21 15.94 13.04 15.55 13.79ZM16.41 8.35C16 8.35 15.66 8.02 15.66 7.6C15.66 7.18 15.99 6.85 16.41 6.85C16.83 6.85 17.16 7.19 17.16 7.6C17.16 8.01 16.83 8.35 16.41 8.35ZM14.47 11.61C14.54 12.12 14.46 12.63 14.22 13.09C13.98 13.55 13.61 13.92 13.15 14.15C12.68 14.39 12.17 14.47 11.65 14.38C11.14 14.3 10.68 14.07 10.31 13.7C9.94 13.33 9.71 12.87 9.62 12.35C9.54 11.84 9.62 11.33 9.86 10.86C10.09 10.4 10.46 10.03 10.91 9.79C11.27 9.61 11.65 9.52 12.04 9.52C12.16 9.52 12.28 9.52 12.4 9.54C12.93 9.62 13.4 9.86 13.78 10.23C14.15 10.6 14.39 11.09 14.47 11.61Z" fill="black"/>
</svg>
