<svg width="24" height="24" viewBox="0 0 24 24" fill="none" xmlns="http://www.w3.org/2000/svg">
<path d="M9.25 4C9.25 3.59 9.59 3.25 10 3.25H14C14.41 3.25 14.75 3.59 14.75 4C14.75 4.41 14.41 4.75 14 4.75H10C9.59 4.75 9.25 4.41 9.25 4ZM19.75 13C19.75 17.27 16.27 20.75 12 20.75C7.73 20.75 4.25 17.27 4.25 13C4.25 8.73 7.73 5.25 12 5.25C13.43 5.25 14.77 5.64 15.92 6.32L16.68 5.28C16.92 4.94 17.39 4.87 17.73 5.11C18.06 5.35 18.14 5.82 17.89 6.16L17.14 7.2C18.74 8.62 19.75 10.7 19.75 13ZM16.75 13C16.75 12.59 16.41 12.25 16 12.25H12.75V9C12.75 8.58 12.41 8.25 12 8.25C11.59 8.25 11.25 8.58 11.25 9V13C11.25 13.41 11.59 13.75 12 13.75H16C16.41 13.75 16.75 13.41 16.75 13Z" fill="black"/>
</svg>
