<svg width="24" height="24" viewBox="0 0 24 24" fill="none" xmlns="http://www.w3.org/2000/svg">
<path d="M20.75 6.74018V17.2502C20.75 18.6002 19.99 19.8102 18.77 20.3902C18.28 20.6202 17.77 20.7402 17.25 20.7402C16.48 20.7402 15.71 20.4802 15.08 19.9702L8.51 14.7102C7.68 14.0402 7.2 13.0502 7.2 11.9902C7.2 10.9302 7.68 9.93018 8.51 9.27018L15.08 4.01018C16.14 3.17018 17.55 3.00018 18.77 3.59018C19.99 4.18018 20.75 5.38018 20.75 6.73018V6.74018ZM4 3.25018C3.59 3.25018 3.25 3.59018 3.25 4.00018V20.0002C3.25 20.4102 3.59 20.7502 4 20.7502C4.41 20.7502 4.75 20.4102 4.75 20.0002V4.00018C4.75 3.59018 4.41 3.25018 4 3.25018Z" fill="black"/>
</svg>
