<svg width="24" height="24" viewBox="0 0 24 24" fill="none" xmlns="http://www.w3.org/2000/svg">
<path d="M20.72 11.7L19.6 17.86C19.41 18.91 18.41 19.6 17.37 19.42L8.55 17.89V10.73C8.55 10.73 10.36 5.65004 11.76 4.83004C13.16 4.01004 14.1 5.30004 14.1 6.23004C14.1 7.16004 13.46 10.08 13.46 10.08L18.58 9.44004C19.88 9.28004 20.96 10.42 20.72 11.71V11.7ZM3.69 11.17C3.41 11.45 3.25 11.84 3.25 12.24V16.36C3.25 16.76 3.41 17.15 3.69 17.43C3.97 17.71 4.36 17.87 4.76 17.87H7.04V10.71H4.76C4.36 10.71 3.97 10.87 3.69 11.15V11.17Z" fill="black"/>
</svg>
