<svg width="24" height="24" viewBox="0 0 24 24" fill="none" xmlns="http://www.w3.org/2000/svg">
<path d="M6.29962 7.83C6.29962 5.58 8.12962 3.75 10.3796 3.75C12.6296 3.75 14.4596 5.58 14.4596 7.83C14.4596 10.08 12.6296 11.91 10.3796 11.91C8.12962 11.91 6.29962 10.08 6.29962 7.83ZM20.0096 10.92H18.2596V9.17C18.2596 8.76 17.9196 8.42 17.5096 8.42C17.0996 8.42 16.7596 8.76 16.7596 9.17V10.92H15.0096C14.5996 10.92 14.2596 11.26 14.2596 11.67C14.2596 12.08 14.5996 12.42 15.0096 12.42H16.7596V14.17C16.7596 14.58 17.0996 14.92 17.5096 14.92C17.9196 14.92 18.2596 14.58 18.2596 14.17V12.42H20.0096C20.4196 12.42 20.7596 12.08 20.7596 11.67C20.7596 11.26 20.4196 10.92 20.0096 10.92ZM10.2796 14.06C6.79962 14.06 4.71962 15.63 3.79962 16.57C3.16962 17.21 3.06962 18.2 3.53962 19.04C3.95962 19.79 4.74962 20.25 5.60962 20.25H15.1896C16.0296 20.25 16.8096 19.79 17.2196 19.06C17.6996 18.2 17.5796 17.19 16.9096 16.56C15.9296 15.63 13.7596 14.06 10.2796 14.06Z" fill="black"/>
</svg>
