<svg width="24" height="24" viewBox="0 0 24 24" fill="none" xmlns="http://www.w3.org/2000/svg">
<path d="M19.3002 6.90999C19.3002 7.00999 19.2802 7.10999 19.2402 7.19999C19.2002 7.28999 19.1502 7.36999 19.0802 7.43999L16.1702 10.35C16.0302 10.49 15.8402 10.57 15.6402 10.57C15.5402 10.57 15.4502 10.55 15.3502 10.51C15.0702 10.39 14.8902 10.12 14.8902 9.81999V7.65999H8.4602C7.2202 7.65999 6.2102 8.66999 6.2102 9.90999V11.27C6.2102 11.68 5.8702 12.02 5.4602 12.02C5.0502 12.02 4.7102 11.68 4.7102 11.27V9.90999C4.7102 7.83999 6.3902 6.15999 8.4602 6.15999H14.8902V3.99999C14.8902 3.69999 15.0702 3.41999 15.3502 3.30999C15.6302 3.18999 15.9502 3.25999 16.1702 3.46999L19.0802 6.37999C19.1502 6.44999 19.2102 6.53999 19.2402 6.61999C19.2802 6.70999 19.3002 6.79999 19.3002 6.90999ZM18.4502 11.75C18.0402 11.75 17.7002 12.09 17.7002 12.5V14.09C17.7002 15.33 16.6902 16.34 15.4502 16.34H9.1102V14.18C9.1102 13.88 8.9302 13.6 8.6502 13.49C8.3702 13.37 8.0502 13.44 7.8302 13.65L4.9202 16.56C4.8502 16.63 4.7902 16.72 4.7602 16.8C4.7202 16.89 4.7002 16.98 4.7002 17.09C4.7002 17.2 4.7202 17.29 4.7602 17.38C4.8002 17.47 4.8502 17.55 4.9202 17.62L7.8302 20.53C7.9702 20.67 8.1602 20.75 8.3602 20.75C8.4602 20.75 8.5502 20.73 8.6502 20.69C8.9302 20.57 9.1102 20.3 9.1102 20V17.84H15.4502C17.5202 17.84 19.2002 16.16 19.2002 14.09V12.5C19.2002 12.09 18.8602 11.75 18.4502 11.75Z" fill="black"/>
</svg>
