<svg width="24" height="24" viewBox="0 0 24 24" fill="none" xmlns="http://www.w3.org/2000/svg">
<path d="M12.5 7.5C12.5 7.77614 12.2761 8 12 8C11.7239 8 11.5 7.77614 11.5 7.5C11.5 7.22386 11.7239 7 12 7C12.2761 7 12.5 7.22386 12.5 7.5Z" fill="black"/>
<path d="M6 7C6 5.34315 7.34315 4 9 4H15C16.6569 4 18 5.34315 18 7V17C18 18.6569 16.6569 20 15 20H9C7.34315 20 6 18.6569 6 17V7Z" stroke="black" stroke-width="1.5" stroke-linejoin="round"/>
<path d="M15 14C15 15.6569 13.6569 17 12 17C10.3431 17 9 15.6569 9 14C9 12.3431 10.3431 11 12 11C13.6569 11 15 12.3431 15 14Z" stroke="black" stroke-width="1.5" stroke-linejoin="round"/>
<path d="M12.5 7.5C12.5 7.77614 12.2761 8 12 8C11.7239 8 11.5 7.77614 11.5 7.5C11.5 7.22386 11.7239 7 12 7C12.2761 7 12.5 7.22386 12.5 7.5Z" stroke="black" stroke-width="1.5" stroke-linejoin="round"/>
</svg>
