<svg width="24" height="24" viewBox="0 0 24 24" fill="none" xmlns="http://www.w3.org/2000/svg">
<path d="M13.4142 10.5858L16 8M6 17H18M7.41612 14.0002C7.14848 13.3877 7 12.7112 7 12C7 9.23858 9.23858 7 12 7C12.3425 7 12.6769 7.03443 13 7.10002M16.9 11C16.9656 11.3231 17 11.6575 17 12C17 12.7112 16.8515 13.3877 16.5839 14.0002M20 12C20 16.4183 16.4183 20 12 20C7.58172 20 4 16.4183 4 12C4 7.58172 7.58172 4 12 4C16.4183 4 20 7.58172 20 12ZM14 12C14 13.1046 13.1046 14 12 14C10.8954 14 10 13.1046 10 12C10 10.8954 10.8954 10 12 10C13.1046 10 14 10.8954 14 12Z" stroke="black" stroke-width="1.5" stroke-linecap="round" stroke-linejoin="round"/>
</svg>
