<svg width="24" height="24" viewBox="0 0 24 24" fill="none" xmlns="http://www.w3.org/2000/svg">
<path d="M12 4C7.58172 4 4 7.58172 4 12C4 16.4183 7.58172 20 12 20C16.4183 20 20 16.4183 20 12C20 7.58172 16.4183 4 12 4ZM12 4L12 6.89151M12 6.89151C12 7.58108 12.3552 8.22202 12.94 8.5875L15.1133 9.9458C15.6688 10.293 16.359 10.3461 16.9611 10.0881L19.5 9L16.7545 10.1293C16.2006 10.3572 15.778 10.8213 15.6028 11.394L14.7771 14.094C14.6017 14.6675 14.6929 15.2894 15.0255 15.7883L16.5 18L15.0937 15.8906C14.7228 15.3342 14.0983 15 13.4296 15L10.5704 15C9.90165 15 9.27719 15.3342 8.90626 15.8906L7.50001 18L8.97447 15.7883C9.30712 15.2894 9.39831 14.6675 9.22293 14.094L8.39719 11.394C8.22202 10.8213 7.79938 10.3572 7.24547 10.1293L4.50001 9L7.03889 10.0881C7.64097 10.3461 8.33124 10.293 8.88672 9.9458L11.06 8.5875C11.6448 8.22202 12 7.58108 12 6.89151Z" stroke="black" stroke-width="1.5"/>
</svg>
