<svg width="24" height="24" viewBox="0 0 24 24" fill="none" xmlns="http://www.w3.org/2000/svg">
<path d="M16 8V7M16 8C16 9.10457 16.8954 10 18 10C19.1046 10 20 9.10457 20 8V7.21218C20 6.43604 19.6917 5.69168 19.1429 5.14286C18.4111 4.4111 17.4186 4 16.3838 4H12M16 8V7.24264C16 6.44699 15.6839 5.68393 15.1213 5.12132L14 4M16 8C16 9.10457 15.1046 10 14 10C12.8954 10 12 9.10457 12 8M12 4H7.61624C6.58138 4 5.5889 4.4111 4.85714 5.14286C4.30832 5.69168 4 6.43604 4 7.21218V8C4 9.10457 4.89543 10 6 10C7.10457 10 8 9.10457 8 8M12 4V8M12 8V6M12 8C12 9.10457 11.1046 10 10 10C8.89543 10 8 9.10457 8 8M8 8V7M8 8V7.24264C8 6.44699 8.31607 5.68393 8.87868 5.12132L10 4M19 10V17C19 18.6569 17.6569 20 16 20H8C6.34315 20 5 18.6569 5 17V10M15 20V16C15 14.3431 13.6569 13 12 13C10.3431 13 9 14.3431 9 16V20H15Z" stroke="black" stroke-width="1.5" stroke-linejoin="round"/>
</svg>
