<svg width="24" height="24" viewBox="0 0 24 24" fill="none" xmlns="http://www.w3.org/2000/svg">
<path d="M11.5424 4.58442C11.7296 4.20518 12.2704 4.20518 12.4576 4.58442L14.4157 8.55129C14.5642 8.85221 14.8512 9.06088 15.1833 9.10942L19.5629 9.74958C19.9814 9.81073 20.1481 10.325 19.8452 10.6201L16.6773 13.7056C16.4366 13.9401 16.3267 14.278 16.3835 14.6093L17.131 18.9677C17.2025 19.3846 16.7649 19.7025 16.3905 19.5056L12.475 17.4465C12.1777 17.2901 11.8223 17.2901 11.525 17.4465L7.60946 19.5056C7.23509 19.7025 6.79749 19.3846 6.86899 18.9677L7.61652 14.6093C7.67332 14.278 7.56344 13.9401 7.32271 13.7056L4.1548 10.6201C3.85189 10.325 4.01865 9.81073 4.43705 9.74958L8.81675 9.10942C9.14881 9.06088 9.43578 8.85221 9.58432 8.55129L11.5424 4.58442Z" stroke="black" stroke-width="1.5" stroke-linecap="round" stroke-linejoin="round"/>
</svg>
