<svg width="24" height="24" viewBox="0 0 24 24" fill="none" xmlns="http://www.w3.org/2000/svg">
<path d="M11.5 5C11.7761 5 12 4.77614 12 4.5C12 4.22386 11.7761 4 11.5 4C11.2239 4 11 4.22386 11 4.5C11 4.77614 11.2239 5 11.5 5Z" fill="black"/>
<path d="M6.5 5C6.77614 5 7 4.77614 7 4.5C7 4.22386 6.77614 4 6.5 4C6.22386 4 6 4.22386 6 4.5C6 4.77614 6.22386 5 6.5 5Z" fill="black"/>
<path d="M5.7122 4.5C4.59884 4.5 3.78191 5.45472 4.05194 6.44028L4.91479 9.58957C5.38343 11.3001 7.06773 12.5 8.99999 12.5C10.9323 12.5 12.6165 11.3 13.0852 9.58957L13.948 6.44028C14.2181 5.45471 13.4011 4.5 12.2878 4.5M18 12.5C19.1046 12.5 20 11.6046 20 10.5C20 9.39543 19.1046 8.5 18 8.5C16.8954 8.5 16 9.39543 16 10.5C16 11.6046 16.8954 12.5 18 12.5ZM18 12.5L18 16C18 18.4853 15.9853 20.5 13.5 20.5C11.0147 20.5 8.99999 18.4853 9 16M9 16C11.3599 15.3469 12.8299 12.841 12.8299 10.2536M9 16C6.64012 15.3469 5.17017 12.841 5.17017 10.2536M12 4.5C12 4.77614 11.7761 5 11.5 5C11.2239 5 11 4.77614 11 4.5C11 4.22386 11.2239 4 11.5 4C11.7761 4 12 4.22386 12 4.5ZM7 4.5C7 4.77614 6.77614 5 6.5 5C6.22386 5 6 4.77614 6 4.5C6 4.22386 6.22386 4 6.5 4C6.77614 4 7 4.22386 7 4.5Z" stroke="black" stroke-width="1.5" stroke-linecap="round" stroke-linejoin="round"/>
</svg>
