<svg width="24" height="24" viewBox="0 0 24 24" fill="none" xmlns="http://www.w3.org/2000/svg">
<path d="M4 16C4 17.6569 5.34315 19 7 19C8.65685 19 10 17.6569 10 16V14C10 13.4478 9.55228 13 9 13H7C5.34315 13 4 14.3432 4 16ZM4 16V15.0195C4 13.6866 4.26644 12.3673 4.78365 11.1389L6.90241 6.10683C7.42654 4.86201 9.04494 4.54499 10 5.50005M20 16C20 17.6569 18.6569 19 17 19C15.3431 19 14 17.6569 14 16V14C14 13.4478 14.4477 13 15 13H17C18.6569 13 20 14.3432 20 16ZM20 16V15.0195C20 13.6866 19.7336 12.3673 19.2164 11.1389L17.0976 6.10683C16.5735 4.86201 14.9551 4.54499 14 5.50005M14 13C12.8954 11.8955 11.1046 11.8955 10 13" stroke="black" stroke-width="1.5" stroke-linecap="round" stroke-linejoin="round"/>
</svg>
