<svg width="24" height="24" viewBox="0 0 24 24" fill="none" xmlns="http://www.w3.org/2000/svg">
<path d="M13.9999 4.29547C15.0165 3.68142 16.3858 4.05199 16.9008 5.15161C17.6918 6.84084 18.4485 9.53492 17.6793 12.918C17.2096 14.984 16.2921 17.4026 15.5012 19M6.24255 14.7574C8.67899 13.5834 11.0122 11.392 13.2029 7.79703M6.77722 18.2227C10.4012 16.0118 12.6183 13.6353 13.8564 11.1436M11.7404 19.9028C12.2957 20.1703 12.955 19.8629 13.1166 19.258C13.5749 17.5421 14 14.6514 14 12.297C14 8.79876 12.6965 6.29906 11.5777 4.79785C10.7849 3.73405 9.21514 3.73405 8.42233 4.79785C7.30353 6.29906 6 8.79876 6 12.297C6 14.6514 6.42514 17.5421 6.88339 19.2579C7.04495 19.8629 7.70423 20.1703 8.25953 19.9028C8.7497 19.6667 9.37485 19.4462 10 19.4462C10.6252 19.4462 11.2503 19.6667 11.7404 19.9028Z" stroke="black" stroke-width="1.5" stroke-linecap="round" stroke-linejoin="round"/>
</svg>
