<svg width="24" height="24" viewBox="0 0 24 24" fill="none" xmlns="http://www.w3.org/2000/svg">
<path d="M17.4178 9.5068L18.1576 9.3835L17.4178 9.5068ZM6.5822 9.5068L7.322 9.6301L6.5822 9.5068ZM12.75 7C12.75 6.58579 12.4142 6.25 12 6.25C11.5858 6.25 11.25 6.58579 11.25 7H12.75ZM10 4V3.25C9.58579 3.25 9.25 3.58579 9.25 4H10ZM14 4H14.75C14.75 3.58579 14.4142 3.25 14 3.25V4ZM14 7V7.75C14.4142 7.75 14.75 7.41421 14.75 7H14ZM10 7H9.25C9.25 7.41421 9.58579 7.75 10 7.75V7ZM6 13.75H18V12.25H6V13.75ZM19.25 15V17H20.75V15H19.25ZM4.75 17V15H3.25V17H4.75ZM6 17.25H5V18.75H6V17.25ZM19 17.25H18V18.75H19V17.25ZM3.25 17C3.25 17.9665 4.0335 18.75 5 18.75V17.25C4.86193 17.25 4.75 17.1381 4.75 17H3.25ZM19.25 17C19.25 17.1381 19.1381 17.25 19 17.25V18.75C19.9665 18.75 20.75 17.9665 20.75 17H19.25ZM18 13.75C18.6904 13.75 19.25 14.3096 19.25 15H20.75C20.75 13.4812 19.5188 12.25 18 12.25V13.75ZM6 12.25C4.48122 12.25 3.25 13.4812 3.25 15H4.75C4.75 14.3096 5.30964 13.75 6 13.75V12.25ZM9.54138 7.75H14.4586V6.25H9.54138V7.75ZM16.678 9.6301L17.2602 13.1233L18.7398 12.8767L18.1576 9.3835L16.678 9.6301ZM6.7398 13.1233L7.322 9.6301L5.8424 9.3835L5.2602 12.8767L6.7398 13.1233ZM14.4586 7.75C15.5585 7.75 16.4972 8.54518 16.678 9.6301L18.1576 9.3835C17.8562 7.5753 16.2918 6.25 14.4586 6.25V7.75ZM9.54138 6.25C7.70823 6.25 6.14377 7.5753 5.8424 9.3835L7.322 9.6301C7.50282 8.54518 8.44149 7.75 9.54138 7.75V6.25ZM9.25 18C9.25 18.6904 8.69036 19.25 8 19.25V20.75C9.51878 20.75 10.75 19.5188 10.75 18H9.25ZM8 19.25C7.30964 19.25 6.75 18.6904 6.75 18H5.25C5.25 19.5188 6.48122 20.75 8 20.75V19.25ZM6.75 18C6.75 17.3096 7.30964 16.75 8 16.75V15.25C6.48122 15.25 5.25 16.4812 5.25 18H6.75ZM8 16.75C8.69036 16.75 9.25 17.3096 9.25 18H10.75C10.75 16.4812 9.51878 15.25 8 15.25V16.75ZM17.25 18C17.25 18.6904 16.6904 19.25 16 19.25V20.75C17.5188 20.75 18.75 19.5188 18.75 18H17.25ZM16 19.25C15.3096 19.25 14.75 18.6904 14.75 18H13.25C13.25 19.5188 14.4812 20.75 16 20.75V19.25ZM14.75 18C14.75 17.3096 15.3096 16.75 16 16.75V15.25C14.4812 15.25 13.25 16.4812 13.25 18H14.75ZM16 16.75C16.6904 16.75 17.25 17.3096 17.25 18H18.75C18.75 16.4812 17.5188 15.25 16 15.25V16.75ZM14 17.25H10V18.75H14V17.25ZM12.75 13V7H11.25V13H12.75ZM10 4.75H14V3.25H10V4.75ZM13.25 4V7H14.75V4H13.25ZM14 6.25H10V7.75H14V6.25ZM10.75 7V4H9.25V7H10.75Z" fill="black"/>
</svg>
