<svg width="24" height="24" viewBox="0 0 24 24" fill="none" xmlns="http://www.w3.org/2000/svg">
<path d="M6.74952 12C3.7193 12.6102 3.6393 16.0475 4.40935 17.9898V18M7.41 5C6.07 5.05 5 6.15 5 7.5C5 8.88 6.12 10 7.5 10C7.66 10 7.82 9.98 7.97 9.96M19.5906 18V17.9898C20.3607 16.0475 20.2807 12.6102 17.2504 12M16.0299 9.96C16.1799 9.98 16.3399 10 16.4999 10C17.8799 10 18.9999 8.88 18.9999 7.5C18.9999 6.12 17.9299 5.05 16.5899 5M16.4468 20H7.55239L7.5449 19.9814C6.41391 17.1801 6.66331 12 12 12C17.3366 12 17.5858 17.1809 16.4541 19.982L16.4468 20ZM15 7C15 8.65685 13.6569 10 12 10C10.3431 10 9 8.65685 9 7C9 5.34315 10.3431 4 12 4C13.6569 4 15 5.34315 15 7Z" stroke="black" stroke-width="1.5" stroke-linecap="round" stroke-linejoin="round"/>
</svg>
