<svg width="24" height="24" viewBox="0 0 24 24" fill="none" xmlns="http://www.w3.org/2000/svg">
<path d="M16.0002 14.5L9.50017 16.5M9.50017 16.5L7.50017 14.5M9.50017 16.5L7.00015 19C6.44787 19.5523 5.55244 19.5523 5.00015 19C4.44787 18.4478 4.44787 17.5523 5.00015 17L7.50017 14.5M7.50017 14.5L9.0002 8.50003M15.2073 12.3285L11.6717 8.79293M17.3286 10.2071L13.7931 6.67161M11.6717 10.2071L15.2073 6.67161M13.7931 12.3285L17.3286 8.79293M18.0372 13.0437C15.7893 15.2916 12.321 15.4679 10.2905 13.4375C8.26012 11.4071 8.43645 7.9388 10.6844 5.69087C12.9323 3.44294 16.4006 3.26661 18.431 5.29703C20.4614 7.32745 20.2851 10.7957 18.0372 13.0437Z" stroke="black" stroke-width="1.5" stroke-linecap="round" stroke-linejoin="round"/>
</svg>
