<svg width="24" height="24" viewBox="0 0 24 24" fill="none" xmlns="http://www.w3.org/2000/svg">
<path d="M19.223 16.8327L19.8321 16.395L19.223 16.8327ZM10.6085 3.56227C10.3668 3.22593 9.89814 3.14924 9.56179 3.39099C9.22544 3.63274 9.14876 4.10138 9.39051 4.43773L10.6085 3.56227ZM4.77599 16.8327L5.38501 17.2705H5.38501L4.77599 16.8327ZM14.6085 4.43773C14.8503 4.10138 14.7736 3.63274 14.4372 3.39099C14.1009 3.14924 13.6323 3.22593 13.3905 3.56227L14.6085 4.43773ZM12.7495 7C12.7495 6.58579 12.4137 6.25 11.9995 6.25C11.5853 6.25 11.2495 6.58579 11.2495 7H12.7495ZM15.6675 16.4453L16.0835 15.8213L15.6675 16.4453ZM15.9448 17.8321L16.5689 18.2481L15.9448 17.8321ZM17.599 19.25H6.40002V20.75H17.599V19.25ZM19.8321 16.395L12.6085 6.34488L11.3905 7.22034L18.614 17.2705L19.8321 16.395ZM12.6085 6.34488L10.6085 3.56227L9.39051 4.43773L11.3905 7.22034L12.6085 6.34488ZM5.38501 17.2705L12.6085 7.22034L11.3905 6.34488L4.16698 16.395L5.38501 17.2705ZM12.6085 7.22034L14.6085 4.43773L13.3905 3.56227L11.3905 6.34488L12.6085 7.22034ZM6.40002 19.25C5.38162 19.25 4.79063 18.0974 5.38501 17.2705L4.16698 16.395C2.85935 18.2143 4.15954 20.75 6.40002 20.75V19.25ZM17.599 20.75C19.8395 20.75 21.1397 18.2143 19.8321 16.395L18.614 17.2705C19.2084 18.0974 18.6174 19.25 17.599 19.25V20.75ZM11.2495 7L11.2495 20H12.7495L12.7495 7H11.2495ZM11.5835 14.624L15.2514 17.0693L16.0835 15.8213L12.4155 13.376L11.5835 14.624ZM15.3208 17.416L13.8755 19.584L15.1236 20.416L16.5689 18.2481L15.3208 17.416ZM15.2514 17.0693C15.3663 17.1459 15.3974 17.3011 15.3208 17.416L16.5689 18.2481C17.105 17.4439 16.8877 16.3574 16.0835 15.8213L15.2514 17.0693Z" fill="black"/>
</svg>
