<svg width="24" height="24" viewBox="0 0 24 24" fill="none" xmlns="http://www.w3.org/2000/svg">
<path d="M8.49988 6.5L8.74989 4C8.74989 4 11.9031 5.125 13.9999 5.125C16.0967 5.125 19.2499 4 19.2499 4L19.6625 8.95183C19.7864 10.4384 19.3524 11.8798 18.4999 13.028M11.9999 14C11.9999 15.1046 11.1045 16 9.99989 16C8.89532 16 7.99989 15.1046 7.99989 14M4.74989 8L4.33723 12.9518C4.13349 15.3968 5.43881 17.7195 7.63322 18.8167L8.65824 19.3292C9.50283 19.7515 10.4969 19.7515 11.3415 19.3292L12.3665 18.8167C14.561 17.7195 15.8663 15.3968 15.6625 12.9518L15.2499 8C15.2499 8 12.0967 9.125 9.99989 9.125C7.90309 9.125 4.74989 8 4.74989 8Z" stroke="black" stroke-width="1.5" stroke-linecap="round" stroke-linejoin="round"/>
</svg>
