<svg width="24" height="24" viewBox="0 0 24 24" fill="none" xmlns="http://www.w3.org/2000/svg">
<path d="M12 4H6C4.89543 4 4 4.89543 4 6V9M12 4H18C19.1046 4 20 4.89543 20 6V9M12 4C10 8 6 10 4 9M12 4C14 8 18 10 20 9M4 9V13M4 9C5.24028 9.37819 6.89275 10.3285 7.19156 12.5M20 9V12M20 9C18.7597 9.37819 17.1073 10.3285 16.8084 12.5M12 20H20V17C20 15.8954 19.1046 15 18 15H14C12.8954 15 12 15.8954 12 17M12 20V17M12 20H4V17C4 15.8954 4.89543 15 6 15H10C11.1046 15 12 15.8954 12 17" stroke="black" stroke-width="1.5" stroke-linecap="round" stroke-linejoin="round"/>
</svg>
