<svg width="24" height="24" viewBox="0 0 24 24" fill="none" xmlns="http://www.w3.org/2000/svg">
<path d="M10.875 11.6916L12.3169 13.1351M5.82841 15.3004L4.18363 18.0456C3.87941 18.5534 3.95937 19.2033 4.37758 19.622C4.80441 20.0493 5.47026 20.1228 5.97989 19.799L8.63606 18.1112M10.5361 17.2744L9.36954 17.8584C8.97702 18.0549 8.50294 17.9779 8.19262 17.6672L6.34809 15.8206C6.03777 15.5099 5.96084 15.0353 6.1571 14.6424L6.74039 13.4745C8.04642 10.8595 9.76501 8.47242 11.83 6.4051L13.0379 5.19584C14.6306 3.60139 17.2129 3.60139 18.8055 5.19584C20.3982 6.7903 20.3982 9.37542 18.8055 10.9699L17.5976 12.1791C15.5326 14.2465 13.1482 15.967 10.5361 17.2744ZM17.0914 8.4437C17.0914 9.28882 16.4063 9.97392 15.5612 9.97392C14.7161 9.97392 14.031 9.28882 14.031 8.4437C14.031 7.59859 14.7161 6.91348 15.5612 6.91348C16.4063 6.91348 17.0914 7.59859 17.0914 8.4437Z" stroke="black" stroke-width="1.5" stroke-linecap="round" stroke-linejoin="round"/>
</svg>
