<svg width="24" height="24" viewBox="0 0 24 24" fill="none" xmlns="http://www.w3.org/2000/svg">
<path d="M13 4.0708C16.0657 4.50931 18.4906 6.93422 18.9291 9.99991M13 7.12598C14.4056 7.48775 15.5122 8.59435 15.874 9.99996M13 10H13.01M7.99999 16H8.00999M9.99999 12.5548V6C9.99999 4.89543 9.10456 4 7.99999 4C6.89542 4 5.99999 4.89543 5.99999 6V12.5548C4.54653 13.4007 3.66107 15.115 4.12304 17.0037C4.46887 18.4177 5.62303 19.5591 7.04089 19.8885C9.66646 20.4985 12 18.5217 12 16C12 14.5232 11.1906 13.2477 9.99999 12.5548Z" stroke="black" stroke-width="1.5" stroke-linecap="round" stroke-linejoin="round"/>
</svg>
