<svg width="24" height="24" viewBox="0 0 24 24" fill="none" xmlns="http://www.w3.org/2000/svg">
<path d="M11.3559 8.90849C11.5393 8.53687 12.0692 8.53687 12.2526 8.90849L12.8635 10.1462C12.9363 10.2938 13.0771 10.3961 13.2399 10.4198L14.6059 10.6182C15.016 10.6778 15.1797 11.1818 14.883 11.4711L13.8946 12.4346C13.7767 12.5494 13.723 12.7149 13.7508 12.8771L13.9841 14.2375C14.0542 14.646 13.6254 14.9575 13.2586 14.7646L12.0369 14.1223C11.8912 14.0457 11.7172 14.0457 11.5716 14.1223L10.3498 14.7646C9.98301 14.9575 9.55429 14.646 9.62435 14.2375L9.85768 12.8771C9.8855 12.7149 9.83173 12.5494 9.71388 12.4346L8.72548 11.4711C8.42872 11.1818 8.59248 10.6778 9.00259 10.6182L10.3685 10.4198C10.5314 10.3961 10.6722 10.2938 10.745 10.1462L11.3559 8.90849Z" stroke="black" stroke-width="1.5" stroke-linejoin="round"/>
<path d="M6 6C4.89543 6 4 6.89543 4 8V16C4 17.1046 4.89543 18 6 18H18C19.1046 18 20 17.1046 20 16V14C18.8954 14 18 13.1046 18 12C18 10.8954 18.8954 10 20 10V8C20 6.89543 19.1046 6 18 6H6Z" stroke="black" stroke-width="1.5" stroke-linejoin="round"/>
</svg>
