<svg width="24" height="24" viewBox="0 0 24 24" fill="none" xmlns="http://www.w3.org/2000/svg">
<path d="M5.75793 6.99656C5.75793 6.99656 6.44715 8.89985 7.87343 8.75515C9.29971 8.61045 10.0852 8.38308 10.54 9.8507C10.9947 11.3183 12.9584 11.215 13.0618 9.64399C13.1651 8.07301 13.4752 8.011 14.6534 7.78362C15.8317 7.55624 16.7769 6.58006 16.6453 5.48684M4.13203 12.9927C4.13203 12.9927 6 12 7 13C8 14 8.80767 14.0187 9 15C9.3824 16.9511 8.17316 18.8942 8.17316 18.8942M16 15V16L17 17M9.99987 19.7479C6.54948 18.8598 4 15.7276 4 12C4 7.58172 7.58172 4 12 4C15.7276 4 18.8598 6.54946 19.7479 9.99983M20 16C20 18.2091 18.2091 20 16 20C13.7909 20 12 18.2091 12 16C12 13.7909 13.7909 12 16 12C18.2091 12 20 13.7909 20 16Z" stroke="black" stroke-width="1.5" stroke-linecap="round" stroke-linejoin="round"/>
</svg>
