<svg width="24" height="24" viewBox="0 0 24 24" fill="none" xmlns="http://www.w3.org/2000/svg">
<path d="M12.0354 5.53473L11.5847 6.13421C11.8517 6.33491 12.2191 6.33491 12.4861 6.13421L12.0354 5.53473ZM18.5709 5.99999L18.0406 6.53032L18.5709 5.99999ZM18.5709 14.0711L19.1416 14.5577V14.5577L18.5709 14.0711ZM5.49987 14.0711L4.92088 14.5478L5.49987 14.0711ZM5.49987 5.99999L4.96954 5.46966L5.49987 5.99999ZM14.6167 18.0946L14.1018 17.5493L14.6167 18.0946ZM9.38754 18.0897L9.90432 17.5462L9.38754 18.0897ZM13.4998 10.25C13.9141 10.25 14.2498 9.9142 14.2498 9.49999C14.2498 9.08577 13.9141 8.74999 13.4998 8.74999V10.25ZM10.4998 13.75C10.0856 13.75 9.74984 14.0858 9.74984 14.5C9.74984 14.9142 10.0856 15.25 10.4998 15.25V13.75ZM12.7498 8.49999C12.7498 8.08577 12.4141 7.74999 11.9998 7.74999C11.5856 7.74999 11.2498 8.08577 11.2498 8.49999H12.7498ZM11.2498 8.99999C11.2498 9.4142 11.5856 9.74999 11.9998 9.74999C12.4141 9.74999 12.7498 9.4142 12.7498 8.99999H11.2498ZM12.7498 15C12.7498 14.5858 12.4141 14.25 11.9998 14.25C11.5856 14.25 11.2498 14.5858 11.2498 15H12.7498ZM11.2498 15.5C11.2498 15.9142 11.5856 16.25 11.9998 16.25C12.4141 16.25 12.7498 15.9142 12.7498 15.5H11.2498ZM12.4861 6.13421C14.1504 4.88294 16.5257 5.01543 18.0406 6.53032L19.1013 5.46966C17.0506 3.41903 13.8378 3.24135 11.5847 4.93525L12.4861 6.13421ZM18.0406 6.53032C19.6886 8.17831 19.8441 11.422 18.0002 13.5844L19.1416 14.5577C21.4399 11.8622 21.3585 7.72691 19.1013 5.46966L18.0406 6.53032ZM18.0002 13.5844C17.0203 14.7337 15.4617 16.2651 14.1018 17.5493L15.1316 18.6399C16.4928 17.3546 18.1041 15.7745 19.1416 14.5577L18.0002 13.5844ZM9.90432 17.5462C8.55444 16.2628 7.01981 14.7371 6.07885 13.5943L4.92088 14.5478C5.92571 15.7681 7.52005 17.3491 8.87076 18.6333L9.90432 17.5462ZM6.07885 13.5943C4.28544 11.4163 4.39188 8.16864 6.0302 6.53032L4.96954 5.46966C2.70261 7.73658 2.71429 11.8679 4.92088 14.5478L6.07885 13.5943ZM6.0302 6.53032C7.54509 5.01543 9.92037 4.88294 11.5847 6.13421L12.4861 4.93525C10.233 3.24135 7.02016 3.41903 4.96954 5.46966L6.0302 6.53032ZM14.1018 17.5493C12.9161 18.6688 11.084 18.6677 9.90432 17.5462L8.87076 18.6333C10.6302 20.3061 13.3686 20.3046 15.1316 18.6399L14.1018 17.5493ZM11.2498 10.25H13.4998V8.74999H11.2498V10.25ZM12.7498 11.25H11.2498V12.75H12.7498V11.25ZM12.7498 13.75H10.4998V15.25H12.7498V13.75ZM13.2498 13.25C13.2498 13.5261 13.026 13.75 12.7498 13.75V15.25C13.8544 15.25 14.7498 14.3546 14.7498 13.25H13.2498ZM11.2498 11.25C10.9737 11.25 10.7498 11.0261 10.7498 10.75H9.24984C9.24984 11.8546 10.1453 12.75 11.2498 12.75V11.25ZM12.7498 12.75C13.026 12.75 13.2498 12.9738 13.2498 13.25H14.7498C14.7498 12.1454 13.8544 11.25 12.7498 11.25V12.75ZM11.2498 8.74999C10.1453 8.74999 9.24984 9.64542 9.24984 10.75H10.7498C10.7498 10.4738 10.9737 10.25 11.2498 10.25V8.74999ZM11.2498 8.49999V8.99999H12.7498V8.49999H11.2498ZM11.2498 15V15.5H12.7498V15H11.2498Z" fill="black"/>
</svg>
