<svg width="24" height="24" viewBox="0 0 24 24" fill="none" xmlns="http://www.w3.org/2000/svg">
<path d="M8 10H7C6.44772 10 6 9.55228 6 9V5C6 4.44772 6.44772 4 7 4H17C17.5523 4 18 4.44772 18 5V9C18 9.55228 17.5523 10 17 10H16M7 13H17M16 13C16 15.2091 14.2091 17 12 17C9.79086 17 8 15.2091 8 13M9.59967 13.0001C8.6283 12.0878 8 10.6356 8 9C8 6.23858 9.79086 4 12 4C14.2091 4 16 6.23858 16 9C16 10.6357 15.3717 12.0879 14.4003 13.0001M9 16L7 20M15 16L17 20M6 20H18" stroke="black" stroke-width="1.5" stroke-linecap="round" stroke-linejoin="round"/>
</svg>
