<svg width="24" height="24" viewBox="0 0 24 24" fill="none" xmlns="http://www.w3.org/2000/svg">
<path d="M17.3292 20.3354C17.5144 20.7059 17.9649 20.8561 18.3354 20.6708C18.7059 20.4856 18.8561 20.0351 18.6708 19.6646L17.3292 20.3354ZM5.32918 19.6646C5.14394 20.0351 5.29411 20.4856 5.66459 20.6708C6.03507 20.8561 6.48558 20.7059 6.67082 20.3354L5.32918 19.6646ZM14 19.75C14.4142 19.75 14.75 19.4142 14.75 19C14.75 18.5858 14.4142 18.25 14 18.25V19.75ZM11.25 13C11.25 13.4142 11.5858 13.75 12 13.75C12.4142 13.75 12.75 13.4142 12.75 13H11.25ZM10 4.75H14V3.25H10V4.75ZM17.25 8V14H18.75V8H17.25ZM16 15.25H8V16.75H16V15.25ZM6.75 14V8H5.25V14H6.75ZM8 15.25C7.30964 15.25 6.75 14.6904 6.75 14H5.25C5.25 15.5188 6.48122 16.75 8 16.75V15.25ZM17.25 14C17.25 14.6904 16.6904 15.25 16 15.25V16.75C17.5188 16.75 18.75 15.5188 18.75 14H17.25ZM14 4.75C15.7949 4.75 17.25 6.20507 17.25 8H18.75C18.75 5.37665 16.6234 3.25 14 3.25V4.75ZM10 3.25C7.37665 3.25 5.25 5.37665 5.25 8H6.75C6.75 6.20507 8.20507 4.75 10 4.75V3.25ZM15.3292 16.3354L17.3292 20.3354L18.6708 19.6646L16.6708 15.6646L15.3292 16.3354ZM7.32918 15.6646L5.32918 19.6646L6.67082 20.3354L8.67082 16.3354L7.32918 15.6646ZM10 19.75H14V18.25H10V19.75ZM11.25 7V13H12.75V7H11.25ZM6 7.75H18V6.25H6V7.75ZM18 12.25H6V13.75H18V12.25Z" fill="black"/>
</svg>
