<svg width="24" height="24" viewBox="0 0 24 24" fill="none" xmlns="http://www.w3.org/2000/svg">
<path d="M11.25 15C11.25 15.4142 11.5858 15.75 12 15.75C12.4142 15.75 12.75 15.4142 12.75 15H11.25ZM16.3292 20.3354C16.5144 20.7059 16.9649 20.8561 17.3354 20.6708C17.7059 20.4856 17.8561 20.0351 17.6708 19.6646L16.3292 20.3354ZM6.32918 19.6646C6.14394 20.0351 6.29411 20.4856 6.66459 20.6708C7.03507 20.8561 7.48558 20.7059 7.67082 20.3354L6.32918 19.6646ZM11.25 7C11.25 7.41421 11.5858 7.75 12 7.75C12.4142 7.75 12.75 7.41421 12.75 7H11.25ZM15.1459 4V4.75V4ZM8.8541 4V3.25V4ZM17.8292 5.65836L18.5 5.32295V5.32295L17.8292 5.65836ZM17.3292 6.33541C17.5144 6.70589 17.9649 6.85606 18.3354 6.67082C18.7059 6.48558 18.8561 6.03507 18.6708 5.66459L17.3292 6.33541ZM5.32918 5.66459C5.14394 6.03507 5.29411 6.48558 5.66459 6.67082C6.03507 6.85606 6.48558 6.70589 6.67082 6.33541L5.32918 5.66459ZM6.17082 5.65836L5.5 5.32295L5.5 5.32295L6.17082 5.65836ZM10 7.75H14V6.25H10V7.75ZM17.25 11V16H18.75V11H17.25ZM16 17.25H8V18.75H16V17.25ZM6.75 16V11H5.25V16H6.75ZM8 17.25C7.30964 17.25 6.75 16.6904 6.75 16H5.25C5.25 17.5188 6.48122 18.75 8 18.75V17.25ZM17.25 16C17.25 16.6904 16.6904 17.25 16 17.25V18.75C17.5188 18.75 18.75 17.5188 18.75 16H17.25ZM14 7.75C15.7949 7.75 17.25 9.20508 17.25 11H18.75C18.75 8.37665 16.6234 6.25 14 6.25V7.75ZM10 6.25C7.37665 6.25 5.25 8.37665 5.25 11H6.75C6.75 9.20508 8.20507 7.75 10 7.75V6.25ZM11.25 10V15H12.75V10H11.25ZM15.3292 18.3354L16.3292 20.3354L17.6708 19.6646L16.6708 17.6646L15.3292 18.3354ZM7.32918 17.6646L6.32918 19.6646L7.67082 20.3354L8.67082 18.3354L7.32918 17.6646ZM11.25 4V7H12.75V4H11.25ZM15.1459 3.25L8.8541 3.25V4.75L15.1459 4.75V3.25ZM17.1584 5.99377L17.3292 6.33541L18.6708 5.66459L18.5 5.32295L17.1584 5.99377ZM6.67082 6.33541L6.84164 5.99377L5.5 5.32295L5.32918 5.66459L6.67082 6.33541ZM8.8541 3.25C7.43371 3.25 6.13522 4.05251 5.5 5.32295L6.84164 5.99377C7.22277 5.2315 8.00186 4.75 8.8541 4.75V3.25ZM15.1459 4.75C15.9981 4.75 16.7772 5.23151 17.1584 5.99377L18.5 5.32295C17.8648 4.05251 16.5663 3.25 15.1459 3.25V4.75ZM6 10.75H18V9.25H6V10.75ZM18 14.25H6V15.75H18V14.25Z" fill="black"/>
</svg>
