<svg width="24" height="24" viewBox="0 0 24 24" fill="none" xmlns="http://www.w3.org/2000/svg">
<path d="M17 16.5C17 16.7761 16.7761 17 16.5 17C16.2239 17 16 16.7761 16 16.5C16 16.2239 16.2239 16 16.5 16C16.7761 16 17 16.2239 17 16.5Z" fill="black"/>
<path d="M16.75 6.15C16.75 6.15 19.75 8.75 19.75 14.75M13.75 6.75L18.75 5.75L19.75 3.75M17.3814 13.1941L5.53305 15.4157C4.49919 15.6095 3.75 16.5122 3.75 17.5641C3.75 18.7713 4.72865 19.75 5.93588 19.75H17.5641C18.7714 19.75 19.75 18.7713 19.75 17.5641V15.1598C19.75 13.9076 18.6123 12.9633 17.3814 13.1941ZM17 16.5C17 16.7761 16.7761 17 16.5 17C16.2239 17 16 16.7761 16 16.5C16 16.2239 16.2239 16 16.5 16C16.7761 16 17 16.2239 17 16.5Z" stroke="black" stroke-width="1.5" stroke-linecap="round" stroke-linejoin="round"/>
</svg>
