<svg width="24" height="24" viewBox="0 0 24 24" fill="none" xmlns="http://www.w3.org/2000/svg">
<path d="M10.2222 8.55556C10.2222 8.00327 9.77451 7.55556 9.22222 7.55556H8.55556C8.00327 7.55556 7.55556 8.00327 7.55556 8.55556V14.5556C7.55556 15.1078 8.00327 15.5556 8.55556 15.5556H9.22222C9.77451 15.5556 10.2222 15.1078 10.2222 14.5556V8.55556Z" stroke="black" stroke-width="1.5"/>
<path d="M16.4444 8.55556C16.4444 8.00327 15.9967 7.55556 15.4444 7.55556H14.7778C14.2255 7.55556 13.7778 8.00327 13.7778 8.55556V12C13.7778 12.5523 14.2255 13 14.7778 13H15.4444C15.9967 13 16.4444 12.5523 16.4444 12V8.55556Z" stroke="black" stroke-width="1.5"/>
<path d="M7 20C5.34314 20 4 18.6569 4 17L4.00001 7C4.00001 5.34315 5.34315 4 7.00001 4H17C18.6569 4 20 5.34315 20 7V17C20 18.6569 18.6569 20 17 20H7Z" stroke="black" stroke-width="1.5"/>
</svg>
