<svg width="24" height="24" viewBox="0 0 24 24" fill="none" xmlns="http://www.w3.org/2000/svg">
<path d="M19.9438 6.35711C20.1732 5.91254 19.6553 5.52132 19.204 5.73718C18.8078 5.92667 18.397 6.08579 17.9752 6.21282C17.5009 5.66747 16.8705 5.28095 16.1694 5.10551C15.4683 4.93008 14.7302 4.97421 14.055 5.23193C13.3797 5.48965 12.7999 5.94853 12.394 6.54651C11.9881 7.14448 11.7756 7.8527 11.7853 8.57538V8.83534C11.7853 9.12889 11.5511 9.37083 11.2578 9.36C10.0545 9.31556 8.87259 9.01264 7.79334 8.46942C6.84227 7.99071 5.9936 7.33682 5.29043 6.54497C5.01101 6.2303 4.50115 6.29393 4.38524 6.69848C3.84149 8.59638 3.17829 13.0347 7.75945 15.5963C8.13011 15.8035 8.17635 16.3366 7.80166 16.5365C6.77059 17.0866 5.64468 17.4339 4.48533 17.5609C4.14522 17.5982 4.0346 18.0733 4.34991 18.2061C11.1711 21.0796 18.8729 17.0912 18.8729 8.55175C18.8722 8.33239 18.8511 8.11357 18.8099 7.89811C19.269 7.44538 19.6509 6.92475 19.9438 6.35711Z" stroke="black" stroke-width="1.5" stroke-linecap="round" stroke-linejoin="round"/>
</svg>
