<svg width="24" height="24" viewBox="0 0 24 24" fill="none" xmlns="http://www.w3.org/2000/svg">
<path d="M17.4991 9.16666V11.6667M17.4991 11.6667V14.1667M17.4991 11.6667H19.9991M17.4991 11.6667H14.9991M13.699 7.83333C13.699 9.67428 12.2067 11.1667 10.3657 11.1667C8.52476 11.1667 7.03238 9.67428 7.03238 7.83333C7.03238 5.99238 8.52476 4.5 10.3657 4.5C12.2067 4.5 13.699 5.99238 13.699 7.83333ZM10.2615 14.8125C13.447 14.8125 15.4298 16.2075 16.3735 17.1016C16.8121 17.5171 16.8445 18.1673 16.5483 18.6938C16.2682 19.1918 15.7413 19.5 15.1699 19.5H5.58748C5.00006 19.5 4.45832 19.1832 4.17033 18.6712C3.87964 18.1544 3.89541 17.5184 4.31226 17.0967C5.19631 16.2025 7.08186 14.8125 10.2615 14.8125Z" stroke="black" stroke-width="1.5" stroke-linecap="round" stroke-linejoin="round"/>
</svg>
