<svg width="24" height="24" viewBox="0 0 24 24" fill="none" xmlns="http://www.w3.org/2000/svg">
<path d="M12.5 11.5C12.5 11.7761 12.2762 12 12 12C11.7239 12 11.5 11.7761 11.5 11.5C11.5 11.2238 11.7239 11 12 11C12.2762 11 12.5 11.2238 12.5 11.5Z" fill="black"/>
<path d="M7.00001 20H17M6.71068 7.3553L5.78887 6.8944C5.05182 6.52587 4.21037 7.15696 4.35778 7.96771L5.55213 14.5366C5.81149 15.9631 7.05388 17 8.50374 17H15.4963C16.9461 17 18.1885 15.9631 18.4479 14.5366L19.6422 7.96771C19.7897 7.15696 18.9482 6.52587 18.2112 6.8944L17.2893 7.3553C16.5194 7.74029 15.5894 7.58939 14.9807 6.98067L12.7071 4.70708C12.3166 4.31655 11.6834 4.31655 11.2929 4.70708L9.01932 6.98066C8.4106 7.58938 7.48066 7.74029 6.71068 7.3553ZM12.5 11.5C12.5 11.7761 12.2762 12 12 12C11.7239 12 11.5 11.7761 11.5 11.5C11.5 11.2238 11.7239 11 12 11C12.2762 11 12.5 11.2238 12.5 11.5Z" stroke="black" stroke-width="1.5" stroke-linecap="round" stroke-linejoin="round"/>
</svg>
