<svg width="24" height="24" viewBox="0 0 24 24" fill="none" xmlns="http://www.w3.org/2000/svg">
<path d="M18.2387 12C18.2387 12.6514 17.7428 13.2166 17.552 13.8043C17.3542 14.4134 17.4163 15.1606 17.0473 15.6675C16.6747 16.1795 15.9423 16.3495 15.4303 16.7222C14.9234 17.0911 14.5374 17.7372 13.9284 17.9349C13.3407 18.1257 12.6513 17.8362 11.9999 17.8362M18.2387 12C18.2387 11.3487 17.7429 10.7836 17.552 10.1959C17.3543 9.58687 17.4165 8.83973 17.0476 8.33279C16.675 7.82076 15.9426 7.6507 15.4306 7.27805C14.9237 6.90908 14.5377 6.26298 13.9286 6.06518C13.3409 5.87429 12.6514 6.16378 11.9999 6.16378M18.2387 12H20M11.9999 17.8362C11.3485 17.8362 10.659 18.1257 10.0713 17.9348C9.46221 17.737 9.0762 17.0909 8.56925 16.7219C8.05725 16.3493 7.32493 16.1792 6.95232 15.6672C6.5834 15.1603 6.64561 14.4131 6.44786 13.8041C6.25703 13.2164 5.76123 12.6513 5.76123 12M11.9999 17.8362L12 20M5.76123 12C5.76123 11.3486 6.25705 10.7834 6.44794 10.1956C6.64574 9.58659 6.58359 8.8394 6.95257 8.33245C7.32522 7.82045 8.05755 7.65044 8.56958 7.27782C9.07652 6.9089 9.46252 6.26284 10.0715 6.06509C10.6592 5.87426 11.3486 6.16378 11.9999 6.16378M5.76123 12L4 12M11.9999 6.16378L12 4M16.262 7.73801L17.6568 6.34315M16.2621 16.2621L17.6568 17.6568M7.73799 16.262L6.34314 17.6568M7.73788 7.73789L6.34314 6.34315M14.5 14C14.5 14.2761 14.2761 14.5 14 14.5C13.7239 14.5 13.5 14.2761 13.5 14C13.5 13.7239 13.7239 13.5 14 13.5C14.2761 13.5 14.5 13.7239 14.5 14ZM12.4422 10.7211C12.4422 11.6717 11.6717 12.4422 10.7211 12.4422C9.77057 12.4422 9 11.6717 9 10.7211C9 9.77057 9.77057 9 10.7211 9C11.6717 9 12.4422 9.77057 12.4422 10.7211Z" stroke="black" stroke-width="1.5" stroke-linecap="round" stroke-linejoin="round"/>
</svg>
