<svg width="24" height="24" viewBox="0 0 24 24" fill="none" xmlns="http://www.w3.org/2000/svg">
<path d="M11.9846 11.5L11.2361 11.4538L11.9846 11.5ZM6.80613 7.0928C6.85738 6.68177 6.56573 6.30702 6.1547 6.25576C5.74367 6.20451 5.36891 6.49616 5.31766 6.9072L6.80613 7.0928ZM12.5 11.6153L12.0776 12.2351C12.2486 12.3516 12.4601 12.3923 12.6622 12.3476L12.5 11.6153ZM19.25 12C19.25 16.0041 16.0041 19.25 12 19.25V20.75C16.8325 20.75 20.75 16.8325 20.75 12H19.25ZM12 19.25C7.99594 19.25 4.75 16.0041 4.75 12H3.25C3.25 16.8325 7.16751 20.75 12 20.75V19.25ZM4.75 12C4.75 7.99594 7.99594 4.75 12 4.75V3.25C7.16751 3.25 3.25 7.16751 3.25 12H4.75ZM12 4.75C16.0041 4.75 19.25 7.99594 19.25 12H20.75C20.75 7.16751 16.8325 3.25 12 3.25V4.75ZM15.2361 11.5462C15.2453 11.6962 15.25 11.8475 15.25 12H16.75C16.75 11.8167 16.7444 11.6346 16.7332 11.4538L15.2361 11.5462ZM15.25 12C15.25 15.3772 12.9402 18.2168 9.81306 19.0216L10.1869 20.4743C13.9607 19.503 16.75 16.0782 16.75 12H15.25ZM11.25 11C11.25 11.1525 11.2453 11.3038 11.2361 11.4538L12.7332 11.5462C12.7444 11.3654 12.75 11.1833 12.75 11H11.25ZM11.2361 11.4538C11.0607 14.298 9.24385 16.7011 6.71859 17.7233L7.28141 19.1137C10.3265 17.8811 12.5212 14.9834 12.7332 11.5462L11.2361 11.4538ZM15 7.75C16.3574 7.75 17.6256 8.12235 18.7105 8.77005L19.4795 7.48212C18.1685 6.69949 16.6356 6.25 15 6.25V7.75ZM10.4691 9.33982C11.7104 8.34472 13.2847 7.75 15 7.75V6.25C12.9315 6.25 11.0288 6.96872 9.5309 8.16944L10.4691 9.33982ZM10.8285 14.5216C8.41229 13.3441 6.75 10.8655 6.75 8H5.25C5.25 11.4608 7.25923 14.4508 10.1715 15.87L10.8285 14.5216ZM6.75 8C6.75 7.69244 6.76911 7.38969 6.80613 7.0928L5.31766 6.9072C5.27298 7.2655 5.25 7.63024 5.25 8H6.75ZM12.9224 10.9956C11.0058 9.68932 9.75 7.49121 9.75 5H8.25C8.25 8.00814 9.76863 10.6614 12.0776 12.2351L12.9224 10.9956ZM12.6622 12.3476C14.2349 11.9993 15.2783 11.9847 16.1668 12.2412C17.0609 12.4994 17.8932 13.0584 18.997 14.0564L20.003 12.9436C18.8466 11.8982 17.8088 11.154 16.5829 10.8001C15.3514 10.4446 14.0251 10.5094 12.3378 10.8831L12.6622 12.3476Z" fill="black"/>
</svg>
