<svg width="24" height="24" viewBox="0 0 24 24" fill="none" xmlns="http://www.w3.org/2000/svg">
<path d="M17.5391 8.45995C18.4764 9.39759 19.003 10.6691 19.003 11.9949C19.003 13.3208 18.4764 14.5923 17.5391 15.5299M11.3753 17.7002L8.41087 15.3287C8.1449 15.1159 7.81444 15 7.47383 15H6C4.89543 15 4 14.1046 4 13V11C4 9.89542 4.89543 8.99999 6 8.99999H7.47383C7.81444 8.99999 8.1449 8.88407 8.41087 8.67129L11.3753 6.29974C12.0301 5.77593 13 6.24211 13 7.08061V16.9194C13 17.7579 12.0301 18.224 11.3753 17.7002Z" stroke="black" stroke-width="1.5" stroke-linecap="round" stroke-linejoin="round"/>
</svg>
