<svg width="24" height="24" viewBox="0 0 24 24" fill="none" xmlns="http://www.w3.org/2000/svg">
<path d="M14.606 15.8354C13.6668 15.4757 13 14.5657 13 13.5C13 12.4645 13.6296 11.576 14.5269 11.1965M15 4V5C15 6.10457 15.8954 7 17 7H19M8 7H8.01M11 7H11.01M7 4H17C18.1046 4 19 4.89543 19 6V18C19 19.1046 18.1046 20 17 20H7C5.89543 20 5 19.1046 5 18V6C5 4.89543 5.89543 4 7 4ZM15.5 13.5C15.5 15.433 13.933 17 12 17C10.067 17 8.5 15.433 8.5 13.5C8.5 11.567 10.067 10 12 10C13.933 10 15.5 11.567 15.5 13.5Z" stroke="black" stroke-width="1.5" stroke-linecap="round" stroke-linejoin="round"/>
</svg>
