<svg width="24" height="24" viewBox="0 0 24 24" fill="none" xmlns="http://www.w3.org/2000/svg">
<path d="M11.5 7H12.8634C13.2831 7 13.6982 7.08809 14.0818 7.25857L15.2307 7.76918C16.533 8.34802 18 7.39468 18 5.96946V5.76777C18 4.79146 17.2085 4 16.2322 4C15.7634 4 15.3138 4.18625 14.9822 4.51777L14.5 5M14 14H6M6 12.7082V18C6 19.1046 6.89543 20 8 20H12C13.1046 20 14 19.1046 14 18V12.7082C14 12.2742 13.7548 11.8774 13.3666 11.6833C12.8035 11.4018 12.8035 10.5982 13.3666 10.3167C13.7548 10.1226 14 9.72583 14 9.2918V8.55678C14 7.697 13.303 7 12.4432 7H7.55678C6.697 7 6 7.697 6 8.55678V9.2918C6 9.72583 6.24522 10.1226 6.63344 10.3167C7.19649 10.5982 7.19649 11.4018 6.63344 11.6833C6.24522 11.8774 6 12.2742 6 12.7082ZM12 7V5C12 4.44772 11.5523 4 11 4H9C8.44772 4 8 4.44772 8 5V7H12Z" stroke="black" stroke-width="1.5" stroke-linecap="round" stroke-linejoin="round"/>
</svg>
