<svg width="24" height="24" viewBox="0 0 24 24" fill="none" xmlns="http://www.w3.org/2000/svg">
<path d="M4 11L5 14L6 12L7 14L8 11M10 11L11 14L12 12L13 14L14 11M16 11L17 14L18 12L19 14L20 11M5.07034 7.99983C6.4536 5.60872 9.03894 4 12 4M12 4C15.0122 4 17.6357 5.66482 19.0003 8.12453M12 4C10.5195 4 9.2268 5.60873 8.53517 7.99986M12 4C13.4805 4 14.7732 5.60876 15.4648 7.99992M18.2452 17.0002C16.7791 18.829 14.5263 20 12 20M12 20C9.47369 20 7.22092 18.829 5.75479 17.0002M12 20C13.2631 20 14.3895 18.829 15.1226 17.0002M12 20C10.7369 20 9.61046 18.829 8.8774 17.0002" stroke="black" stroke-width="1.5" stroke-linecap="round" stroke-linejoin="round"/>
</svg>
