<svg width="24" height="24" viewBox="0 0 24 24" fill="none" xmlns="http://www.w3.org/2000/svg">
<path d="M12 16C12 18.2091 10.2091 20 8 20C5.79086 20 4 18.2091 4 16C4 13.7909 5.79086 12 8 12M12 16C12 13.7909 10.2091 12 8 12M12 16H18M8 12V6C8 4.89543 7.10457 4 6 4H4M8 12H15C16.6568 12 18 13.3432 18 15V16M18 16C16.8954 16 16 16.8954 16 18C16 19.1046 16.8954 20 18 20C19.1046 20 20 19.1046 20 18C20 16.8954 19.1046 16 18 16ZM8 8H16M8.5 16C8.5 16.2761 8.27614 16.5 8 16.5C7.72386 16.5 7.5 16.2761 7.5 16C7.5 15.7239 7.72386 15.5 8 15.5C8.27614 15.5 8.5 15.7239 8.5 16Z" stroke="black" stroke-width="1.5" stroke-linecap="round" stroke-linejoin="round"/>
</svg>
