<svg width="24" height="24" viewBox="0 0 24 24" fill="none" xmlns="http://www.w3.org/2000/svg">
<path d="M8.60629 10.0896L19.2315 7.24262L20.0079 10.1404L14.6245 13.2806C14.6634 13.3933 14.6987 13.5082 14.73 13.6252C15.4447 16.2925 13.8618 19.0342 11.1945 19.7489C8.52715 20.4636 5.78546 18.8807 5.07075 16.2134C4.35604 13.546 5.93896 10.8043 8.60629 10.0896ZM8.60629 10.0896L5.22551 10.9955C4.42532 11.2099 3.60281 10.735 3.3884 9.93483C3.17398 9.13463 3.64886 8.31212 4.44906 8.09771L4.93202 7.9683M11.8259 3.37866L12.3436 5.31051M16.2073 4.27524L15.5002 5.49998M8.47987 6.34578L9.70462 7.05289M11.8322 14.4016C12.1181 15.4686 11.4849 16.5652 10.418 16.8511C9.35105 17.137 8.25437 16.5038 7.96849 15.4369C7.68261 14.37 8.31577 13.2733 9.3827 12.9874C10.4496 12.7015 11.5463 13.3347 11.8322 14.4016Z" stroke="black" stroke-width="1.5" stroke-linecap="round" stroke-linejoin="round"/>
</svg>
