<svg width="24" height="24" viewBox="0 0 24 24" fill="none" xmlns="http://www.w3.org/2000/svg">
<path d="M4 9H11.4982C12.8789 9 13.9982 7.88071 13.9982 6.5C13.9982 5.11929 12.8789 4 11.4982 4C10.1175 4 8.9982 5.11929 8.9982 6.5M4 15H9.497C10.8777 15 11.997 16.1193 11.997 17.5C11.997 18.8807 10.8777 20 9.497 20C8.11629 20 6.997 18.8807 6.997 17.5M7.0018 12H17.5C18.8807 12 20 13.1193 20 14.5C20 15.8807 18.8807 17 17.5 17C16.1193 17 15 15.8807 15 14.5" stroke="black" stroke-width="1.5" stroke-linecap="round" stroke-linejoin="round"/>
</svg>
