<svg width="24" height="24" viewBox="0 0 24 24" fill="none" xmlns="http://www.w3.org/2000/svg">
<path d="M12 20V15M16 20C16 18.8954 15.1046 18 14 18H10C8.89543 18 8 18.8954 8 20M8 12.6145V5C8 4.44772 8.44772 4 9 4H15C15.5523 4 16 4.44772 16 5V12.6138M4 8C4.64029 8.64029 5 9.50871 5 10.4142V13C5 14.1046 5.89543 15 7 15M7 15H17M7 15L7.54415 13.3675C7.81638 12.5509 8.58066 12 9.44152 12H14.5585C15.4193 12 16.1836 12.5509 16.4559 13.3675L17 15M17 15C18.1046 15 19 14.1046 19 13V10.4142C19 9.50871 19.3597 8.64029 20 8.00001" stroke="black" stroke-width="1.5" stroke-linecap="round" stroke-linejoin="round"/>
</svg>
