<svg width="24" height="24" viewBox="0 0 24 24" fill="none" xmlns="http://www.w3.org/2000/svg">
<path d="M4 12H20M5 12V20M8 9V12M12 16H19M15.5355 5.46447C14.755 4.68395 13.4876 4.68395 12.7071 5.46447L12 6.17158L14.8284 9.00001L15.5355 8.2929C16.3161 7.51238 16.3161 6.245 15.5355 5.46447ZM15.5355 5.46447L16.2929 4.70711C16.6834 4.31659 17.3166 4.31659 17.7071 4.70711L19.4479 6.44791C19.7724 6.77238 19.8344 7.27604 19.5983 7.66951L17 12M12 12H19V20H13C12.4481 20 12 19.5519 12 19V12ZM5 4H11C11.5523 4 12 4.44772 12 5V8C12 8.55228 11.5523 9 11 9H5C4.44772 9 4 8.55228 4 8V5C4 4.44772 4.44772 4 5 4Z" stroke="black" stroke-width="1.5" stroke-linecap="round" stroke-linejoin="round"/>
</svg>
