<svg width="24" height="24" viewBox="0 0 24 24" fill="none" xmlns="http://www.w3.org/2000/svg">
<path d="M15 8.00061C15 9.10518 13.6568 10.0006 12 10.0006C10.3432 10.0006 9 9.10518 9 8.00061M16 11.0006C16 12.1052 14.2091 13.0006 12 13.0006C9.79086 13.0006 8 12.1052 8 11.0006M17 14.0006C17 15.1052 14.7614 16.0006 12 16.0006C9.23858 16.0006 7 15.1052 7 14.0006M12 8V17M7 4H17C18.6569 4 20 5.34315 20 7V17C20 18.6569 18.6569 20 17 20H7C5.34315 20 4 18.6569 4 17V7C4 5.34315 5.34315 4 7 4Z" stroke="black" stroke-width="1.5" stroke-linecap="round" stroke-linejoin="round"/>
</svg>
