<svg width="24" height="24" viewBox="0 0 24 24" fill="none" xmlns="http://www.w3.org/2000/svg">
<path d="M6.86816 14.5C6.86816 15.3285 7.53973 16 8.36816 16C9.19659 16 9.86816 15.3285 9.86816 14.5C9.86816 13.1193 8.74887 12 7.36816 12C5.43516 12 3.86816 13.567 3.86816 15.5C3.86816 17.433 5.43516 19 7.36816 19H14.7644C15.5219 19 16.2145 18.572 16.5533 17.8945L19.7769 11.4473C20.1093 10.7824 19.6258 10 18.8824 10H12.5657M4.2831 13.8007L7.0005 7.00006C7.59001 5.45163 9.32315 4.67427 10.8716 5.26378C12.42 5.85329 13.1974 7.58643 12.6079 9.13487L9.61529 15.2973" stroke="black" stroke-width="1.5" stroke-linecap="round" stroke-linejoin="round"/>
</svg>
